<svg width="24" height="24" viewBox="0 0 24 24" fill="none" xmlns="http://www.w3.org/2000/svg">
<path fill-rule="evenodd" clip-rule="evenodd" d="M17.6997 12C17.6997 12.4142 17.364 12.75 16.9497 12.75H12.75V16.9497C12.75 17.364 12.4142 17.6997 12 17.6997C11.5858 17.6997 11.25 17.364 11.25 16.9497V12.75H7.05025C6.63604 12.75 6.30025 12.4142 6.30025 12C6.30025 11.5858 6.63604 11.25 7.05025 11.25H11.25V7.05025C11.25 6.63604 11.5858 6.30025 12 6.30025C12.4142 6.30025 12.75 6.63604 12.75 7.05025V11.25H16.9497C17.364 11.25 17.6997 11.5858 17.6997 12ZM5.98959 18.0104C9.30905 21.3299 14.691 21.3299 18.0104 18.0104C21.3299 14.691 21.3299 9.30905 18.0104 5.98959C14.691 2.67014 9.30905 2.67014 5.98959 5.98959C2.67014 9.30905 2.67014 14.691 5.98959 18.0104ZM4.92893 19.0711C8.83418 22.9763 15.1658 22.9763 19.0711 19.0711C22.9763 15.1658 22.9763 8.83418 19.0711 4.92893C15.1658 1.02369 8.83418 1.02369 4.92893 4.92893C1.02369 8.83418 1.02369 15.1658 4.92893 19.0711Z" fill="#F2F6F9"/>
</svg>
