<svg width="24" height="24" viewBox="0 0 24 24" fill="none" xmlns="http://www.w3.org/2000/svg">
<path fill-rule="evenodd" clip-rule="evenodd" d="M10.6747 3C8.09498 3 6.00371 5.10493 6.00371 7.70149C6.00371 10.2981 8.09498 12.403 10.6747 12.403C13.2544 12.403 15.3457 10.2981 15.3457 7.70149C15.3457 5.10493 13.2544 3 10.6747 3ZM7.33826 7.70149C7.33826 5.8468 8.83202 4.34328 10.6747 4.34328C12.5173 4.34328 14.0111 5.8468 14.0111 7.70149C14.0111 9.55617 12.5173 11.0597 10.6747 11.0597C8.83202 11.0597 7.33826 9.55617 7.33826 7.70149Z" fill="#F2F6F9"/>
<path d="M3.33457 18.4478C3.33457 17.6882 3.52556 17.1133 3.84129 16.6642C4.16094 16.2094 4.64057 15.8382 5.28658 15.5454C6.60026 14.95 8.48249 14.7313 10.6747 14.7313C11.5522 14.7313 12.5404 14.8152 13.3699 14.9161C13.7242 14.9592 14.0559 14.7268 14.1274 14.3771C14.2046 13.9993 13.9496 13.6334 13.5668 13.5862C12.6492 13.4731 11.5908 13.3881 10.6747 13.3881C8.44453 13.3881 6.32306 13.6024 4.73863 14.3205C3.93558 14.6845 3.24255 15.1902 2.75181 15.8883C2.25714 16.5921 2 17.4463 2 18.4478C2 19.1691 2.3959 19.6939 2.94036 20.0398C3.45622 20.3676 4.14501 20.567 4.89822 20.6989C6.4137 20.9643 8.47388 21 10.6747 21C12.8755 21 14.9357 20.9643 16.4512 20.6989C17.2044 20.567 17.8932 20.3676 18.409 20.0398C18.7733 19.8084 19.0711 19.4969 19.2283 19.1C19.364 18.7573 19.0506 18.4478 18.6821 18.4478H18.5987C18.3489 18.4478 18.1081 18.6178 17.8857 18.7748C17.8211 18.8204 17.758 18.865 17.6967 18.9039C17.4021 19.0911 16.9183 19.2536 16.2224 19.3755C14.8398 19.6176 12.8963 19.6567 10.6747 19.6567C8.45314 19.6567 6.50962 19.6176 5.12699 19.3755C4.43114 19.2536 3.94727 19.0911 3.65274 18.9039C3.3868 18.735 3.33457 18.592 3.33457 18.4478Z" fill="#F2F6F9"/>
<path d="M19.5903 11.7276C19.5903 11.3258 19.2667 11 18.8674 11C18.4682 11 18.1445 11.3258 18.1445 11.7276V13.4254H16.4578C16.0586 13.4254 15.7349 13.7511 15.7349 14.153C15.7349 14.5548 16.0586 14.8806 16.4578 14.8806H18.1445V16.5783C18.1445 16.9802 18.4682 17.3059 18.8674 17.3059C19.2667 17.3059 19.5903 16.9802 19.5903 16.5783V14.8806H21.2771C21.6763 14.8806 22 14.5548 22 14.153C22 13.7511 21.6763 13.4254 21.2771 13.4254H19.5903V11.7276Z" fill="#F2F6F9"/>
</svg>
