<svg width="24" height="24" viewBox="0 0 24 24" fill="none" xmlns="http://www.w3.org/2000/svg">
<path d="M7.58142 8.30769C7.58142 7.92534 7.89377 7.61539 8.27909 7.61539H15.7209C16.1062 7.61539 16.4186 7.92534 16.4186 8.30769C16.4186 8.69004 16.1062 9 15.7209 9H8.27909C7.89377 9 7.58142 8.69004 7.58142 8.30769Z" fill="#F2F6F9"/>
<path d="M10.0698 11.3077C9.68446 11.3077 9.3721 11.6177 9.3721 12C9.3721 12.3824 9.68446 12.6923 10.0698 12.6923H13.9302C14.3155 12.6923 14.6279 12.3824 14.6279 12C14.6279 11.6177 14.3155 11.3077 13.9302 11.3077H10.0698Z" fill="#F2F6F9"/>
<path fill-rule="evenodd" clip-rule="evenodd" d="M5.6654 3H18.3346C18.8404 2.99999 19.2625 2.99998 19.6072 3.02842C19.9668 3.05808 20.3041 3.12223 20.6222 3.28638C21.0885 3.52705 21.4688 3.90443 21.7114 4.36718C21.8772 4.68366 21.9416 5.02077 21.9714 5.37978C22 5.72474 22 6.14823 22 6.65667L22 6.7505C22.0002 7.12473 22.0004 7.41881 21.935 7.70103C21.8711 7.97697 21.7612 8.24036 21.6097 8.4803C21.4548 8.72567 21.2471 8.93159 20.9831 9.19324L20.9374 9.23859C20.6694 9.5045 20.5998 9.57742 20.5473 9.65369C20.4872 9.74083 20.4394 9.83573 20.4054 9.93576C20.3755 10.0233 20.3586 10.1223 20.3055 10.4947L19.3389 17.2732C19.2363 17.9929 19.1502 18.5969 19.0189 19.0743C18.8799 19.58 18.6695 20.028 18.2632 20.3781C17.8568 20.7283 17.3804 20.8723 16.8563 20.938C16.3616 21 15.7469 21 15.0143 21H8.98571C8.25316 21 7.6384 21 7.14372 20.938C6.61961 20.8723 6.14317 20.7283 5.73683 20.3781C5.3305 20.028 5.12009 19.58 4.98107 19.0743C4.84985 18.5969 4.76374 17.993 4.66112 17.2732L3.69446 10.4947C3.64136 10.1223 3.62446 10.0233 3.59464 9.93575C3.56057 9.83573 3.51283 9.74083 3.45275 9.65369C3.40016 9.57742 3.33058 9.5045 3.06261 9.23859L3.01691 9.19328C2.75292 8.93161 2.54516 8.72568 2.39026 8.4803C2.2388 8.24036 2.12885 7.97697 2.06498 7.70103C1.99965 7.4188 1.99981 7.12474 2.00002 6.7505L2.00005 6.6567C2.00004 6.14824 2.00003 5.72475 2.02863 5.37978C2.0584 5.02077 2.12277 4.68366 2.28864 4.36718C2.53118 3.90443 2.91148 3.52705 3.37782 3.28638C3.69587 3.12223 4.03321 3.05808 4.39278 3.02842C4.73746 2.99998 5.15963 2.99999 5.6654 3ZM4.50838 4.40827C4.23675 4.43068 4.10716 4.47066 4.02165 4.51479C3.80968 4.62418 3.63681 4.79572 3.52657 5.00606C3.48256 5.09004 3.44198 5.21952 3.41928 5.49332C3.39594 5.77475 3.39539 6.14094 3.39539 6.6852C3.39539 7.15527 3.39954 7.28149 3.4249 7.39105C3.45394 7.51648 3.50391 7.6362 3.57276 7.74526C3.63298 7.84065 3.71849 7.93129 4.04927 8.25952L4.08609 8.29604C4.30046 8.50857 4.46929 8.67595 4.60436 8.87185C4.73653 9.06355 4.84156 9.27235 4.91651 9.49239C4.99311 9.71726 5.02644 9.95175 5.06876 10.2495L6.0365 17.0357C6.14697 17.8104 6.22195 18.3269 6.32722 18.7099C6.42732 19.074 6.53329 19.2306 6.65176 19.3327C6.77023 19.4348 6.94133 19.517 7.31869 19.5643C7.71556 19.6141 8.24145 19.6154 9.02992 19.6154H14.9701C15.7585 19.6154 16.2844 19.6141 16.6813 19.5643C17.0587 19.517 17.2298 19.4348 17.3482 19.3327C17.4667 19.2306 17.5727 19.074 17.6728 18.7099C17.7781 18.3269 17.853 17.8104 17.9635 17.0357L18.9312 10.2495C18.9736 9.95176 19.0069 9.71724 19.0835 9.49239C19.1584 9.27235 19.2635 9.06355 19.3956 8.87185C19.5307 8.67596 19.6995 8.5086 19.9139 8.2961L19.9507 8.25952C20.2815 7.93129 20.367 7.84065 20.4272 7.74526C20.4961 7.6362 20.5461 7.51648 20.5751 7.39105C20.6005 7.28149 20.6046 7.15527 20.6046 6.6852C20.6046 6.14094 20.6041 5.77475 20.5807 5.49332C20.558 5.21952 20.5174 5.09004 20.4734 5.00606C20.3632 4.79572 20.1903 4.62418 19.9784 4.51479C19.8928 4.47066 19.7632 4.43068 19.4916 4.40827C19.2116 4.38517 18.8478 4.38462 18.3058 4.38462H5.69423C5.1522 4.38462 4.78838 4.38517 4.50838 4.40827Z" fill="#F2F6F9"/>
</svg>
