<svg width="24" height="24" viewBox="0 0 24 24" fill="none" xmlns="http://www.w3.org/2000/svg">
<path fill-rule="evenodd" clip-rule="evenodd" d="M6.58272 2.13309C7.11365 1.99976 7.66452 1.99986 8.51831 2.00001H15.4817C16.3355 1.99986 16.8863 1.99976 17.4173 2.13309C17.6337 2.18744 17.8456 2.25809 18.0514 2.34446C18.5561 2.55635 18.9968 2.88696 19.6797 3.39936L19.8491 3.52635C20.59 4.08152 21.1034 4.46629 21.4433 4.99326C21.5809 5.20669 21.6948 5.43451 21.783 5.67267C22.0006 6.2607 22.0004 6.90235 22 7.82817L21.9999 15.772C22 17.0441 22 18.0696 21.8915 18.8761C21.779 19.7134 21.5381 20.4184 20.9782 20.9783C20.4183 21.5382 19.7133 21.779 18.876 21.8916C18.0695 22 17.0441 22 15.7719 22H8.22806C6.95589 22 5.93041 22 5.12393 21.8916C4.65298 21.8283 4.22388 21.7244 3.83891 21.5459C3.53946 21.4071 3.2667 21.2232 3.02172 20.9783C2.4618 20.4183 2.22097 19.7133 2.10839 18.876C1.99997 18.0696 1.99998 17.0441 2 15.772L2.00004 7.82817C1.99963 6.90235 1.99935 6.2607 2.21704 5.67267C2.30521 5.43451 2.41912 5.20669 2.55675 4.99326C2.89656 4.46629 3.41004 4.08152 4.15093 3.52635L4.3203 3.39936C5.00324 2.88696 5.44388 2.55635 5.94863 2.34446C6.15435 2.25809 6.36632 2.18744 6.58272 2.13309ZM18.9138 4.5691C19.1496 4.74594 19.3431 4.892 19.5036 5.01668C19.3035 4.96651 19.0942 4.92844 18.8759 4.89909C18.0695 4.79066 17.0441 4.79068 15.7719 4.7907H8.22798C6.95581 4.79068 5.93041 4.79066 5.12393 4.89909C4.9057 4.92843 4.69646 4.96648 4.49643 5.01663C4.65699 4.89196 4.85048 4.74592 5.08623 4.5691C5.86467 3.98527 6.1624 3.76803 6.48873 3.63104C6.62949 3.57195 6.77452 3.5236 6.92258 3.48642C7.26584 3.40021 7.63436 3.39537 8.60741 3.39537H15.3926C16.3656 3.39537 16.7342 3.40021 17.0774 3.48642C17.2255 3.5236 17.3705 3.57195 17.5113 3.63104C17.8376 3.76803 18.1353 3.98527 18.9138 4.5691ZM12.75 10C12.75 9.58579 12.4142 9.25 12 9.25C11.5858 9.25 11.25 9.58579 11.25 10V15.3987L9.48016 13.9238C9.16195 13.6587 8.68903 13.7017 8.42385 14.0199C8.15868 14.3381 8.20167 14.811 8.51988 15.0762L11.5199 17.5762C11.798 17.8079 12.202 17.8079 12.4802 17.5762L15.4802 15.0762C15.7984 14.811 15.8414 14.3381 15.5762 14.0199C15.311 13.7017 14.8381 13.6587 14.5199 13.9238L12.75 15.3987V10Z" fill="#F2F6F9"/>
</svg>
