<svg width="24" height="24" viewBox="0 0 24 24" fill="none" xmlns="http://www.w3.org/2000/svg">
<path fill-rule="evenodd" clip-rule="evenodd" d="M5.6654 3H18.3346C18.8403 2.99999 19.2626 2.99999 19.6072 3.02842C19.9668 3.05808 20.3041 3.12224 20.6222 3.28638C21.0885 3.52705 21.4688 3.90443 21.7114 4.36718C21.8772 4.68366 21.9416 5.02077 21.9714 5.37978C22 5.72475 22 6.14823 22 6.65667L22 6.75054C22.0002 7.12477 22.0004 7.41881 21.935 7.70103C21.8711 7.97696 21.7612 8.24036 21.6097 8.4803C21.4548 8.72568 21.2471 8.93161 20.9831 9.19329L20.9374 9.2386C20.6694 9.5045 20.5998 9.57742 20.5472 9.65369C20.4872 9.74083 20.4394 9.83573 20.4054 9.93576C20.3755 10.0233 20.3586 10.1223 20.3055 10.4947L19.3389 17.2732C19.2363 17.9929 19.1502 18.5969 19.0189 19.0743C18.8799 19.58 18.6695 20.028 18.2632 20.3781C17.8568 20.7283 17.3804 20.8723 16.8563 20.938C16.3616 21 15.7469 21 15.0143 21H8.9857C8.25314 21 7.6384 21 7.14372 20.938C6.61961 20.8723 6.14317 20.7283 5.73683 20.3781C5.3305 20.028 5.12009 19.58 4.98107 19.0743C4.84985 18.5969 4.76374 17.993 4.66112 17.2732L3.69446 10.4947C3.64136 10.1223 3.62446 10.0233 3.59464 9.93576C3.56057 9.83574 3.51283 9.74083 3.45275 9.65369C3.40016 9.57742 3.33058 9.5045 3.06261 9.2386L3.0169 9.19327C2.75292 8.93161 2.54516 8.72568 2.39026 8.4803C2.2388 8.24036 2.12885 7.97697 2.06498 7.70103C1.99965 7.4188 1.99981 7.12475 2.00002 6.7505L2.00005 6.6567C2.00004 6.14824 2.00003 5.72475 2.02863 5.37978C2.0584 5.02077 2.12277 4.68366 2.28864 4.36718C2.53118 3.90443 2.91148 3.52705 3.37782 3.28638C3.69587 3.12224 4.03321 3.05808 4.39279 3.02842C4.73745 2.99999 5.15966 2.99999 5.6654 3ZM7.58137 8.30769C7.58137 7.92534 7.89373 7.61539 8.27904 7.61539H15.7209C16.1062 7.61539 16.4185 7.92534 16.4185 8.30769C16.4185 8.69004 16.1062 9 15.7209 9H8.27904C7.89373 9 7.58137 8.69004 7.58137 8.30769ZM9.37205 12C9.37205 11.6176 9.68441 11.3077 10.0697 11.3077H13.9302C14.3155 11.3077 14.6279 11.6176 14.6279 12C14.6279 12.3824 14.3155 12.6923 13.9302 12.6923H10.0697C9.68441 12.6923 9.37205 12.3824 9.37205 12Z" fill="#F2F6F9"/>
</svg>
