<svg width="24" height="24" viewBox="0 0 24 24" fill="none" xmlns="http://www.w3.org/2000/svg">
<path fill-rule="evenodd" clip-rule="evenodd" d="M11.7197 16.5303C11.4268 16.2374 11.4268 15.7626 11.7197 15.4697L15.1893 12L11.7197 8.53033C11.4268 8.23744 11.4268 7.76256 11.7197 7.46967C12.0126 7.17678 12.4874 7.17678 12.7803 7.46967L16.7803 11.4697C16.9268 11.6161 17 11.8081 17 12C17 12.1919 16.9268 12.3839 16.7803 12.5303L12.7803 16.5303C12.4874 16.8232 12.0126 16.8232 11.7197 16.5303Z" fill="#F2F6F9"/>
<path fill-rule="evenodd" clip-rule="evenodd" d="M7.21967 16.5303C6.92678 16.2374 6.92678 15.7626 7.21967 15.4697L10.6893 12L7.21967 8.53033C6.92678 8.23744 6.92678 7.76256 7.21967 7.46967C7.51256 7.17678 7.98744 7.17678 8.28033 7.46967L12.2803 11.4697C12.5732 11.7626 12.5732 12.2374 12.2803 12.5303L8.28033 16.5303C7.98744 16.8232 7.51256 16.8232 7.21967 16.5303Z" fill="#F2F6F9"/>
</svg>
