<svg width="24" height="24" viewBox="0 0 24 24" fill="none" xmlns="http://www.w3.org/2000/svg">
<path fill-rule="evenodd" clip-rule="evenodd" d="M12.2803 7.46967C12.5732 7.76256 12.5732 8.23744 12.2803 8.53033L8.81066 12L12.2803 15.4697C12.5732 15.7626 12.5732 16.2374 12.2803 16.5303C11.9874 16.8232 11.5126 16.8232 11.2197 16.5303L7.21967 12.5303C7.07322 12.3839 7 12.1919 7 12C7 11.8081 7.07322 11.6161 7.21967 11.4697L11.2197 7.46967C11.5126 7.17678 11.9874 7.17678 12.2803 7.46967Z" fill="#F2F6F9"/>
<path fill-rule="evenodd" clip-rule="evenodd" d="M16.7803 7.46967C17.0732 7.76256 17.0732 8.23744 16.7803 8.53033L13.3107 12L16.7803 15.4697C17.0732 15.7626 17.0732 16.2374 16.7803 16.5303C16.4874 16.8232 16.0126 16.8232 15.7197 16.5303L11.7197 12.5303C11.4268 12.2374 11.4268 11.7626 11.7197 11.4697L15.7197 7.46967C16.0126 7.17678 16.4874 7.17678 16.7803 7.46967Z" fill="#F2F6F9"/>
</svg>
