<svg width="24" height="24" viewBox="0 0 24 24" fill="none" xmlns="http://www.w3.org/2000/svg">
<path fill-rule="evenodd" clip-rule="evenodd" d="M11.5388 2.20434C11.7935 1.93189 12.2065 1.93189 12.4612 2.20434L16.809 6.85551C17.0637 7.12797 17.0637 7.56971 16.809 7.84217C16.5543 8.11463 16.1414 8.11463 15.8867 7.84217L12 3.68434L8.11333 7.84217C7.85864 8.11463 7.44571 8.11463 7.19102 7.84217C6.93633 7.56971 6.93633 7.12797 7.19102 6.85551L11.5388 2.20434ZM7.19102 16.1578C7.44571 15.8854 7.85864 15.8854 8.11333 16.1578L12 20.3157L15.8867 16.1578C16.1414 15.8854 16.5543 15.8854 16.809 16.1578C17.0637 16.4303 17.0637 16.872 16.809 17.1445L12.4612 21.7957C12.2065 22.0681 11.7935 22.0681 11.5388 21.7957L7.19102 17.1445C6.93633 16.872 6.93633 16.4303 7.19102 16.1578Z" fill="#F2F6F9"/>
</svg>
