<svg width="24" height="24" viewBox="0 0 24 24" fill="none" xmlns="http://www.w3.org/2000/svg">
<path fill-rule="evenodd" clip-rule="evenodd" d="M17.9963 7.70149C17.9963 5.10493 15.905 3 13.3253 3C10.7456 3 8.65431 5.10493 8.65431 7.70149C8.65431 10.2981 10.7456 12.403 13.3253 12.403C15.905 12.403 17.9963 10.2981 17.9963 7.70149ZM13.3253 4.34326C15.168 4.34326 16.6617 5.84678 16.6617 7.70147C16.6617 9.55616 15.168 11.0597 13.3253 11.0597C11.4827 11.0597 9.9889 9.55616 9.9889 7.70147C9.9889 5.84678 11.4827 4.34326 13.3253 4.34326Z" fill="#F2F6F9"/>
<path d="M20.1587 16.6642C20.4744 17.1133 20.6654 17.6882 20.6654 18.4478C20.6654 18.592 20.6132 18.735 20.3473 18.9039C20.0527 19.0911 19.5689 19.2536 18.873 19.3755C17.4904 19.6176 15.5469 19.6567 13.3253 19.6567C11.1037 19.6567 9.16022 19.6176 7.77759 19.3755C7.08174 19.2536 6.59787 19.0911 6.30334 18.9039C6.24215 18.8651 6.17914 18.8206 6.11463 18.775C5.89225 18.618 5.6511 18.4478 5.40125 18.4478H5.31789C4.94936 18.4478 4.63601 18.7573 4.77172 19.1C4.92891 19.4969 5.22668 19.8084 5.59096 20.0398C6.10682 20.3676 6.79561 20.567 7.54882 20.6989C9.0643 20.9643 11.1245 21 13.3253 21C15.5261 21 17.5863 20.9643 19.1018 20.6989C19.855 20.567 20.5438 20.3676 21.0596 20.0398C21.6041 19.6939 22 19.1691 22 18.4478C22 17.4463 21.7429 16.5921 21.2482 15.8883C20.7574 15.1902 20.0644 14.6845 19.2614 14.3205C17.6769 13.6024 15.5555 13.3881 13.3253 13.3881C12.918 13.3881 12.4825 13.4049 12.0438 13.4335C11.6717 13.4578 11.3988 13.7885 11.4351 14.1596C11.471 14.5271 11.7967 14.7955 12.1651 14.7718C12.5581 14.7465 12.9517 14.7313 13.3253 14.7313C15.5175 14.7313 17.3997 14.95 18.7134 15.5454C19.3594 15.8382 19.8391 16.2094 20.1587 16.6642Z" fill="#F2F6F9"/>
<path fill-rule="evenodd" clip-rule="evenodd" d="M6.73079 12.1904C6.98463 11.9365 7.39618 11.9365 7.65002 12.1904L9.65002 14.1904C9.90386 14.4442 9.90386 14.8558 9.65002 15.1096L7.65002 17.1096C7.39618 17.3635 6.98463 17.3635 6.73079 17.1096C6.47694 16.8558 6.47694 16.4442 6.73079 16.1904L7.62117 15.3H4.65C4.29101 15.3 4 15.009 4 14.65C4 14.291 4.29101 14 4.65 14H7.62117L6.73079 13.1096C6.47694 12.8558 6.47694 12.4442 6.73079 12.1904Z" fill="#F2F6F9"/>
</svg>
