<svg width="34" height="30" viewBox="0 0 34 30" fill="none" xmlns="http://www.w3.org/2000/svg">
<path d="M20.4795 4.67951C14.8171 4.67952 10.2267 9.26987 10.2267 14.9324L10.2267 22.3505C10.2267 24 11.2267 25 12.7267 25C14.2267 25 15.2267 24 15.2267 22.3505V15.2528C15.2267 12.3518 17.5785 10 20.4796 10C23.3806 10 25.7324 12.3518 25.7324 15.2528V27.3505C25.7324 29 26.7324 30 28.2324 30C29.7324 30 30.7324 29 30.7324 27.3505L30.7324 14.9324C30.7324 9.26986 26.142 4.67951 20.4795 4.67951Z" fill="url(#paint0_linear_1_454)"/>
<path d="M11.4362 28.5495L6.5515 20.4297C5.90521 19.3554 5.58207 18.8182 5.80031 18.4091C6.01856 18 6.62826 18 7.84767 18H15.0252H17.6172C18.8366 18 19.4463 18 19.6645 18.4091C19.8828 18.8182 19.5596 19.3553 18.9134 20.4297L18.9134 20.4297L14.0286 28.5495L14.0286 28.5495C13.4469 29.5165 13.156 30 12.7324 30C12.3088 30 12.018 29.5165 11.4362 28.5495Z" fill="url(#paint1_linear_1_454)"/>
<defs>
<linearGradient id="paint0_linear_1_454" x1="13.4374" y1="13.3447" x2="13.4374" y2="31.9758" gradientUnits="userSpaceOnUse">
<stop stop-color="#0029FF"/>
<stop offset="1" stop-color="#0085FF"/>
</linearGradient>
<linearGradient id="paint1_linear_1_454" x1="12.7324" y1="30" x2="12.7324" y2="18" gradientUnits="userSpaceOnUse">
<stop stop-color="#012CFF"/>
<stop offset="1" stop-color="#0094FF"/>
</linearGradient>
</defs>
</svg>
