<svg width="24" height="24" viewBox="0 0 24 24" fill="none" xmlns="http://www.w3.org/2000/svg">
<path d="M14.4064 3.62553C13.8806 3.40775 13.286 3.3954 11.7082 3.3954H10.1395C8.36573 3.3954 7.10558 3.39688 6.14962 3.52541C5.21372 3.65123 4.67452 3.88721 4.28083 4.28089C3.88715 4.67457 3.65118 5.21378 3.52535 6.14967C3.39683 7.10563 3.39535 8.36579 3.39535 10.1396V13.8605C3.39535 15.6343 3.39683 16.8944 3.52535 17.8504C3.65118 18.7863 3.88715 19.3255 4.28083 19.7192C4.67452 20.1128 5.21372 20.3488 6.14962 20.4746C7.10558 20.6032 8.36573 20.6047 10.1395 20.6047H12.1885C12.5636 20.6047 12.8716 20.9013 12.8857 21.2761C12.9006 21.6714 12.5841 22 12.1885 22H10.0869C8.37745 22 7.0234 22 5.96369 21.8575C4.87307 21.7109 3.99033 21.402 3.29418 20.7058C2.59803 20.0097 2.28908 19.1269 2.14245 18.0363C1.99997 16.9766 1.99999 15.6225 2 13.913V10.0871C1.99999 8.37754 1.99997 7.02347 2.14245 5.96374C2.28908 4.87312 2.59803 3.99038 3.29418 3.29423C3.99033 2.59808 4.87307 2.28913 5.96369 2.1425C7.02342 2.00003 8.37749 2.00004 10.087 2.00005L11.8534 2.00003C13.2341 1.99963 14.1267 1.99938 14.9403 2.3364C15.754 2.67342 16.385 3.30478 17.361 4.28135L19.7187 6.63903C20.4381 7.35807 20.9702 7.88985 21.3353 8.44537C21.5469 8.76737 21.375 9.17921 21.019 9.32666C20.6631 9.47411 20.2531 9.30168 20.0172 8.997C19.7452 8.64571 19.3236 8.21728 18.6293 7.523L16.477 5.37072C15.3613 4.25501 14.9321 3.84331 14.4064 3.62553Z" fill="#F2F6F9"/>
<path d="M13.8604 6.18609C14.2457 6.18609 14.5581 6.49845 14.5581 6.88376V8.27911C14.5581 8.73735 14.5596 9.01084 14.5859 9.20686C14.598 9.29668 14.6122 9.34167 14.6206 9.36193C14.6225 9.36662 14.624 9.36971 14.625 9.3715L14.6262 9.37377L14.6285 9.37505C14.6303 9.37599 14.6334 9.37749 14.6381 9.37942C14.6583 9.38776 14.7033 9.40198 14.7931 9.41406C14.9892 9.44041 15.2627 9.4419 15.7209 9.4419H17.1162C17.5016 9.4419 17.8139 9.75425 17.8139 10.1396C17.8139 10.5249 17.5016 10.8372 17.1162 10.8372L15.6792 10.8372C15.2766 10.8373 14.9075 10.8373 14.6072 10.797C14.2765 10.7525 13.927 10.6479 13.6396 10.3604C13.3521 10.073 13.2475 9.72346 13.203 9.39279C13.1627 9.0925 13.1627 8.72334 13.1628 8.32073L13.1628 6.88376C13.1628 6.49845 13.4751 6.18609 13.8604 6.18609Z" fill="#F2F6F9"/>
<path fill-rule="evenodd" clip-rule="evenodd" d="M19.75 13C19.3362 13 19 13.3362 19 13.75V17.25C19 17.6642 18.6642 18 18.25 18C17.8358 18 17.5 17.6642 17.5 17.25V13.75C17.5 12.5078 18.5078 11.5 19.75 11.5C20.9922 11.5 22 12.5078 22 13.75V18.25C22 20.3212 20.3212 22 18.25 22C16.1788 22 14.5 20.3212 14.5 18.25V15.25C14.5 14.8358 14.8358 14.5 15.25 14.5C15.6642 14.5 16 14.8358 16 15.25V18.25C16 19.4928 17.0072 20.5 18.25 20.5C19.4928 20.5 20.5 19.4928 20.5 18.25V13.75C20.5 13.3362 20.1638 13 19.75 13Z" fill="#F2F6F9"/>
</svg>
