<svg width="24" height="24" viewBox="0 0 24 24" fill="none" xmlns="http://www.w3.org/2000/svg">
<path fill-rule="evenodd" clip-rule="evenodd" d="M18.465 4.53085C16.9851 3.0842 14.5768 3.0842 13.0969 4.53085L6.03515 11.434C3.90074 13.5204 3.90074 16.8938 6.03515 18.9802C8.18191 21.0788 11.6714 21.0788 13.8181 18.9802L17.5584 15.324C17.8427 15.046 18.2968 15.0531 18.5725 15.3397C18.8482 15.6263 18.8413 16.084 18.5569 16.362L14.8167 20.0182C12.1135 22.6606 7.73974 22.6606 5.03661 20.0182C2.32113 17.3637 2.32113 13.0505 5.03661 10.396L12.0984 3.49289C14.1347 1.50237 17.4273 1.50237 19.4635 3.49289C21.5122 5.49549 21.5122 8.75181 19.4635 10.7544L12.4261 17.6337C11.0567 18.9723 8.84533 18.9723 7.47592 17.6337C6.09416 16.283 6.09415 14.0836 7.47592 12.7328L12.818 7.51078C13.1023 7.23283 13.5564 7.23986 13.8321 7.52648C14.1079 7.81311 14.1009 8.27079 13.8165 8.54874L8.47445 13.7708C7.67376 14.5535 7.67376 15.813 8.47445 16.5957C9.28749 17.3905 10.6146 17.3905 11.4276 16.5957L18.465 9.71645C19.9325 8.28187 19.9325 5.96543 18.465 4.53085Z" fill="white"/>
</svg>
