<svg width="24" height="24" viewBox="0 0 24 24" fill="none" xmlns="http://www.w3.org/2000/svg">
<path fill-rule="evenodd" clip-rule="evenodd" d="M8.6483 5.63636C8.6483 3.62806 10.1489 2 12 2C13.8511 2 15.3517 3.62806 15.3517 5.63636V12.3636C15.3517 14.3719 13.8511 16 12 16C10.1489 16 8.6483 14.3719 8.6483 12.3636V5.63636ZM12 3.45455C10.8893 3.45455 9.98898 4.43138 9.98898 5.63636V12.3636C9.98898 13.5686 10.8893 14.5455 12 14.5455C13.1107 14.5455 14.011 13.5686 14.011 12.3636V5.63636C14.011 4.43138 13.1107 3.45455 12 3.45455Z" fill="white"/>
<path fill-rule="evenodd" clip-rule="evenodd" d="M6.63728 12.3636C7.0075 12.3636 7.30259 12.6911 7.35486 13.0888C7.67927 15.5569 9.63538 17.4545 12 17.4545C14.3646 17.4545 16.3207 15.5569 16.6451 13.0888C16.6974 12.6911 16.9925 12.3636 17.3627 12.3636C17.7329 12.3636 18.037 12.6906 17.9964 13.0898C17.6876 16.1242 15.4671 18.5337 12.6703 18.8691V21.2727C12.6703 21.6744 12.3702 22 12 22C11.6298 22 11.3297 21.6744 11.3297 21.2727V18.8691C8.53292 18.5337 6.31235 16.1242 6.00365 13.0898C5.96303 12.6906 6.26706 12.3636 6.63728 12.3636Z" fill="white"/>
</svg>
