<svg width="24" height="24" viewBox="0 0 24 24" fill="none" xmlns="http://www.w3.org/2000/svg">
<path fill-rule="evenodd" clip-rule="evenodd" d="M3.39535 6.94137V6.69767C3.39535 6.31236 3.08299 6 2.69767 6C2.31236 6 2 6.31236 2 6.69767V17.3023C2 17.6876 2.31236 18 2.69767 18C3.08299 18 3.39535 17.6876 3.39535 17.3023V15.0833H20.6047V17.3023C20.6047 17.6876 20.917 18 21.3023 18C21.6876 18 22 17.6876 22 17.3023V14.3333V10.2778C22 9.87137 21.7691 9.60551 21.6102 9.47119C21.4459 9.33225 21.2487 9.23566 21.0663 9.16432C20.6943 9.01874 20.2012 8.90936 19.6524 8.82673C18.5428 8.65968 17.0619 8.58159 15.5195 8.60667C13.9757 8.63178 12.3434 8.7607 10.9313 9.01757C10.5047 9.09517 10.0938 9.18524 9.70839 9.28916C9.73083 8.86503 9.6125 8.48982 9.43037 8.18622C9.19813 7.7991 8.87156 7.53853 8.63947 7.38446C8.51819 7.30396 8.40916 7.2437 8.32897 7.20284C8.28861 7.18228 8.25483 7.16627 8.22958 7.15474C8.21693 7.14897 8.20636 7.1443 8.19811 7.14072L8.19009 7.13729C7.12562 6.67214 5.67064 6.69235 4.58249 6.79105C4.13575 6.83157 3.72661 6.88801 3.39535 6.94137ZM7.6794 8.53318L7.6668 8.52781C6.93743 8.20808 5.77817 8.18793 4.69981 8.28574C4.1905 8.33194 3.73131 8.40096 3.39535 8.45944V13.5833H4.70024C4.78499 13.4081 4.90035 13.1967 5.05638 12.9536C5.48964 12.2786 6.23353 11.3634 7.50038 10.2981C8.05589 9.83102 8.24007 9.49829 8.29399 9.31775C8.33571 9.17804 8.31316 9.09158 8.25772 8.99918C8.18535 8.87854 8.05502 8.75943 7.90636 8.66075C7.83726 8.61489 7.77495 8.58051 7.73139 8.55832C7.70988 8.54736 7.69368 8.53975 7.68443 8.53553L7.67619 8.53184L7.67785 8.53254L7.6794 8.53318Z" fill="#F2F6F9"/>
</svg>
