<svg width="24" height="24" viewBox="0 0 24 24" fill="none" xmlns="http://www.w3.org/2000/svg">
<path fill-rule="evenodd" clip-rule="evenodd" d="M8.7724 17.8047C8.49994 18.0651 8.0582 18.0651 7.78574 17.8047L2.20435 12.4714C2.07351 12.3464 2 12.1768 2 12C2 11.8232 2.07351 11.6536 2.20435 11.5286L7.78574 6.19526C8.0582 5.93491 8.49994 5.93491 8.7724 6.19526C9.04486 6.45561 9.04486 6.87772 8.7724 7.13807L4.38201 11.3333L21.3023 11.3333C21.6876 11.3333 22 11.6318 22 12C22 12.3682 21.6876 12.6667 21.3023 12.6667L4.38201 12.6667L8.7724 16.8619C9.04486 17.1223 9.04486 17.5444 8.7724 17.8047Z" fill="#F2F6F9"/>
</svg>
