<svg width="24" height="24" viewBox="0 0 24 24" fill="none" xmlns="http://www.w3.org/2000/svg">
<path fill-rule="evenodd" clip-rule="evenodd" d="M6.19526 8.7724C5.93491 8.49994 5.93491 8.0582 6.19526 7.78574L11.5286 2.20434C11.6536 2.0735 11.8232 2 12 2C12.1768 2 12.3464 2.0735 12.4714 2.20434L17.8047 7.78574C18.0651 8.0582 18.0651 8.49994 17.8047 8.7724C17.5444 9.04486 17.1223 9.04486 16.8619 8.7724L12.6667 4.38201L12.6667 21.3023C12.6667 21.6876 12.3682 22 12 22C11.6318 22 11.3333 21.6876 11.3333 21.3023L11.3333 4.38201L7.13807 8.7724C6.87772 9.04486 6.45561 9.04486 6.19526 8.7724Z" fill="#F2F6F9"/>
</svg>
