<svg width="24" height="24" viewBox="0 0 24 24" fill="none" xmlns="http://www.w3.org/2000/svg">
<path fill-rule="evenodd" clip-rule="evenodd" d="M16.1001 5.03583C15.7374 4.91453 15.3453 5.11119 15.2244 5.47507C15.1035 5.83895 15.2995 6.23226 15.6623 6.35355L16.7189 6.70689L17.3684 8.65428C16.1329 8.14629 13.4359 7.22242 11.1196 7.70764C9.59695 8.0266 9.56068 8.73894 9.92255 9.38465C9.81508 9.2704 9.7113 9.16242 9.61711 9.06793C9.05785 8.50691 2.52357 8.59991 2.06428 9.06791C1.96445 9.16963 1.90802 9.30261 1.88083 9.44846C1.81266 9.81408 1.77858 9.99689 2.05541 10.3313C2.33224 10.6658 2.65656 10.6658 3.3052 10.6658H3.90942L3.72474 11.5921L3.69231 11.592C1.6531 11.592 0 13.2503 0 15.296C0 17.3417 1.6531 19 3.69231 19C5.73151 19 7.38462 17.3417 7.38462 15.296C7.38462 13.7437 6.43277 12.4145 5.08266 11.8636L5.18296 11.3605H5.20775C5.61238 11.3817 7.4302 11.5685 8.01382 13.2165C9.37435 17.0582 11.1789 17.639 14.3126 17.3078C16.5614 17.0702 14.3694 11.5011 14.3137 11.3605H18.2703L18.5038 12.0634C17.3769 12.6975 16.6154 13.9076 16.6154 15.296C16.6154 17.3417 18.2685 19 20.3077 19C22.3469 19 24 17.3417 24 15.296C24 13.2503 22.3469 11.592 20.3077 11.592C20.1415 11.592 19.9778 11.603 19.8175 11.6244L19.5311 10.7625C19.8204 10.8414 20.1326 10.8834 20.4391 10.903L20.0246 7.73191C19.5363 7.84516 19.0536 8.02292 18.7135 8.30967L17.8127 5.60849L16.1001 5.03583ZM18.9547 13.4204L19.6509 15.5156C19.7718 15.8795 20.1639 16.0762 20.5266 15.9549C20.8894 15.8336 21.0854 15.4403 20.9645 15.0764L20.2683 12.9813C20.2814 12.9811 20.2946 12.981 20.3077 12.981C21.5822 12.981 22.6154 14.0175 22.6154 15.296C22.6154 16.5745 21.5822 17.611 20.3077 17.611C19.0332 17.611 18 16.5745 18 15.296C18 14.5244 18.3762 13.8411 18.9547 13.4204ZM3.44523 12.9941L3.01346 15.1598C2.93848 15.5359 3.18163 15.9018 3.55656 15.977C3.93148 16.0522 4.29621 15.8083 4.37119 15.4322L4.80301 13.2663C5.5165 13.66 6 14.4214 6 15.296C6 16.5745 4.96681 17.611 3.69231 17.611C2.4178 17.611 1.38462 16.5745 1.38462 15.296C1.38462 14.1012 2.28691 13.1178 3.44523 12.9941Z" fill="#F2F6F9"/>
<path d="M21.7072 10.7746C21.5721 10.8994 21.3823 10.9187 21.0448 10.9186L20.6139 7.62192C21.0092 7.55977 21.2218 7.53844 21.3949 7.65154C21.5852 7.77586 21.6077 8.00037 21.6526 8.44938L21.8027 9.9507C21.8476 10.3997 21.8701 10.6242 21.7072 10.7746Z" fill="#F2F6F9"/>
</svg>
