<svg width="24" height="24" viewBox="0 0 24 24" fill="none" xmlns="http://www.w3.org/2000/svg">
<path fill-rule="evenodd" clip-rule="evenodd" d="M4.92893 4.92893C4.75054 5.10733 4.58029 5.29079 4.41819 5.47885C1.03184 9.40759 1.20209 15.3442 4.92893 19.0711C8.65578 22.7979 14.5924 22.9682 18.5211 19.5818C18.7092 19.4197 18.8927 19.2495 19.0711 19.0711C19.2495 18.8927 19.4197 18.7092 19.5818 18.5211C22.9682 14.5924 22.7979 8.65578 19.0711 4.92893C15.3442 1.20209 9.40759 1.03184 5.47885 4.41819C5.29079 4.58029 5.10733 4.75054 4.92893 4.92893ZM5.48234 6.543C2.67976 9.88255 2.84884 14.8697 5.98959 18.0104C9.13034 21.1512 14.1174 21.3202 17.457 18.5177L5.48234 6.543ZM18.5177 17.457L6.543 5.48234C9.88255 2.67976 14.8697 2.84884 18.0104 5.98959C21.1512 9.13034 21.3202 14.1174 18.5177 17.457Z" fill="#F2F6F9"/>
</svg>
