<svg width="24" height="24" viewBox="0 0 24 24" fill="none" xmlns="http://www.w3.org/2000/svg">
<path d="M16.5613 7.76609C16.869 7.83261 17.1943 7.90295 17.5399 7.97334C18.003 8.06768 18.4914 8.15928 19 8.2345L19 6.84647C18.5997 6.78296 18.207 6.70868 17.8231 6.63046C17.5268 6.57012 17.2301 6.50597 16.937 6.44263C16.1773 6.2784 15.4423 6.11953 14.8058 6.04619C14.7519 6.03998 14.6978 6.03423 14.6434 6.02905V7.40828C15.2064 7.47315 15.8346 7.60898 16.5613 7.76609Z" fill="#F2F6F9"/>
<path d="M17.5399 10.9443C17.1943 10.8739 16.869 10.8036 16.5613 10.737C15.8346 10.5799 15.2064 10.4441 14.6434 10.3792V9C14.6978 9.00518 14.7519 9.01093 14.8058 9.01714C15.4423 9.09048 16.1773 9.24934 16.937 9.41357C17.2301 9.47692 17.5268 9.54106 17.8231 9.60141C18.207 9.67963 18.5997 9.7539 19 9.81742L19 11.2054C18.4914 11.1302 18.003 11.0386 17.5399 10.9443Z" fill="#F2F6F9"/>
<path d="M7.43871 12.5317C7.13103 12.5982 6.80569 12.6686 6.46016 12.739C5.99704 12.8333 5.50864 12.9249 5 13.0001L5 11.6121C5.40028 11.5486 5.79299 11.4743 6.17697 11.3961C6.47317 11.3357 6.76992 11.2716 7.06296 11.2082C7.82272 11.044 8.5577 10.8851 9.19418 10.8118C9.24809 10.8056 9.30227 10.7998 9.35665 10.7947V12.1739C8.79365 12.2388 8.16538 12.3746 7.43871 12.5317Z" fill="#F2F6F9"/>
<path d="M6.46016 15.739C6.80569 15.6686 7.13103 15.5982 7.43871 15.5317C8.16538 15.3746 8.79365 15.2388 9.35665 15.1739V13.7947C9.30227 13.7998 9.24809 13.8056 9.19418 13.8118C8.55769 13.8851 7.82274 14.044 7.06298 14.2082C6.76993 14.2716 6.47317 14.3357 6.17697 14.3961C5.79299 14.4743 5.40028 14.5486 5 14.6121L5 16.0001C5.50864 15.9249 5.99704 15.8333 6.46016 15.739Z" fill="#F2F6F9"/>
<path fill-rule="evenodd" clip-rule="evenodd" d="M11.7181 3.55167C11.8213 3.63696 11.915 3.73052 12 3.83207C12.085 3.73052 12.1788 3.63696 12.2819 3.55167C12.7747 3.14425 13.3821 3.01039 14 3.00059C14.2695 2.99632 14.541 3.01564 14.8058 3.04616C15.4423 3.1195 16.1773 3.27836 16.937 3.44259C17.2301 3.50594 17.5268 3.57008 17.823 3.63042C18.207 3.70865 18.5997 3.78292 19 3.84644C19.7438 3.96446 20.5137 4.04534 21.3023 4.04534C21.6876 4.04534 22 4.35234 22 4.73105V19.731C22 20.1098 21.7594 20.4168 21.3023 20.4168C20.3518 20.4168 18.6682 20.2032 17.5398 19.9733C17.1945 19.9029 16.8693 19.8326 16.5617 19.7661C16.282 19.7057 16.0613 19.6483 15.864 19.597C15.5486 19.5149 15.292 19.4482 14.9457 19.4082C14.1345 19.3148 13.5 19.5 13.5 19.5C13.5 19.5 13 19.6011 13 20C13 21 12 21 12 21C12 21 11.0011 21 11 20.0016L11 20C11 19.6011 10.5 19.5 10.5 19.5C10.5 19.5 9.86551 19.3148 9.05432 19.4082C8.70797 19.4482 8.45136 19.5149 8.13598 19.597C7.93868 19.6483 7.71838 19.7056 7.43871 19.7661C7.13115 19.8325 6.80553 19.9029 6.46015 19.9733C5.33179 20.2032 3.64824 20.4168 2.69767 20.4168C2.24059 20.4168 2 20.1098 2 19.731V4.73105C2 4.35234 2.31236 4.04534 2.69767 4.04534C3.91074 4.04534 5.0795 3.85399 6.17696 3.63042C6.47316 3.57008 6.7699 3.50594 7.06294 3.4426C7.8227 3.27837 8.55769 3.1195 9.19418 3.04616C10.0664 2.94566 11.0104 2.96658 11.7181 3.55167ZM3.39535 17.9206V5.39853C3.78554 5.37849 4.16796 5.34294 4.54074 5.2969C4.75687 5.2702 4.86494 5.25685 4.93247 5.31655C5 5.37625 5 5.48349 5 5.69797V8.25259C5 8.5816 5 8.7461 5.10563 8.80263C5.21126 8.85916 5.34813 8.76791 5.62188 8.58541L5.9453 8.3698C6.21417 8.19055 6.34861 8.10093 6.5 8.10093C6.65139 8.10093 6.78583 8.19055 7.0547 8.3698L7.37812 8.58541C7.65187 8.76791 7.78874 8.85916 7.89437 8.80263C8 8.7461 8 8.5816 8 8.25259V4.97044C8 4.81447 8 4.73648 8.04532 4.68119C8.09063 4.6259 8.16642 4.61072 8.318 4.58037C8.68981 4.50592 9.03393 4.44543 9.35665 4.40825C10.1678 4.31478 10.5861 4.40784 10.8199 4.60114C11.0467 4.78867 11.3023 5.24317 11.3023 6.41881V7.90575C11.3023 8.28445 11.6147 8.59145 12 8.59145C12.3853 8.59145 12.6977 8.28445 12.6977 7.90575V6.41881C12.6977 5.24317 12.9533 4.78867 13.1801 4.60114C13.342 4.46732 13.5922 4.38155 14 4.37243C14.1813 4.36838 14.3937 4.37948 14.6434 4.40825C15.2064 4.47312 15.8346 4.60894 16.5613 4.76605C16.869 4.83257 17.1943 4.90291 17.5398 4.9733C18.003 5.06764 18.4914 5.15925 19 5.23447C19.5158 5.31075 20.0524 5.37018 20.6047 5.39853V17.9206C19.6405 17.8657 18.7086 17.7063 17.823 17.5259C17.5268 17.4656 17.2301 17.4014 16.937 17.3381C16.1773 17.1738 15.4423 17.015 14.8058 16.9416C14.0952 16.8598 13.337 16.8585 12.6977 17.1772V14.3666C12.6977 13.9878 12.3853 13.6808 12 13.6808C11.6147 13.6808 11.3023 13.9878 11.3023 14.3666V17.1772C10.663 16.8585 9.90476 16.8598 9.19418 16.9416C8.55769 17.015 7.82274 17.1738 7.06297 17.3381C6.76998 17.4014 6.47311 17.4656 6.17696 17.5259C5.29145 17.7063 4.35952 17.8657 3.39535 17.9206Z" fill="#F2F6F9"/>
</svg>
