<svg width="24" height="24" viewBox="0 0 24 24" fill="none" xmlns="http://www.w3.org/2000/svg">
<path fill-rule="evenodd" clip-rule="evenodd" d="M6.37023 2H17.6298C18.4656 1.99997 19.1625 1.99995 19.7158 2.07434C20.2998 2.15285 20.827 2.32557 21.2507 2.74926C21.6744 3.17296 21.8471 3.70021 21.9257 4.28421C22 4.83749 22 5.53444 22 6.37024V17.6298C22 18.4656 22 19.1625 21.9257 19.7158C21.8471 20.2998 21.6744 20.827 21.2507 21.2507C20.827 21.6744 20.2998 21.8471 19.7158 21.9257C19.1625 22 18.4656 22 17.6298 22H6.37024C5.53444 22 4.83749 22 4.28421 21.9257C3.70021 21.8471 3.17296 21.6744 2.74926 21.2507C2.32557 20.827 2.15285 20.2998 2.07434 19.7158C1.99995 19.1625 1.99997 18.4656 2 17.6298V6.37023C1.99997 5.53444 1.99995 4.83749 2.07434 4.28421C2.15285 3.70021 2.32557 3.17296 2.74926 2.74926C3.17296 2.32557 3.70021 2.15285 4.28421 2.07434C4.83749 1.99995 5.53444 1.99997 6.37023 2ZM4.47013 3.45724C4.04087 3.51496 3.85715 3.6147 3.73592 3.73592C3.6147 3.85715 3.51496 4.04087 3.45724 4.47013C3.39683 4.91947 3.39535 5.52185 3.39535 6.41861V17.5814C3.39535 18.4781 3.39683 19.0805 3.45724 19.5299C3.51496 19.9591 3.6147 20.1429 3.73592 20.2641C3.85715 20.3853 4.04087 20.485 4.47013 20.5428C4.91947 20.6032 5.52185 20.6047 6.41861 20.6047H17.5814C18.4781 20.6047 19.0805 20.6032 19.5299 20.5428C19.9591 20.485 20.1429 20.3853 20.2641 20.2641C20.3853 20.1429 20.485 19.9591 20.5428 19.5299C20.6032 19.0805 20.6047 18.4781 20.6047 17.5814V6.41861C20.6047 5.52185 20.6032 4.91947 20.5428 4.47013C20.485 4.04087 20.3853 3.85715 20.2641 3.73592C20.1429 3.6147 19.9591 3.51496 19.5299 3.45724C19.0805 3.39683 18.4781 3.39535 17.5814 3.39535H6.41861C5.52185 3.39535 4.91947 3.39683 4.47013 3.45724ZM6.39039 4.52993C6.66285 4.25747 7.10459 4.25747 7.37705 4.52993L10.4003 7.55318C10.6728 7.82564 10.6728 8.26738 10.4003 8.53984C10.1278 8.8123 9.68611 8.8123 9.41365 8.53984L6.39039 5.51659C6.11793 5.24413 6.11793 4.80239 6.39039 4.52993ZM17.6096 4.52993C17.8821 4.80239 17.8821 5.24413 17.6096 5.51659L5.51659 17.6096C5.24413 17.8821 4.80239 17.8821 4.52993 17.6096C4.25747 17.3372 4.25747 16.8954 4.52993 16.6229L16.6229 4.52993C16.8954 4.25747 17.3372 4.25747 17.6096 4.52993ZM4.52993 6.39039C4.80239 6.11793 5.24413 6.11793 5.51659 6.39039L8.53984 9.41365C8.8123 9.68611 8.8123 10.1278 8.53984 10.4003C8.26738 10.6728 7.82564 10.6728 7.55318 10.4003L4.52993 7.37705C4.25747 7.10459 4.25747 6.66285 4.52993 6.39039ZM19.4701 6.39039C19.7425 6.66285 19.7425 7.10459 19.4701 7.37705L7.37705 19.4701C7.10459 19.7425 6.66285 19.7425 6.39039 19.4701C6.11793 19.1976 6.11793 18.7559 6.39039 18.4834L18.4834 6.39039C18.7559 6.11793 19.1976 6.11793 19.4701 6.39039ZM15.4602 13.5997C15.7326 13.3272 16.1744 13.3272 16.4468 13.5997L19.4701 16.6229C19.7425 16.8954 19.7425 17.3372 19.4701 17.6096C19.1976 17.8821 18.7559 17.8821 18.4834 17.6096L15.4602 14.5864C15.1877 14.3139 15.1877 13.8722 15.4602 13.5997ZM13.5997 15.4602C13.8722 15.1877 14.3139 15.1877 14.5864 15.4602L17.6096 18.4834C17.8821 18.7559 17.8821 19.1976 17.6096 19.4701C17.3371 19.7425 16.8954 19.7425 16.6229 19.4701L13.5997 16.4468C13.3272 16.1744 13.3272 15.7326 13.5997 15.4602Z" fill="#F2F6F9"/>
</svg>
