<svg width="24" height="24" viewBox="0 0 24 24" fill="none" xmlns="http://www.w3.org/2000/svg">
<path fill-rule="evenodd" clip-rule="evenodd" d="M10.8301 3.02826C11.1998 3.13604 11.4115 3.52079 11.3028 3.88763L9.51579 9.92319H14.4842L12.6972 3.88763C12.5885 3.52079 12.8002 3.13604 13.1699 3.02826C13.5396 2.92048 13.9273 3.13049 14.0359 3.49733L15.9385 9.92319L18.465 9.92319C19.1549 9.92315 19.7469 9.92311 20.2145 9.98993C20.7149 10.0614 21.1943 10.2242 21.5543 10.6447C21.9119 11.0625 22.0009 11.559 22 12.0633C21.9991 12.5388 21.9158 13.1299 21.8179 13.8242L21.5542 15.6938C21.3999 16.7888 21.275 17.6744 21.0876 18.3673C20.8928 19.0873 20.6096 19.6853 20.0821 20.1488C19.553 20.6137 18.924 20.8153 18.1869 20.9097C17.4808 21 16.5957 21 15.5059 21H8.49406C7.40426 21 6.51922 21 5.8131 20.9097C5.07605 20.8153 4.44697 20.6137 3.91788 20.1488C3.39044 19.6853 3.10725 19.0873 2.91244 18.3673C2.72497 17.6743 2.60014 16.7889 2.44574 15.6937L2.18214 13.8241C2.08423 13.1299 2.00085 12.5387 2.00001 12.0633C1.99911 11.559 2.08814 11.0625 2.44575 10.6447C2.80567 10.2242 3.28506 10.0614 3.78546 9.98993C4.25308 9.92311 4.84509 9.92315 5.53505 9.92319L8.06147 9.92319L9.96408 3.49733C10.0727 3.13049 10.4604 2.92048 10.8301 3.02826ZM7.25251 13.0907C7.63411 13.0378 7.98672 13.3018 8.04008 13.6805L8.5052 16.9811C8.55856 17.3598 8.29246 17.7097 7.91086 17.7626C7.52926 17.8156 7.17665 17.5516 7.12329 17.1729L6.65818 13.8722C6.60482 13.4936 6.87091 13.1437 7.25251 13.0907ZM16.7481 13.0907C17.1297 13.1437 17.3958 13.4936 17.3424 13.8722L16.8773 17.1729C16.8239 17.5516 16.4713 17.8156 16.0897 17.7626C15.7081 17.7097 15.442 17.3598 15.4954 16.9811L15.9605 13.6805C16.0139 13.3018 16.3665 13.0378 16.7481 13.0907ZM12.698 13.8463C12.698 13.4639 12.3856 13.154 12.0003 13.154C11.615 13.154 11.3026 13.4639 11.3026 13.8463V17.077C11.3026 17.4594 11.615 17.7693 12.0003 17.7693C12.3856 17.7693 12.698 17.4594 12.698 17.077V13.8463Z" fill="#F2F6F9"/>
</svg>
