<svg width="24" height="24" viewBox="0 0 24 24" fill="none" xmlns="http://www.w3.org/2000/svg">
<path fill-rule="evenodd" clip-rule="evenodd" d="M10.8301 3.02826C11.1998 3.13604 11.4115 3.52079 11.3028 3.88763L9.51579 9.92319H14.4842L12.6972 3.88763C12.5885 3.52079 12.8002 3.13604 13.1699 3.02826C13.5396 2.92048 13.9273 3.13049 14.0359 3.49733L15.9385 9.92319L18.465 9.92319C19.1549 9.92315 19.7469 9.92311 20.2145 9.98993C20.7149 10.0614 21.1943 10.2242 21.5543 10.6447C21.9119 11.0625 22.0009 11.559 22 12.0633C21.9991 12.5388 21.9158 13.1299 21.8179 13.8242L21.5543 15.6937C21.3999 16.7888 21.275 17.6743 21.0876 18.3673C20.8928 19.0873 20.6096 19.6853 20.0821 20.1488C19.553 20.6137 18.924 20.8153 18.1869 20.9097C17.4808 21 16.5957 21 15.5059 21H8.49406C7.40426 21 6.51922 21 5.8131 20.9097C5.07605 20.8153 4.44697 20.6137 3.91788 20.1488C3.39044 19.6853 3.10725 19.0873 2.91244 18.3673C2.72497 17.6743 2.60014 16.7889 2.44574 15.6937L2.18214 13.8241C2.08423 13.1299 2.00085 12.5387 2.00001 12.0633C1.99911 11.559 2.08814 11.0625 2.44575 10.6447C2.80567 10.2242 3.28506 10.0614 3.78546 9.98993C4.25308 9.92311 4.84509 9.92315 5.53505 9.92319L8.06147 9.92319L9.96408 3.49733C10.0727 3.13049 10.4604 2.92048 10.8301 3.02826ZM3.98434 11.3604C3.64946 11.4082 3.55797 11.4841 3.50924 11.5411C3.45819 11.6007 3.39473 11.7106 3.39535 12.0609C3.39601 12.4292 3.46428 12.9247 3.57082 13.6804L3.82126 15.4566C3.98356 16.6078 4.09763 17.4078 4.26007 18.0083C4.41775 18.5911 4.59979 18.8985 4.84297 19.1122C5.08451 19.3245 5.40583 19.4615 5.99159 19.5364C6.59806 19.6141 7.39282 19.6154 8.54153 19.6154H15.4585C16.6072 19.6154 17.4019 19.6141 18.0084 19.5364C18.5942 19.4615 18.9155 19.3245 19.157 19.1122C19.4002 18.8985 19.5823 18.5911 19.7399 18.0083C19.9024 17.4078 20.0164 16.6078 20.1787 15.4566L20.4292 13.6804C20.5357 12.9247 20.604 12.4293 20.6046 12.0609C20.6053 11.7106 20.5418 11.6007 20.4908 11.5411C20.442 11.4841 20.3505 11.4082 20.0157 11.3604C19.6594 11.3095 19.1692 11.3078 18.4145 11.3078H5.58549C4.83083 11.3078 4.34063 11.3095 3.98434 11.3604ZM7.25222 13.0907C7.63382 13.0377 7.98643 13.3018 8.03979 13.6804L8.5049 16.9811C8.55827 17.3598 8.29217 17.7096 7.91057 17.7626C7.52897 17.8155 7.17636 17.5515 7.123 17.1728L6.65788 13.8722C6.60452 13.4935 6.87062 13.1436 7.25222 13.0907ZM16.7478 13.0907C17.1294 13.1436 17.3955 13.4935 17.3421 13.8722L16.877 17.1728C16.8236 17.5515 16.471 17.8155 16.0894 17.7626C15.7078 17.7096 15.4417 17.3598 15.4951 16.9811L15.9602 13.6804C16.0136 13.3018 16.3662 13.0377 16.7478 13.0907ZM12 13.1539C12.3853 13.1539 12.6977 13.4639 12.6977 13.8462V17.077C12.6977 17.4593 12.3853 17.7693 12 17.7693C11.6147 17.7693 11.3023 17.4593 11.3023 17.077V13.8462C11.3023 13.4639 11.6147 13.1539 12 13.1539Z" fill="#F2F6F9"/>
</svg>
