<svg width="24" height="24" viewBox="0 0 24 24" fill="none" xmlns="http://www.w3.org/2000/svg">
<path fill-rule="evenodd" clip-rule="evenodd" d="M8.22802 2H15.772C17.0442 1.99998 18.0696 1.99997 18.876 2.10839C19.7134 2.22097 20.4184 2.4618 20.9783 3.02172C21.5382 3.58164 21.779 4.28664 21.8916 5.12395C22 5.93043 22 6.95585 22 8.22803V15.772C22 17.0441 22 18.0696 21.8916 18.876C21.779 19.7134 21.5382 20.4184 20.9783 20.9783C20.4184 21.5382 19.7134 21.779 18.876 21.8916C18.0696 22 17.0441 22 15.772 22H8.22803C6.95585 22 5.93043 22 5.12395 21.8916C4.28664 21.779 3.58164 21.5382 3.02172 20.9783C2.4618 20.4184 2.22097 19.7134 2.10839 18.876C1.99997 18.0696 1.99998 17.0442 2 15.772V8.22802C1.99998 6.95585 1.99997 5.93043 2.10839 5.12395C2.22097 4.28664 2.4618 3.58164 3.02172 3.02172C3.58164 2.4618 4.28664 2.22097 5.12395 2.10839C5.93043 1.99997 6.95585 1.99998 8.22802 2ZM5.30988 3.4913C4.6273 3.58307 4.26584 3.75093 4.00838 4.00838C3.75093 4.26584 3.58307 4.6273 3.4913 5.30988C3.39683 6.01253 3.39535 6.9438 3.39535 8.27907V15.7209C3.39535 17.0562 3.39683 17.9875 3.4913 18.6901C3.58307 19.3727 3.75093 19.7342 4.00838 19.9916C4.26584 20.2491 4.6273 20.4169 5.30988 20.5087C6.01253 20.6032 6.9438 20.6047 8.27907 20.6047H15.7209C17.0562 20.6047 17.9875 20.6032 18.6901 20.5087C19.3727 20.4169 19.7342 20.2491 19.9916 19.9916C20.2491 19.7342 20.4169 19.3727 20.5087 18.6901C20.6032 17.9875 20.6047 17.0562 20.6047 15.7209V8.27907C20.6047 6.9438 20.6032 6.01253 20.5087 5.30988C20.4169 4.6273 20.2491 4.26584 19.9916 4.00838C19.7342 3.75093 19.3727 3.58307 18.6901 3.4913C17.9875 3.39683 17.0562 3.39535 15.7209 3.39535H8.27907C6.9438 3.39535 6.01253 3.39683 5.30988 3.4913ZM6.39039 6.39039C6.66285 6.11793 7.10459 6.11793 7.37705 6.39039L8.27907 7.29241L9.18109 6.39039C9.45355 6.11793 9.89529 6.11793 10.1677 6.39039C10.4402 6.66285 10.4402 7.10459 10.1677 7.37705L9.26573 8.27907L10.1677 9.18109C10.4402 9.45355 10.4402 9.89529 10.1677 10.1677C9.89529 10.4402 9.45355 10.4402 9.18109 10.1677L8.27907 9.26573L7.37705 10.1677C7.10459 10.4402 6.66285 10.4402 6.39039 10.1677C6.11793 9.89529 6.11793 9.45355 6.39039 9.18109L7.29241 8.27907L6.39039 7.37705C6.11793 7.10459 6.11793 6.66285 6.39039 6.39039ZM13.1628 8.27907C13.1628 7.89375 13.4752 7.5814 13.8605 7.5814H17.5814C17.9667 7.5814 18.2791 7.89375 18.2791 8.27907C18.2791 8.66438 17.9667 8.97674 17.5814 8.97674H13.8605C13.4752 8.97674 13.1628 8.66438 13.1628 8.27907ZM8.27907 13.1628C8.66438 13.1628 8.97674 13.4752 8.97674 13.8605V15.0233H10.1395C10.5248 15.0233 10.8372 15.3356 10.8372 15.7209C10.8372 16.1062 10.5248 16.4186 10.1395 16.4186H8.97674V17.5814C8.97674 17.9667 8.66438 18.2791 8.27907 18.2791C7.89375 18.2791 7.5814 17.9667 7.5814 17.5814V16.4186H6.41861C6.03329 16.4186 5.72093 16.1062 5.72093 15.7209C5.72093 15.3356 6.03329 15.0233 6.41861 15.0233H7.5814V13.8605C7.5814 13.4752 7.89375 13.1628 8.27907 13.1628ZM13.1628 14.3256C13.1628 13.9403 13.4752 13.6279 13.8605 13.6279H17.5814C17.9667 13.6279 18.2791 13.9403 18.2791 14.3256C18.2791 14.7109 17.9667 15.0233 17.5814 15.0233H13.8605C13.4752 15.0233 13.1628 14.7109 13.1628 14.3256ZM13.1628 17.1163C13.1628 16.731 13.4752 16.4186 13.8605 16.4186H17.5814C17.9667 16.4186 18.2791 16.731 18.2791 17.1163C18.2791 17.5016 17.9667 17.814 17.5814 17.814H13.8605C13.4752 17.814 13.1628 17.5016 13.1628 17.1163Z" fill="#F2F6F9"/>
</svg>
