<svg width="24" height="24" viewBox="0 0 24 24" fill="none" xmlns="http://www.w3.org/2000/svg">
<path fill-rule="evenodd" clip-rule="evenodd" d="M8.22802 2H15.772C17.0441 1.99998 18.0696 1.99997 18.876 2.1084C19.7134 2.22097 20.4184 2.4618 20.9783 3.02172C21.5382 3.58164 21.779 4.28664 21.8916 5.12395C22 5.93044 22 6.95585 22 8.22803V15.772C22 17.0441 22 18.0696 21.8916 18.876C21.779 19.7134 21.5382 20.4184 20.9783 20.9783C20.4184 21.5382 19.7134 21.779 18.876 21.8916C18.0696 22 17.0441 22 15.772 22H8.22803C6.95585 22 5.93044 22 5.12395 21.8916C4.28665 21.779 3.58165 21.5382 3.02172 20.9783C2.4618 20.4184 2.22097 19.7134 2.1084 18.876C1.99997 18.0696 1.99998 17.0442 2 15.772V8.22802C1.99998 6.95588 1.99997 5.93042 2.1084 5.12395C2.22097 4.28664 2.4618 3.58164 3.02172 3.02172C3.58165 2.4618 4.28664 2.22097 5.12395 2.1084C5.93043 1.99997 6.95586 1.99998 8.22802 2ZM7.37705 6.39039C7.10459 6.11793 6.66285 6.11793 6.39039 6.39039C6.11793 6.66285 6.11793 7.10459 6.39039 7.37705L7.29241 8.27907L6.39039 9.18109C6.11793 9.45355 6.11793 9.89529 6.39039 10.1677C6.66285 10.4402 7.10459 10.4402 7.37705 10.1677L8.27907 9.26573L9.18109 10.1677C9.45355 10.4402 9.89529 10.4402 10.1677 10.1677C10.4402 9.89529 10.4402 9.45355 10.1677 9.18109L9.26573 8.27907L10.1677 7.37705C10.4402 7.10459 10.4402 6.66285 10.1677 6.39039C9.89529 6.11793 9.45355 6.11793 9.18109 6.39039L8.27907 7.29241L7.37705 6.39039ZM13.8605 8.97674H17.5814C17.9667 8.97674 18.2791 8.66438 18.2791 8.27907C18.2791 7.89375 17.9667 7.5814 17.5814 7.5814H13.8605C13.4751 7.5814 13.1628 7.89375 13.1628 8.27907C13.1628 8.66438 13.4751 8.97674 13.8605 8.97674ZM13.8605 13.6279C13.4751 13.6279 13.1628 13.9403 13.1628 14.3256C13.1628 14.7109 13.4751 15.0233 13.8605 15.0233H17.5814C17.9667 15.0233 18.2791 14.7109 18.2791 14.3256C18.2791 13.9403 17.9667 13.6279 17.5814 13.6279H13.8605ZM8.97674 13.8605C8.97674 13.4751 8.66438 13.1628 8.27907 13.1628C7.89375 13.1628 7.58139 13.4751 7.58139 13.8605V15.0233H6.4186C6.03329 15.0233 5.72093 15.3356 5.72093 15.7209C5.72093 16.1062 6.03329 16.4186 6.4186 16.4186H7.58139V17.5814C7.58139 17.9667 7.89375 18.2791 8.27907 18.2791C8.66438 18.2791 8.97674 17.9667 8.97674 17.5814V16.4186H10.1395C10.5248 16.4186 10.8372 16.1062 10.8372 15.7209C10.8372 15.3356 10.5248 15.0233 10.1395 15.0233H8.97674V13.8605ZM13.8605 16.4186C13.4751 16.4186 13.1628 16.731 13.1628 17.1163C13.1628 17.5016 13.4751 17.814 13.8605 17.814H17.5814C17.9667 17.814 18.2791 17.5016 18.2791 17.1163C18.2791 16.731 17.9667 16.4186 17.5814 16.4186H13.8605Z" fill="#F2F6F9"/>
</svg>
