<svg width="24" height="24" viewBox="0 0 24 24" fill="none" xmlns="http://www.w3.org/2000/svg">
<path fill-rule="evenodd" clip-rule="evenodd" d="M6.41861 3C6.80392 3 7.11628 3.31236 7.11628 3.69767V4.32888C7.47377 4.32558 7.85839 4.32558 8.27065 4.32558H11.3023V3.69767C11.3023 3.31236 11.6147 3 12 3C12.3853 3 12.6977 3.31236 12.6977 3.69767V4.32558H15.7294C16.1416 4.32558 16.5262 4.32558 16.8837 4.32888V3.69767C16.8837 3.31236 17.1961 3 17.5814 3C17.9667 3 18.2791 3.31236 18.2791 3.69767V4.37409C19.3967 4.4519 20.2992 4.66824 20.9783 5.3473C21.5382 5.90722 21.779 6.61222 21.8916 7.44953C22 8.25602 22 9.28143 22 10.5536V14.772C22 16.0441 22 17.0696 21.8916 17.876C21.779 18.7134 21.5382 19.4184 20.9783 19.9783C20.4184 20.5382 19.7134 20.779 18.876 20.8916C18.0696 21 17.0441 21 15.772 21H8.22803C6.95585 21 5.93043 21 5.12395 20.8916C4.28664 20.779 3.58164 20.5382 3.02172 19.9783C2.4618 19.4184 2.22097 18.7134 2.10839 17.876C1.99997 17.0696 1.99998 16.0442 2 14.772V10.5536C1.99998 9.28143 1.99997 8.25601 2.10839 7.44953C2.22097 6.61222 2.4618 5.90722 3.02172 5.3473C3.70079 4.66824 4.60333 4.4519 5.72093 4.37409V3.69767C5.72093 3.31236 6.03329 3 6.41861 3ZM8.27907 5.72093C7.56507 5.72093 6.96181 5.721 6.43962 5.73673C4.98409 5.78058 4.39032 5.95202 4.00838 6.33396C3.75093 6.59142 3.58307 6.95288 3.4913 7.63546C3.39683 8.33811 3.39535 9.26938 3.39535 10.6047V14.7209C3.39535 16.0562 3.39683 16.9875 3.4913 17.6901C3.58307 18.3727 3.75093 18.7342 4.00838 18.9916C4.26584 19.2491 4.6273 19.4169 5.30988 19.5087C6.01253 19.6032 6.9438 19.6047 8.27907 19.6047H15.7209C17.0562 19.6047 17.9875 19.6032 18.6901 19.5087C19.3727 19.4169 19.7342 19.2491 19.9916 18.9916C20.2491 18.7342 20.4169 18.3727 20.5087 17.6901C20.6032 16.9875 20.6047 16.0562 20.6047 14.7209V10.6047C20.6047 9.26938 20.6032 8.33811 20.5087 7.63546C20.4169 6.95288 20.2491 6.59142 19.9916 6.33396C19.6097 5.95202 19.0159 5.78058 17.5604 5.73673C17.0382 5.721 16.4349 5.72093 15.7209 5.72093H8.27907Z" fill="#F2F6F9"/>
<path d="M5.95349 9.67442C5.95349 9.06279 5.95349 8.75698 6.12241 8.55115C6.15333 8.51347 6.18789 8.47892 6.22557 8.44799C6.4314 8.27907 6.73721 8.27907 7.34884 8.27907C7.96046 8.27907 8.26627 8.27907 8.47211 8.44799C8.50979 8.47892 8.54434 8.51347 8.57526 8.55115C8.74419 8.75698 8.74419 9.06279 8.74419 9.67442C8.74419 10.286 8.74419 10.5919 8.57526 10.7977C8.54434 10.8354 8.50979 10.8699 8.47211 10.9008C8.26627 11.0698 7.96046 11.0698 7.34884 11.0698C6.73721 11.0698 6.4314 11.0698 6.22557 10.9008C6.18789 10.8699 6.15333 10.8354 6.12241 10.7977C5.95349 10.5919 5.95349 10.286 5.95349 9.67442Z" fill="#F2F6F9"/>
<path d="M5.95349 14.3256C5.95349 13.714 5.95349 13.4081 6.12241 13.2023C6.15333 13.1646 6.18789 13.1301 6.22557 13.0992C6.4314 12.9302 6.73721 12.9302 7.34884 12.9302C7.96046 12.9302 8.26627 12.9302 8.47211 13.0992C8.50979 13.1301 8.54434 13.1646 8.57526 13.2023C8.74419 13.4081 8.74419 13.714 8.74419 14.3256C8.74419 14.9372 8.74419 15.243 8.57526 15.4488C8.54434 15.4865 8.50979 15.5211 8.47211 15.552C8.26627 15.7209 7.96046 15.7209 7.34884 15.7209C6.73721 15.7209 6.4314 15.7209 6.22557 15.552C6.18789 15.5211 6.15333 15.4865 6.12241 15.4488C5.95349 15.243 5.95349 14.9372 5.95349 14.3256Z" fill="#F2F6F9"/>
<path d="M10.6047 9.67442C10.6047 9.06279 10.6047 8.75698 10.7736 8.55115C10.8045 8.51347 10.839 8.47892 10.8767 8.44799C11.0826 8.27907 11.3884 8.27907 12 8.27907C12.6116 8.27907 12.9174 8.27907 13.1233 8.44799C13.1609 8.47892 13.1955 8.51347 13.2264 8.55115C13.3953 8.75698 13.3953 9.06279 13.3953 9.67442C13.3953 10.286 13.3953 10.5919 13.2264 10.7977C13.1955 10.8354 13.1609 10.8699 13.1233 10.9008C12.9174 11.0698 12.6116 11.0698 12 11.0698C11.3884 11.0698 11.0826 11.0698 10.8767 10.9008C10.839 10.8699 10.8045 10.8354 10.7736 10.7977C10.6047 10.5919 10.6047 10.286 10.6047 9.67442Z" fill="#F2F6F9"/>
<path d="M10.6047 14.3256C10.6047 13.714 10.6047 13.4081 10.7736 13.2023C10.8045 13.1646 10.839 13.1301 10.8767 13.0992C11.0826 12.9302 11.3884 12.9302 12 12.9302C12.6116 12.9302 12.9174 12.9302 13.1233 13.0992C13.1609 13.1301 13.1955 13.1646 13.2264 13.2023C13.3953 13.4081 13.3953 13.714 13.3953 14.3256C13.3953 14.9372 13.3953 15.243 13.2264 15.4488C13.1955 15.4865 13.1609 15.5211 13.1233 15.552C12.9174 15.7209 12.6116 15.7209 12 15.7209C11.3884 15.7209 11.0826 15.7209 10.8767 15.552C10.839 15.5211 10.8045 15.4865 10.7736 15.4488C10.6047 15.243 10.6047 14.9372 10.6047 14.3256Z" fill="#F2F6F9"/>
<path d="M15.2558 9.67442C15.2558 9.06279 15.2558 8.75698 15.4247 8.55115C15.4557 8.51347 15.4902 8.47892 15.5279 8.44799C15.7337 8.27907 16.0395 8.27907 16.6512 8.27907C17.2628 8.27907 17.5686 8.27907 17.7744 8.44799C17.8121 8.47892 17.8467 8.51347 17.8776 8.55115C18.0465 8.75698 18.0465 9.06279 18.0465 9.67442C18.0465 10.286 18.0465 10.5919 17.8776 10.7977C17.8467 10.8354 17.8121 10.8699 17.7744 10.9008C17.5686 11.0698 17.2628 11.0698 16.6512 11.0698C16.0395 11.0698 15.7337 11.0698 15.5279 10.9008C15.4902 10.8699 15.4557 10.8354 15.4247 10.7977C15.2558 10.5919 15.2558 10.286 15.2558 9.67442Z" fill="#F2F6F9"/>
</svg>
