<svg width="24" height="24" viewBox="0 0 24 24" fill="none" xmlns="http://www.w3.org/2000/svg">
<path fill-rule="evenodd" clip-rule="evenodd" d="M7.11628 3.69767C7.11628 3.31236 6.80392 3 6.41861 3C6.03329 3 5.72093 3.31236 5.72093 3.69767V4.37409C4.60334 4.4519 3.70079 4.66824 3.02172 5.3473C2.4618 5.90722 2.22097 6.61222 2.1084 7.44953C1.99997 8.25601 1.99998 9.28141 2 10.5536V14.772C1.99998 16.0441 1.99997 17.0696 2.1084 17.876C2.22097 18.7134 2.4618 19.4184 3.02172 19.9783C3.58164 20.5382 4.28664 20.779 5.12395 20.8916C5.93044 21 6.95585 21 8.22803 21H15.772C17.0442 21 18.0696 21 18.876 20.8916C19.7134 20.779 20.4184 20.5382 20.9783 19.9783C21.5382 19.4184 21.779 18.7134 21.8916 17.876C22 17.0696 22 16.0441 22 14.772V10.5536C22 9.28143 22 8.25602 21.8916 7.44953C21.779 6.61222 21.5382 5.90722 20.9783 5.3473C20.2992 4.66824 19.3967 4.4519 18.2791 4.37409V3.69767C18.2791 3.31236 17.9667 3 17.5814 3C17.1961 3 16.8837 3.31236 16.8837 3.69767V4.32888C16.5263 4.32558 16.1417 4.32558 15.7295 4.32558H12.6977V3.69767C12.6977 3.31236 12.3853 3 12 3C11.6147 3 11.3023 3.31236 11.3023 3.69767V4.32558H8.27065C7.85846 4.32558 7.47372 4.32558 7.11628 4.32888V3.69767ZM5.95349 9.6744C5.95349 9.06278 5.95349 8.75696 6.12241 8.55113C6.15334 8.51345 6.18789 8.4789 6.22557 8.44798C6.4314 8.27905 6.73722 8.27905 7.34884 8.27905C7.96047 8.27905 8.26628 8.27905 8.47211 8.44798C8.50979 8.4789 8.54434 8.51345 8.57527 8.55113C8.74419 8.75696 8.74419 9.06278 8.74419 9.6744C8.74419 10.286 8.74419 10.5918 8.57527 10.7977C8.54434 10.8354 8.50979 10.8699 8.47211 10.9008C8.26628 11.0697 7.96047 11.0698 7.34884 11.0698C6.73722 11.0698 6.4314 11.0697 6.22557 10.9008C6.18789 10.8699 6.15334 10.8354 6.12241 10.7977C5.95349 10.5918 5.95349 10.286 5.95349 9.6744ZM5.95349 14.3256C5.95349 13.7139 5.95349 13.4081 6.12241 13.2023C6.15334 13.1646 6.18789 13.1301 6.22557 13.0991C6.4314 12.9302 6.73721 12.9302 7.34882 12.9302C7.96043 12.9302 8.26628 12.9302 8.47211 13.0991C8.50979 13.1301 8.54434 13.1646 8.57527 13.2023C8.74419 13.4081 8.74419 13.7139 8.74419 14.3256C8.74419 14.9372 8.74419 15.243 8.57527 15.4488C8.54434 15.4865 8.50979 15.5211 8.47211 15.552C8.26628 15.7209 7.96047 15.7209 7.34884 15.7209C6.73722 15.7209 6.4314 15.7209 6.22557 15.552C6.18789 15.5211 6.15334 15.4865 6.12241 15.4488C5.95349 15.243 5.95349 14.9372 5.95349 14.3256ZM10.7736 8.55113C10.6047 8.75696 10.6047 9.06278 10.6047 9.6744C10.6047 10.286 10.6047 10.5918 10.7736 10.7977C10.8045 10.8354 10.8391 10.8699 10.8767 10.9008C11.0826 11.0697 11.3884 11.0698 12 11.0698C12.6116 11.0698 12.9174 11.0697 13.1233 10.9008C13.161 10.8699 13.1955 10.8354 13.2264 10.7977C13.3954 10.5918 13.3954 10.286 13.3954 9.67441C13.3954 9.06279 13.3954 8.75696 13.2264 8.55113C13.1955 8.51345 13.161 8.4789 13.1233 8.44798C12.9174 8.27905 12.6116 8.27905 12 8.27905C11.3884 8.27905 11.0826 8.27905 10.8767 8.44798C10.8391 8.4789 10.8045 8.51345 10.7736 8.55113ZM10.6047 14.3256C10.6047 13.7139 10.6047 13.4081 10.7736 13.2023C10.8045 13.1646 10.8391 13.1301 10.8767 13.0991C11.0826 12.9302 11.3884 12.9302 12 12.9302C12.6116 12.9302 12.9174 12.9302 13.1233 13.0991C13.161 13.1301 13.1955 13.1646 13.2264 13.2023C13.3954 13.4081 13.3954 13.7139 13.3954 14.3256C13.3954 14.9372 13.3954 15.243 13.2264 15.4488C13.1955 15.4865 13.161 15.5211 13.1233 15.552C12.9174 15.7209 12.6116 15.7209 12 15.7209C11.3884 15.7209 11.0826 15.7209 10.8767 15.552C10.8391 15.5211 10.8045 15.4865 10.7736 15.4488C10.6047 15.243 10.6047 14.9372 10.6047 14.3256ZM15.4247 8.55113C15.2558 8.75696 15.2558 9.06278 15.2558 9.6744C15.2558 10.286 15.2558 10.5918 15.4247 10.7977C15.4557 10.8354 15.4902 10.8699 15.5279 10.9008C15.7337 11.0697 16.0395 11.0698 16.6512 11.0698C17.2628 11.0698 17.5686 11.0697 17.7744 10.9008C17.8121 10.8699 17.8467 10.8354 17.8776 10.7977C18.0465 10.5918 18.0465 10.286 18.0465 9.6744C18.0465 9.06278 18.0465 8.75696 17.8776 8.55113C17.8467 8.51345 17.8121 8.4789 17.7744 8.44798C17.5686 8.27905 17.2628 8.27905 16.6512 8.27905C16.0395 8.27905 15.7337 8.27905 15.5279 8.44798C15.4902 8.4789 15.4557 8.51345 15.4247 8.55113Z" fill="#F2F6F9"/>
</svg>
