<svg width="24" height="24" viewBox="0 0 24 24" fill="none" xmlns="http://www.w3.org/2000/svg">
<path d="M8.97641 12.9144C8.97641 11.2733 10.33 9.94296 11.9997 9.94296C13.6694 9.94296 15.0229 11.2733 15.0229 12.9144C15.0229 14.5555 13.6694 15.8858 11.9997 15.8858C10.33 15.8858 8.97641 14.5555 8.97641 12.9144Z" fill="#F2F6F9"/>
<path fill-rule="evenodd" clip-rule="evenodd" d="M12.849 4H11.151C10.6608 3.99999 10.2451 3.99998 9.90084 4.03194C9.53544 4.06586 9.19573 4.13939 8.8698 4.31785C8.76479 4.37535 8.66404 4.44005 8.56828 4.51147C8.27109 4.73315 8.06613 5.00939 7.88775 5.32466C7.71969 5.62169 7.55275 5.99582 7.35585 6.4371L7.34327 6.4653C7.03022 7.16682 6.93746 7.34736 6.80429 7.47819C6.77599 7.506 6.74625 7.53235 6.71519 7.55713C6.56902 7.67378 6.37672 7.74578 5.63441 7.97925L5.0347 8.16786C4.44264 8.35405 3.94252 8.51133 3.54914 8.68596C3.13106 8.87156 2.76785 9.10372 2.49192 9.47524C2.216 9.84676 2.10172 10.2575 2.0493 10.7054C1.99997 11.1269 1.99998 11.6429 2 12.2539V15.7047C1.99998 16.5261 1.99996 17.2112 2.07434 17.755C2.15286 18.3289 2.32557 18.8472 2.74927 19.2636C3.17296 19.68 3.70022 19.8498 4.28421 19.9269C4.8375 20 5.53445 20 6.37024 20H17.6298C18.4656 20 19.1625 20 19.7158 19.9269C20.2998 19.8498 20.827 19.68 21.2507 19.2636C21.6744 18.8472 21.8472 18.3289 21.9257 17.755C22.0001 17.2112 22 16.5262 22 15.7047V12.254C22 11.6431 22 11.1269 21.9507 10.7054C21.8983 10.2575 21.784 9.84676 21.5081 9.47524C21.243 9.11835 20.8974 8.89006 20.5 8.70811V8.52476C20.5 8.33076 20.5 8.23376 20.4853 8.14897C20.4253 7.80299 20.1883 7.51382 19.8608 7.38714C19.7805 7.3561 19.6854 7.33708 19.4951 7.29903C19.2233 7.24465 19.0873 7.21746 18.9764 7.22008C18.5592 7.22994 18.1968 7.49684 18.0588 7.88176C17.5649 7.72245 17.4084 7.65574 17.2848 7.55713C17.2538 7.53234 17.224 7.506 17.1957 7.47819C17.0625 7.34736 16.9698 7.16682 16.6567 6.4653L16.6442 6.43711C16.4473 5.99584 16.2803 5.62169 16.1123 5.32466C15.9339 5.00939 15.7289 4.73315 15.4317 4.51147C15.336 4.44005 15.2352 4.37535 15.1302 4.31785C14.8043 4.13939 14.4646 4.06586 14.0992 4.03194C13.7549 3.99998 13.3392 3.99999 12.849 4ZM11.9997 8.57153C9.55933 8.57153 7.58106 10.5159 7.58106 12.9144C7.58106 15.3129 9.55933 17.2572 11.9997 17.2572C14.44 17.2572 16.4183 15.3129 16.4183 12.9144C16.4183 10.5159 14.44 8.57153 11.9997 8.57153ZM14 6.75C14 6.33579 13.6642 6 13.25 6H10.75C10.3358 6 10 6.33579 10 6.75C10 7.16421 10.3358 7.5 10.75 7.5L13.25 7.5C13.6642 7.5 14 7.16421 14 6.75Z" fill="#F2F6F9"/>
</svg>
