<svg width="24" height="24" viewBox="0 0 24 24" fill="none" xmlns="http://www.w3.org/2000/svg">
<path fill-rule="evenodd" clip-rule="evenodd" d="M12 8.57143C9.55967 8.57143 7.5814 10.5158 7.5814 12.9143C7.5814 15.3128 9.55967 17.2571 12 17.2571C14.4403 17.2571 16.4186 15.3128 16.4186 12.9143C16.4186 10.5158 14.4403 8.57143 12 8.57143ZM8.97675 12.9143C8.97675 11.2732 10.3303 9.94286 12 9.94286C13.6697 9.94286 15.0233 11.2732 15.0233 12.9143C15.0233 14.5554 13.6697 15.8857 12 15.8857C10.3303 15.8857 8.97675 14.5554 8.97675 12.9143Z" fill="#F2F6F9"/>
<path fill-rule="evenodd" clip-rule="evenodd" d="M12.849 4H11.151C10.6608 3.99999 10.2451 3.99998 9.90084 4.03194C9.53544 4.06586 9.19572 4.13939 8.8698 4.31785C8.76479 4.37535 8.66403 4.44005 8.56828 4.51147C8.27109 4.73315 8.06613 5.00939 7.88775 5.32466C7.71969 5.62169 7.55275 5.99582 7.35585 6.4371L7.34326 6.4653C7.03021 7.16682 6.93746 7.34736 6.80429 7.47819C6.77599 7.506 6.74625 7.53235 6.71519 7.55713C6.56902 7.67378 6.37672 7.74578 5.63441 7.97925L5.0347 8.16786C4.44264 8.35405 3.94252 8.51133 3.54913 8.68596C3.13105 8.87156 2.76784 9.10372 2.49192 9.47524C2.21599 9.84676 2.10172 10.2575 2.04929 10.7054C1.99996 11.1269 1.99998 11.643 2 12.2539V15.7047C1.99997 16.5261 1.99995 17.2112 2.07434 17.755C2.15286 18.3289 2.32557 18.8472 2.74927 19.2636C3.17296 19.68 3.70021 19.8498 4.28421 19.9269C4.83749 20 5.53444 20 6.37024 20H17.6298C18.4656 20 19.1625 20 19.7158 19.9269C20.2998 19.8498 20.827 19.68 21.2507 19.2636C21.6744 18.8472 21.8471 18.3289 21.9257 17.755C22.0001 17.2112 22 16.5262 22 15.7047V12.254C22 11.6431 22 11.1269 21.9507 10.7054C21.8983 10.2575 21.784 9.84676 21.5081 9.47524C21.243 9.11835 20.8974 8.89006 20.5 8.70811V8.52476C20.5 8.33076 20.5 8.23376 20.4853 8.14897C20.4253 7.80299 20.1883 7.51382 19.8608 7.38714C19.7805 7.3561 19.6854 7.33708 19.4951 7.29903C19.2233 7.24465 19.0873 7.21746 18.9764 7.22008C18.5592 7.22994 18.1968 7.49683 18.0588 7.88176C17.5649 7.72244 17.4084 7.65574 17.2848 7.55713C17.2538 7.53234 17.224 7.506 17.1957 7.47819C17.0625 7.34736 16.9698 7.16682 16.6567 6.4653L16.6442 6.43711C16.4473 5.99584 16.2803 5.62169 16.1123 5.32466C15.9339 5.00939 15.7289 4.73315 15.4317 4.51147C15.336 4.44005 15.2352 4.37535 15.1302 4.31785C14.8043 4.13939 14.4646 4.06586 14.0992 4.03194C13.7549 3.99998 13.3392 3.99999 12.849 4ZM9.54888 5.51591C9.64513 5.4632 9.77498 5.42115 10.0321 5.39729C10.303 5.37214 10.6524 5.37143 11.1823 5.37143H12.8177C13.3476 5.37143 13.697 5.37214 13.9679 5.39729C14.225 5.42115 14.3549 5.4632 14.4511 5.51591C14.4989 5.54204 14.5447 5.57145 14.5882 5.60392C14.6759 5.66938 14.7673 5.76937 14.8928 5.99118C15.025 6.22492 15.166 6.53912 15.3789 7.01615L15.4221 7.11302C15.6703 7.67072 15.8665 8.11135 16.2093 8.44814C16.2715 8.50931 16.3369 8.56727 16.4053 8.62181C16.7816 8.92209 17.2478 9.06826 17.8378 9.25326L18.5028 9.46234C19.142 9.66339 19.5649 9.79748 19.8765 9.93582C20.1717 10.0668 20.2992 10.1736 20.3811 10.2838C20.4629 10.394 20.5275 10.546 20.5645 10.8622C20.6036 11.1961 20.6047 11.6327 20.6047 12.2924V15.6571C20.6047 16.5385 20.6032 17.1306 20.5428 17.5722C20.485 17.9941 20.3853 18.1747 20.2641 18.2938C20.1429 18.413 19.9591 18.511 19.5299 18.5677C19.0805 18.6271 18.4781 18.6286 17.5814 18.6286H6.41861C5.52185 18.6286 4.91947 18.6271 4.47013 18.5677C4.04087 18.511 3.85715 18.413 3.73592 18.2938C3.6147 18.1747 3.51496 17.9941 3.45725 17.5722C3.39683 17.1306 3.39535 16.5385 3.39535 15.6571V12.2924C3.39535 11.6327 3.39642 11.1961 3.4355 10.8622C3.47251 10.546 3.53712 10.394 3.61895 10.2838C3.70078 10.1736 3.82835 10.0668 4.12349 9.93582C4.43512 9.79748 4.85796 9.66339 5.49719 9.46234L6.16217 9.25326C6.75222 9.06826 7.21844 8.92209 7.59472 8.62181C7.66306 8.56727 7.72849 8.50931 7.79074 8.44814C8.13355 8.11135 8.3297 7.67072 8.57795 7.11302L8.62111 7.01615C8.83398 6.53912 8.97498 6.22492 9.10723 5.99118C9.23272 5.76937 9.32406 5.66938 9.41182 5.60392C9.45535 5.57145 9.50115 5.54204 9.54888 5.51591Z" fill="#F2F6F9"/>
</svg>
