<svg width="24" height="24" viewBox="0 0 24 24" fill="none" xmlns="http://www.w3.org/2000/svg">
<path fill-rule="evenodd" clip-rule="evenodd" d="M15.2414 5.07343C14.315 5.01641 13.141 4.99329 12.0022 5.00166C10.8634 4.99329 9.68945 5.01641 8.76304 5.07343C8.30091 5.10187 7.88877 5.13942 7.56938 5.18797C7.41091 5.21205 7.26113 5.24091 7.13374 5.2771C7.07002 5.2952 7.00098 5.31818 6.93425 5.34834C6.87402 5.37556 6.77959 5.42441 6.6941 5.50862C6.58378 5.61727 6.48358 5.76263 6.39824 5.90153C6.30761 6.04906 6.21252 6.22477 6.11681 6.41787C5.92514 6.80459 5.72017 7.28298 5.53203 7.79035C5.23286 8.59715 4.95401 9.53626 4.86004 10.3196C4.47123 10.4093 4.1412 10.6004 3.87217 10.8916C3.51163 11.2819 3.30185 11.8091 3.14945 12.3629C2.97721 12.9887 2.98488 13.8383 3.02109 14.5217C3.0398 14.8748 3.06777 15.2058 3.0905 15.4693C3.11478 15.7507 3.12928 15.9189 3.12928 15.9914C3.12928 16.4316 3.46853 16.6576 3.65666 16.7474C3.8606 16.8447 4.09966 16.8937 4.30101 16.9223C4.47419 16.9469 4.65645 16.9611 4.82653 16.9692V18.3127C4.82653 18.6923 5.13893 19 5.52431 19H6.44565C6.83103 19 7.14343 18.6923 7.14343 18.3127V16.9802H16.861V18.3127C16.861 18.6923 17.1734 19 17.5588 19H18.4801C18.8655 19 19.1779 18.6923 19.1779 18.3127V16.9692C19.348 16.9611 19.5302 16.9469 19.7034 16.9223C19.9048 16.8937 20.1438 16.8447 20.3478 16.7474C20.5359 16.6576 20.8751 16.4316 20.8751 15.9914C20.8751 15.9178 20.8893 15.747 20.9125 15.4651L20.9127 15.4633C20.9347 15.1977 20.9616 14.8644 20.9797 14.5101C21.0145 13.8254 21.0222 12.9755 20.8551 12.3639C20.7068 11.8211 20.497 11.2961 20.1373 10.9037C19.8691 10.6111 19.5377 10.4139 19.1446 10.3212C19.0508 9.53751 18.7718 8.59769 18.4724 7.79035C18.2842 7.28298 18.0793 6.80459 17.8876 6.41787C17.7919 6.22477 17.6968 6.04906 17.6062 5.90153C17.5208 5.76263 17.4206 5.61727 17.3103 5.50862C17.2248 5.42441 17.1304 5.37556 17.0702 5.34834C17.0034 5.31818 16.9344 5.2952 16.8707 5.2771C16.7433 5.24091 16.5935 5.21205 16.435 5.18797C16.1157 5.13942 15.7035 5.10187 15.2414 5.07343ZM12.9168 10.2603H11.1348C11.1258 10.2103 11.1148 10.1544 11.1025 10.092L10.9364 9.25167C10.8957 9.04582 10.8754 8.94289 10.8006 8.88219C10.7258 8.82149 10.6194 8.82149 10.4064 8.82149H8.2188C7.99765 8.82149 7.88708 8.82149 7.81122 8.88563C7.73536 8.94978 7.71861 9.05743 7.68513 9.27274L7.55444 10.113C7.54603 10.1671 7.53843 10.2159 7.53218 10.2603H6.04174C6.13771 9.65734 6.35693 8.90464 6.62441 8.18332C6.80111 7.70681 6.99072 7.26574 7.16189 6.92038C7.2476 6.74744 7.326 6.60396 7.39323 6.49453C7.4242 6.44413 7.45101 6.40387 7.47334 6.37295C7.53361 6.35702 7.62352 6.33875 7.74674 6.32002C8.0155 6.27918 8.38767 6.24422 8.83557 6.21666C9.72806 6.16173 10.8753 6.13885 11.9978 6.14719L12.0066 6.14712C13.1291 6.13879 14.2764 6.16173 15.1689 6.21666C15.6168 6.24422 15.9889 6.27918 16.2577 6.32002C16.3809 6.33875 16.4708 6.35702 16.5311 6.37295C16.5534 6.40387 16.5802 6.44413 16.6112 6.49453C16.6784 6.60396 16.7568 6.74744 16.8425 6.92038C17.0137 7.26574 17.2033 7.70681 17.38 8.18332C17.6475 8.90464 17.8667 9.65734 17.9627 10.2603H16.5194C16.5105 10.2103 16.4995 10.1544 16.4871 10.092L16.3211 9.25167C16.2804 9.04582 16.26 8.94289 16.1853 8.88219C16.1105 8.82149 16.004 8.82149 15.7911 8.82149H13.6035C13.3823 8.82149 13.2717 8.82149 13.1959 8.88563C13.12 8.94978 13.1033 9.05743 13.0698 9.27274L12.9391 10.1133C12.9307 10.167 12.9231 10.2162 12.9168 10.2603ZM7.65043 13.6766C7.65043 14.4429 7.01974 15.0641 6.24175 15.0641C5.46375 15.0641 4.83306 14.4429 4.83306 13.6766C4.83306 12.9104 5.46375 12.2892 6.24175 12.2892C7.01974 12.2892 7.65043 12.9104 7.65043 13.6766ZM17.849 15.0641C18.627 15.0641 19.2577 14.4429 19.2577 13.6766C19.2577 12.9104 18.627 12.2892 17.849 12.2892C17.071 12.2892 16.4403 12.9104 16.4403 13.6766C16.4403 14.4429 17.071 15.0641 17.849 15.0641Z" fill="#F2F6F9"/>
</svg>
