<svg width="24" height="24" viewBox="0 0 24 24" fill="none" xmlns="http://www.w3.org/2000/svg">
<path d="M6.39282 7.95164C5.96469 7.95164 5.61762 8.30981 5.61762 8.75164C5.61762 9.19347 5.96469 9.55164 6.39282 9.55164H17.6073C18.0354 9.55164 18.3825 9.19347 18.3825 8.75164C18.3825 8.30981 18.0354 7.95164 17.6073 7.95164H6.39282Z" fill="#F2F6F9"/>
<path fill-rule="evenodd" clip-rule="evenodd" d="M5.87597 4C3.73533 4 2 5.73309 2 7.87097V16.129C2 18.2669 3.73533 20 5.87597 20H18.124C20.2647 20 22 18.2669 22 16.129V7.87097C22 5.73309 20.2647 4 18.124 4H5.87597ZM3.55039 7.87097C3.55039 6.58824 4.59159 5.54839 5.87597 5.54839H18.124C19.4084 5.54839 20.4496 6.58824 20.4496 7.87097V16.129C20.4496 17.4118 19.4084 18.4516 18.124 18.4516H5.87597C4.59159 18.4516 3.55039 17.4118 3.55039 16.129V7.87097Z" fill="#F2F6F9"/>
</svg>
