<svg width="24" height="24" viewBox="0 0 24 24" fill="none" xmlns="http://www.w3.org/2000/svg">
<path d="M2.69767 5C2.31236 5 2 5.30329 2 5.67742C2 6.05155 2.31236 6.35484 2.69767 6.35484H21.3023C21.6876 6.35484 22 6.05155 22 5.67742C22 5.30329 21.6876 5 21.3023 5H2.69767Z" fill="#F2F6F9"/>
<path d="M2.69767 11.3226C2.31236 11.3226 2 11.6259 2 12C2 12.3741 2.31236 12.6774 2.69767 12.6774H7.30233C7.68764 12.6774 8 12.3741 8 12C8 11.6259 7.68764 11.3226 7.30233 11.3226H2.69767Z" fill="#F2F6F9"/>
<path d="M2.69767 17.6452C2.31236 17.6452 2 17.9485 2 18.3226C2 18.6967 2.31236 19 2.69767 19H9.30233C9.68764 19 10 18.6967 10 18.3226C10 17.9485 9.68764 17.6452 9.30233 17.6452H2.69767Z" fill="#F2F6F9"/>
<path d="M14.4696 11.4694C15.2482 10.6909 16.5104 10.6909 17.289 11.4694C18.0675 12.2479 18.0675 13.5102 17.289 14.2887C16.5104 15.0673 15.2482 15.0673 14.4696 14.2887C13.6911 13.5102 13.6911 12.2479 14.4696 11.4694Z" fill="#F2F6F9"/>
<path fill-rule="evenodd" clip-rule="evenodd" d="M19.3291 9.42905C17.4237 7.52365 14.3344 7.52365 12.429 9.42905C10.5237 11.3344 10.5237 14.4237 12.429 16.3291C14.1681 18.0682 16.8935 18.22 18.8047 16.7844L20.8174 18.7971C21.0879 19.0676 21.5266 19.0676 21.7971 18.7971C22.0676 18.5266 22.0676 18.0879 21.7971 17.8174L19.7844 15.8047C21.22 13.8935 21.0682 11.1681 19.3291 9.42905ZM13.4087 10.4087C14.7731 9.04443 16.9851 9.04443 18.3494 10.4087C19.7137 11.7731 19.7137 13.9851 18.3494 15.3494C16.9851 16.7137 14.7731 16.7137 13.4087 15.3494C12.0444 13.9851 12.0444 11.7731 13.4087 10.4087Z" fill="#F2F6F9"/>
</svg>
