<svg width="24" height="24" viewBox="0 0 24 24" fill="none" xmlns="http://www.w3.org/2000/svg">
<path fill-rule="evenodd" clip-rule="evenodd" d="M2 5.67742C2 5.30329 2.31236 5 2.69767 5H21.3023C21.6876 5 22 5.30329 22 5.67742C22 6.05155 21.6876 6.35484 21.3023 6.35484H2.69767C2.31236 6.35484 2 6.05155 2 5.67742ZM2 12C2 11.6259 2.31236 11.3226 2.69767 11.3226H7.30233C7.68764 11.3226 8 11.6259 8 12C8 12.3741 7.68764 12.6774 7.30233 12.6774H2.69767C2.31236 12.6774 2 12.3741 2 12ZM2 18.3226C2 17.9485 2.31236 17.6452 2.69767 17.6452H9.30233C9.68764 17.6452 10 17.9485 10 18.3226C10 18.6967 9.68764 19 9.30233 19H2.69767C2.31236 19 2 18.6967 2 18.3226Z" fill="#F2F6F9"/>
<path fill-rule="evenodd" clip-rule="evenodd" d="M12.429 9.42905C14.3344 7.52365 17.4237 7.52365 19.3291 9.42905C21.0682 11.1681 21.22 13.8935 19.7844 15.8047L21.7971 17.8174C22.0676 18.0879 22.0676 18.5266 21.7971 18.7971C21.5266 19.0676 21.0879 19.0676 20.8174 18.7971L18.8047 16.7844C16.8935 18.22 14.1681 18.0682 12.429 16.3291C10.5237 14.4237 10.5237 11.3344 12.429 9.42905ZM18.3494 10.4087C16.9851 9.04443 14.7731 9.04443 13.4087 10.4087C12.0444 11.7731 12.0444 13.9851 13.4087 15.3494C14.7731 16.7137 16.9851 16.7137 18.3494 15.3494C19.7137 13.9851 19.7137 11.7731 18.3494 10.4087Z" fill="#F2F6F9"/>
</svg>
