<svg width="24" height="24" viewBox="0 0 24 24" fill="none" xmlns="http://www.w3.org/2000/svg">
<path fill-rule="evenodd" clip-rule="evenodd" d="M20.0782 11.3453H18.7957C18.282 11.3453 17.8655 11.7653 17.8655 12.2835L17.8655 18.5558C17.8656 19.1766 17.8656 19.7201 17.8039 20.1398C17.7387 20.5829 17.5804 21.0712 17.1081 21.3726C16.6359 21.674 16.1306 21.6093 15.7057 21.479C15.3032 21.3557 14.8162 21.123 14.26 20.8572L13.6596 20.5703C13.4217 20.4567 13.2866 20.393 13.1821 20.3548C13.1353 20.3377 13.109 20.3313 13.0956 20.3288L13.0902 20.3279L13.085 20.3273L13.0836 20.3273L13.0822 20.3275C13.0822 20.3275 13.078 20.3284 13.0719 20.3303C13.0589 20.3344 13.0335 20.3439 12.9891 20.3666C12.8899 20.4172 12.7635 20.4969 12.5409 20.6387L11.2738 21.4458C11.0539 21.5859 10.8459 21.7184 10.6583 21.8119C10.4489 21.9162 10.2124 22 9.93276 22C9.65313 22 9.41664 21.9162 9.20721 21.8119C9.01958 21.7184 8.81159 21.5859 8.59168 21.4458L7.32461 20.6387C7.10205 20.4969 6.97559 20.4172 6.87641 20.3666C6.832 20.3439 6.80664 20.3344 6.79365 20.3303C6.78755 20.3284 6.78329 20.3275 6.78329 20.3275L6.78191 20.3273L6.78051 20.3273C6.78051 20.3273 6.77846 20.3275 6.77605 20.3278C6.77605 20.3278 6.77241 20.3284 6.76989 20.3288C6.7565 20.3313 6.73019 20.3377 6.6834 20.3548C6.57888 20.393 6.44381 20.4567 6.20592 20.5703L5.60565 20.8571C5.0494 21.1229 4.56239 21.3556 4.15986 21.479C3.73493 21.6093 3.22961 21.674 2.75739 21.3726C2.28516 21.0712 2.12685 20.5829 2.06166 20.1398C1.99991 19.7201 1.99995 19.1766 2 18.5558L2.00001 8.28144C1.99999 6.99836 1.99997 5.96416 2.1084 5.15077C2.22097 4.30628 2.4618 3.59524 3.02172 3.03052C3.58164 2.4658 4.28663 2.2229 5.12394 2.10936C5.93041 2.00001 6.95582 2.00002 8.22799 2.00004L17.7323 2.00002C18.4531 1.99979 18.9448 1.99964 19.3678 2.1077C20.6093 2.42478 21.5787 3.40249 21.8931 4.65463C22.0003 5.08135 22.0001 8.57727 21.9999 9.30422L21.9999 9.40714L21.9999 9.46412C22.0003 9.67973 22.0008 9.9045 21.95 10.1065C21.8033 10.6908 21.3509 11.1471 20.7716 11.295C20.5713 11.3462 20.3485 11.3457 20.1347 11.3453L20.0782 11.3453ZM8.27903 3.40735H15.54C16.0537 3.40735 16.4702 3.8274 16.4702 4.34555V18.5027C16.4702 19.1925 16.4683 19.6295 16.4236 19.9333C16.4025 20.0773 16.3769 20.1473 16.3619 20.1774L16.3602 20.1807L16.3566 20.1808C16.3232 20.1816 16.2495 20.1749 16.1114 20.1326C15.8201 20.0432 15.4277 19.8579 14.8096 19.5626L14.2332 19.2872C14.0276 19.1889 13.8318 19.0954 13.6573 19.0316C13.4622 18.9603 13.2465 18.9075 12.9993 18.9226C12.7521 18.9377 12.5443 19.0164 12.3591 19.1109C12.1935 19.1954 12.0104 19.3121 11.818 19.4347L10.5537 20.24C10.2999 20.4017 10.1544 20.4933 10.0404 20.5501C9.98917 20.5756 9.96008 20.5858 9.94542 20.5899C9.93857 20.5919 9.93411 20.5926 9.93411 20.5926L9.93276 20.5927L9.93142 20.5926C9.93142 20.5926 9.92696 20.5919 9.92011 20.5899C9.90544 20.5858 9.87635 20.5756 9.82513 20.5501C9.71111 20.4933 9.5656 20.4017 9.31185 20.24L8.04757 19.4347C7.85517 19.3121 7.67202 19.1954 7.5064 19.1109C7.32125 19.0164 7.1134 18.9377 6.86623 18.9226C6.61906 18.9075 6.40331 18.9603 6.20821 19.0316C6.0337 19.0954 5.83797 19.1889 5.63232 19.2872L5.0559 19.5626C4.43778 19.8579 4.04544 20.0432 3.7541 20.1326C3.61602 20.1749 3.54237 20.1816 3.50889 20.1808L3.50529 20.1807L3.50363 20.1774C3.4886 20.1473 3.46307 20.0773 3.44189 19.9333C3.39719 19.6295 3.39534 19.1925 3.39534 18.5027V8.33293C3.39534 6.98621 3.39683 6.04696 3.49129 5.33829C3.58306 4.64986 3.75092 4.2853 4.00837 4.02564C4.26582 3.76598 4.62728 3.59668 5.30986 3.50412C6.01251 3.40884 6.94377 3.40735 8.27903 3.40735Z" fill="#F2F6F9"/>
<path fill-rule="evenodd" clip-rule="evenodd" d="M4.79068 6.92563C4.79068 6.53702 5.10303 6.22198 5.48835 6.22198H14.3255C14.7108 6.22198 15.0232 6.53702 15.0232 6.92563C15.0232 7.31425 14.7108 7.62929 14.3255 7.62929H5.48835C5.10303 7.62929 4.79068 7.31425 4.79068 6.92563Z" fill="#F2F6F9"/>
<path fill-rule="evenodd" clip-rule="evenodd" d="M4.79068 10.2094C4.79068 9.82074 5.10303 9.5057 5.48835 9.5057H14.3255C14.7108 9.5057 15.0232 9.82074 15.0232 10.2094C15.0232 10.598 14.7108 10.913 14.3255 10.913H5.48835C5.10303 10.913 4.79068 10.598 4.79068 10.2094Z" fill="#F2F6F9"/>
<path fill-rule="evenodd" clip-rule="evenodd" d="M4.79068 13.9622C4.79068 13.5736 5.10303 13.2585 5.48835 13.2585H10.1395C10.5248 13.2585 10.8371 13.5736 10.8371 13.9622C10.8371 14.3508 10.5248 14.6658 10.1395 14.6658H5.48835C5.10303 14.6658 4.79068 14.3508 4.79068 13.9622Z" fill="#F2F6F9"/>
</svg>
