<svg width="24" height="24" viewBox="0 0 24 24" fill="none" xmlns="http://www.w3.org/2000/svg">
<path fill-rule="evenodd" clip-rule="evenodd" d="M13.3981 18.614C13.4 18.6293 13.4019 18.6446 13.4037 18.6599C13.4125 18.7355 13.42 18.8102 13.4259 18.884C13.4662 19.3859 13.4363 19.8498 13.3017 20.2829C13.2565 20.4282 13.1995 20.57 13.1294 20.7087L12.4766 22L13.9058 21.6859C14.0563 21.6528 14.2137 21.6126 14.3769 21.5658C15.6042 21.2134 17.1557 20.4841 18.5173 19.5702C19.2938 19.049 20.0306 18.4532 20.6214 17.811C21.2071 17.1744 21.6841 16.4543 21.8791 15.6828C22.376 13.717 21.2793 11.9113 19.7168 10.9571C18.3347 10.1131 16.4881 9.86484 14.8199 10.727C14.7866 10.7442 14.7534 10.7619 14.7203 10.7799L8.62009 2.29025C8.61627 2.28493 8.6124 2.27969 8.60846 2.27452C8.38259 1.97801 7.95669 1.91083 7.64761 2.12638C7.33314 2.3457 7.25867 2.77464 7.48128 3.08445L13.6062 11.6084C13.5794 11.6357 13.5532 11.663 13.5276 11.6906C12.9892 12.2705 12.7138 12.9265 12.6213 13.624C12.5349 14.2762 12.6113 14.9468 12.7374 15.5888C12.7803 15.8069 12.8289 16.0217 12.8787 16.2313C12.9062 16.3466 12.934 16.4603 12.9618 16.5727C12.9839 16.6621 13.006 16.7507 13.0279 16.8385C13.0646 16.9855 13.1008 17.1305 13.1356 17.2738C13.2465 17.7308 13.3433 18.1718 13.3981 18.614ZM14.4832 16.4752L14.4937 16.517C14.6443 17.12 14.8123 17.7928 14.8935 18.4853C14.943 18.9082 14.9609 19.347 14.9191 19.7913C15.7868 19.4431 16.7714 18.9354 17.6813 18.3247C18.3902 17.8489 19.0281 17.3274 19.5175 16.7955C20.0134 16.2564 20.3143 15.7526 20.4249 15.3152C20.7172 14.1587 20.1043 12.9513 18.935 12.2372C17.9092 11.6108 16.5909 11.4677 15.4391 12.0965L14.9883 12.3426L14.6751 12.6608C14.3298 13.0116 14.1656 13.3892 14.1083 13.8212C14.032 14.3965 14.1433 15.0656 14.338 15.8841C14.3851 16.0819 14.4335 16.2759 14.4832 16.4752Z" fill="#F2F6F9"/>
<path d="M5.59978 15.0419C5.86598 14.7675 6.30759 14.7576 6.58613 15.0199C7.1234 15.5258 8.79606 16.5366 10.8608 16.2126C11.2413 16.1529 11.5989 16.4084 11.6595 16.7832C11.7201 17.1581 11.4608 17.5104 11.0803 17.5701C8.47325 17.9792 6.38256 16.7296 5.62211 16.0136C5.34357 15.7514 5.33357 15.3163 5.59978 15.0419Z" fill="#F2F6F9"/>
<path d="M2.1933 16.8747C2.45951 16.6003 2.90111 16.5904 3.17965 16.8527C3.60441 17.2526 4.98641 18.3005 6.83987 18.9985C8.57294 19.6512 10.4949 19.2671 11.2081 18.9985C11.568 18.863 11.9712 19.0405 12.1088 19.3951C12.2464 19.7496 12.0662 20.1469 11.7063 20.2825C10.7973 20.6248 8.50171 21.096 6.34165 20.2825C4.30194 19.5143 2.76412 18.3629 2.21562 17.8464C1.93708 17.5841 1.92709 17.1491 2.1933 16.8747Z" fill="#F2F6F9"/>
</svg>
