<svg width="24" height="24" viewBox="0 0 24 24" fill="none" xmlns="http://www.w3.org/2000/svg">
<path fill-rule="evenodd" clip-rule="evenodd" d="M2.20434 2.20434C2.4768 1.93189 2.91855 1.93189 3.191 2.20434L12 11.0133L20.809 2.20434C21.0815 1.93189 21.5232 1.93189 21.7957 2.20434C22.0681 2.4768 22.0681 2.91855 21.7957 3.191L12.9867 12L21.7957 20.809C22.0681 21.0815 22.0681 21.5232 21.7957 21.7957C21.5232 22.0681 21.0815 22.0681 20.809 21.7957L12 12.9867L3.191 21.7957C2.91855 22.0681 2.4768 22.0681 2.20434 21.7957C1.93189 21.5232 1.93189 21.0815 2.20434 20.809L11.0133 12L2.20434 3.191C1.93189 2.91855 1.93189 2.4768 2.20434 2.20434Z" fill="#F2F6F9"/>
</svg>
