<svg width="24" height="24" viewBox="0 0 24 24" fill="none" xmlns="http://www.w3.org/2000/svg">
<path d="M6.22087 6.22087C6.51536 5.92638 6.99283 5.92638 7.28733 6.22087L12 10.9335L16.7127 6.22087C17.0072 5.92638 17.4846 5.92638 17.7791 6.22087C18.0736 6.51536 18.0736 6.99283 17.7791 7.28733L13.0665 12L17.7791 16.7127C18.0736 17.0072 18.0736 17.4846 17.7791 17.7791C17.4846 18.0736 17.0072 18.0736 16.7127 17.7791L12 13.0665L7.28733 17.7791C6.99283 18.0736 6.51536 18.0736 6.22087 17.7791C5.92638 17.4846 5.92638 17.0072 6.22087 16.7127L10.9335 12L6.22087 7.28733C5.92638 6.99283 5.92638 6.51536 6.22087 6.22087Z" fill="#F2F6F9"/>
</svg>
