<svg width="24" height="24" viewBox="0 0 24 24" fill="none" xmlns="http://www.w3.org/2000/svg">
<path d="M18.4566 9L17.7315 9.19177L18.4566 9ZM15.4745 4L14.9752 4.55964L15.4745 4ZM18.6324 4L19.1317 3.44036L18.6324 4ZM18.4566 15L17.7315 14.8082L18.4566 15ZM21.6145 15L22.3396 15.1918L21.6145 15ZM20.3164 18L20.9503 18.4009L20.3164 18ZM6.8296 9.04426C6.49161 9.28371 6.41172 9.75182 6.65117 10.0898C6.89062 10.4278 7.35873 10.5077 7.69672 10.2682L6.8296 9.04426ZM8.18947 9H8.93947C8.93947 8.71958 8.78304 8.46259 8.53395 8.33379C8.28486 8.20499 7.98473 8.22591 7.75591 8.38801L8.18947 9ZM7.43947 15C7.43947 15.4142 7.77526 15.75 8.18947 15.75C8.60369 15.75 8.93947 15.4142 8.93947 15H7.43947ZM10.4211 21.25C6.30006 21.25 2.75 17.2346 2.75 12H1.25C1.25 17.8111 5.24041 22.75 10.4211 22.75V21.25ZM2.75 12C2.75 6.76542 6.30006 2.75 10.4211 2.75V1.25C5.24041 1.25 1.25 6.18888 1.25 12H2.75ZM13.5789 1.25H10.4211V2.75H13.5789V1.25ZM13.5789 21.25H10.4211V22.75H13.5789V21.25ZM18.8421 12.75H22V11.25H18.8421V12.75ZM17.7315 9.19177C17.9654 10.0761 18.0921 11.0194 18.0921 12H19.5921C19.5921 10.8902 19.4487 9.81797 19.1817 8.80823L17.7315 9.19177ZM20.8894 9.19177C21.1233 10.0761 21.25 11.0194 21.25 12H22.75C22.75 10.8902 22.6066 9.81797 22.3396 8.80823L20.8894 9.19177ZM18.4566 9.75H21.6145V8.25H18.4566V9.75ZM16.6216 6.55751C17.1001 7.34787 17.4784 8.23491 17.7315 9.19177L19.1817 8.80823C18.8928 7.71609 18.459 6.69622 17.9047 5.78067L16.6216 6.55751ZM19.7795 6.55751C20.258 7.34787 20.6363 8.23491 20.8894 9.19177L22.3396 8.80823C22.0507 7.71609 21.6169 6.69622 21.0626 5.78067L19.7795 6.55751ZM17.2632 6.91909H20.4211V5.41909H17.2632V6.91909ZM10.4211 2.75C12.113 2.75 13.6894 3.41243 14.9752 4.55964L15.9738 3.44036C14.4445 2.07593 12.5213 1.25 10.4211 1.25V2.75ZM14.9752 4.55964C15.6014 5.11835 16.158 5.79181 16.6216 6.55751L17.9047 5.78067C17.3679 4.89387 16.717 4.10342 15.9738 3.44036L14.9752 4.55964ZM13.5789 2.75C15.2709 2.75 16.8473 3.41243 18.1331 4.55964L19.1317 3.44036C17.6024 2.07593 15.6792 1.25 13.5789 1.25V2.75ZM18.1331 4.55964C18.7593 5.11835 19.3159 5.79181 19.7795 6.55751L21.0626 5.78067C20.5258 4.89387 19.8749 4.10342 19.1317 3.44036L18.1331 4.55964ZM15.4745 4.75H18.6324V3.25H15.4745V4.75ZM18.0921 12C18.0921 12.9806 17.9654 13.9239 17.7315 14.8082L19.1817 15.1918C19.4487 14.182 19.5921 13.1098 19.5921 12H18.0921ZM21.25 12C21.25 12.9806 21.1233 13.9239 20.8894 14.8082L22.3396 15.1918C22.6066 14.182 22.75 13.1098 22.75 12H21.25ZM18.4566 15.75H21.6145V14.25H18.4566V15.75ZM17.7315 14.8082C17.4616 15.8289 17.0491 16.77 16.5247 17.5991L17.7924 18.4009C18.4006 17.4393 18.8736 16.3566 19.1817 15.1918L17.7315 14.8082ZM20.8894 14.8082C20.6195 15.8289 20.207 16.77 19.6826 17.5991L20.9503 18.4009C21.5585 17.4393 22.0315 16.3566 22.3396 15.1918L20.8894 14.8082ZM17.1585 18.75H20.3164V17.25H17.1585V18.75ZM16.5247 17.5991C16.0811 18.3003 15.5583 18.9201 14.9752 19.4404L15.9738 20.5596C16.6659 19.9422 17.2779 19.2142 17.7924 18.4009L16.5247 17.5991ZM14.9752 19.4404C13.6894 20.5876 12.113 21.25 10.4211 21.25V22.75C12.5213 22.75 14.4445 21.9241 15.9738 20.5596L14.9752 19.4404ZM19.6826 17.5991C19.239 18.3003 18.7162 18.9201 18.1331 19.4404L19.1317 20.5596C19.8238 19.9422 20.4358 19.2142 20.9503 18.4009L19.6826 17.5991ZM18.1331 19.4404C16.8473 20.5876 15.2709 21.25 13.5789 21.25V22.75C15.6792 22.75 17.6024 21.9241 19.1317 20.5596L18.1331 19.4404ZM15.4745 20.75H18.6324V19.25H15.4745V20.75ZM12.8289 12C12.8289 12.7243 12.6625 13.3429 12.4317 13.7542C12.1874 14.1892 11.9678 14.25 11.8947 14.25V15.75C12.7519 15.75 13.3743 15.1392 13.7396 14.4885C14.1183 13.8139 14.3289 12.9326 14.3289 12H12.8289ZM11.8947 14.25C11.8217 14.25 11.602 14.1892 11.3578 13.7542C11.1269 13.3429 10.9605 12.7243 10.9605 12H9.46053C9.46053 12.9326 9.67114 13.8139 10.0498 14.4885C10.4152 15.1392 11.0376 15.75 11.8947 15.75V14.25ZM10.9605 12C10.9605 11.2757 11.1269 10.6571 11.3578 10.2458C11.602 9.81079 11.8217 9.75 11.8947 9.75V8.25C11.0376 8.25 10.4152 8.86079 10.0498 9.51153C9.67114 10.1861 9.46053 11.0674 9.46053 12H10.9605ZM11.8947 9.75C11.9678 9.75 12.1874 9.81079 12.4317 10.2458C12.6625 10.6571 12.8289 11.2757 12.8289 12H14.3289C14.3289 11.0674 14.1183 10.1861 13.7396 9.51153C13.3743 8.86078 12.7519 8.25 11.8947 8.25V9.75ZM7.69672 10.2682L8.62303 9.61199L7.75591 8.38801L6.8296 9.04426L7.69672 10.2682ZM7.43947 9V15H8.93947V9H7.43947Z" fill="#F2F6F9"/>
</svg>
