<svg width="24" height="24" viewBox="0 0 24 24" fill="none" xmlns="http://www.w3.org/2000/svg">
<path fill-rule="evenodd" clip-rule="evenodd" d="M19.9912 4.43934C20.4305 4.87868 20.4305 5.58579 20.4305 7V14.7313C20.4305 16.1455 20.4305 16.8526 19.9912 17.2919C19.5519 17.7313 18.8448 17.7313 17.4305 17.7313H14.5C13.0858 17.7313 12.3787 17.7313 11.9393 17.2919C11.6975 17.0501 11.5888 16.7272 11.5399 16.25H4C2.58579 16.25 1.87868 16.25 1.43934 15.8106C1 15.3713 1 14.6642 1 13.25V9.81943C1 8.40521 1 7.69811 1.43934 7.25877C1.87868 6.81943 2.58579 6.81943 4 6.81943H11.5C11.5008 5.52478 11.5191 4.85957 11.9393 4.43934C12.3787 4 13.0858 4 14.5 4H17.4305C18.8448 4 19.5519 4 19.9912 4.43934ZM11.5 8.15276H3.79535C3.13538 8.15276 2.8054 8.15276 2.60037 8.35779C2.39535 8.56281 2.39535 8.8928 2.39535 9.55276V13.5167C2.39535 14.1766 2.39535 14.5066 2.60037 14.7116C2.8054 14.9167 3.13538 14.9167 3.79535 14.9167H11.5L11.5 8.15276ZM15.0188 16.3431H17.1532C17.5386 16.3431 17.8509 16.0307 17.8509 15.6454C17.8509 15.2601 17.5386 14.9477 17.1532 14.9477H15.0188C14.6335 14.9477 14.3212 15.2601 14.3212 15.6454C14.3212 16.0307 14.6335 16.3431 15.0188 16.3431Z" fill="#F2F6F9"/>
<path d="M3.87597 19.3333C3.87597 18.9651 4.18833 18.6667 4.57364 18.6667H7.25V18.25C7.25 17.8358 7.58579 17.5 8 17.5C8.41421 17.5 8.75 17.8358 8.75 18.25V18.6667H11.1576C11.5429 18.6667 11.8553 18.9651 11.8553 19.3333C11.8553 19.7015 11.5429 20 11.1576 20H4.57364C4.18833 20 3.87597 19.7015 3.87597 19.3333Z" fill="#F2F6F9"/>
</svg>
