<svg width="24" height="24" viewBox="0 0 24 24" fill="none" xmlns="http://www.w3.org/2000/svg">
<path d="M8.94513 1.25H14.9798L15.0218 1.25009C16.0815 1.2585 16.9981 1.86566 17.4501 2.75L9 2.75C7.56459 2.75 6.56347 2.75159 5.80812 2.85315C5.07435 2.9518 4.68578 3.13225 4.40901 3.40901C4.13225 3.68577 3.9518 4.07435 3.85315 4.80812C3.7516 5.56347 3.75 6.56459 3.75 8L3.75 18.3779C3.49819 18.2662 3.26504 18.1137 3.05546 17.9041C2.59999 17.4487 2.41432 16.8819 2.32991 16.2541C2.24995 15.6593 2.24997 14.9101 2.25 14.0116V7.94513C2.24998 6.57756 2.24997 5.47521 2.36653 4.60825C2.48754 3.70814 2.74644 2.95027 3.34835 2.34835C3.95027 1.74643 4.70814 1.48754 5.60825 1.36652C6.47522 1.24996 7.57755 1.24998 8.94513 1.25Z" fill="#F2F6F9"/>
<path fill-rule="evenodd" clip-rule="evenodd" d="M17.75 5.2904H10.948C10.0495 5.29038 9.3003 5.29035 8.70552 5.37032C8.07773 5.45472 7.51093 5.64039 7.05546 6.09586C6.59999 6.55133 6.41432 7.11813 6.32991 7.74593C6.24995 8.34071 6.24997 9.08993 6.25 9.9884L6.25 18.708L6.25129 18.708C6.25513 19.3213 6.27027 19.8509 6.32991 20.2945C6.41432 20.9223 6.59999 21.4891 7.05546 21.9445C7.51093 22.4 8.07773 22.5857 8.70552 22.6701C9.30031 22.7501 10.0495 22.75 10.948 22.75H17.052C17.9505 22.75 18.6997 22.7501 19.2945 22.6701C19.9223 22.5857 20.4891 22.4 20.9445 21.9445C21.4 21.4891 21.5857 20.9223 21.6701 20.2945C21.7501 19.6997 21.75 18.9505 21.75 18.052V9.98841C21.75 9.08993 21.7501 8.34071 21.6701 7.74593C21.5857 7.11813 21.4 6.55133 20.9445 6.09586C20.4891 5.64039 19.9223 5.45472 19.2945 5.37032C18.861 5.31204 18.3455 5.29625 17.75 5.29198V5.2904ZM19.0946 6.85694C18.6116 6.792 17.964 6.79041 17 6.79041H11C10.036 6.79041 9.38843 6.792 8.9054 6.85694C8.44393 6.91898 8.24644 7.02621 8.11612 7.15652C7.9858 7.28684 7.87858 7.48434 7.81654 7.9458C7.7516 8.42883 7.75 9.07639 7.75 10.0404V18C7.75 18.964 7.7516 19.6116 7.81654 20.0946C7.87858 20.5561 7.9858 20.7536 8.11612 20.8839C8.24644 21.0142 8.44393 21.1214 8.9054 21.1835C9.38843 21.2484 10.036 21.25 11 21.25H17C17.964 21.25 18.6116 21.2484 19.0946 21.1835C19.5561 21.1214 19.7536 21.0142 19.8839 20.8839C20.0142 20.7536 20.1214 20.5561 20.1835 20.0946C20.2484 19.6116 20.25 18.964 20.25 18V10.0404C20.25 9.0764 20.2484 8.42883 20.1835 7.9458C20.1214 7.48434 20.0142 7.28684 19.8839 7.15652C19.7536 7.02621 19.5561 6.91898 19.0946 6.85694Z" fill="#F2F6F9"/>
</svg>
