<svg width="24" height="24" viewBox="0 0 24 24" fill="none" xmlns="http://www.w3.org/2000/svg">
<path d="M9.12377 14.4307C8.8002 14.4307 8.63842 14.4307 8.51576 14.4965C8.41714 14.5493 8.33646 14.6308 8.28416 14.7304C8.21911 14.8543 8.21911 15.0177 8.21911 15.3446C8.21911 15.6714 8.21911 15.8348 8.28416 15.9587C8.33646 16.0584 8.41714 16.1399 8.51576 16.1927C8.63842 16.2584 8.8002 16.2584 9.12377 16.2584H9.85488C10.1785 16.2584 10.3402 16.2584 10.4629 16.1927C10.5615 16.1399 10.6422 16.0584 10.6945 15.9587C10.7595 15.8348 10.7595 15.6714 10.7595 15.3446C10.7595 15.0177 10.7595 14.8543 10.6945 14.7304C10.6422 14.6308 10.5615 14.5493 10.4629 14.4965C10.3402 14.4307 10.1785 14.4307 9.85488 14.4307H9.12377Z" fill="#F2F6F9"/>
<path d="M9.26449 11.1073H9.71416C10.1718 11.1073 10.4006 11.1073 10.5548 11.2347C10.5835 11.2585 10.6099 11.2851 10.6334 11.3142C10.7595 11.4699 10.7595 11.701 10.7595 12.1633C10.7595 12.6256 10.7595 12.8567 10.6334 13.0125C10.6099 13.0415 10.5835 13.0681 10.5548 13.0919C10.4006 13.2193 10.1718 13.2193 9.71416 13.2193H9.26449C8.80686 13.2193 8.57805 13.2193 8.42386 13.0919C8.3951 13.0681 8.36877 13.0415 8.34524 13.0125C8.21911 12.8567 8.21911 12.6256 8.21911 12.1633C8.21911 11.701 8.21911 11.4699 8.34524 11.3142C8.36877 11.2851 8.3951 11.2585 8.42386 11.2347C8.57805 11.1073 8.80686 11.1073 9.26449 11.1073Z" fill="#F2F6F9"/>
<path fill-rule="evenodd" clip-rule="evenodd" d="M11.6041 4.84207C11.8425 4.6761 12.1575 4.6761 12.3959 4.84207L18.2099 8.88985C18.3988 9.02139 18.5116 9.23835 18.5116 9.47013V12.098L21.6498 13.9187C21.8664 14.0444 22 14.2775 22 14.5299V18.5776C22 18.9669 21.6876 19.2824 21.3023 19.2824H2.69767C2.31236 19.2824 2 18.9669 2 18.5776V14.5299C2 14.2775 2.13357 14.0444 2.3502 13.9187L5.48837 12.098V9.47013C5.48837 9.23835 5.60119 9.02139 5.79012 8.88985L11.6041 4.84207ZM17.1163 17.8729V9.84032L12 6.27826L6.88372 9.84032V17.8729H12.4346L12.4346 15.1409C12.4346 14.6093 12.4346 14.3436 12.5981 14.1784C12.7616 14.0133 13.0247 14.0133 13.5509 14.0133H13.9764C14.5026 14.0133 14.7657 14.0133 14.9292 14.1784C15.0927 14.3436 15.0927 14.6093 15.0927 15.1409L15.0927 17.8729H17.1163Z" fill="#F2F6F9"/>
</svg>
