<svg width="24" height="24" viewBox="0 0 24 24" fill="none" xmlns="http://www.w3.org/2000/svg">
<path d="M13.3509 3.925C13.3509 3.55221 13.6531 3.25 14.0259 3.25C16.5177 3.25 18.5377 5.27002 18.5377 7.76184C18.5377 9.64377 17.3857 11.255 15.751 11.9319C15.4066 12.0746 15.0118 11.911 14.8692 11.5665C14.7265 11.2221 14.8901 10.8273 15.2346 10.6846C16.3823 10.2094 17.1877 9.07887 17.1877 7.76184C17.1877 6.0156 15.7721 4.6 14.0259 4.6C13.6531 4.6 13.3509 4.29779 13.3509 3.925Z" fill="#F2F6F9"/>
<path d="M5.2509 8.61447C5.2509 6.12265 7.27093 4.10263 9.76275 4.10263C12.2546 4.10263 14.2746 6.12265 14.2746 8.61447C14.2746 11.1063 12.2546 13.1263 9.76275 13.1263C7.27093 13.1263 5.2509 11.1063 5.2509 8.61447Z" fill="#F2F6F9"/>
<path d="M16.7714 13.886C16.8354 13.5187 17.185 13.2728 17.5523 13.3368C18.8691 13.5662 20.0691 13.9819 20.9495 14.7209C21.86 15.4851 22.3746 16.5507 22.3746 17.9318C22.3746 18.5276 22.0916 18.998 21.6626 19.3334C21.2598 19.6482 20.7262 19.8496 20.1542 19.9891C19.7921 20.0774 19.4269 19.8554 19.3385 19.4932C19.2502 19.131 19.4722 18.7658 19.8344 18.6775C20.3289 18.5569 20.648 18.4129 20.8312 18.2697C20.9882 18.147 21.0246 18.0468 21.0246 17.9318C21.0246 16.929 20.671 16.2496 20.0816 15.7549C19.462 15.2349 18.5305 14.8775 17.3206 14.6668C16.9533 14.6028 16.7075 14.2532 16.7714 13.886Z" fill="#F2F6F9"/>
<path d="M4.05949 14.8225C5.58509 14.1356 7.62452 13.9316 9.76275 13.9316C11.901 13.9316 13.9404 14.1356 15.466 14.8225C16.2398 15.1709 16.9096 15.6559 17.3844 16.3271C17.8632 17.0039 18.1114 17.8246 18.1114 18.7845C18.1114 19.4865 17.7229 19.9963 17.1937 20.3303C16.6935 20.6461 16.0279 20.8369 15.3046 20.9628C13.8487 21.2161 11.8713 21.25 9.76275 21.25C7.65421 21.25 5.67678 21.2161 4.22093 20.9628C3.49758 20.8369 2.83204 20.6461 2.33179 20.3303C1.80261 19.9963 1.41406 19.4865 1.41406 18.7845C1.41406 17.8246 1.66225 17.0039 2.14106 16.3271C2.6159 15.6559 3.28573 15.1709 4.05949 14.8225Z" fill="#F2F6F9"/>
</svg>
