<svg width="24" height="24" viewBox="0 0 24 24" fill="none" xmlns="http://www.w3.org/2000/svg">
<path fill-rule="evenodd" clip-rule="evenodd" d="M19.4484 6.016C18.9842 5.95316 18.362 5.95161 17.4356 5.95161H9.83249C9.09248 5.95161 8.58485 5.9523 8.18352 5.98888C7.79658 6.02415 7.55927 6.08948 7.35964 6.19294C7.16 6.29641 6.96929 6.45291 6.71588 6.74951C6.45305 7.05714 6.15745 7.47275 5.72733 8.07919L5.04095 9.04694C4.45343 9.8753 4.04864 10.4479 3.78411 10.9273C3.52854 11.3905 3.44139 11.7029 3.44139 12C3.44139 12.2971 3.52854 12.6095 3.78411 13.0727C4.04864 13.5521 4.45343 14.1247 5.04095 14.9531L5.72733 15.9208C6.15745 16.5272 6.45305 16.9429 6.71588 17.2505C6.96929 17.5471 7.16 17.7036 7.35964 17.8071C7.55927 17.9105 7.79658 17.9758 8.18352 18.0111C8.58485 18.0477 9.09249 18.0484 9.83249 18.0484H17.4356C18.362 18.0484 18.9842 18.0468 19.4484 17.984C19.8918 17.924 20.0816 17.8202 20.2068 17.6941C20.332 17.568 20.4351 17.3768 20.4947 16.9303C20.5571 16.4628 20.5586 15.8361 20.5586 14.9032V9.09677C20.5586 8.16386 20.5571 7.53719 20.4947 7.06974C20.4351 6.62316 20.332 6.43203 20.2068 6.30592C20.0816 6.17981 19.8918 6.07604 19.4484 6.016ZM19.6404 4.57734C20.2437 4.65902 20.7883 4.8387 21.226 5.27948C21.6637 5.72025 21.8421 6.26877 21.9232 6.87631C22.0001 7.45191 22 8.17696 22 9.04646V14.9535C22 15.823 22.0001 16.5481 21.9232 17.1237C21.8421 17.7312 21.6637 18.2797 21.226 18.7205C20.7883 19.1613 20.2437 19.341 19.6404 19.4227C19.0689 19.5001 18.3489 19.5 17.4856 19.5L9.80012 19.5C9.10034 19.5 8.52744 19.5 8.05359 19.4568C7.55806 19.4117 7.12131 19.3161 6.70009 19.0978C6.27886 18.8795 5.94779 18.5771 5.62328 18.1973C5.31295 17.834 4.97996 17.3645 4.57323 16.7911L3.84354 15.7622C3.28641 14.9768 2.83307 14.3376 2.52418 13.7778C2.20181 13.1935 2 12.6333 2 12C2 11.3667 2.20181 10.8065 2.52418 10.2222C2.83308 9.66239 3.28642 9.02324 3.84355 8.23774L4.57323 7.20895C4.97996 6.63546 5.31295 6.16596 5.62328 5.80273C5.94779 5.4229 6.27886 5.12052 6.70009 4.90222C7.12131 4.68391 7.55806 4.58835 8.05359 4.54318C8.52745 4.49998 9.10035 4.49999 9.80013 4.5L17.4856 4.5C18.3489 4.49997 19.0689 4.49995 19.6404 4.57734ZM11.1605 9.06742C11.4419 8.78398 11.8982 8.78398 12.1797 9.06742L14.0724 10.9736L15.9651 9.06742C16.2465 8.78398 16.7028 8.78398 16.9843 9.06742C17.2657 9.35087 17.2657 9.81042 16.9843 10.0939L15.0916 12L16.9843 13.9061C17.2657 14.1896 17.2657 14.6491 16.9843 14.9326C16.7028 15.216 16.2465 15.216 15.9651 14.9326L14.0724 13.0264L12.1797 14.9326C11.8982 15.216 11.4419 15.216 11.1605 14.9326C10.879 14.6491 10.879 14.1896 11.1605 13.9061L13.0532 12L11.1605 10.0939C10.879 9.81042 10.879 9.35087 11.1605 9.06742Z" fill="#F2F6F9"/>
</svg>
