<svg width="24" height="24" viewBox="0 0 24 24" fill="none" xmlns="http://www.w3.org/2000/svg">
<path fill-rule="evenodd" clip-rule="evenodd" d="M8.51831 2.00001C7.66452 1.99986 7.11365 1.99976 6.58272 2.13309C6.36632 2.18744 6.15435 2.25809 5.94863 2.34446C5.44388 2.55635 5.00324 2.88696 4.3203 3.39936L4.15093 3.52635C3.41004 4.08152 2.89656 4.46629 2.55675 4.99326C2.41912 5.20669 2.30521 5.43451 2.21704 5.67267C1.99935 6.2607 1.99963 6.90235 2.00003 7.82817L2.00007 10.6884C2 10.7966 2 10.9067 2 11.0187V15.772C1.99998 17.0441 1.99997 18.0696 2.10839 18.876C2.22097 19.7133 2.4618 20.4183 3.02172 20.9783C3.2667 21.2232 3.53946 21.4071 3.83891 21.5459C4.22388 21.7244 4.65298 21.8283 5.12393 21.8916C5.93041 22 6.95589 22 8.22806 22H15.7719C17.0441 22 18.0695 22 18.876 21.8916C19.7133 21.779 20.4183 21.5382 20.9782 20.9783C21.5381 20.4184 21.779 19.7134 21.8915 18.8761C22 18.0696 22 17.0442 21.9999 15.772L22 7.82817C22.0004 6.90235 22.0006 6.2607 21.783 5.67267C21.6948 5.43451 21.5809 5.20669 21.4433 4.99326C21.1034 4.46629 20.59 4.08152 19.8491 3.52635L19.6797 3.39936C18.9968 2.88696 18.5561 2.55635 18.0514 2.34446C17.8456 2.25809 17.6337 2.18744 17.4173 2.13309C16.8863 1.99976 16.3355 1.99986 15.4817 2.00001H8.51831ZM19.5036 5.01668C19.3431 4.892 19.1496 4.74594 18.9138 4.5691C18.1353 3.98527 17.8376 3.76803 17.5113 3.63104C17.3705 3.57195 17.2255 3.5236 17.0774 3.48642C16.7342 3.40021 16.3656 3.39537 15.3926 3.39537H8.60741C7.63436 3.39537 7.26584 3.40021 6.92258 3.48642C6.77452 3.5236 6.62949 3.57195 6.48873 3.63104C6.1624 3.76803 5.86467 3.98527 5.08623 4.5691C4.85048 4.74592 4.65699 4.89196 4.49643 5.01663C4.69646 4.96648 4.9057 4.92843 5.12393 4.89909C5.93041 4.79066 6.95581 4.79068 8.22798 4.7907H15.7719C17.0441 4.79068 18.0695 4.79066 18.8759 4.89909C19.0942 4.92844 19.3035 4.96651 19.5036 5.01668ZM4.35985 20.2475C4.21963 20.1747 4.10649 20.0897 4.00844 19.9916C3.75098 19.7342 3.58313 19.3727 3.49136 18.6901C3.39689 17.9875 3.39541 17.0562 3.39541 15.7209V10.7685C3.39612 9.59246 3.40409 8.74913 3.49129 8.10057C3.58306 7.41799 3.75092 7.05653 4.00837 6.79907C4.26582 6.54162 4.62728 6.37376 5.30986 6.28199C6.01251 6.18752 6.94377 6.18604 8.27903 6.18604H15.7208C17.0561 6.18604 17.9874 6.18752 18.69 6.28199C19.3726 6.37376 19.734 6.54162 19.9915 6.79907C20.249 7.05653 20.4168 7.41799 20.5086 8.10057C20.603 8.80322 20.6045 9.73449 20.6045 11.0698V15.7209C20.6045 17.0562 20.603 17.9875 20.5086 18.6901C20.4168 19.3727 20.249 19.7341 19.9915 19.9916C19.734 20.2491 19.3726 20.4169 18.69 20.5087C17.9874 20.6032 17.0561 20.6046 15.7208 20.6046H8.27903C7.11072 20.6046 6.25169 20.6035 5.58448 20.5399C5.48916 20.5309 5.39776 20.5205 5.30993 20.5087C5.26727 20.503 5.22586 20.4969 5.18565 20.4906M4.35985 20.2475C4.56479 20.354 4.82757 20.4342 5.18565 20.4906L4.35985 20.2475Z" fill="#F2F6F9"/>
<path fill-rule="evenodd" clip-rule="evenodd" d="M8.96967 10.4697C9.26256 10.1768 9.73744 10.1768 10.0303 10.4697L12 12.4393L13.9697 10.4697C14.2626 10.1768 14.7374 10.1768 15.0303 10.4697C15.3232 10.7626 15.3232 11.2374 15.0303 11.5303L13.0607 13.5L15.0303 15.4697C15.3232 15.7626 15.3232 16.2374 15.0303 16.5303C14.7374 16.8232 14.2626 16.8232 13.9697 16.5303L12 14.5607L10.0303 16.5303C9.73744 16.8232 9.26256 16.8232 8.96967 16.5303C8.67678 16.2374 8.67678 15.7626 8.96967 15.4697L10.9393 13.5L8.96967 11.5303C8.67678 11.2374 8.67678 10.7626 8.96967 10.4697Z" fill="#F2F6F9"/>
</svg>
