<svg width="24" height="24" viewBox="0 0 24 24" fill="none" xmlns="http://www.w3.org/2000/svg">
<path fill-rule="evenodd" clip-rule="evenodd" d="M12 3.39535C11.0529 3.39535 10.3187 4.14258 10.3187 5.02326V5.48837H13.6813V5.02326C13.6813 4.14258 12.9471 3.39535 12 3.39535ZM15.0659 5.48837V5.02326C15.0659 3.33516 13.6748 2 12 2C10.3252 2 8.93407 3.33516 8.93407 5.02326V5.48837H5.47253C4.1255 5.48837 3 6.56323 3 7.93023C3 9.26364 4.07086 10.3191 5.37363 10.3702C5.37363 10.3702 5.37363 10.3702 6.37363 18.9767C6.56277 20.6047 7.76481 22 9.43956 22H14.5604C16.2352 22 17.4372 20.6047 17.6264 18.9767C18.6264 10.3702 18.6264 10.3702 18.6264 10.3702C19.9291 10.3191 21 9.26364 21 7.93023C21 6.56323 19.8745 5.48837 18.5275 5.48837H15.0659ZM17.2418 10.3721H6.75824C6.75824 10.3721 6.75824 10.3721 7.75824 18.9767C7.83558 19.6422 8.49248 20.6047 9.43956 20.6047H14.5604C15.5075 20.6047 16.1696 19.5974 16.2418 18.9767C17.2418 10.3721 17.2418 10.3721 17.2418 10.3721ZM5.47253 6.88372C4.85318 6.88372 4.38462 7.37066 4.38462 7.93023C4.38462 8.48981 4.85318 8.97674 5.47253 8.97674H18.5275C19.1468 8.97674 19.6154 8.48981 19.6154 7.93023C19.6154 7.37066 19.1468 6.88372 18.5275 6.88372H5.47253Z" fill="#F2F6F9"/>
<path d="M9.99985 12.4651C10.3822 12.4651 10.6665 12.7757 10.6922 13.1628L11 17.814C11.025 18.1922 10.69 18.5116 10.3077 18.5116C9.92532 18.5116 9.64576 18.2733 9.61536 17.814C9.30753 13.1628 9.61537 17.814 9.30754 13.1628C9.2834 12.798 9.6175 12.4651 9.99985 12.4651Z" fill="#F2F6F9"/>
<path d="M13.9999 12.4651C14.3822 12.4651 14.7097 12.7374 14.6922 13.1628L14.5 17.814C14.4824 18.2404 14.19 18.5116 13.8077 18.5116C13.4253 18.5116 13.0978 18.24 13.1154 17.814L13.3075 13.1628C13.3231 12.7862 13.6175 12.4651 13.9999 12.4651Z" fill="#F2F6F9"/>
</svg>
