<svg width="24" height="24" viewBox="0 0 24 24" fill="none" xmlns="http://www.w3.org/2000/svg">
<path fill-rule="evenodd" clip-rule="evenodd" d="M5.65692 5.2359C5.78946 5.08615 5.98269 5 6.18605 5H17.814C18.0173 5 18.2105 5.08615 18.3431 5.2359L21.8315 9.17725C22.0725 9.44963 22.0528 9.85735 21.7864 10.1066L12.4841 18.8104C12.2139 19.0632 11.7861 19.0632 11.5159 18.8104L2.21357 10.1066C1.94722 9.85735 1.92747 9.44963 2.16855 9.17725L5.65692 5.2359ZM6.50639 6.35484L3.65633 9.57499L12 17.3818L20.3437 9.57499L17.4936 6.35484H6.50639ZM6.28547 10.2966C6.48372 9.97582 6.91227 9.87179 7.24267 10.0643L9.40255 11.3226H14.5975L16.7573 10.0643C17.0877 9.87179 17.5163 9.97582 17.7145 10.2966C17.9128 10.6174 17.8056 11.0336 17.4752 11.226L15.1496 12.5809C15.0412 12.6441 14.9171 12.6774 14.7907 12.6774H9.2093C9.08285 12.6774 8.95878 12.6441 8.85035 12.5809L6.52477 11.226C6.19437 11.0336 6.08723 10.6174 6.28547 10.2966Z" fill="#F2F6F9"/>
</svg>
