<svg width="24" height="24" viewBox="0 0 24 24" fill="none" xmlns="http://www.w3.org/2000/svg">
<path fill-rule="evenodd" clip-rule="evenodd" d="M11.8534 2.00003C13.2341 1.99963 14.1267 1.99938 14.9403 2.3364C15.754 2.67342 16.385 3.30477 17.361 4.28135L19.7187 6.63904C20.6952 7.61504 21.3266 8.24604 21.6636 9.05967C22.0006 9.87332 22.0004 10.7659 22 12.1466L21.9999 13.913C22 15.6225 22 16.9766 21.8575 18.0363C21.7109 19.1269 21.4019 20.0097 20.7058 20.7058C20.0096 21.402 19.1269 21.7109 18.0363 21.8575C16.9765 22 15.6224 22 13.9129 22H10.087C8.37748 22 7.02341 22 5.96369 21.8575C4.87307 21.7109 3.99033 21.402 3.29418 20.7058C2.59803 20.0097 2.28908 19.1269 2.14245 18.0363C1.99998 16.9766 1.99999 15.6225 2 13.913V10.0871C1.99999 8.37754 1.99998 7.02347 2.14245 5.96374C2.28908 4.87312 2.59803 3.99038 3.29418 3.29423C3.99033 2.59808 4.87307 2.28913 5.96369 2.1425C7.02342 2.00003 8.37749 2.00004 10.087 2.00005L11.8534 2.00003ZM14.5581 5.95348C14.5581 5.56817 14.2458 5.25581 13.8604 5.25581C13.4751 5.2558 13.1628 5.56816 13.1628 5.95347L13.1628 6.46693C13.1627 7.30273 13.1627 7.99968 13.2371 8.55297C13.3156 9.13696 13.4883 9.66422 13.912 10.0879C14.3357 10.5116 14.863 10.6843 15.4469 10.7628C16.0002 10.8372 16.6972 10.8372 17.533 10.8372L18.0465 10.8372C18.4318 10.8372 18.7441 10.5248 18.7441 10.1395C18.7441 9.7542 18.4318 9.44184 18.0465 9.44184H17.5814C16.6846 9.44184 16.0822 9.44036 15.6329 9.37995C15.2036 9.32223 15.0199 9.22249 14.8987 9.10127C14.7774 8.98004 14.6777 8.79632 14.62 8.36705C14.5596 7.91771 14.5581 7.31533 14.5581 6.41857L14.5581 5.95348Z" fill="#F2F6F9"/>
</svg>
