<svg width="24" height="24" viewBox="0 0 24 24" fill="none" xmlns="http://www.w3.org/2000/svg">
<path fill-rule="evenodd" clip-rule="evenodd" d="M14.4064 3.62553C13.8806 3.40775 13.286 3.3954 11.7082 3.3954H10.1395C8.36573 3.3954 7.10558 3.39688 6.14962 3.52541C5.21372 3.65123 4.67452 3.88721 4.28083 4.28089C3.88715 4.67457 3.65118 5.21378 3.52535 6.14967C3.39683 7.10563 3.39535 8.36579 3.39535 10.1396V13.8605C3.39535 15.6343 3.39683 16.8944 3.52535 17.8504C3.65118 18.7863 3.88715 19.3255 4.28083 19.7192C4.67452 20.1128 5.21372 20.3488 6.14962 20.4746C7.10558 20.6032 8.36573 20.6047 10.1395 20.6047H13.8604C15.6342 20.6047 16.8944 20.6032 17.8503 20.4746C18.7862 20.3488 19.3254 20.1128 19.7191 19.7192C20.1128 19.3255 20.3488 18.7863 20.4746 17.8504C20.6031 16.8944 20.6046 15.6343 20.6046 13.8605V12.2918C20.6046 10.714 20.5923 10.1194 20.3745 9.59365C20.1567 9.06788 19.745 8.6387 18.6293 7.523L16.477 5.37072C15.3613 4.25501 14.9321 3.84331 14.4064 3.62553ZM11.8534 2.00003C13.2341 1.99963 14.1267 1.99938 14.9403 2.3364C15.754 2.67342 16.385 3.30477 17.361 4.28135C17.3948 4.31517 17.429 4.34941 17.4637 4.38406L19.6159 6.53634C19.6506 6.571 19.6848 6.60522 19.7187 6.63903C20.6952 7.61503 21.3266 8.24603 21.6636 9.05967C22.0006 9.87332 22.0004 10.7659 22 12.1466C22 12.1944 21.9999 12.2428 21.9999 12.2918V13.913C22 15.6225 22 16.9766 21.8575 18.0363C21.7109 19.1269 21.4019 20.0097 20.7058 20.7058C20.0096 21.402 19.1269 21.7109 18.0363 21.8575C16.9765 22 15.6225 22 13.9129 22H10.087C8.3775 22 7.02342 22 5.96369 21.8575C4.87307 21.7109 3.99033 21.402 3.29418 20.7058C2.59803 20.0097 2.28908 19.1269 2.14245 18.0363C1.99997 16.9766 1.99999 15.6225 2 13.913V10.0871C1.99999 8.37755 1.99997 7.02347 2.14245 5.96374C2.28908 4.87312 2.59803 3.99038 3.29418 3.29423C3.99033 2.59808 4.87307 2.28913 5.96369 2.1425C7.02342 2.00003 8.37749 2.00004 10.087 2.00005L11.7082 2.00005C11.7572 2.00005 11.8056 2.00004 11.8534 2.00003ZM13.8604 6.18609C14.2457 6.18609 14.5581 6.49845 14.5581 6.88376V8.27911C14.5581 8.73735 14.5596 9.01084 14.5859 9.20686C14.598 9.29668 14.6122 9.34167 14.6206 9.36193C14.6225 9.36662 14.624 9.36971 14.625 9.3715L14.6262 9.37377L14.6285 9.37505C14.6303 9.37599 14.6334 9.37749 14.6381 9.37942C14.6583 9.38776 14.7033 9.40198 14.7931 9.41406C14.9892 9.44041 15.2627 9.4419 15.7209 9.4419H17.1162C17.5016 9.4419 17.8139 9.75425 17.8139 10.1396C17.8139 10.5249 17.5016 10.8372 17.1162 10.8372L15.6793 10.8372C15.2767 10.8373 14.9075 10.8373 14.6072 10.797C14.2765 10.7525 13.927 10.6479 13.6396 10.3604C13.3521 10.073 13.2475 9.72346 13.203 9.39279C13.1627 9.0925 13.1627 8.72335 13.1628 8.32073L13.1628 6.88376C13.1628 6.49845 13.4751 6.18609 13.8604 6.18609Z" fill="#F2F6F9"/>
</svg>
