<svg width="24" height="24" viewBox="0 0 24 24" fill="none" xmlns="http://www.w3.org/2000/svg">
<path fill-rule="evenodd" clip-rule="evenodd" d="M15.8706 2.3364C15.0569 1.99938 14.1643 1.99963 12.7836 2.00003L10.087 2.00005C8.37749 2.00004 7.02342 2.00003 5.96369 2.1425C4.87307 2.28913 3.99033 2.59808 3.29418 3.29423C2.59803 3.99038 2.28908 4.87312 2.14245 5.96374C1.99997 7.02347 1.99999 8.37754 2 10.0871V13.913C1.99999 15.6225 1.99997 16.9766 2.14245 18.0363C2.28908 19.1269 2.59803 20.0097 3.29418 20.7058C3.99033 21.402 4.87307 21.7109 5.96369 21.8575C7.02341 22 8.37748 22 10.087 22H13.9129C15.6224 22 16.9765 22 18.0363 21.8575C19.1269 21.7109 20.0096 21.402 20.7058 20.7058C21.4019 20.0097 21.7109 19.1269 21.8575 18.0363C22 16.9766 22 15.6225 21.9999 13.913L22 11.2164C22.0004 9.8357 22.0006 8.94309 21.6636 8.12944C21.3266 7.3158 20.6952 6.68481 19.7187 5.70881L18.2912 4.28135C17.3152 3.30477 16.6842 2.67342 15.8706 2.3364ZM12.6384 3.3954C13.814 3.3954 14.4437 3.40225 14.9059 3.49582L14.9059 6.57759C14.9058 6.98021 14.9058 7.34936 14.9462 7.64965C14.9906 7.98032 15.0952 8.32984 15.3827 8.6173C15.6702 8.90476 16.0197 9.00936 16.3504 9.05382C16.6506 9.09419 17.0198 9.09415 17.4224 9.0941L20.5042 9.0941C20.5977 9.55625 20.6046 10.186 20.6046 11.3616V13.8605C20.6046 15.6343 20.6031 16.8944 20.4746 17.8504C20.3488 18.7863 20.1128 19.3255 19.7191 19.7192C19.3254 20.1128 18.7862 20.3488 17.8503 20.4746C16.8944 20.6032 15.6342 20.6047 13.8604 20.6047H10.1395C8.36573 20.6047 7.10558 20.6032 6.14962 20.4746C5.21372 20.3488 4.67452 20.1128 4.28083 19.7192C3.88715 19.3255 3.65118 18.7863 3.52535 17.8504C3.39683 16.8944 3.39535 15.6343 3.39535 13.8605V10.1396C3.39535 8.36579 3.39683 7.10563 3.52535 6.14967C3.65118 5.21377 3.88715 4.67457 4.28083 4.28089C4.67452 3.88721 5.21372 3.65123 6.14962 3.52541C7.10558 3.39688 8.36573 3.3954 10.1395 3.3954H12.6384Z" fill="#F2F6F9"/>
<path fill-rule="evenodd" clip-rule="evenodd" d="M6.65115 7.34888C6.65115 6.96357 6.96351 6.65121 7.34882 6.65121H11.0697C11.4551 6.65121 11.7674 6.96357 11.7674 7.34888C11.7674 7.73419 11.4551 8.04655 11.0697 8.04655H7.34882C6.96351 8.04655 6.65115 7.73419 6.65115 7.34888Z" fill="#F2F6F9"/>
<path fill-rule="evenodd" clip-rule="evenodd" d="M6.65115 12C6.65115 11.6147 6.96351 11.3024 7.34882 11.3024H16.6511C17.0364 11.3024 17.3488 11.6147 17.3488 12C17.3488 12.3853 17.0364 12.6977 16.6511 12.6977H7.34882C6.96351 12.6977 6.65115 12.3853 6.65115 12Z" fill="#F2F6F9"/>
<path fill-rule="evenodd" clip-rule="evenodd" d="M6.65115 16.6512C6.65115 16.2659 6.96351 15.9535 7.34882 15.9535H16.6511C17.0364 15.9535 17.3488 16.2659 17.3488 16.6512C17.3488 17.0365 17.0364 17.3489 16.6511 17.3489H7.34882C6.96351 17.3489 6.65115 17.0365 6.65115 16.6512Z" fill="#F2F6F9"/>
</svg>
