<svg width="24" height="24" viewBox="0 0 24 24" fill="none" xmlns="http://www.w3.org/2000/svg">
<path d="M17.6297 2C18.4655 1.99997 19.1624 1.99995 19.7157 2.07434C20.2997 2.15286 20.8269 2.32557 21.2506 2.74926C21.6743 3.17296 21.847 3.70021 21.9256 4.28421C21.9999 4.83749 21.9999 5.53444 21.9999 6.37024V11.3023C21.9999 11.6876 21.6875 12 21.3022 12C20.9169 12 20.6045 11.6876 20.6045 11.3023V6.41861C20.6045 5.52185 20.6031 4.91947 20.5427 4.47013C20.4849 4.04087 20.3852 3.85715 20.264 3.73592C20.1427 3.6147 19.959 3.51496 19.5298 3.45724C19.0804 3.39683 18.4781 3.39535 17.5813 3.39535H7.7967C6.89995 3.39535 6.29757 3.39683 5.84823 3.45724C5.41897 3.51496 5.23525 3.6147 5.11403 3.73592C4.9928 3.85715 4.89306 4.04087 4.83535 4.47013C4.77494 4.91947 4.77346 5.52185 4.77346 6.41861V17.5814C4.77346 18.4781 4.77494 19.0805 4.83535 19.5299C4.89306 19.9591 4.9928 20.1429 5.11403 20.2641C5.23525 20.3853 5.41897 20.485 5.84823 20.5428C6.29757 20.6032 6.89994 20.6047 7.79669 20.6047H11.3023C11.6876 20.6047 11.9999 20.917 11.9999 21.3023C11.9999 21.6876 11.6876 22 11.3023 22H7.74833C6.91254 22 6.21559 22.0001 5.66231 21.9257C5.07832 21.8471 4.55106 21.6744 4.12737 21.2507C3.70368 20.827 3.53097 20.2998 3.45245 19.7158C3.37806 19.1625 3.37809 18.4656 3.37811 17.6298L3.37811 16.9354H2.69767C2.31236 16.9354 2 16.623 2 16.2377C2 15.8524 2.31236 15.5401 2.69767 15.5401H3.37811V12.6977H2.69767C2.31236 12.6977 2 12.3853 2 12C2 11.6147 2.31236 11.3023 2.69767 11.3023H3.37811V8.45995H2.69767C2.31236 8.45995 2 8.14759 2 7.76228C2 7.37696 2.31236 7.0646 2.69767 7.0646H3.37811L3.37811 6.37023C3.37809 5.53444 3.37806 4.83749 3.45245 4.28421C3.53097 3.70021 3.70368 3.17296 4.12737 2.74926C4.55106 2.32557 5.07832 2.15286 5.66231 2.07434C6.21558 1.99995 6.91255 1.99997 7.74832 2H17.6297Z" fill="#F2F6F9"/>
<path d="M7.54605 7.76228C7.54605 7.37696 7.85841 7.0646 8.24372 7.0646H17.0918C17.4771 7.0646 17.7895 7.37696 17.7895 7.76228C17.7895 8.14759 17.4771 8.45995 17.0918 8.45995H8.24372C7.85841 8.45995 7.54605 8.14759 7.54605 7.76228Z" fill="#F2F6F9"/>
<path d="M7.54605 12C7.54605 11.6147 7.85841 11.3023 8.24372 11.3023H12.8023C13.1876 11.3023 13.4999 11.6147 13.4999 12C13.4999 12.3853 13.1876 12.6977 12.8023 12.6977H8.24372C7.85841 12.6977 7.54605 12.3853 7.54605 12Z" fill="#F2F6F9"/>
<path d="M7.54605 16.2377C7.54605 15.8524 7.85841 15.5401 8.24372 15.5401H10.3023C10.6876 15.5401 10.9999 15.8524 10.9999 16.2377C10.9999 16.623 10.6876 16.9354 10.3023 16.9354H8.24372C7.85841 16.9354 7.54605 16.623 7.54605 16.2377Z" fill="#F2F6F9"/>
<path d="M18.1462 13.6233C18.1462 13.238 17.8338 12.9257 17.4485 12.9257C17.0632 12.9257 16.7508 13.238 16.7508 13.6233V16.7511H13.6232C13.2379 16.7511 12.9256 17.0634 12.9256 17.4487C12.9256 17.8341 13.2379 18.1464 13.6232 18.1464H16.7508V21.228C16.7508 21.6133 17.0632 21.9257 17.4485 21.9257C17.8338 21.9257 18.1462 21.6133 18.1462 21.228V18.1464H21.2279C21.6132 18.1464 21.9256 17.8341 21.9256 17.4487C21.9256 17.0634 21.6132 16.7511 21.2279 16.7511H18.1462V13.6233Z" fill="#F2F6F9"/>
</svg>
