<svg width="24" height="24" viewBox="0 0 24 24" fill="none" xmlns="http://www.w3.org/2000/svg">
<path fill-rule="evenodd" clip-rule="evenodd" d="M22 12C22 13.3559 21.7302 14.6487 21.2413 15.8277C20.7344 17.05 19.9922 18.15 19.0711 19.0711C18.15 19.9921 17.0501 20.7343 15.8279 21.2412C14.6489 21.7301 13.3559 22 12 22C10.6441 22 9.35125 21.7302 8.1722 21.2412C6.94997 20.7344 5.85002 19.9922 4.92893 19.0711C4.00783 18.15 3.26559 17.05 2.75876 15.8278C2.26984 14.6487 2 13.3559 2 12C2 10.6441 2.26987 9.35114 2.75884 8.17204C3.26567 6.94987 4.00788 5.84998 4.92893 4.92893C5.85004 4.00782 6.95001 3.26557 8.17228 2.75874C9.35131 2.26984 10.6441 2 12 2C13.3559 2 14.6488 2.26986 15.8279 2.7588C17.0501 3.26563 18.15 4.00786 19.0711 4.92893C19.9921 5.85 20.7344 6.94991 21.2412 8.1721C21.7301 9.35118 22 10.6441 22 12ZM15.6454 10.3949C15.9187 10.1216 15.9187 9.67834 15.6454 9.40498C15.372 9.13161 14.9288 9.13161 14.6554 9.40498L10.9504 13.11L9.34537 11.505C9.072 11.2316 8.62878 11.2316 8.35542 11.505C8.08205 11.7783 8.08205 12.2216 8.35542 12.4949L10.4554 14.5949C10.7288 14.8683 11.172 14.8683 11.4454 14.5949L15.6454 10.3949Z" fill="#F2F6F9"/>
</svg>
