<svg width="24" height="24" viewBox="0 0 24 24" fill="none" xmlns="http://www.w3.org/2000/svg">
<path fill-rule="evenodd" clip-rule="evenodd" d="M6.96967 11.4697C7.26256 11.1768 7.73744 11.1768 8.03033 11.4697L10.5 13.9393L15.9697 8.46967C16.2626 8.17678 16.7374 8.17678 17.0303 8.46967C17.3232 8.76256 17.3232 9.23744 17.0303 9.53033L11.0303 15.5303C10.7374 15.8232 10.2626 15.8232 9.96967 15.5303L6.96967 12.5303C6.67678 12.2374 6.67678 11.7626 6.96967 11.4697ZM15.2533 4.14439C14.2532 3.72965 13.1553 3.5 12 3.5C10.8448 3.5 9.74693 3.72963 8.74683 4.14434C7.70907 4.57466 6.77365 5.20553 5.98959 5.98959C5.20558 6.7736 4.57474 7.70895 4.14442 8.74663C3.72967 9.74679 3.5 10.8447 3.5 12C3.5 13.1553 3.72964 14.2531 4.14436 15.2532C4.57468 16.2909 5.20554 17.2264 5.98959 18.0104C6.77364 18.7945 7.70903 19.4253 8.74677 19.8556C9.74688 20.2704 10.8447 20.5 12 20.5C13.1553 20.5 14.2532 20.2703 15.2534 19.8556C16.291 19.4253 17.2264 18.7944 18.0104 18.0104C18.7945 17.2263 19.4253 16.2909 19.8557 15.2532C20.2704 14.2531 20.5 13.1552 20.5 12C20.5 10.8447 20.2703 9.74682 19.8556 8.74668C19.4253 7.70898 18.7944 6.77361 18.0104 5.98959C17.2264 5.20556 16.291 4.57471 15.2533 4.14439ZM21.2413 15.8277C21.7302 14.6487 22 13.3559 22 12C22 10.6441 21.7301 9.35118 21.2412 8.1721C20.7344 6.94991 19.9921 5.85 19.0711 4.92893C18.15 4.00786 17.0501 3.26563 15.8279 2.7588C14.6488 2.26986 13.3559 2 12 2C10.6441 2 9.35131 2.26984 8.17228 2.75874C6.95001 3.26557 5.85004 4.00782 4.92893 4.92893C4.00788 5.84998 3.26567 6.94987 2.75884 8.17204C2.26987 9.35114 2 10.6441 2 12C2 13.3559 2.26984 14.6487 2.75876 15.8278C3.26559 17.05 4.00783 18.15 4.92893 19.0711C5.85002 19.9922 6.94997 20.7344 8.1722 21.2412C9.35125 21.7302 10.6441 22 12 22C13.3559 22 14.6489 21.7301 15.8279 21.2412C17.0501 20.7343 18.15 19.9921 19.0711 19.0711C19.9922 18.15 20.7344 17.05 21.2413 15.8277Z" fill="#F2F6F9"/>
</svg>
