<svg width="24" height="24" viewBox="0 0 24 24" fill="none" xmlns="http://www.w3.org/2000/svg">
<path fill-rule="evenodd" clip-rule="evenodd" d="M3.39535 1.69767V1.94137C3.72661 1.88801 4.13575 1.83157 4.58249 1.79105C5.67064 1.69235 7.12562 1.67214 8.19009 2.13729L8.19811 2.14072C8.20636 2.1443 8.21693 2.14897 8.22958 2.15474C8.25483 2.16627 8.28861 2.18228 8.32897 2.20284C8.40916 2.2437 8.51819 2.30396 8.63947 2.38446C8.87156 2.53853 9.19813 2.7991 9.43037 3.18622C9.6125 3.48982 9.73083 3.86503 9.70839 4.28916C10.0938 4.18524 10.5047 4.09517 10.9313 4.01757C12.3434 3.7607 13.9757 3.63178 15.5195 3.60667C17.0619 3.58159 18.5428 3.65968 19.6524 3.82673C20.2012 3.90936 20.6943 4.01874 21.0663 4.16432C21.2487 4.23566 21.4459 4.33225 21.6102 4.47119C21.7691 4.60551 22 4.87137 22 5.27778V22.3023C22 22.6876 21.6876 23 21.3023 23C20.917 23 20.6047 22.6876 20.6047 22.3023V21.0833H3.39535V22.3023C3.39535 22.6876 3.08299 23 2.69767 23C2.31236 23 2 22.6876 2 22.3023V1.69767C2 1.31236 2.31236 1 2.69767 1C3.08299 1 3.39535 1.31236 3.39535 1.69767ZM3.39535 12.9414C3.72661 12.888 4.13575 12.8316 4.58249 12.7911C5.67064 12.6924 7.12562 12.6721 8.19009 13.1373L8.19811 13.1407C8.20636 13.1443 8.21693 13.149 8.22958 13.1547C8.25483 13.1663 8.28861 13.1823 8.32897 13.2028C8.40916 13.2437 8.51819 13.304 8.63947 13.3845C8.87156 13.5385 9.19813 13.7991 9.43037 14.1862C9.6125 14.4898 9.73083 14.865 9.70839 15.2892C10.0938 15.1852 10.5047 15.0952 10.9313 15.0176C12.3434 14.7607 13.9757 14.6318 15.5195 14.6067C17.0619 14.5816 18.5428 14.6597 19.6524 14.8267C19.9972 14.8786 20.32 14.9411 20.6047 15.0165V10.0833H3.39535V12.9414ZM3.39535 14.4594V19.5833H4.70024C4.78499 19.4081 4.90035 19.1967 5.05638 18.9536C5.48964 18.2786 6.23353 17.3634 7.50038 16.2981C8.05589 15.831 8.24007 15.4983 8.29399 15.3177C8.33571 15.178 8.31316 15.0916 8.25772 14.9992C8.18535 14.8785 8.05502 14.7594 7.90636 14.6608C7.83726 14.6149 7.77495 14.5805 7.73139 14.5583C7.70988 14.5474 7.69368 14.5398 7.68443 14.5355L7.67619 14.5318L7.67785 14.5325L7.6668 14.5278C6.93743 14.2081 5.77817 14.1879 4.69981 14.2857C4.1905 14.3319 3.73131 14.401 3.39535 14.4594ZM7.6668 3.52781L7.6794 3.53318L7.67785 3.53254L7.67619 3.53184L7.68443 3.53553C7.69368 3.53975 7.70988 3.54736 7.73139 3.55832C7.77495 3.58051 7.83726 3.61489 7.90636 3.66075C8.05502 3.75943 8.18535 3.87854 8.25772 3.99918C8.31316 4.09158 8.33571 4.17804 8.29399 4.31775C8.24007 4.49829 8.05589 4.83102 7.50038 5.29815C6.23353 6.36343 5.48964 7.27856 5.05638 7.9536C4.90035 8.1967 4.78499 8.40808 4.70024 8.58333H3.39535V3.45944C3.73131 3.40096 4.1905 3.33194 4.69981 3.28574C5.77817 3.18793 6.93743 3.20808 7.6668 3.52781Z" fill="#F2F6F9"/>
</svg>
