<svg width="24" height="24" viewBox="0 0 24 24" fill="none" xmlns="http://www.w3.org/2000/svg">
<path fill-rule="evenodd" clip-rule="evenodd" d="M4 21.3133C4 20.934 4.31236 20.6265 4.69767 20.6265H19.3023C19.6876 20.6265 20 20.934 20 21.3133C20 21.6925 19.6876 22 19.3023 22H4.69767C4.31236 22 4 21.6925 4 21.3133Z" fill="#F2F6F9"/>
<path fill-rule="evenodd" clip-rule="evenodd" d="M17.3998 12.7148C17.6419 12.9643 17.6419 13.3688 17.3998 13.6183L12.4385 18.7289C12.1963 18.9784 11.8037 18.9784 11.5615 18.7289L6.60024 13.6183C6.35806 13.3688 6.35806 12.9643 6.60024 12.7148C6.84243 12.4653 7.23509 12.4653 7.47727 12.7148L11.3798 16.7349L11.3802 2.63883C11.3802 2.28602 11.6578 2 12.0003 2C12.3428 2 12.6205 2.28602 12.6205 2.63883L12.6202 16.7349L16.5227 12.7148C16.7649 12.4653 17.1576 12.4653 17.3998 12.7148Z" fill="#F2F6F9"/>
</svg>
