<svg width="24" height="24" viewBox="0 0 24 24" fill="none" xmlns="http://www.w3.org/2000/svg">
<path fill-rule="evenodd" clip-rule="evenodd" d="M13.49 3.36345C12.9695 2.4878 12.5 2 12 2C11.5 2 11.0305 2.4878 10.51 3.36345C10.3144 3.69246 10.0342 4.13105 9.60266 4.76715C9.18146 5.388 8.64631 5.96942 8.04923 6.58409C7.93247 6.70429 7.81293 6.82616 7.69167 6.94978C7.20534 7.44555 6.69135 7.96953 6.21826 8.5274C5.01403 9.94744 4 11.6699 4 14.1318C4 19.0606 8.02831 22 12 22C15.9717 22 20 19.0606 20 14.1318C20 11.6699 18.986 9.94744 17.7817 8.5274C17.3087 7.96953 16.7947 7.44559 16.3084 6.94981C16.1871 6.82618 16.0675 6.7043 15.9508 6.58409C15.3537 5.96942 14.8185 5.388 14.3973 4.76715C13.9658 4.13105 13.6856 3.69246 13.49 3.36345ZM15.2001 17.6891C15.9575 17.6891 16.5715 17.0796 16.5715 16.3278C16.5715 15.576 15.9575 14.9665 15.2001 14.9665C14.4427 14.9665 13.8287 15.576 13.8287 16.3278C13.8287 17.0796 14.4427 17.6891 15.2001 17.6891ZM12.4573 19.0504C12.9622 19.0504 13.3715 18.6441 13.3715 18.1429C13.3715 17.6417 12.9622 17.2353 12.4573 17.2353C11.9523 17.2353 11.543 17.6417 11.543 18.1429C11.543 18.6441 11.9523 19.0504 12.4573 19.0504Z" fill="#F2F6F9"/>
</svg>
