<svg width="24" height="24" viewBox="0 0 24 24" fill="none" xmlns="http://www.w3.org/2000/svg">
<path fill-rule="evenodd" clip-rule="evenodd" d="M16.0672 5.45498C15.4606 4.84834 14.477 4.84834 13.8703 5.45498L6.46668 12.8586C5.9505 13.3748 5.61489 14.044 5.50987 14.7664L5.00705 18.225C4.97629 18.4366 5.04723 18.6503 5.19842 18.8015C5.3496 18.9526 5.56329 19.0236 5.77488 18.9928L9.2335 18.49C9.9559 18.385 10.625 18.0494 11.1412 17.5332L18.5449 10.1295C19.1515 9.52289 19.1515 8.53932 18.5449 7.93268L16.0672 5.45498ZM13.0157 8.22565L15.7742 10.9842L10.1832 16.5752C9.87351 16.8849 9.47203 17.0863 9.03859 17.1493L6.4784 17.5215L6.8506 14.9613C6.91361 14.5278 7.11498 14.1264 7.42469 13.8166L13.0157 8.22565Z" fill="#F2F6F9"/>
</svg>
