<svg width="24" height="24" viewBox="0 0 24 24" fill="none" xmlns="http://www.w3.org/2000/svg">
<path fill-rule="evenodd" clip-rule="evenodd" d="M17.7367 2.58681C16.9542 1.8044 15.6857 1.8044 14.9033 2.58681L3.91733 13.5728C3.19735 14.2928 2.72924 15.2261 2.58275 16.2337L2.01754 20.1215C1.85958 21.208 2.79196 22.1404 3.87846 21.9825L7.76628 21.4173C8.7739 21.2708 9.70724 20.8027 10.4272 20.0827L21.4132 9.0967C22.1956 8.31429 22.1956 7.04576 21.4132 6.26335L17.7367 2.58681ZM13.4693 6.011L17.989 10.5307L9.43215 19.0876C8.92662 19.5931 8.2713 19.9218 7.56382 20.0246L3.676 20.5898C3.52078 20.6124 3.38759 20.4792 3.41015 20.324L3.97536 16.4362C4.07822 15.7287 4.40689 15.0734 4.91242 14.5679L13.4693 6.011Z" fill="#F2F6F9"/>
</svg>
