<svg width="24" height="24" viewBox="0 0 24 24" fill="none" xmlns="http://www.w3.org/2000/svg">
<path d="M16.5613 7.76609C16.869 7.83261 17.1943 7.90295 17.5399 7.97334C18.003 8.06768 18.4914 8.15928 19 8.2345L19 6.84647C18.5997 6.78296 18.207 6.70868 17.8231 6.63046C17.5268 6.57012 17.2301 6.50597 16.937 6.44263C16.1773 6.2784 15.4423 6.11953 14.8058 6.04619C14.7519 6.03998 14.6978 6.03423 14.6434 6.02905V7.40828C15.2064 7.47315 15.8346 7.60898 16.5613 7.76609Z" fill="#F2F6F9"/>
<path d="M7.43871 12.5317C7.13103 12.5982 6.80569 12.6686 6.46016 12.739C5.99704 12.8333 5.50864 12.9249 5 13.0001L5 11.6121C5.40028 11.5486 5.79299 11.4743 6.17697 11.3961C6.47317 11.3357 6.76992 11.2716 7.06296 11.2082C7.8227 11.044 8.55772 10.8851 9.19418 10.8118C9.24809 10.8056 9.30227 10.7998 9.35665 10.7947V12.1739C8.79365 12.2388 8.16538 12.3746 7.43871 12.5317Z" fill="#F2F6F9"/>
<path d="M6.46016 15.739C6.80569 15.6686 7.13103 15.5982 7.43871 15.5317C8.16538 15.3746 8.79365 15.2388 9.35665 15.1739V13.7947C9.30227 13.7998 9.24809 13.8056 9.19418 13.8118C8.55769 13.8851 7.82274 14.044 7.06298 14.2082C6.77004 14.2716 6.47306 14.3358 6.17697 14.3961C5.79299 14.4743 5.40028 14.5486 5 14.6121L5 16.0001C5.50864 15.9249 5.99704 15.8333 6.46016 15.739Z" fill="#F2F6F9"/>
<path d="M12 3.83207C11.915 3.73052 11.8213 3.63696 11.7181 3.55167C11.0104 2.96658 10.0664 2.94566 9.19418 3.04616C8.55769 3.1195 7.8227 3.27837 7.06294 3.4426C6.7699 3.50594 6.47316 3.57008 6.17696 3.63042C5.0795 3.85399 3.91074 4.04534 2.69767 4.04534C2.31236 4.04534 2 4.35234 2 4.73105V19.731C2 20.1098 2.24059 20.4168 2.69767 20.4168C3.64824 20.4168 5.33179 20.2032 6.46015 19.9733C6.80545 19.903 7.13113 19.8325 7.43862 19.7661C7.71829 19.7056 7.93868 19.6483 8.13598 19.597C8.45136 19.5149 8.5 19.5 9.05432 19.4082C9.60864 19.3165 10.5 18.7718 10.5 18.0436V17.9831C10.5 17.4186 10.0856 16.9122 9.5211 16.921C9.41141 16.9227 9.30223 16.9291 9.19415 16.9416C8.55767 17.0149 7.82271 17.1738 7.06294 17.338C6.76995 17.4014 6.47309 17.4655 6.17694 17.5259C5.29142 17.7063 4.35949 17.8657 3.39532 17.9205V5.39848C3.78552 5.37845 4.16793 5.3429 4.54072 5.29685C4.75685 5.27015 8.31798 4.58033 8.31798 4.58033C8.68979 4.50588 9.03391 4.44539 9.35662 4.4082C10.1678 4.31473 10.586 4.40779 10.8198 4.60109C11.0466 4.78862 11.3023 5.24312 11.3023 6.41876V7.9057C11.3023 8.28441 11.6147 8.59141 12 8.59141C12.3853 8.59141 12.6977 8.28441 12.6977 7.9057V6.41876C12.6977 5.24312 12.9533 4.78862 13.1801 4.60109C13.342 4.46728 13.5922 4.3815 14 4.37239C14.1813 4.36834 14.3937 4.37944 14.6433 4.4082C15.2064 4.47308 15.8345 4.60889 16.5613 4.76601C16.8689 4.83253 17.1943 4.90287 17.5398 4.97326C18.0029 5.0676 18.4913 5.1592 19 5.23442C19.5158 5.3107 20.0524 5.37013 20.6046 5.39848V7.89372C20.6046 8.27904 20.917 8.59141 21.3023 8.59141C21.6876 8.59141 22 8.27904 22 7.89372V4.73105C22 4.35234 21.6876 4.04534 21.3023 4.04534C20.5137 4.04534 19.7438 3.96446 19 3.84644C18.5997 3.78292 18.207 3.70865 17.823 3.63042C17.5268 3.57008 17.2301 3.50594 16.937 3.44259C16.1773 3.27836 15.4423 3.1195 14.8058 3.04616C14.541 3.01564 14.2695 2.99632 14 3.00059C13.3821 3.01039 12.7747 3.14425 12.2819 3.55167C12.1788 3.63696 12.085 3.73052 12 3.83207Z" fill="#F2F6F9"/>
<path fill-rule="evenodd" clip-rule="evenodd" d="M18.2061 10.2292C18.7154 9.71984 19.5412 9.71984 20.0505 10.2292L21.618 11.7967C21.8785 12.0572 22.0058 12.4005 21.9998 12.7419C21.9941 13.068 21.8668 13.3923 21.618 13.6411L16.7848 18.4744C16.5005 18.7587 16.1316 18.9431 15.7335 19L13.3561 19.3396C13.1224 19.373 12.8866 19.2944 12.7197 19.1275C12.5528 18.9606 12.4742 18.7248 12.5076 18.4911L12.8472 16.1137C12.9041 15.7156 13.0885 15.3467 13.3729 15.0624L18.2061 10.2292ZM19.1283 11.4283L14.4335 16.1231C14.3787 16.1779 14.3431 16.249 14.3321 16.3258L14.1339 17.7133L15.5214 17.5151C15.5982 17.5041 15.6693 17.4685 15.7241 17.4137L20.4189 12.7189L19.1283 11.4283Z" fill="#F2F6F9"/>
</svg>
