<svg width="24" height="24" viewBox="0 0 24 24" fill="none" xmlns="http://www.w3.org/2000/svg">
<path fill-rule="evenodd" clip-rule="evenodd" d="M2 8.63158C2 8.28277 2.31236 8 2.69767 8L21.3023 8C21.6876 8 22 8.28277 22 8.63158C22 8.98039 21.6876 9.26316 21.3023 9.26316L2.69767 9.26316C2.31236 9.26316 2 8.98039 2 8.63158ZM2 15.3684C2 15.0196 2.31236 14.7368 2.69767 14.7368L21.3023 14.7368C21.6876 14.7368 22 15.0196 22 15.3684C22 15.7172 21.6876 16 21.3023 16L2.69767 16C2.31236 16 2 15.7172 2 15.3684Z" fill="#F2F6F9"/>
</svg>
