<svg width="24" height="24" viewBox="0 0 24 24" fill="none" xmlns="http://www.w3.org/2000/svg">
<path fill-rule="evenodd" clip-rule="evenodd" d="M12 3.39535C7.24778 3.39535 3.39535 7.24778 3.39535 12C3.39535 16.7522 7.24778 20.6047 12 20.6047C16.7522 20.6047 20.6047 16.7522 20.6047 12C20.6047 7.24778 16.7522 3.39535 12 3.39535ZM2 12C2 6.47715 6.47715 2 12 2C17.5228 2 22 6.47715 22 12C22 17.5228 17.5228 22 12 22C6.47715 22 2 17.5228 2 12ZM9.27132 6.65116C9.65663 6.65116 9.96899 6.96352 9.96899 7.34884V8.20155H12.7442C13.1295 8.20155 13.4419 8.51391 13.4419 8.89923V9.75194H15.7209C16.1062 9.75194 16.4186 10.0643 16.4186 10.4496V13.5504C16.4186 13.9357 16.1062 14.2481 15.7209 14.2481H12.7442C12.3589 14.2481 12.0465 13.9357 12.0465 13.5504V12.6977H9.96899V16.6512C9.96899 17.0365 9.65663 17.3488 9.27132 17.3488C8.886 17.3488 8.57364 17.0365 8.57364 16.6512V12.6977H8.27907C7.89375 12.6977 7.5814 12.3853 7.5814 12C7.5814 11.6147 7.89375 11.3023 8.27907 11.3023H8.57364V9.5969H8.27907C7.89375 9.5969 7.5814 9.28454 7.5814 8.89923C7.5814 8.51391 7.89375 8.20155 8.27907 8.20155H8.57364V7.34884C8.57364 6.96352 8.886 6.65116 9.27132 6.65116ZM9.96899 9.5969V11.3023H12.7442C13.1295 11.3023 13.4419 11.6147 13.4419 12V12.8527H15.0233V11.1473H12.7442C12.3589 11.1473 12.0465 10.8349 12.0465 10.4496V9.5969H9.96899Z" fill="#F2F6F9"/>
</svg>
