<svg width="24" height="24" viewBox="0 0 24 24" fill="none" xmlns="http://www.w3.org/2000/svg">
<path fill-rule="evenodd" clip-rule="evenodd" d="M11.0549 3.71313C10.6304 3.92959 10.1207 4.26089 9.38119 4.74312L5.66026 7.16954C5.01635 7.58944 4.57455 7.87842 4.24717 8.13964C3.93143 8.39157 3.76478 8.58542 3.654 8.79237C3.54323 8.99933 3.47318 9.24766 3.43533 9.6563C3.39608 10.08 3.39535 10.6178 3.39535 11.4008V17.4645C3.39535 17.9348 3.39684 18.2156 3.42319 18.4168C3.43527 18.509 3.44949 18.5551 3.45783 18.5759C3.45976 18.5808 3.46126 18.5839 3.4622 18.5858L3.46347 18.5881L3.46575 18.5894C3.46754 18.5904 3.47063 18.5919 3.47532 18.5939C3.49558 18.6025 3.54057 18.6171 3.63039 18.6294C3.82641 18.6565 4.09991 18.658 4.55814 18.658H6.22277C6.68101 18.658 6.9545 18.6565 7.15052 18.6294C7.24035 18.6171 7.28533 18.6025 7.30559 18.5939C7.31029 18.5919 7.31337 18.5904 7.31517 18.5894L7.31745 18.5881L7.31871 18.5858C7.31965 18.5839 7.32116 18.5808 7.32309 18.5759C7.33142 18.5551 7.34565 18.509 7.35772 18.4168C7.38408 18.2156 7.38556 17.9348 7.38556 17.4645L7.38556 12.6475C7.38551 12.2342 7.38547 11.8553 7.42584 11.5471C7.4703 11.2077 7.5749 10.8489 7.86236 10.5538C8.14983 10.2588 8.49934 10.1514 8.83002 10.1058C9.13031 10.0643 9.49945 10.0644 9.90208 10.0644C9.91591 10.0644 9.92978 10.0644 9.9437 10.0644L14.0979 10.0644C14.5005 10.0644 14.8697 10.0643 15.17 10.1058C15.5007 10.1514 15.8502 10.2588 16.1376 10.5538C16.4251 10.8489 16.5297 11.2077 16.5742 11.5471C16.6145 11.8553 16.6145 12.2342 16.6144 12.6475L16.6144 17.4645C16.6144 17.9348 16.6159 18.2156 16.6423 18.4168C16.6544 18.509 16.6686 18.5551 16.6769 18.5759C16.6778 18.5782 16.6794 18.5817 16.6794 18.5817C16.6801 18.5835 16.6813 18.5858 16.6813 18.5858L16.6826 18.5881L16.6848 18.5894C16.6848 18.5894 16.6875 18.5908 16.6897 18.5918C16.6897 18.5918 16.6926 18.5931 16.6944 18.5939C16.7147 18.6025 16.7597 18.6171 16.8495 18.6294C17.0455 18.6565 17.319 18.658 17.7772 18.658H19.4419C19.9001 18.658 20.1736 18.6565 20.3696 18.6294C20.4594 18.6171 20.5044 18.6025 20.5247 18.5939C20.5294 18.5919 20.5325 18.5904 20.5343 18.5894L20.5365 18.5881L20.5378 18.5858C20.5387 18.5839 20.5402 18.5808 20.5422 18.5759C20.5505 18.5551 20.5647 18.509 20.5768 18.4168C20.6032 18.2156 20.6046 17.9348 20.6046 17.4645V11.4008C20.6046 10.6178 20.6039 10.08 20.5647 9.6563C20.5268 9.24766 20.4568 8.99933 20.346 8.79237C20.2352 8.58542 20.0686 8.39157 19.7528 8.13964C19.4254 7.87842 18.9837 7.58944 18.3397 7.16954L14.6188 4.74312C13.8793 4.26089 13.3696 3.92959 12.9451 3.71313C12.5353 3.50421 12.2599 3.43227 12 3.43227C11.7401 3.43227 11.4647 3.50421 11.0549 3.71313ZM10.4342 2.43039C10.9545 2.16515 11.4484 2 12 2C12.5516 2 13.0455 2.16515 13.5658 2.43039C14.0638 2.68431 14.6352 3.05691 15.3356 3.51367L19.1159 5.97885C19.7251 6.37608 20.2233 6.70096 20.6092 7.00884C21.0126 7.3307 21.3348 7.66535 21.5689 8.10267C21.803 8.53999 21.9054 8.99864 21.9538 9.52073C22 10.0201 22 10.626 22 11.3668L22 17.5072C22 17.9205 22.0001 18.2994 21.9597 18.6076C21.9153 18.947 21.8107 19.3058 21.5232 19.6009C21.2357 19.8959 20.8862 20.0033 20.5555 20.0489C20.2552 20.0904 19.8861 20.0903 19.4835 20.0903H17.7356C17.333 20.0903 16.9638 20.0904 16.6635 20.0489C16.3329 20.0033 15.9834 19.8959 15.6959 19.6009C15.4084 19.3058 15.3038 18.947 15.2594 18.6076C15.219 18.2994 15.219 17.9205 15.2191 17.5072L15.2191 12.6902C15.2191 12.2199 15.2176 11.9391 15.1913 11.7379C15.1792 11.6457 15.165 11.5996 15.1566 11.5788C15.1547 11.574 15.1532 11.5708 15.1522 11.5689L15.151 11.5666L15.1487 11.5653C15.1469 11.5643 15.1438 11.5628 15.1391 11.5608C15.1189 11.5523 15.0739 11.5377 14.9841 11.5253C14.788 11.4982 14.5145 11.4967 14.0563 11.4967H9.9437C9.48546 11.4967 9.21196 11.4982 9.01594 11.5253C8.92612 11.5377 8.88113 11.5523 8.86087 11.5608C8.85618 11.5628 8.8531 11.5643 8.8513 11.5653L8.84904 11.5666L8.84775 11.5689C8.84682 11.5708 8.84531 11.574 8.84338 11.5788C8.83505 11.5996 8.82082 11.6457 8.80874 11.7379C8.78239 11.9391 8.78091 12.2199 8.78091 12.6902L8.78091 17.5072C8.78096 17.9205 8.781 18.2994 8.74063 18.6076C8.69617 18.947 8.59157 19.3058 8.3041 19.6009C8.01664 19.8959 7.66713 20.0033 7.33645 20.0489C7.03616 20.0904 6.66701 20.0903 6.26439 20.0903H4.51652C4.1139 20.0903 3.74475 20.0904 3.44446 20.0489C3.11378 20.0033 2.76427 19.8959 2.47681 19.6009C2.18935 19.3058 2.08474 18.947 2.04029 18.6076C1.99991 18.2994 1.99996 17.9205 2 17.5072L2.00001 11.3668C2 10.626 1.99999 10.0201 2.04625 9.52073C2.09461 8.99864 2.197 8.53999 2.43109 8.10267C2.66518 7.66535 2.98742 7.3307 3.39081 7.00884C3.77667 6.70096 4.27491 6.37607 4.88409 5.97883L8.66443 3.51366C9.36484 3.05691 9.93619 2.68431 10.4342 2.43039ZM9.83354 7.24201C9.83354 6.8465 10.1459 6.52588 10.5312 6.52588H13.4688C13.8541 6.52588 14.1665 6.8465 14.1665 7.24201C14.1665 7.63752 13.8541 7.95815 13.4688 7.95815H10.5312C10.1459 7.95815 9.83354 7.63752 9.83354 7.24201Z" fill="#F2F6F9"/>
<path fill-rule="evenodd" clip-rule="evenodd" d="M11.5028 17.7032C11.5136 17.7032 11.5242 17.7032 11.5349 17.7032H12.4651C12.4757 17.7032 12.4864 17.7032 12.4971 17.7032C12.6879 17.7031 12.8943 17.703 13.0684 17.727C13.2724 17.7552 13.5331 17.8276 13.7524 18.0528C13.9718 18.2779 14.0423 18.5455 14.0698 18.7549C14.0932 18.9336 14.0931 19.1454 14.093 19.3413C14.093 19.3523 14.093 19.3633 14.093 19.3742V20.329C14.093 20.3399 14.093 20.3509 14.093 20.3619C14.0931 20.5577 14.0932 20.7695 14.0698 20.9483C14.0423 21.1577 13.9718 21.4252 13.7524 21.6504C13.5331 21.8756 13.2724 21.948 13.0684 21.9761C12.8943 22.0002 12.6879 22.0001 12.4971 22C12.4864 22 12.4757 22 12.4651 22H11.5349C11.5242 22 11.5136 22 11.5028 22C11.312 22.0001 11.1057 22.0002 10.9315 21.9761C10.7275 21.948 10.4669 21.8756 10.2475 21.6504C10.0282 21.4252 9.95764 21.1577 9.93021 20.9483C9.9068 20.7695 9.90688 20.5577 9.90695 20.3619C9.90696 20.3509 9.90696 20.3399 9.90696 20.329V19.3742C9.90696 19.3633 9.90696 19.3523 9.90695 19.3413C9.90688 19.1454 9.9068 18.9336 9.93021 18.7549C9.95764 18.5455 10.0282 18.2779 10.2475 18.0528C10.4669 17.8276 10.7275 17.7552 10.9315 17.727C11.1057 17.703 11.312 17.7031 11.5028 17.7032ZM11.3034 19.1365C11.3023 19.2029 11.3023 19.2796 11.3023 19.3742V20.329C11.3023 20.4236 11.3023 20.5003 11.3034 20.5666C11.368 20.5677 11.4427 20.5677 11.5349 20.5677H12.4651C12.5573 20.5677 12.632 20.5677 12.6966 20.5666C12.6976 20.5003 12.6977 20.4236 12.6977 20.329V19.3742C12.6977 19.2796 12.6976 19.2029 12.6966 19.1365C12.632 19.1355 12.5573 19.1354 12.4651 19.1354H11.5349C11.4427 19.1354 11.368 19.1355 11.3034 19.1365Z" fill="#F2F6F9"/>
</svg>
