<svg width="24" height="24" viewBox="0 0 24 24" fill="none" xmlns="http://www.w3.org/2000/svg">
<g clip-path="url(#clip0_1_102)">
<path d="M24 12C24 18.6274 18.6274 24 12 24C5.37258 24 0 18.6274 0 12C0 5.37258 5.37258 0 12 0C18.6274 0 24 5.37258 24 12Z" fill="#F2F6F9"/>
<path fill-rule="evenodd" clip-rule="evenodd" d="M12.0008 4.00005C12.309 4.00005 12.5589 4.24994 12.5589 4.55819L12.5589 6.82279L14.1718 5.74754C14.4283 5.57655 14.7748 5.64586 14.9458 5.90234C15.1168 6.15882 15.0475 6.50535 14.791 6.67634L12.5589 8.16439L12.5589 10.6526L14.0867 9.12476C14.3047 8.9068 14.6581 8.9068 14.8761 9.12476C15.094 9.34273 15.094 9.69613 14.8761 9.91409L13.3482 11.4419H15.8364L17.3245 9.20983C17.4955 8.95335 17.842 8.88404 18.0985 9.05503C18.355 9.22602 18.4243 9.57255 18.2533 9.82903L17.178 11.4419H19.4426C19.7509 11.4419 20.0008 11.6918 20.0008 12C20.0008 12.3083 19.7509 12.5582 19.4426 12.5582H17.178L18.2533 14.1711C18.4243 14.4276 18.355 14.7741 18.0985 14.9451C17.842 15.1161 17.4955 15.0468 17.3245 14.7903L15.8364 12.5582H13.3482L14.8761 14.086C15.094 14.304 15.094 14.6574 14.8761 14.8753C14.6581 15.0933 14.3047 15.0933 14.0867 14.8753L12.5589 13.3475L12.5589 15.8357L14.791 17.3238C15.0475 17.4948 15.1168 17.8413 14.9458 18.0978C14.7748 18.3542 14.4283 18.4236 14.1718 18.2526L12.5589 17.1773V19.4419C12.5589 19.7502 12.309 20.0001 12.0008 20C11.6925 20 11.4426 19.7502 11.4426 19.4419L11.4426 17.1773L9.82976 18.2526C9.57328 18.4235 9.22675 18.3542 9.05576 18.0978C8.88477 17.8413 8.95408 17.4948 9.21056 17.3238L11.4426 15.8357L11.4426 13.3475L9.91483 14.8753C9.69686 15.0933 9.34346 15.0933 9.1255 14.8753C8.90753 14.6574 8.90753 14.304 9.1255 14.086L10.6533 12.5582H8.16512L6.67707 14.7903C6.50608 15.0468 6.15955 15.1161 5.90307 14.9451C5.64659 14.7741 5.57728 14.4276 5.74827 14.1711L6.82352 12.5582L4.55892 12.5582C4.25067 12.5582 4.00078 12.3083 4.00078 12C4.00078 11.6918 4.25067 11.4419 4.55892 11.4419L6.82352 11.4419L5.74827 9.82903C5.57728 9.57255 5.64659 9.22602 5.90307 9.05503C6.15955 8.88404 6.50608 8.95335 6.67707 9.20983L8.16512 11.4419H10.6533L9.1255 9.91409C8.90753 9.69613 8.90753 9.34273 9.1255 9.12477C9.34347 8.9068 9.69686 8.9068 9.91483 9.12477L11.4426 10.6526L11.4426 8.16439L9.21056 6.67634C8.95408 6.50535 8.88478 6.15882 9.05576 5.90233C9.22675 5.64585 9.57328 5.57655 9.82976 5.74753L11.4426 6.82279L11.4426 4.55819C11.4426 4.24994 11.6925 4.00005 12.0008 4.00005Z" fill="#2D2D2D"/>
<path fill-rule="evenodd" clip-rule="evenodd" d="M12.0008 3.80005C12.4195 3.80005 12.7589 4.13948 12.7589 4.55819L12.7589 6.44909L14.0609 5.58113C14.4093 5.34887 14.88 5.44301 15.1122 5.7914C15.3445 6.13978 15.2503 6.61049 14.9019 6.84275L12.7589 8.27143V10.1697L13.9453 8.98334C14.2414 8.68727 14.7214 8.68727 15.0175 8.98334C15.3136 9.27942 15.3136 9.75944 15.0175 10.0555L13.8311 11.2419H15.7294L17.1581 9.09889C17.3903 8.7505 17.861 8.65636 18.2094 8.88862C18.5578 9.12088 18.652 9.59158 18.4197 9.93997L17.5517 11.2419H19.4426C19.8614 11.2419 20.2008 11.5813 20.2008 12C20.2008 12.4188 19.8614 12.7582 19.4426 12.7582H17.5517L18.4197 14.0601C18.652 14.4085 18.5578 14.8792 18.2094 15.1115C17.861 15.3437 17.3903 15.2496 17.1581 14.9012L15.7294 12.7582H13.8311L15.0175 13.9446C15.3136 14.2407 15.3136 14.7207 15.0175 15.0168C14.7214 15.3128 14.2414 15.3128 13.9453 15.0168L12.7589 13.8304V15.7287L14.9019 17.1574C15.2503 17.3896 15.3445 17.8603 15.1122 18.2087C14.88 18.5571 14.4092 18.6512 14.0609 18.419L12.7589 17.551L12.7589 19.4419C12.7589 19.8606 12.4195 20.2001 12.0008 20.2001C11.5821 20.2001 11.2426 19.8606 11.2426 19.4419L11.2426 17.551L9.9407 18.419C9.59231 18.6512 9.12161 18.5571 8.88935 18.2087C8.65709 17.8603 8.75123 17.3896 9.09962 17.1574L11.2426 15.7287L11.2426 13.8304L10.0562 15.0168C9.76017 15.3128 9.28015 15.3128 8.98408 15.0168C8.688 14.7207 8.688 14.2407 8.98408 13.9446L10.1705 12.7582H8.27216L6.84348 14.9012C6.61122 15.2496 6.14051 15.3437 5.79213 15.1115C5.44374 14.8792 5.3496 14.4085 5.58186 14.0601L6.44982 12.7582L4.55892 12.7582C4.14021 12.7582 3.80078 12.4188 3.80078 12C3.80078 11.5813 4.14021 11.2419 4.55892 11.2419L6.44982 11.2419L5.58186 9.93997C5.3496 9.59158 5.44374 9.12088 5.79213 8.88862C6.14052 8.65636 6.61122 8.7505 6.84348 9.09889L8.27216 11.2419H10.1705L8.98408 10.0555C8.688 9.75944 8.688 9.27942 8.98408 8.98334C9.28015 8.68727 9.76018 8.68727 10.0562 8.98334L11.2426 10.1697L11.2426 8.27143L9.09962 6.84275C8.75124 6.61049 8.65709 6.13978 8.88935 5.79139C9.12161 5.44301 9.59232 5.34887 9.9407 5.58112L11.2426 6.44909L11.2426 4.55819C11.2426 4.13948 11.5821 3.80005 12.0008 3.80005ZM11.4426 6.82279L9.82976 5.74753C9.57328 5.57655 9.22675 5.64585 9.05576 5.90233C8.88478 6.15882 8.95408 6.50535 9.21056 6.67634L11.4426 8.16439L11.4426 10.6526L9.91483 9.12477C9.69686 8.9068 9.34347 8.9068 9.1255 9.12477C8.90753 9.34273 8.90753 9.69613 9.1255 9.91409L10.6533 11.4419H8.16512L6.67707 9.20983C6.50608 8.95335 6.15955 8.88404 5.90307 9.05503C5.64659 9.22602 5.57728 9.57255 5.74827 9.82903L6.82352 11.4419L4.55892 11.4419C4.25067 11.4419 4.00078 11.6918 4.00078 12C4.00078 12.3083 4.25067 12.5582 4.55892 12.5582L6.82352 12.5582L5.74827 14.1711C5.57728 14.4276 5.64659 14.7741 5.90307 14.9451C6.15955 15.1161 6.50608 15.0468 6.67707 14.7903L8.16512 12.5582H10.6533L9.1255 14.086C8.90753 14.304 8.90753 14.6574 9.1255 14.8753C9.34346 15.0933 9.69686 15.0933 9.91483 14.8753L11.4426 13.3475L11.4426 15.8357L9.21056 17.3238C8.95408 17.4948 8.88477 17.8413 9.05576 18.0978C9.22675 18.3542 9.57328 18.4235 9.82976 18.2526L11.4426 17.1773L11.4426 19.4419C11.4426 19.7502 11.6925 20 12.0008 20C12.309 20.0001 12.5589 19.7502 12.5589 19.4419V17.1773L14.1718 18.2526C14.4283 18.4236 14.7748 18.3542 14.9458 18.0978C15.1168 17.8413 15.0475 17.4948 14.791 17.3238L12.5589 15.8357L12.5589 13.3475L14.0867 14.8753C14.3047 15.0933 14.6581 15.0933 14.8761 14.8753C15.094 14.6574 15.094 14.304 14.8761 14.086L13.3482 12.5582H15.8364L17.3245 14.7903C17.4955 15.0468 17.842 15.1161 18.0985 14.9451C18.355 14.7741 18.4243 14.4276 18.2533 14.1711L17.178 12.5582H19.4426C19.7509 12.5582 20.0008 12.3083 20.0008 12C20.0008 11.6918 19.7509 11.4419 19.4426 11.4419H17.178L18.2533 9.82903C18.4243 9.57255 18.355 9.22602 18.0985 9.05503C17.842 8.88404 17.4955 8.95335 17.3245 9.20983L15.8364 11.4419H13.3482L14.8761 9.91409C15.094 9.69613 15.094 9.34273 14.8761 9.12476C14.6581 8.9068 14.3047 8.9068 14.0867 9.12476L12.5589 10.6526L12.5589 8.16439L14.791 6.67634C15.0475 6.50535 15.1168 6.15882 14.9458 5.90234C14.7748 5.64586 14.4283 5.57655 14.1718 5.74754L12.5589 6.82279L12.5589 4.55819C12.5589 4.24994 12.309 4.00005 12.0008 4.00005C11.6925 4.00005 11.4426 4.24994 11.4426 4.55819L11.4426 6.82279Z" fill="#2D2D2D"/>
</g>
<defs>
<clipPath id="clip0_1_102">
<rect width="24" height="24" fill="white"/>
</clipPath>
</defs>
</svg>
