<svg width="24" height="24" viewBox="0 0 24 24" fill="none" xmlns="http://www.w3.org/2000/svg">
<path fill-rule="evenodd" clip-rule="evenodd" d="M12 2C12.3853 2 12.6977 2.31236 12.6977 2.69767L12.6977 5.52843L14.7138 4.18436C15.0344 3.97062 15.4675 4.05726 15.6813 4.37786C15.895 4.69846 15.8084 5.13163 15.4878 5.34536L12.6977 7.20543L12.6977 10.3157L14.6074 8.40589C14.8799 8.13344 15.3216 8.13344 15.5941 8.40589C15.8666 8.67835 15.8666 9.1201 15.5941 9.39256L13.6843 11.3023H16.7946L18.6546 8.51223C18.8684 8.19162 19.3015 8.10499 19.6221 8.31873C19.9427 8.53246 20.0294 8.96562 19.8156 9.28623L18.4716 11.3023H21.3023C21.6876 11.3023 22 11.6147 22 12C22 12.3853 21.6876 12.6977 21.3023 12.6977H18.4716L19.8156 14.7138C20.0294 15.0344 19.9427 15.4675 19.6221 15.6813C19.3015 15.895 18.8684 15.8084 18.6546 15.4878L16.7946 12.6977H13.6843L15.5941 14.6074C15.8666 14.8799 15.8666 15.3216 15.5941 15.5941C15.3216 15.8666 14.8799 15.8666 14.6074 15.5941L12.6977 13.6843L12.6977 16.7946L15.4878 18.6546C15.8084 18.8684 15.895 19.3015 15.6813 19.6221C15.4675 19.9427 15.0344 20.0294 14.7138 19.8156L12.6977 18.4716L12.6977 21.3023C12.6977 21.6876 12.3853 22 12 22C11.6147 22 11.3023 21.6876 11.3023 21.3023V18.4716L9.28623 19.8156C8.96562 20.0294 8.53246 19.9427 8.31873 19.6221C8.10499 19.3015 8.19162 18.8684 8.51223 18.6546L11.3023 16.7946V13.6843L9.39256 15.5941C9.1201 15.8666 8.67835 15.8666 8.40589 15.5941C8.13344 15.3216 8.13344 14.8799 8.40589 14.6074L10.3157 12.6977H7.20543L5.34536 15.4878C5.13162 15.8084 4.69846 15.895 4.37786 15.6813C4.05726 15.4675 3.97062 15.0344 4.18436 14.7138L5.52843 12.6977L2.69767 12.6977C2.31236 12.6977 2 12.3853 2 12C2 11.6147 2.31236 11.3023 2.69767 11.3023L5.52843 11.3023L4.18436 9.28622C3.97062 8.96562 4.05726 8.53246 4.37786 8.31872C4.69846 8.10499 5.13163 8.19162 5.34536 8.51222L7.20543 11.3023H10.3157L8.4059 9.39256C8.13344 9.1201 8.13344 8.67835 8.4059 8.4059C8.67836 8.13344 9.1201 8.13344 9.39256 8.4059L11.3023 10.3157V7.20543L8.51223 5.34536C8.19163 5.13162 8.10499 4.69846 8.31873 4.37786C8.53246 4.05726 8.96563 3.97062 9.28623 4.18436L11.3023 5.52843L11.3023 2.69767C11.3023 2.31236 11.6147 2 12 2Z" fill="#F2F6F9"/>
</svg>
