<svg width="24" height="24" viewBox="0 0 24 24" fill="none" xmlns="http://www.w3.org/2000/svg">
<path fill-rule="evenodd" clip-rule="evenodd" d="M4.51652 2C4.1139 1.99996 3.74475 1.99991 3.44446 2.04029C3.11378 2.08474 2.76427 2.18935 2.47681 2.47681C2.18935 2.76427 2.08474 3.11378 2.04029 3.44446C1.99991 3.74475 1.99996 4.1139 2 4.51652V17.623C1.99996 18.0256 1.99991 18.3948 2.04029 18.6951C2.08474 19.0258 2.18935 19.3753 2.47681 19.6627C2.76427 19.9502 3.11378 20.0548 3.44446 20.0993C3.74475 20.1396 4.1139 20.1396 4.51652 20.1395L4.7907 20.1395V21.3023C4.7907 21.6876 5.10306 22 5.48838 22C5.87369 22 6.18605 21.6876 6.18605 21.3023V20.1395H17.8139V21.3023C17.8139 21.6876 18.1263 22 18.5116 22C18.8969 22 19.2093 21.6876 19.2093 21.3023V20.1395L19.4835 20.1395C19.8861 20.1396 20.2552 20.1396 20.5555 20.0993C20.8862 20.0548 21.2357 19.9502 21.5232 19.6627C21.8107 19.3753 21.9153 19.0258 21.9597 18.6951C22.0001 18.3948 22 18.0256 22 17.623V4.51652C22 4.1139 22.0001 3.74475 21.9597 3.44446C21.9153 3.11378 21.8107 2.76427 21.5232 2.47681C21.2357 2.18935 20.8862 2.08474 20.5555 2.04029C20.2552 1.99991 19.8861 1.99996 19.4835 2H4.51652ZM7.074 6.69767C7.074 6.31236 7.38636 6 7.77167 6H16.2283C16.6136 6 16.926 6.31236 16.926 6.69767C16.926 7.08299 16.6136 7.39535 16.2283 7.39535H7.77167C7.38636 7.39535 7.074 7.08299 7.074 6.69767ZM7.074 10.5465C7.074 10.1612 7.38636 9.84883 7.77167 9.84883H16.2283C16.6136 9.84883 16.926 10.1612 16.926 10.5465C16.926 10.9318 16.6136 11.2442 16.2283 11.2442H7.77167C7.38636 11.2442 7.074 10.9318 7.074 10.5465ZM7.77165 13.8488C7.38633 13.8488 7.07397 14.1612 7.07397 14.5465C7.07397 14.9318 7.38633 15.2442 7.77165 15.2442H16.2283C16.6136 15.2442 16.926 14.9318 16.926 14.5465C16.926 14.1612 16.6136 13.8488 16.2283 13.8488H7.77165Z" fill="#F2F6F9"/>
</svg>
