<svg width="24" height="24" viewBox="0 0 24 24" fill="none" xmlns="http://www.w3.org/2000/svg">
<path fill-rule="evenodd" clip-rule="evenodd" d="M13.6734 2.42338C14.238 1.85888 21.0122 1.85887 21.5767 2.42338C22.1412 2.9879 22.1412 9.76209 21.5767 10.3266C21.0122 10.8911 14.238 10.8911 13.6734 10.3266C13.1089 9.76209 13.1089 2.98789 13.6734 2.42338ZM14.7236 3.85385C14.7359 3.72794 14.7487 3.61391 14.7619 3.51185C14.864 3.49869 14.978 3.4858 15.1039 3.47351C15.7939 3.4062 16.699 3.3703 17.6251 3.3703C18.5512 3.3703 19.4562 3.4062 20.1462 3.47351C20.2721 3.4858 20.3862 3.49869 20.4882 3.51185C20.5014 3.61391 20.5143 3.72794 20.5265 3.85386C20.5939 4.54382 20.6298 5.44889 20.6298 6.375C20.6298 7.3011 20.5939 8.20617 20.5265 8.89614C20.5143 9.02205 20.5014 9.13609 20.4882 9.23815C20.3862 9.25131 20.2721 9.2642 20.1462 9.27649C19.4562 9.3438 18.5512 9.3797 17.6251 9.3797C16.699 9.3797 15.7939 9.3438 15.1039 9.27649C14.978 9.2642 14.864 9.25131 14.7619 9.23815C14.7487 9.13609 14.7359 9.02205 14.7236 8.89614C14.6563 8.20617 14.6204 7.3011 14.6204 6.37499C14.6204 5.44889 14.6563 4.54382 14.7236 3.85385Z" fill="#F2F6F9"/>
<path fill-rule="evenodd" clip-rule="evenodd" d="M13.6734 13.6703C14.238 13.1058 21.0122 13.1058 21.5767 13.6703C22.1412 14.2348 22.1412 21.009 21.5767 21.5735C21.0122 22.1381 14.238 22.1381 13.6734 21.5735C13.1089 21.009 13.1089 14.2348 13.6734 13.6703ZM14.7236 15.1008C14.7359 14.9749 14.7487 14.8608 14.7619 14.7588C14.864 14.7456 14.978 14.7327 15.1039 14.7204C15.7939 14.6531 16.699 14.6172 17.6251 14.6172C18.5512 14.6172 19.4562 14.6531 20.1462 14.7204C20.2721 14.7327 20.3862 14.7456 20.4882 14.7588C20.5014 14.8608 20.5143 14.9749 20.5265 15.1008C20.5939 15.7908 20.6298 16.6958 20.6298 17.6219C20.6298 18.548 20.5939 19.4531 20.5265 20.1431C20.5143 20.269 20.5014 20.383 20.4882 20.4851C20.3862 20.4982 20.2721 20.5111 20.1462 20.5234C19.4562 20.5907 18.5512 20.6266 17.6251 20.6266C16.699 20.6266 15.7939 20.5907 15.1039 20.5234C14.978 20.5111 14.864 20.4982 14.7619 20.4851C14.7487 20.383 14.7359 20.269 14.7236 20.1431C14.6563 19.4531 14.6204 18.548 14.6204 17.6219C14.6204 16.6958 14.6563 15.7907 14.7236 15.1008Z" fill="#F2F6F9"/>
<path fill-rule="evenodd" clip-rule="evenodd" d="M2.42265 2.42338C2.98717 1.85888 9.76136 1.85887 10.3259 2.42338C10.8904 2.9879 10.8904 9.76209 10.3259 10.3266C9.76136 10.8911 2.98717 10.8911 2.42265 10.3266C1.85814 9.76209 1.85814 2.98789 2.42265 2.42338ZM3.47278 3.85385C3.48506 3.72794 3.49795 3.61391 3.51111 3.51185C3.61317 3.49869 3.72721 3.4858 3.85312 3.47351C4.54309 3.4062 5.44816 3.3703 6.37427 3.3703C7.30038 3.3703 8.20544 3.4062 8.89541 3.47351C9.02132 3.4858 9.13536 3.49869 9.23742 3.51185C9.25058 3.61391 9.26347 3.72794 9.27575 3.85386C9.34307 4.54382 9.37897 5.44889 9.37897 6.375C9.37897 7.3011 9.34307 8.20617 9.27575 8.89614C9.26347 9.02205 9.25058 9.13609 9.23742 9.23815C9.13536 9.25131 9.02132 9.2642 8.89541 9.27649C8.20544 9.3438 7.30037 9.3797 6.37427 9.3797C5.44816 9.3797 4.54309 9.3438 3.85312 9.27649C3.72721 9.2642 3.61317 9.25131 3.51112 9.23815C3.49796 9.13609 3.48507 9.02205 3.47278 8.89614C3.40547 8.20617 3.36957 7.3011 3.36957 6.37499C3.36957 5.44889 3.40547 4.54382 3.47278 3.85385Z" fill="#F2F6F9"/>
<path fill-rule="evenodd" clip-rule="evenodd" d="M2.42265 13.6703C2.98717 13.1058 9.76136 13.1058 10.3259 13.6703C10.8904 14.2348 10.8904 21.009 10.3259 21.5735C9.76136 22.1381 2.98717 22.1381 2.42265 21.5735C1.85814 21.009 1.85814 14.2348 2.42265 13.6703ZM3.47278 15.1008C3.48506 14.9749 3.49795 14.8608 3.51111 14.7588C3.61317 14.7456 3.72721 14.7327 3.85312 14.7204C4.54309 14.6531 5.44816 14.6172 6.37427 14.6172C7.30038 14.6172 8.20544 14.6531 8.89541 14.7204C9.02132 14.7327 9.13536 14.7456 9.23742 14.7588C9.25058 14.8608 9.26347 14.9749 9.27575 15.1008C9.34307 15.7908 9.37897 16.6958 9.37897 17.6219C9.37897 18.548 9.34307 19.4531 9.27575 20.1431C9.26347 20.269 9.25058 20.383 9.23742 20.4851C9.13536 20.4982 9.02132 20.5111 8.89541 20.5234C8.20544 20.5907 7.30037 20.6266 6.37427 20.6266C5.44816 20.6266 4.54309 20.5907 3.85312 20.5234C3.72721 20.5111 3.61317 20.4982 3.51112 20.4851C3.49796 20.383 3.48507 20.269 3.47278 20.1431C3.40547 19.4531 3.36957 18.548 3.36957 17.6219C3.36957 16.6958 3.40547 15.7907 3.47278 15.1008Z" fill="#F2F6F9"/>
</svg>
