<svg width="24" height="24" viewBox="0 0 24 24" fill="none" xmlns="http://www.w3.org/2000/svg">
<path fill-rule="evenodd" clip-rule="evenodd" d="M11.0365 5.56023C10.0772 4.59421 8.77177 4 7.33333 4C4.38782 4 2 6.49164 2 9.56522C2 15.3282 10 20 12 20C14 20 22 15.3282 22 9.56522C22 6.49164 19.6122 4 16.6667 4C15.2282 4 13.9228 4.59421 12.9635 5.56023C12.9496 5.57424 12.9358 5.58832 12.922 5.60248C12.6455 5.88706 12.3985 6.20292 12.1866 6.54457C12.1539 6.59721 12.122 6.65047 12.0911 6.70432C12.0511 6.77376 11.9489 6.77376 11.9089 6.70432C11.878 6.65047 11.8461 6.59721 11.8134 6.54457C11.6015 6.20292 11.3545 5.88706 11.078 5.60248C11.0642 5.58832 11.0504 5.57424 11.0365 5.56023ZM12 18.4998C11.991 18.4991 11.9493 18.4957 11.8685 18.4786C11.7702 18.4578 11.6399 18.4224 11.4775 18.3674C11.1518 18.257 10.7436 18.0836 10.2774 17.8448C9.34483 17.3673 8.2517 16.6654 7.21429 15.7947C5.06934 13.9946 3.5 11.7686 3.5 9.56522C3.5 7.25926 5.27577 5.5 7.33333 5.5C8.69692 5.5 9.92215 6.2592 10.6088 7.45248C11.4994 9 12.5 9.00107 13.3912 7.45248C14.0778 6.2592 15.3031 5.5 16.6667 5.5C18.7242 5.5 20.5 7.25926 20.5 9.56522C20.5 11.7686 18.9307 13.9946 16.7857 15.7947C15.7483 16.6654 14.6552 17.3673 13.7226 17.8448C13.2564 18.0836 12.8482 18.257 12.5225 18.3674C12.3601 18.4224 12.2298 18.4578 12.1315 18.4786C12.0507 18.4957 12.009 18.4991 12 18.4998Z" fill="#F2F6F9"/>
</svg>
