<svg width="24" height="24" viewBox="0 0 24 24" fill="none" xmlns="http://www.w3.org/2000/svg">
<path fill-rule="evenodd" clip-rule="evenodd" d="M10.9749 7.58366C10.467 7.21496 9.85661 7 9.2 7C7.43269 7 6 8.55727 6 10.4783C6 14.0801 10.8 17 12 17C13.2 17 18 14.0801 18 10.4783C18 8.55727 16.5673 7 14.8 7C14.1434 7 13.533 7.21496 13.0251 7.58366C13.0207 7.58681 13.0164 7.58998 13.012 7.59315C12.8913 7.68175 12.7764 7.77906 12.6681 7.88427C12.4926 8.05482 12.3345 8.24611 12.197 8.45459C12.1016 8.59941 12.0539 8.67181 12 8.67181C11.9461 8.67181 11.8984 8.59941 11.803 8.45459C11.6655 8.24611 11.5074 8.05482 11.3319 7.88427C11.2236 7.77906 11.1087 7.68175 10.988 7.59315C10.9836 7.58998 10.9793 7.58681 10.9749 7.58366ZM12 15.4864C11.9742 15.479 11.9401 15.4683 11.897 15.453C11.7376 15.3968 11.5215 15.3023 11.2622 15.164C10.7436 14.8874 10.1256 14.4749 9.53726 13.9605C8.29972 12.8786 7.5 11.6267 7.5 10.4783C7.5 9.2655 8.37641 8.5 9.2 8.5C9.71345 8.5 10.0533 8.68959 10.5 9C11.3319 9.57812 11.5 10.5 12 10.5C12.5 10.5 12.6681 9.5732 13.5 9C13.9479 8.69138 14.2865 8.5 14.8 8.5C15.6236 8.5 16.5 9.2655 16.5 10.4783C16.5 11.6267 15.7003 12.8786 14.4627 13.9605C13.8744 14.4749 13.2564 14.8874 12.7378 15.164C12.4785 15.3023 12.2624 15.3968 12.103 15.453C12.0599 15.4683 12.0258 15.479 12 15.4864Z" fill="#F2F6F9"/>
</svg>
