<svg width="24" height="24" viewBox="0 0 24 24" fill="none" xmlns="http://www.w3.org/2000/svg">
<path fill-rule="evenodd" clip-rule="evenodd" d="M10.0012 9.95774C8.47192 9.95774 7.24762 11.1717 7.24762 12.6506C7.24762 14.0577 8.20442 15.2259 9.14478 15.9892C9.63013 16.3832 10.1516 16.7037 10.6299 16.9289C11.0822 17.1418 11.5828 17.311 12.0064 17.311C12.43 17.311 12.9306 17.1418 13.383 16.9289C13.8612 16.7037 14.3827 16.3832 14.8681 15.9892C15.8085 15.2259 16.7653 14.0577 16.7653 12.6506C16.7653 11.1717 15.541 9.95774 14.0117 9.95774C13.3296 9.95774 12.8121 10.1131 12.3811 10.3779C12.2455 10.4612 12.1206 10.5551 12.0064 10.651C11.8923 10.5551 11.7673 10.4612 11.6318 10.3779C11.2008 10.1131 10.6833 9.95774 10.0012 9.95774ZM8.74433 12.6506C8.74433 11.9563 9.31558 11.4086 10.0012 11.4086C10.4266 11.4086 10.661 11.4992 10.8305 11.6033C11.0024 11.7089 11.1317 11.8373 11.3352 12.0394C11.3778 12.0817 11.4239 12.1275 11.4741 12.1767C11.6147 12.3147 11.8064 12.3923 12.0064 12.3923C12.2065 12.3923 12.3982 12.3147 12.5388 12.1767C12.589 12.1274 12.635 12.0818 12.6776 12.0395C12.8812 11.8373 13.0105 11.7089 13.1824 11.6033C13.3518 11.4992 13.5863 11.4086 14.0117 11.4086C14.6973 11.4086 15.2685 11.9563 15.2685 12.6506C15.2685 13.4167 14.7214 14.216 13.9072 14.8769C13.5153 15.195 13.0968 15.4507 12.7291 15.6238C12.3355 15.8091 12.0841 15.8601 12.0064 15.8601C11.9287 15.8601 11.6774 15.8091 11.2837 15.6238C10.9161 15.4507 10.4976 15.195 10.1057 14.8769C9.29146 14.216 8.74433 13.4167 8.74433 12.6506Z" fill="#F2F6F9"/>
<path fill-rule="evenodd" clip-rule="evenodd" d="M12.0063 3C11.6956 3 11.434 3.09257 11.2034 3.20739C10.9967 3.31033 10.7679 3.45629 10.5255 3.61093L4.40236 7.516C3.77079 7.91874 3.23157 8.26259 2.84559 8.59204C2.43465 8.9428 2.09623 9.35986 2.01675 9.93388C1.93727 10.5079 2.15026 10.9967 2.45124 11.4401C2.73394 11.8565 3.16054 12.326 3.6602 12.876L3.99745 13.2472C4.09601 13.3557 4.15032 13.4158 4.18899 13.4634C4.20616 13.4845 4.215 13.4968 4.21944 13.5035L4.22309 13.5092L4.22357 13.5101L4.22626 13.5174C4.22877 13.5249 4.23308 13.5393 4.23917 13.5656C4.25286 13.6247 4.26677 13.7035 4.29146 13.846L4.42198 14.5995C4.61534 15.7159 4.77199 17.6203 4.99018 18.3278C5.21741 19.0646 5.53518 19.6733 6.10646 20.1419C6.67773 20.6104 7.34962 20.8134 8.13687 20.9086C8.89278 21 9.83888 21 11.0067 21H12.9532C14.121 21 15.0671 21 15.823 20.9086C16.6102 20.8134 17.2821 20.6104 17.8534 20.1419C18.4247 19.6733 18.7424 19.0646 18.9697 18.3278C19.1879 17.6203 19.3445 15.7159 19.5379 14.5995L19.6668 13.8551C19.6919 13.7102 19.7061 13.6301 19.72 13.57C19.7262 13.5434 19.7306 13.5287 19.7332 13.521L19.7356 13.5146L19.736 13.5137L19.7365 13.5128L19.7402 13.507C19.7448 13.5003 19.7538 13.4878 19.7715 13.4664C19.8112 13.4184 19.8669 13.3577 19.9681 13.2483L20.3055 12.8835C20.8142 12.3334 21.2483 11.864 21.5366 11.4471C21.8433 11.0034 22.0617 10.5131 21.9843 9.93517C21.907 9.35721 21.5667 8.93716 21.1534 8.58409C20.7649 8.2523 20.2216 7.90582 19.5848 7.49975L13.4872 3.61093C13.2447 3.45629 13.0159 3.31033 12.8092 3.20739C12.5786 3.09257 12.317 3 12.0063 3ZM11.3208 4.8404C11.6003 4.66215 11.761 4.56078 11.8873 4.49792C11.9441 4.46965 11.9763 4.45838 11.9925 4.45382C12.0001 4.45169 12.0049 4.45095 12.0049 4.45095L12.0063 4.45083L12.0077 4.45095C12.0077 4.45095 12.0125 4.45169 12.0201 4.45382C12.0363 4.45838 12.0686 4.46965 12.1253 4.49792C12.2516 4.56078 12.4124 4.66215 12.6918 4.8404L18.7173 8.68321C19.4114 9.12585 19.8643 9.41672 20.1639 9.67263C20.4477 9.91502 20.4891 10.0401 20.5001 10.1219C20.511 10.2036 20.5038 10.3348 20.2933 10.6394C20.0709 10.9609 19.7097 11.3542 19.1551 11.9539L18.8536 12.2799L18.8162 12.3203C18.6622 12.4861 18.4966 12.6644 18.3873 12.8845C18.2781 13.1045 18.2376 13.3412 18.2 13.5613L18.1908 13.6148L18.07 14.3121C17.8665 15.4869 17.724 17.3016 17.5357 17.9123C17.3533 18.5035 17.1524 18.8163 16.8867 19.0343C16.6209 19.2523 16.2694 19.3925 15.6377 19.4689C14.9852 19.5479 14.1328 19.5492 12.9038 19.5492H11.056C9.8271 19.5492 8.97463 19.5479 8.32218 19.4689C7.69046 19.3925 7.33897 19.2523 7.0732 19.0343C6.80743 18.8163 6.60652 18.5035 6.42418 17.9123C6.23585 17.3016 6.09335 15.4869 5.88986 14.3121L5.76751 13.6058L5.75845 13.5531C5.72141 13.3365 5.68157 13.1036 5.57504 12.8866C5.4685 12.6696 5.30717 12.4928 5.15716 12.3283L5.12068 12.2883L4.81872 11.9559C4.27396 11.3563 3.91932 10.9634 3.70154 10.6426C3.49541 10.3389 3.48887 10.2084 3.50016 10.1269C3.51144 10.0454 3.55325 9.92114 3.83469 9.68092C4.13203 9.42712 4.58101 9.13874 5.2696 8.69959L11.3208 4.8404Z" fill="#F2F6F9"/>
</svg>
