<svg width="24" height="24" viewBox="0 0 24 24" fill="none" xmlns="http://www.w3.org/2000/svg">
<path d="M5.95352 9.62125C5.69664 9.62125 5.4884 9.83038 5.4884 10.0884V18.0295C5.4884 18.2874 5.69664 18.4966 5.95352 18.4966H7.34887C7.60574 18.4966 7.81398 18.2874 7.81398 18.0295V10.0884C7.81398 9.83038 7.60574 9.62125 7.34887 9.62125H5.95352Z" fill="#F2F6F9"/>
<path d="M9.73564 10.0884C9.73564 9.83038 9.94388 9.62125 10.2008 9.62125H11.5961C11.853 9.62125 12.0612 9.83038 12.0612 10.0884V11.4897C12.0612 11.7477 11.853 11.9569 11.5961 11.9569H10.2008C9.94388 11.9569 9.73564 11.7477 9.73564 11.4897V10.0884Z" fill="#F2F6F9"/>
<path d="M10.2008 12.8911C9.94388 12.8911 9.73564 13.1002 9.73564 13.3582V14.7596C9.73564 15.0176 9.94388 15.2267 10.2008 15.2267H11.5961C11.853 15.2267 12.0612 15.0176 12.0612 14.7596V13.3582C12.0612 13.1002 11.853 12.8911 11.5961 12.8911H10.2008Z" fill="#F2F6F9"/>
<path d="M9.73564 16.6281C9.73564 16.3701 9.94388 16.161 10.2008 16.161H11.5961C11.853 16.161 12.0612 16.3701 12.0612 16.6281V18.0295C12.0612 18.2874 11.853 18.4966 11.5961 18.4966H10.2008C9.94388 18.4966 9.73564 18.2874 9.73564 18.0295V16.6281Z" fill="#F2F6F9"/>
<path fill-rule="evenodd" clip-rule="evenodd" d="M16.7876 6.2169C16.5192 6.00931 16.1761 5.79272 15.773 5.53834L10.6823 2.3251C10.5775 2.2589 10.4582 2.18357 10.3467 2.12861C10.2137 2.06305 10.0399 1.99897 9.82648 2.00001C9.61305 2.00106 9.43994 2.06683 9.30753 2.13369C9.19656 2.18972 9.07806 2.26621 8.97393 2.33342L4.00504 5.53792C3.60893 5.79336 3.27157 6.01091 3.00779 6.21874C2.72668 6.44023 2.48808 6.68119 2.31315 7.00279C2.13822 7.32439 2.06526 7.65623 2.03158 8.01346C1.99998 8.34867 1.99999 8.75134 2.00001 9.2241L2 19.4726C1.99996 19.877 1.99991 20.2477 2.04029 20.5493C2.08474 20.8814 2.18935 21.2324 2.47681 21.5211C2.76427 21.8098 3.11378 21.9149 3.44446 21.9595C3.74474 22.0001 4.11386 22 4.51646 22H19.4835C19.8861 22 20.2553 22.0001 20.5555 21.9595C20.8862 21.9149 21.2357 21.8098 21.5232 21.5211C21.8107 21.2324 21.9153 20.8814 21.9597 20.5493C22.0001 20.2477 22 19.877 22 19.4726L22 15.5696C22 15.0273 22 14.567 21.9604 14.1872C21.9182 13.7828 21.8266 13.4093 21.6063 13.0581C21.3859 12.7069 21.0901 12.4627 20.7451 12.2498C20.421 12.0499 20.0076 11.8512 19.5205 11.6171L17.8139 10.7968V9.2475C17.814 8.76942 17.814 8.36236 17.7818 8.02368C17.7475 7.66279 17.6731 7.32771 17.4948 7.00367C17.3165 6.67963 17.0736 6.43811 16.7876 6.2169ZM16.4186 9.27887V20.5986H4.55818C4.09994 20.5986 3.82644 20.5971 3.63042 20.5707C3.5406 20.5585 3.49561 20.5442 3.47535 20.5359C3.47066 20.5339 3.46758 20.5324 3.46578 20.5315L3.4635 20.5302L3.46223 20.5279C3.46129 20.5261 3.45979 20.523 3.45786 20.5183C3.44952 20.498 3.4353 20.4528 3.42322 20.3626C3.39687 20.1657 3.39539 19.891 3.39539 19.4308V9.25519C3.39539 8.7429 3.39611 8.40694 3.42075 8.14555C3.44401 7.89884 3.48491 7.7717 3.53772 7.67461C3.59053 7.57753 3.67495 7.47426 3.86908 7.3213C4.07477 7.15924 4.35586 6.9771 4.78508 6.70029L9.7092 3.52468C9.75918 3.49244 9.79898 3.4668 9.83352 3.44513C9.86826 3.46646 9.9083 3.49171 9.9586 3.52346L15.0041 6.70812C15.4408 6.98375 15.7268 7.16518 15.9362 7.32714C16.1339 7.48001 16.2198 7.5837 16.2736 7.68147C16.3274 7.77924 16.3691 7.90748 16.3928 8.15688C16.4179 8.4211 16.4186 8.76089 16.4186 9.27887ZM17.814 20.5986V12.3504L18.8866 12.866C19.4137 13.1194 19.7604 13.287 20.0149 13.444C20.2554 13.5923 20.3597 13.6998 20.4257 13.8051C20.4917 13.9103 20.5433 14.0513 20.5727 14.3332C20.6038 14.6315 20.6047 15.0179 20.6047 15.6048V19.4308C20.6047 19.891 20.6032 20.1657 20.5768 20.3626C20.5648 20.4528 20.5505 20.498 20.5422 20.5183L20.5392 20.5252L20.5378 20.5279L20.5366 20.5302L20.5343 20.5315C20.5325 20.5324 20.5294 20.5339 20.5247 20.5359C20.5045 20.5442 20.4595 20.5585 20.3696 20.5707C20.1736 20.5971 19.9001 20.5986 19.4419 20.5986H17.814Z" fill="#F2F6F9"/>
</svg>
