<svg width="24" height="24" viewBox="0 0 24 24" fill="none" xmlns="http://www.w3.org/2000/svg">
<path d="M20.5259 5.25359V2.72419C20.5259 2.32423 20.8501 2 21.2501 2C21.65 2 21.9742 2.32423 21.9742 2.72419V8.62263C21.9742 9.02259 21.65 9.34682 21.2501 9.34682C20.8501 9.34682 20.5259 9.02259 20.5259 8.62263V6.65998C20.0781 6.8489 19.5988 6.94336 19.088 6.94336C18.3533 6.94336 17.7411 6.73695 17.2513 6.32413C16.7755 5.90431 16.5376 5.33755 16.5376 4.62386V2.72419C16.5376 2.32423 16.8618 2 17.2618 2C17.6617 2 17.986 2.32423 17.986 2.72419V4.43495C17.986 4.78479 18.0874 5.06117 18.2903 5.26409C18.5002 5.46 18.7766 5.55796 19.1195 5.55796C19.6163 5.55796 20.0851 5.4565 20.5259 5.25359Z" fill="#F2F6F9"/>
<path d="M20.4675 12.7491C20.3907 13.6306 20.1797 14.4717 19.8557 15.2532C19.4253 16.2909 18.7945 17.2263 18.0104 18.0104C17.2264 18.7944 16.291 19.4253 15.2534 19.8556C14.2532 20.2703 13.1553 20.5 12 20.5C10.8447 20.5 9.74688 20.2704 8.74677 19.8556C7.70903 19.4253 6.77364 18.7945 5.98959 18.0104C5.20554 17.2264 4.57468 16.2909 4.14436 15.2532C3.72964 14.2531 3.5 13.1553 3.5 12C3.5 10.8447 3.72967 9.74679 4.14442 8.74663C4.57474 7.70895 5.20558 6.7736 5.98959 5.98959C6.77365 5.20553 7.70907 4.57466 8.74683 4.14434C9.74693 3.72963 10.8448 3.5 12 3.5C12.4445 3.5 12.8805 3.534 13.3057 3.59945C13.699 3.65999 14.0913 3.44008 14.2085 3.05984C14.3358 2.64713 14.0909 2.20937 13.665 2.13798C13.1235 2.04723 12.5673 2 12 2C10.6441 2 9.35131 2.26984 8.17228 2.75874C6.95001 3.26557 5.85004 4.00782 4.92893 4.92893C4.00788 5.84998 3.26567 6.94987 2.75884 8.17204C2.26987 9.35114 2 10.6441 2 12C2 13.3559 2.26984 14.6487 2.75876 15.8278C3.26559 17.05 4.00783 18.15 4.92893 19.0711C5.85002 19.9922 6.94997 20.7344 8.1722 21.2412C9.35125 21.7302 10.6441 22 12 22C13.3559 22 14.6489 21.7301 15.8279 21.2412C17.0501 20.7343 18.15 19.9921 19.0711 19.0711C19.9922 18.15 20.7344 17.05 21.2413 15.8277C21.6393 14.8679 21.8921 13.8326 21.9723 12.7493C22.0029 12.3362 21.6642 12 21.25 12C20.8358 12 20.5035 12.3364 20.4675 12.7491Z" fill="#F2F6F9"/>
<path d="M12.5485 12.4485V7.19757C12.5485 6.75703 12.1914 6.3999 11.7509 6.3999C11.3103 6.3999 10.9532 6.75703 10.9532 7.19757V12.7789C10.9532 12.9905 11.0372 13.1934 11.1868 13.343L14.4426 16.5988C14.7541 16.9103 15.2592 16.9103 15.5707 16.5988C15.8822 16.2873 15.8822 15.7822 15.5707 15.4707L12.5485 12.4485Z" fill="#F2F6F9"/>
</svg>
