<svg width="24" height="24" viewBox="0 0 24 24" fill="none" xmlns="http://www.w3.org/2000/svg">
<path fill-rule="evenodd" clip-rule="evenodd" d="M6.37023 2H17.6298C18.4656 1.99997 19.1625 1.99995 19.7158 2.07434C20.2998 2.15285 20.827 2.32557 21.2507 2.74926C21.6744 3.17296 21.8471 3.70021 21.9257 4.28421C22 4.83749 22 5.53444 22 6.37024V17.6298C22 18.4656 22 19.1625 21.9257 19.7158C21.8471 20.2998 21.6744 20.827 21.2507 21.2507C20.827 21.6744 20.2998 21.8471 19.7158 21.9257C19.1625 22 18.4656 22 17.6298 22H6.37024C5.53444 22 4.83749 22 4.28421 21.9257C3.70021 21.8471 3.17296 21.6744 2.74926 21.2507C2.32557 20.827 2.15285 20.2998 2.07434 19.7158C1.99995 19.1625 1.99997 18.4656 2 17.6298V6.37023C1.99997 5.53444 1.99995 4.83749 2.07434 4.28421C2.15285 3.70021 2.32557 3.17296 2.74926 2.74926C3.17296 2.32557 3.70021 2.15285 4.28421 2.07434C4.83749 1.99995 5.53444 1.99997 6.37023 2ZM4.47013 3.45724C4.04087 3.51496 3.85715 3.6147 3.73592 3.73592C3.6147 3.85715 3.51496 4.04087 3.45724 4.47013C3.39683 4.91947 3.39535 5.52185 3.39535 6.41861V17.5814C3.39535 18.4781 3.39683 19.0805 3.45724 19.5299C3.51496 19.9591 3.6147 20.1429 3.73592 20.2641C3.85715 20.3853 4.04087 20.485 4.47013 20.5428C4.91947 20.6032 5.52185 20.6047 6.41861 20.6047H17.5814C18.4781 20.6047 19.0805 20.6032 19.5299 20.5428C19.9591 20.485 20.1429 20.3853 20.2641 20.2641C20.3853 20.1429 20.485 19.9591 20.5428 19.5299C20.6032 19.0805 20.6047 18.4781 20.6047 17.5814V6.41861C20.6047 5.52185 20.6032 4.91947 20.5428 4.47013C20.485 4.04087 20.3853 3.85715 20.2641 3.73592C20.1429 3.6147 19.9591 3.51496 19.5299 3.45724C19.0805 3.39683 18.4781 3.39535 17.5814 3.39535H6.41861C5.52185 3.39535 4.91947 3.39683 4.47013 3.45724ZM13.8605 7.5814C13.4751 7.5814 13.1628 7.89376 13.1628 8.27907C13.1628 8.66439 13.4751 8.97675 13.8605 8.97675C14.2458 8.97675 14.5581 8.66439 14.5581 8.27907C14.5581 7.89376 14.2458 7.5814 13.8605 7.5814ZM11.7674 8.27907C11.7674 7.12313 12.7045 6.18605 13.8605 6.18605C15.0164 6.18605 15.9535 7.12313 15.9535 8.27907C15.9535 9.43502 15.0164 10.3721 13.8605 10.3721C12.7045 10.3721 11.7674 9.43502 11.7674 8.27907ZM9.54546 13.8944C9.3099 13.8127 9.05432 13.8088 8.81641 13.8834C8.70897 13.9171 8.56294 14.0004 8.31126 14.2548C8.05506 14.5137 7.75137 14.8837 7.30564 15.4285L5.56323 17.5581C5.31923 17.8563 4.87968 17.9002 4.58146 17.6562C4.28325 17.4123 4.23929 16.9727 4.48329 16.6745L6.24745 14.5183C6.66596 14.0068 7.0112 13.5848 7.31943 13.2733C7.6375 12.9519 7.97543 12.6848 8.39888 12.552C8.92227 12.3879 9.48456 12.3963 10.0028 12.5761C10.4221 12.7216 10.7518 12.9986 11.0601 13.3295C11.3588 13.6501 11.6912 14.0822 12.0942 14.6061L13.0206 15.8104C13.4687 16.393 14.3391 16.416 14.8174 15.858C15.7853 14.7288 17.5097 14.6626 18.5613 15.7142L19.4701 16.6229C19.7425 16.8954 19.7425 17.3372 19.4701 17.6096C19.1976 17.8821 18.7559 17.8821 18.4834 17.6096L17.5747 16.7009C17.0978 16.224 16.3158 16.254 15.8769 16.7661C14.8222 17.9966 12.9028 17.9458 11.9146 16.6612L11.0092 15.4841C10.58 14.9262 10.2875 14.5472 10.0392 14.2807C9.79531 14.0189 9.65184 13.9313 9.54546 13.8944Z" fill="#F2F6F9"/>
</svg>
