<svg width="24" height="24" viewBox="0 0 24 24" fill="none" xmlns="http://www.w3.org/2000/svg">
<path d="M2.00119 4.68571C2.00119 4.307 2.31355 4 2.69886 4H12C12.1957 4 12.3824 4.08078 12.5145 4.22262C12.6467 4.36447 12.7121 4.55434 12.6949 4.74593C12.4713 7.23908 11.05 9.52685 8.99115 11.1555C9.83185 11.7501 10.8924 12.1554 12.0458 12.23C12.4303 12.2549 12.7214 12.5814 12.6962 12.9592C12.6709 13.3371 12.3387 13.6233 11.9542 13.5985C10.4138 13.4989 8.93223 12.8988 7.79846 11.9817C6.29472 12.8889 4.55699 13.4715 2.74726 13.5982C2.36292 13.6251 2.02916 13.3407 2.00179 12.9629C1.97442 12.5852 2.2638 12.2571 2.64814 12.2302C4.13671 12.126 5.55498 11.6728 6.79762 10.9735C6.20272 10.2182 5.81427 9.34346 5.72407 8.40752C5.68773 8.0305 5.96924 7.69592 6.35284 7.66021C6.73643 7.62449 7.07685 7.90118 7.11319 8.27819C7.17803 8.95096 7.48301 9.6173 7.96445 10.2062C9.61508 8.9481 10.8052 7.22537 11.1934 5.37141H2.69886C2.31355 5.37141 2.00119 5.06441 2.00119 4.68571Z" fill="#F2F6F9"/>
<path fill-rule="evenodd" clip-rule="evenodd" d="M16.651 8.57138C16.9246 8.57138 17.1729 8.72855 17.2862 8.97334L21.9373 19.0304C22.0967 19.3751 21.9416 19.7817 21.5909 19.9384C21.2401 20.0951 20.8265 19.9426 20.667 19.5979L19.2973 16.6362H14.0047L12.635 19.5979C12.4756 19.9426 12.062 20.0951 11.7112 19.9384C11.3604 19.7817 11.2053 19.3751 11.3648 19.0304L16.0159 8.97334C16.1291 8.72855 16.3774 8.57138 16.651 8.57138ZM18.6631 15.2648L16.651 10.9142L14.639 15.2648H18.6631Z" fill="#F2F6F9"/>
</svg>
