<svg width="24" height="24" viewBox="0 0 24 24" fill="none" xmlns="http://www.w3.org/2000/svg">
<path fill-rule="evenodd" clip-rule="evenodd" d="M4.24944 7.67875C5.59371 6.88286 7.37797 6.65118 9.2093 6.65118C9.59462 6.65118 9.90698 6.96354 9.90698 7.34886C9.90698 7.73417 9.59462 8.04653 9.2093 8.04653C7.44436 8.04653 5.97281 8.27998 4.96033 8.87943C4.015 9.43913 3.39535 10.3608 3.39535 12C3.39535 13.6393 4.015 14.5609 4.96033 15.1206C5.97281 15.7201 7.44436 15.9535 9.2093 15.9535C9.59462 15.9535 9.90698 16.2659 9.90698 16.6512C9.90698 17.0365 9.59462 17.3489 9.2093 17.3489C7.37797 17.3489 5.59371 17.1172 4.24944 16.3213C2.83803 15.4856 2 14.0817 2 12C2 9.91834 2.83803 8.5144 4.24944 7.67875ZM14.093 7.34886C14.093 6.96354 14.4054 6.65118 14.7907 6.65118C16.622 6.65118 18.4063 6.88286 19.7506 7.67875C21.162 8.5144 22 9.91834 22 12C22 14.0817 21.162 15.4856 19.7506 16.3213C18.4063 17.1172 16.622 17.3489 14.7907 17.3489C14.4054 17.3489 14.093 17.0365 14.093 16.6512C14.093 16.2659 14.4054 15.9535 14.7907 15.9535C16.5556 15.9535 18.0272 15.7201 19.0397 15.1206C19.985 14.5609 20.6047 13.6393 20.6047 12C20.6047 10.3608 19.985 9.43913 19.0397 8.87943C18.0272 8.27998 16.5556 8.04653 14.7907 8.04653C14.4054 8.04653 14.093 7.73417 14.093 7.34886Z" fill="#F2F6F9"/>
<path fill-rule="evenodd" clip-rule="evenodd" d="M7.00003 12C7.00003 11.5858 7.33582 11.25 7.75003 11.25L16.25 11.25C16.6642 11.25 17 11.5858 17 12C17 12.4142 16.6642 12.75 16.25 12.75L7.75003 12.75C7.33582 12.75 7.00003 12.4142 7.00003 12Z" fill="#F2F6F9"/>
</svg>
