<svg width="24" height="24" viewBox="0 0 24 24" fill="none" xmlns="http://www.w3.org/2000/svg">
<path fill-rule="evenodd" clip-rule="evenodd" d="M7.74836 2H17.6298C18.4655 1.99998 19.1625 1.99995 19.7158 2.07434C20.2998 2.15286 20.827 2.32557 21.2507 2.74927C21.6744 3.17296 21.8471 3.70021 21.9257 4.28421C22 4.83749 22 5.53444 22 6.37024V17.6298C22 18.4656 22 19.1625 21.9257 19.7158C21.8471 20.2998 21.6744 20.827 21.2507 21.2507C20.827 21.6744 20.2998 21.8471 19.7158 21.9257C19.1625 22.0001 18.4656 22 17.6298 22H7.74836C6.91256 22 6.21561 22.0001 5.66233 21.9257C5.07833 21.8471 4.55108 21.6744 4.12738 21.2507C3.70369 20.827 3.53097 20.2998 3.45246 19.7158C3.37807 19.1625 3.37809 18.4656 3.37812 17.6298L3.37812 16.9354H2.69767C2.31236 16.9354 2 16.623 2 16.2377C2 15.8524 2.31236 15.5401 2.69767 15.5401H3.37812V12.6977H2.69767C2.31236 12.6977 2 12.3853 2 12C2 11.6147 2.31236 11.3023 2.69767 11.3023H3.37812V8.45995H2.69767C2.31236 8.45995 2 8.14759 2 7.76228C2 7.37696 2.31236 7.0646 2.69767 7.0646H3.37812L3.37812 6.37024C3.37809 5.53444 3.37807 4.83749 3.45246 4.28421C3.53097 3.70021 3.70369 3.17296 4.12738 2.74927C4.55108 2.32557 5.07833 2.15286 5.66233 2.07434C6.2156 1.99995 6.91259 1.99998 7.74836 2ZM8.24375 7.0645C7.85844 7.0645 7.54608 7.37686 7.54608 7.76217C7.54608 8.14749 7.85844 8.45985 8.24375 8.45985H17.1344C17.5197 8.45985 17.832 8.14749 17.832 7.76217C17.832 7.37686 17.5197 7.0645 17.1344 7.0645H8.24375ZM8.24375 11.3022C7.85844 11.3022 7.54608 11.6146 7.54608 11.9999C7.54608 12.3852 7.85844 12.6976 8.24375 12.6976H17.1344C17.5197 12.6976 17.832 12.3852 17.832 11.9999C17.832 11.6146 17.5197 11.3022 17.1344 11.3022H8.24375ZM8.24375 15.5399C7.85844 15.5399 7.54608 15.8523 7.54608 16.2376C7.54608 16.6229 7.85844 16.9353 8.24375 16.9353H17.1344C17.5197 16.9353 17.832 16.6229 17.832 16.2376C17.832 15.8523 17.5197 15.5399 17.1344 15.5399H8.24375Z" fill="#F2F6F9"/>
</svg>
