<svg width="24" height="24" viewBox="0 0 24 24" fill="none" xmlns="http://www.w3.org/2000/svg">
<path fill-rule="evenodd" clip-rule="evenodd" d="M2.42339 21.5766C1.85887 21.0121 1.85887 14.2379 2.42339 13.6734C2.9879 13.1089 21.0121 13.1089 21.5766 13.6734C22.1411 14.2379 22.1411 21.0121 21.5766 21.5766C21.0121 22.1411 2.9879 22.1411 2.42339 21.5766ZM3.43618 15.166C3.44472 15.0784 3.45357 14.9967 3.4626 14.921C3.97166 14.8749 4.66974 14.8345 5.51115 14.8011C7.29648 14.7302 9.64341 14.6944 12 14.6944C14.3566 14.6944 16.7035 14.7302 18.4889 14.8011C19.3303 14.8345 20.0283 14.8749 20.5374 14.921C20.5464 14.9967 20.5553 15.0784 20.5638 15.166C20.6295 15.839 20.6645 16.7217 20.6645 17.625C20.6645 18.5283 20.6295 19.411 20.5638 20.084C20.5553 20.1716 20.5464 20.2533 20.5374 20.329C20.0283 20.3751 19.3303 20.4156 18.4889 20.4489C16.7035 20.5198 14.3566 20.5556 12 20.5556C9.64341 20.5556 7.29648 20.5198 5.51115 20.4489C4.66974 20.4156 3.97166 20.3751 3.4626 20.329C3.45357 20.2533 3.44472 20.1716 3.43618 20.084C3.37053 19.411 3.33551 18.5283 3.33551 17.625C3.33551 16.7217 3.37053 15.839 3.43618 15.166Z" fill="#F2F6F9"/>
<path fill-rule="evenodd" clip-rule="evenodd" d="M2.42339 10.3266C1.85887 9.76209 1.85887 2.98789 2.42339 2.42338C2.9879 1.85888 21.0121 1.85887 21.5766 2.42338C22.1411 2.9879 22.1411 9.76209 21.5766 10.3266C21.0121 10.8911 2.9879 10.8911 2.42339 10.3266ZM3.43618 3.916C3.44472 3.82842 3.45357 3.74674 3.4626 3.67098C3.97166 3.62493 4.66974 3.58445 5.51115 3.55106C7.29648 3.4802 9.64341 3.44437 12 3.44437C14.3566 3.44437 16.7035 3.4802 18.4889 3.55106C19.3303 3.58445 20.0283 3.62493 20.5374 3.67098C20.5464 3.74674 20.5553 3.82843 20.5638 3.916C20.6295 4.58896 20.6645 5.47172 20.6645 6.375C20.6645 7.27828 20.6295 8.16104 20.5638 8.834C20.5553 8.92158 20.5464 9.00326 20.5374 9.07902C20.0283 9.12507 19.3303 9.16555 18.4889 9.19895C16.7035 9.2698 14.3566 9.30564 12 9.30564C9.64341 9.30564 7.29648 9.2698 5.51115 9.19895C4.66974 9.16555 3.97166 9.12507 3.4626 9.07902C3.45357 9.00326 3.44472 8.92158 3.43618 8.834C3.37053 8.16104 3.33551 7.27828 3.33551 6.375C3.33551 5.47172 3.37053 4.58896 3.43618 3.916Z" fill="#F2F6F9"/>
</svg>
