<svg width="24" height="24" viewBox="0 0 24 24" fill="none" xmlns="http://www.w3.org/2000/svg">
<path fill-rule="evenodd" clip-rule="evenodd" d="M7.74836 2H17.6298C18.4656 1.99997 19.1625 1.99995 19.7158 2.07434C20.2998 2.15285 20.827 2.32557 21.2507 2.74926C21.6744 3.17296 21.8471 3.70021 21.9257 4.28421C22 4.83749 22 5.53444 22 6.37024V17.6298C22 18.4656 22 19.1625 21.9257 19.7158C21.8471 20.2998 21.6744 20.827 21.2507 21.2507C20.827 21.6744 20.2998 21.8471 19.7158 21.9257C19.1625 22 18.4656 22 17.6298 22H7.74836C6.91256 22 6.21561 22 5.66233 21.9257C5.07833 21.8471 4.55108 21.6744 4.12738 21.2507C3.70369 20.827 3.53097 20.2998 3.45246 19.7158C3.37807 19.1625 3.37809 18.4656 3.37812 17.6298L3.37812 16.9354H2.69767C2.31236 16.9354 2 16.623 2 16.2377C2 15.8524 2.31236 15.5401 2.69767 15.5401H3.37812V12.6977H2.69767C2.31236 12.6977 2 12.3853 2 12C2 11.6147 2.31236 11.3023 2.69767 11.3023H3.37812V8.45995H2.69767C2.31236 8.45995 2 8.14759 2 7.76228C2 7.37696 2.31236 7.0646 2.69767 7.0646H3.37812L3.37812 6.37023C3.37809 5.53444 3.37807 4.83749 3.45246 4.28421C3.53097 3.70021 3.70369 3.17296 4.12738 2.74926C4.55108 2.32557 5.07833 2.15285 5.66233 2.07434C6.21561 1.99995 6.91256 1.99997 7.74836 2ZM5.84825 3.45724C5.41899 3.51496 5.23527 3.6147 5.11404 3.73592C4.99282 3.85715 4.89308 4.04087 4.83536 4.47013C4.77495 4.91947 4.77347 5.52185 4.77347 6.41861V17.5814C4.77347 18.4781 4.77495 19.0805 4.83536 19.5299C4.89308 19.9591 4.99282 20.1429 5.11404 20.2641C5.23527 20.3853 5.41899 20.485 5.84825 20.5428C6.29759 20.6032 6.89997 20.6047 7.79673 20.6047H17.5814C18.4781 20.6047 19.0805 20.6032 19.5299 20.5428C19.9591 20.485 20.1429 20.3853 20.2641 20.2641C20.3853 20.1429 20.485 19.9591 20.5428 19.5299C20.6032 19.0805 20.6046 18.4781 20.6046 17.5814V6.41861C20.6046 5.52185 20.6032 4.91947 20.5428 4.47013C20.485 4.04087 20.3853 3.85715 20.2641 3.73592C20.1429 3.6147 19.9591 3.51496 19.5299 3.45724C19.0805 3.39683 18.4781 3.39535 17.5814 3.39535H7.79673C6.89997 3.39535 6.29759 3.39683 5.84825 3.45724ZM7.54608 7.76228C7.54608 7.37696 7.85844 7.0646 8.24375 7.0646H17.1344C17.5197 7.0646 17.832 7.37696 17.832 7.76228C17.832 8.14759 17.5197 8.45995 17.1344 8.45995H8.24375C7.85844 8.45995 7.54608 8.14759 7.54608 7.76228ZM7.54608 12C7.54608 11.6147 7.85844 11.3023 8.24375 11.3023H17.1344C17.5197 11.3023 17.832 11.6147 17.832 12C17.832 12.3853 17.5197 12.6977 17.1344 12.6977H8.24375C7.85844 12.6977 7.54608 12.3853 7.54608 12ZM7.54608 16.2377C7.54608 15.8524 7.85844 15.5401 8.24375 15.5401H17.1344C17.5197 15.5401 17.832 15.8524 17.832 16.2377C17.832 16.623 17.5197 16.9354 17.1344 16.9354H8.24375C7.85844 16.9354 7.54608 16.623 7.54608 16.2377Z" fill="#F2F6F9"/>
</svg>
