<svg width="24" height="24" viewBox="0 0 24 24" fill="none" xmlns="http://www.w3.org/2000/svg">
<path fill-rule="evenodd" clip-rule="evenodd" d="M8.34783 2.69285C9.39264 1.83272 10.8582 1.76727 11.9715 2.53102C13.0348 3.26046 13.3539 4.72065 12.6964 5.84826L12.2097 6.67156C12.0298 6.97595 11.7045 7.16269 11.3509 7.16269H5.66632C5.35035 7.16269 5.04176 7.01817 4.91668 6.72801C4.32806 5.3625 5.0027 3.33371 6.60625 3.33371H7.05403C7.38762 3.33371 7.71128 3.21688 7.97176 3.00244L8.34783 2.69285ZM11.1975 3.72578C10.5898 3.30888 9.78976 3.3446 9.21943 3.81411L8.84337 4.1237C8.33547 4.54182 7.7044 4.76962 7.05397 4.76962H6.60619C6.26669 4.76962 6.01038 4.99262 5.91341 5.27558C5.86771 5.40896 5.84485 5.47564 5.93459 5.60125C6.02432 5.72686 6.13483 5.72686 6.35585 5.72686H10.7952C10.9635 5.72686 11.0476 5.72686 11.117 5.68699C11.1864 5.64712 11.2288 5.57444 11.3136 5.42908L11.4999 5.10955C11.7741 4.63917 11.641 4.03006 11.1975 3.72578Z" fill="#F2F6F9"/>
<path fill-rule="evenodd" clip-rule="evenodd" d="M17.329 4.09449C18.1055 3.89473 18.9179 3.89473 19.6944 4.09449C21.4535 4.54704 22.1667 6.7215 21.034 8.17852L20.917 8.32912C20.7846 8.49942 20.5841 8.59856 20.3722 8.59856H16.6513C16.4393 8.59856 16.2389 8.49942 16.1065 8.32912L15.9894 8.17853C14.8567 6.7215 15.5699 4.54704 17.329 4.09449ZM17.6674 5.48744C18.2217 5.34484 18.8016 5.34484 19.3559 5.48744C19.9668 5.64461 20.2906 6.27454 20.1536 6.84775C20.1239 6.97169 20.1091 7.03366 20.0274 7.09815C19.9457 7.16265 19.8586 7.16265 19.6844 7.16265H17.3389C17.1648 7.16265 17.0777 7.16265 16.996 7.09815C16.9142 7.03366 16.8994 6.97169 16.8698 6.84775C16.7327 6.27454 17.0565 5.64461 17.6674 5.48744Z" fill="#F2F6F9"/>
<path fill-rule="evenodd" clip-rule="evenodd" d="M11.7911 10.4227C11.7482 10.4189 11.6898 10.4182 11.4831 10.4182H6.41854C5.5218 10.4182 4.91943 10.4197 4.4701 10.4811C4.04084 10.5398 3.85712 10.6411 3.7359 10.7643C3.61468 10.8875 3.51493 11.0743 3.45722 11.5106C3.39681 11.9672 3.39533 12.5795 3.39533 13.4909V15.3818C3.39533 16.2932 3.39681 16.9055 3.45722 17.3622C3.51493 17.7985 3.61468 17.9852 3.7359 18.1084C3.85712 18.2316 4.04084 18.333 4.4701 18.3916C4.91943 18.453 5.5218 18.4545 6.41854 18.4545H12.8525V11.8101C12.8525 11.6 12.8519 11.5406 12.8481 11.497C12.7989 10.9257 12.3533 10.4727 11.7911 10.4227ZM14.2479 12.5192V18.4545H19.4416C19.8998 18.4545 20.1733 18.453 20.3693 18.4263C20.4592 18.414 20.5041 18.3995 20.5244 18.391C20.5265 18.3902 20.5298 18.3887 20.5298 18.3887C20.5316 18.3878 20.534 18.3866 20.534 18.3866L20.5363 18.3853L20.5375 18.383C20.5385 18.3812 20.54 18.378 20.5419 18.3733C20.5502 18.3527 20.5645 18.307 20.5765 18.2157C20.6029 18.0164 20.6044 17.7385 20.6044 17.2727V16.0593C20.6044 15.8499 20.604 15.7291 20.5977 15.6387C20.5939 15.5833 20.5889 15.5602 20.5873 15.5541C20.5733 15.5191 20.5512 15.488 20.523 15.4635C20.5178 15.46 20.4978 15.4478 20.4473 15.4266C20.3649 15.392 20.2523 15.3534 20.0569 15.2872C20.0441 15.2829 20.0312 15.2785 20.0183 15.2742C19.8608 15.2211 19.6921 15.1643 19.5379 15.0707C19.4092 14.9926 19.2917 14.8968 19.1888 14.7861C19.0655 14.6534 18.9743 14.4984 18.8892 14.3536C18.8822 14.3417 18.8752 14.3299 18.8683 14.3181L18.145 13.093C18.0058 12.8571 17.9261 12.7237 17.8581 12.6303C17.8276 12.5885 17.8086 12.5678 17.7986 12.558C17.7938 12.5534 17.7904 12.5507 17.7904 12.5507L17.7892 12.5499L17.7879 12.5493C17.7879 12.5493 17.7839 12.5476 17.7775 12.5459C17.7641 12.5422 17.7369 12.5362 17.6859 12.5312C17.5721 12.52 17.4185 12.5192 17.1479 12.5192H14.2479ZM20.5245 15.4646L20.523 15.4635L20.5245 15.4646ZM20.5867 15.5523L20.5873 15.5541L20.5867 15.5523ZM11.5134 9C11.6757 8.99997 11.8007 8.99994 11.9127 9.0099C13.0586 9.1118 13.9846 9.97489 14.2005 11.101L17.1748 11.101C17.4089 11.101 17.6314 11.101 17.8209 11.1197C18.0327 11.1406 18.2556 11.1885 18.4767 11.3158C18.6978 11.443 18.8529 11.6126 18.9795 11.7864C19.0928 11.9419 19.2073 12.1359 19.3276 12.3399L20.0647 13.5885C20.121 13.6838 20.1524 13.7367 20.1778 13.7759C20.1999 13.81 20.2057 13.815 20.2032 13.8123C20.2179 13.8281 20.2347 13.8418 20.2531 13.853C20.2499 13.8511 20.256 13.8557 20.2936 13.8703C20.3367 13.887 20.3944 13.9067 20.4981 13.9418C20.5229 13.9502 20.5479 13.9586 20.573 13.967C20.8672 14.0657 21.1807 14.1709 21.4245 14.381C21.6267 14.5552 21.784 14.7771 21.8827 15.0272C22.0017 15.3287 22.0007 15.6642 21.9998 15.9791C21.9998 16.006 21.9997 16.0327 21.9997 16.0593L21.9997 17.315C21.9997 17.7242 21.9998 18.0994 21.9594 18.4046C21.915 18.7407 21.8104 19.096 21.5229 19.3881C21.2354 19.6803 20.8859 19.7866 20.5553 19.8318C20.4915 19.8405 20.4245 19.8474 20.3549 19.8528C20.0966 19.8728 19.8003 19.8728 19.4832 19.8727L6.37017 19.8727C5.67625 19.8727 5.07804 19.8728 4.5783 19.8295C4.47613 19.8207 4.37808 19.81 4.28417 19.7972C3.70019 19.7174 3.17294 19.5418 2.74925 19.1112C2.32557 18.6806 2.15285 18.1447 2.07434 17.5511C1.99995 16.9888 1.99997 16.2805 2 15.431V13.4417C1.99997 12.5923 1.99995 11.8839 2.07434 11.3216C2.15285 10.728 2.32557 10.1922 2.74925 9.76153C3.17294 9.3309 3.70019 9.15536 4.28417 9.07556C4.83745 8.99996 5.53439 8.99998 6.37017 9.00001L11.4831 9.00001C11.4933 9.00001 11.5034 9.00001 11.5134 9ZM11.0002 12.4253C11.2367 12.7344 11.182 13.1799 10.8778 13.4203L6.22672 17.0971C5.92257 17.3375 5.48425 17.2818 5.24769 16.9727C5.01113 16.6636 5.06593 16.2181 5.37007 15.9777L10.0212 12.3009C10.3253 12.0605 10.7636 12.1161 11.0002 12.4253Z" fill="#F2F6F9"/>
<path d="M18.5114 22C19.5389 22 20.3718 21.1534 20.3718 20.1091C20.3718 20.0221 20.366 19.9366 20.3549 19.8528C20.0966 19.8728 19.8003 19.8728 19.4832 19.8727L16.6653 19.8727C16.6558 19.9501 16.6509 20.029 16.6509 20.1091C16.6509 21.1534 17.4839 22 18.5114 22Z" fill="#F2F6F9"/>
<path d="M6.41854 22C7.44603 22 8.27898 21.1534 8.27898 20.1091C8.27898 20.029 8.27409 19.9501 8.26458 19.8727L6.37017 19.8727C5.67625 19.8727 5.07804 19.8728 4.5783 19.8295C4.56499 19.9207 4.55811 20.0141 4.55811 20.1091C4.55811 21.1534 5.39105 22 6.41854 22Z" fill="#F2F6F9"/>
</svg>
