<svg width="24" height="24" viewBox="0 0 24 24" fill="none" xmlns="http://www.w3.org/2000/svg">
<path fill-rule="evenodd" clip-rule="evenodd" d="M12 3.37898C8.29845 3.37898 5.37143 6.20464 5.37143 9.60167V10.018C5.37143 11.3528 5.85113 12.4344 6.72186 13.9291C7.44549 15.1713 7.95442 15.8099 8.90129 16.9586C9.5176 17.7064 10.4015 18.6038 11.1443 19.3252C11.4752 19.6466 11.7743 19.9293 12.0035 20.1434C12.2354 19.93 12.5382 19.6475 12.8731 19.3261C13.6231 18.606 14.5128 17.71 15.1282 16.9599C16.0621 15.8215 16.5512 15.1769 17.2781 13.9291C18.1489 12.4344 18.6286 11.3528 18.6286 10.018V9.60167C18.6286 6.20465 15.7016 3.37898 12 3.37898ZM12 21.0759C11.5413 21.5884 11.5413 21.5884 11.5413 21.5884L11.5338 21.5816L11.5132 21.5628L11.4349 21.4914C11.3672 21.4293 11.2693 21.3392 11.1481 21.2263C10.9056 21.0007 10.569 20.6836 10.1916 20.3171C9.44204 19.5892 8.51257 18.648 7.84537 17.8386C6.88357 16.6717 6.31864 15.9653 5.5385 14.6261C4.64236 13.0878 4 11.738 4 10.018V9.60167C4 5.36372 7.62242 2 12 2C16.3776 2 20 5.36372 20 9.60167V10.018C20 11.738 19.3576 13.0878 18.4615 14.6261C17.6846 15.9597 17.1467 16.6665 16.1861 17.8374C15.5162 18.6539 14.5773 19.5965 13.8201 20.3234C13.4387 20.6896 13.0981 21.006 12.8528 21.231C12.73 21.3436 12.631 21.4335 12.5624 21.4954L12.4831 21.5667L12.4621 21.5854L12.4551 21.5917C12.4551 21.5917 12.4544 21.5922 12 21.0759ZM12 21.0759L12.4551 21.5917L12.3314 21.7017C12.1407 21.8714 11.8528 21.8702 11.6635 21.699L11.5413 21.5884L12 21.0759ZM12 7.97558C10.8639 7.97558 9.94286 8.90167 9.94286 10.0441C9.94286 11.1864 10.8639 12.1125 12 12.1125C13.1361 12.1125 14.0571 11.1864 14.0571 10.0441C14.0571 8.90167 13.1361 7.97558 12 7.97558ZM8.57143 10.0441C8.57143 8.14008 10.1065 6.5966 12 6.5966C13.8935 6.5966 15.4286 8.14008 15.4286 10.0441C15.4286 11.948 13.8935 13.4915 12 13.4915C10.1065 13.4915 8.57143 11.948 8.57143 10.0441Z" fill="#F2F6F9"/>
</svg>
