<svg width="24" height="24" viewBox="0 0 24 24" fill="none" xmlns="http://www.w3.org/2000/svg">
<path fill-rule="evenodd" clip-rule="evenodd" d="M11.5413 21.8212C11.8004 22.0585 12.194 22.0596 12.4551 21.8245L12.4621 21.8182L12.4831 21.7992L12.5624 21.7271C12.631 21.6644 12.73 21.5735 12.8528 21.4596C13.0981 21.2319 13.4387 20.9117 13.8201 20.5412C14.5773 19.8057 15.5162 18.8518 16.1861 18.0256C17.1467 16.8408 17.6846 16.1256 18.4615 14.7762C19.3576 13.2196 20 11.8538 20 10.1133V9.69203C20 5.4037 16.3776 2 12 2C7.62242 2 4 5.4037 4 9.69203V10.1133C4 11.8538 4.64236 13.2196 5.5385 14.7762C6.31864 16.1313 6.88357 16.8461 7.84537 18.0269C8.51257 18.8459 9.44204 19.7983 10.1916 20.5349C10.569 20.9057 10.9056 21.2266 11.1481 21.4549C11.2693 21.569 11.3672 21.6602 11.4349 21.723L11.5132 21.7954L11.5338 21.8144L11.5413 21.8212ZM12 21.3026L12.4551 21.8245C12.4551 21.8245 12.4544 21.8251 12 21.3026ZM12 12.9304C13.5148 12.9304 14.7429 11.681 14.7429 10.1397C14.7429 8.59838 13.5148 7.34892 12 7.34892C10.4852 7.34892 9.25714 8.59838 9.25714 10.1397C9.25714 11.681 10.4852 12.9304 12 12.9304Z" fill="#F2F6F9"/>
</svg>
