<svg width="24" height="24" viewBox="0 0 24 24" fill="none" xmlns="http://www.w3.org/2000/svg">
<path fill-rule="evenodd" clip-rule="evenodd" d="M21.1386 4.321C21.0277 4.21328 20.9025 4.148 20.8148 4.10867C20.719 4.0657 20.6163 4.03126 20.5157 4.00271C20.3146 3.94561 20.0708 3.89776 19.8024 3.85634C19.2627 3.77305 18.5568 3.70581 17.7509 3.65276C16.1353 3.54641 14.0638 3.49371 11.9993 3.49371C9.93468 3.49371 7.86327 3.54641 6.24763 3.65276C5.44176 3.70581 4.73582 3.77305 4.19611 3.85634C3.92768 3.89776 3.68392 3.94561 3.48281 4.00271C3.38225 4.03126 3.27949 4.0657 3.1837 4.10867C3.09602 4.148 2.97082 4.21331 2.85988 4.32102C2.69823 4.478 2.60344 4.67793 2.54462 4.82733C2.47966 4.99236 2.42651 5.18136 2.38158 5.37948C2.29147 5.77688 2.2204 6.27467 2.165 6.82609C2.0538 7.93282 1.99926 9.32273 1.99927 10.703C1.99927 12.0833 2.05382 13.4732 2.16502 14.5799C2.22042 15.1314 2.29149 15.6291 2.3816 16.0265C2.42652 16.2247 2.47967 16.4137 2.54463 16.5787C2.60344 16.7281 2.69823 16.928 2.85987 17.085C2.97081 17.1927 3.09599 17.258 3.18367 17.2973C3.27947 17.3403 3.38223 17.3748 3.48279 17.4033C3.68389 17.4604 3.92766 17.5083 4.19608 17.5497C4.73579 17.633 5.44173 17.7002 6.24761 17.7533C6.89605 17.796 8.62723 17.8651 9.52194 17.8902C9.9139 17.9011 10.2362 17.5861 10.2362 17.194C10.2362 16.8155 9.9348 16.506 9.55644 16.4954C8.68396 16.471 6.97068 16.4025 6.33926 16.3609C5.54968 16.309 4.89001 16.2449 4.40891 16.1707C4.16693 16.1333 3.98648 16.0958 3.86394 16.061L3.8375 16.0533C3.80907 15.978 3.77638 15.8678 3.7424 15.718C3.67027 15.3999 3.60613 14.9655 3.55337 14.4404C3.44825 13.3941 3.39462 12.0534 3.39462 10.703C3.39461 9.35263 3.44823 8.01189 3.55335 6.96558C3.59387 6.56236 3.64109 6.21267 3.69349 5.92802C3.85213 6.04123 4.03168 6.16921 4.22811 6.30898C5.00397 6.86104 6.04382 7.59749 7.09867 8.33425C8.15253 9.07032 9.22539 9.8095 10.0659 10.3658C10.4851 10.6433 10.8534 10.8798 11.1353 11.0488C11.2751 11.1325 11.4037 11.2057 11.5116 11.2601C11.5648 11.2869 11.6244 11.3149 11.6846 11.3379L11.6864 11.3386C11.7243 11.3531 11.8488 11.4007 11.9993 11.4007C12.1497 11.4007 12.2742 11.3531 12.3121 11.3386L12.314 11.3379C12.3741 11.3149 12.4337 11.2869 12.4869 11.2601C12.5948 11.2057 12.7235 11.1325 12.8632 11.0488C13.1452 10.8798 13.5134 10.6433 13.9326 10.3658C14.7731 9.8095 15.846 9.07032 16.8998 8.33425C17.9547 7.5975 18.9945 6.86105 19.7704 6.30898C19.9668 6.16921 20.1464 6.04123 20.305 5.92802C20.3574 6.21266 20.4047 6.56235 20.4452 6.96556C20.5332 7.84141 20.5011 8.6892 20.5157 9.93782C20.5202 10.3231 20.8323 10.6353 21.2176 10.6353C21.603 10.6353 21.9156 10.323 21.9111 9.93775C21.8965 8.65567 21.927 7.75637 21.8335 6.82606C21.7781 6.27464 21.7071 5.77685 21.6169 5.37946C21.572 5.18134 21.5189 4.99234 21.4539 4.82731C21.3951 4.67791 21.3003 4.47797 21.1386 4.321ZM17.6592 5.0451C18.1557 5.07779 18.6009 5.11525 18.9826 5.15701L18.9614 5.17207C18.1874 5.72278 17.1512 6.4567 16.1008 7.19031C15.0495 7.92461 13.9881 8.65579 13.1625 9.20226C12.7486 9.47618 12.4009 9.69911 12.146 9.85182C12.091 9.8848 12.0421 9.9134 11.9992 9.93782C11.9564 9.9134 11.9075 9.8848 11.8524 9.85182C11.5976 9.69911 11.2498 9.47618 10.836 9.20225C10.0104 8.65579 8.94895 7.92461 7.89762 7.19031C6.84727 6.4567 5.811 5.72278 5.03704 5.17207L5.01587 5.15701C5.39755 5.11524 5.84271 5.07779 6.33925 5.0451C7.91453 4.9414 9.95345 4.88907 11.9992 4.88907C14.045 4.88907 16.0839 4.9414 17.6592 5.0451Z" fill="#F2F6F9"/>
<path fill-rule="evenodd" clip-rule="evenodd" d="M17.0146 21.0962C19.7684 21.0962 22.0007 18.8638 22.0007 16.1101C22.0007 13.3563 19.7684 11.1239 17.0146 11.1239C14.2608 11.1239 12.0285 13.3563 12.0285 16.1101C12.0285 18.8638 14.2608 21.0962 17.0146 21.0962ZM20.113 14.8573C20.0959 14.6792 20.0155 14.5066 19.8734 14.3762C19.5681 14.0962 19.0937 14.1167 18.8137 14.4219L16.2821 17.1818L15.003 16.0414C14.6939 15.7657 14.2198 15.7929 13.9441 16.1021C13.6685 16.4112 13.6956 16.8853 14.0048 17.161L15.8358 18.7935C16.1419 19.0664 16.6104 19.0429 16.8876 18.7407L19.9191 15.4359C20.0687 15.2728 20.1325 15.0615 20.113 14.8573Z" fill="#F2F6F9"/>
</svg>
