<svg width="24" height="24" viewBox="0 0 24 24" fill="none" xmlns="http://www.w3.org/2000/svg">
<path fill-rule="evenodd" clip-rule="evenodd" d="M20.8156 5.40567C20.9032 5.445 21.0284 5.51028 21.1393 5.618C21.301 5.77497 21.3958 5.97491 21.4546 6.12431C21.5196 6.28934 21.5727 6.47834 21.6177 6.67646C21.7078 7.07385 21.7789 7.57164 21.8343 8.12306C21.9455 9.22979 22 10.6197 22 12C22 13.3803 21.9455 14.7702 21.8343 15.877C21.7789 16.4284 21.7078 16.9262 21.6177 17.3235C21.5727 17.5217 21.5196 17.7107 21.4546 17.8757C21.3958 18.0251 21.301 18.225 21.1394 18.382C21.0284 18.4897 20.9032 18.555 20.8156 18.5943C20.7198 18.6373 20.617 18.6718 20.5164 18.7003C20.3153 18.7574 20.0716 18.8052 19.8032 18.8467C19.2634 18.93 18.5575 18.9972 17.7516 19.0503C16.136 19.1566 14.0646 19.2093 12 19.2093C9.93539 19.2093 7.86397 19.1566 6.24834 19.0503C5.44246 18.9972 4.73653 18.93 4.19681 18.8467C3.92839 18.8053 3.68463 18.7574 3.48352 18.7003C3.38296 18.6718 3.2802 18.6373 3.1844 18.5943C3.09672 18.555 2.97154 18.4897 2.8606 18.382C2.69896 18.225 2.60417 18.0251 2.54536 17.8757C2.4804 17.7106 2.42725 17.5217 2.38233 17.3235C2.29222 16.9261 2.22115 16.4284 2.16575 15.8769C2.05455 14.7702 2 13.3803 2 12C2 10.6197 2.05453 9.22981 2.16573 8.12309C2.22113 7.57167 2.2922 7.07387 2.38231 6.67648C2.42724 6.47836 2.48039 6.28936 2.54536 6.12433C2.60417 5.97493 2.69896 5.77499 2.86062 5.61802C2.97155 5.5103 3.09675 5.445 3.18443 5.40567C3.28023 5.3627 3.38298 5.32826 3.48354 5.2997C3.68465 5.2426 3.92841 5.19476 4.19684 5.15334C4.73655 5.07004 5.44249 5.00281 6.24837 4.94976C7.864 4.8434 9.93542 4.79071 12 4.79071C14.0646 4.79071 16.136 4.8434 17.7516 4.94976C18.5575 5.00281 19.2634 5.07004 19.8031 5.15334C20.0716 5.19476 20.3153 5.2426 20.5164 5.2997C20.617 5.32826 20.7198 5.3627 20.8156 5.40567ZM3.69422 7.22502C3.64182 7.50966 3.5946 7.85936 3.55409 8.26258C3.44896 9.30889 3.39534 10.6496 3.39535 12C3.39535 13.3504 3.44898 14.6911 3.55411 15.7374C3.60687 16.2625 3.671 16.6969 3.74313 17.015C3.77711 17.1648 3.8098 17.275 3.83823 17.3503C3.84641 17.3528 3.85521 17.3553 3.86467 17.358C3.98721 17.3928 4.16766 17.4303 4.40964 17.4677C4.89074 17.5419 5.55041 17.606 6.33999 17.6579C7.91528 17.7616 9.9542 17.814 12 17.814C14.0457 17.814 16.0847 17.7616 17.66 17.6579C18.4495 17.6059 19.1092 17.5419 19.5903 17.4677C19.8323 17.4303 20.0128 17.3928 20.1353 17.358C20.1448 17.3553 20.1536 17.3527 20.1618 17.3503C20.1902 17.275 20.2229 17.1648 20.2569 17.015C20.329 16.6969 20.3931 16.2626 20.4459 15.7375C20.551 14.6911 20.6047 13.3504 20.6047 12C20.6047 10.6496 20.551 9.30886 20.4459 8.26256C20.4054 7.85934 20.3582 7.50966 20.3058 7.22502C20.1471 7.33823 19.9676 7.46621 19.7711 7.60598C18.9953 8.15804 17.9554 8.89449 16.9006 9.63125C15.8467 10.3673 14.7739 11.1065 13.9334 11.6628C13.5142 11.9403 13.1459 12.1768 12.8639 12.3458C12.7242 12.4295 12.5956 12.5027 12.4877 12.5571C12.4345 12.5839 12.3748 12.6119 12.3147 12.6349L12.3129 12.6356C12.275 12.6501 12.1505 12.6977 12 12.6977C11.8495 12.6977 11.725 12.6501 11.6871 12.6356L11.6853 12.6349C11.6252 12.6119 11.5655 12.5838 11.5123 12.557C11.4044 12.5027 11.2758 12.4295 11.136 12.3458C10.8541 12.1768 10.4858 11.9403 10.0666 11.6628C9.22612 11.1065 8.15327 10.3673 7.0994 9.63125C6.04455 8.89449 5.00471 8.15804 4.22884 7.60598C4.03241 7.46621 3.85286 7.33823 3.69422 7.22502ZM18.9833 6.454C18.6017 6.41224 18.1565 6.37478 17.66 6.34209C16.0847 6.23839 14.0458 6.18606 12 6.18606C9.95423 6.18606 7.91531 6.23839 6.34002 6.34209C5.84349 6.37478 5.39833 6.41224 5.01664 6.454C5.02368 6.45901 5.03073 6.46403 5.03781 6.46906C5.81177 7.01977 6.84805 7.75369 7.89839 8.4873C8.94972 9.2216 10.0111 9.95278 10.8368 10.4992C11.2506 10.7732 11.5983 10.9961 11.8532 11.1488C11.9082 11.1818 11.9571 11.2104 12 11.2348C12.0428 11.2104 12.0917 11.1818 12.1468 11.1488C12.4016 10.9961 12.7494 10.7732 13.1632 10.4992C13.9888 9.95278 15.0503 9.2216 16.1016 8.4873C17.1519 7.75369 18.1882 7.01978 18.9622 6.46907C18.9693 6.46403 18.9763 6.45901 18.9833 6.454Z" fill="#F2F6F9"/>
</svg>
