<svg width="24" height="24" viewBox="0 0 24 24" fill="none" xmlns="http://www.w3.org/2000/svg">
<path fill-rule="evenodd" clip-rule="evenodd" d="M21.1414 4.25978C21.0305 4.15207 20.9053 4.08678 20.8176 4.04745C20.7218 4.00448 20.6191 3.97004 20.5185 3.94149C20.3174 3.88439 20.0736 3.83655 19.8052 3.79512C19.2655 3.71183 18.5596 3.64459 17.7537 3.59154C16.1381 3.48519 14.0666 3.4325 12.0021 3.4325C9.93749 3.4325 7.86607 3.48519 6.25044 3.59154C5.44456 3.64459 4.73863 3.71183 4.19891 3.79512C3.93049 3.83655 3.68672 3.88439 3.48562 3.94149C3.38506 3.97004 3.2823 4.00448 3.1865 4.04745C3.09883 4.08678 2.97363 4.15209 2.86269 4.2598C2.70104 4.41678 2.60625 4.61671 2.54743 4.76611C2.48246 4.93114 2.42931 5.12014 2.38439 5.31827C2.29427 5.71566 2.22321 6.21345 2.1678 6.76487C2.05661 7.8716 2.00207 9.26152 2.00208 10.6418C2.00208 12.0221 2.05663 13.412 2.16782 14.5187C2.22323 15.0701 2.2943 15.5679 2.3844 15.9653C2.42933 16.1634 2.48248 16.3524 2.54744 16.5175C2.60625 16.6669 2.70103 16.8668 2.86268 17.0238C2.97362 17.1315 3.0988 17.1968 3.18648 17.2361C3.28228 17.2791 3.38503 17.3135 3.48559 17.3421C3.6867 17.3992 3.93046 17.447 4.19889 17.4885C4.7386 17.5718 5.44454 17.639 6.25041 17.6921C6.89886 17.7347 8.39314 17.7805 9.28786 17.8056C9.67981 17.8166 10.0021 17.5016 10.0021 17.1094C10.0021 16.7309 9.70071 16.4214 9.32236 16.4108C8.44987 16.3864 6.97349 16.3413 6.34207 16.2997C5.55249 16.2477 4.89282 16.1837 4.41172 16.1094C4.16973 16.0721 3.98929 16.0346 3.86674 15.9998L3.84031 15.9921C3.81188 15.9168 3.77919 15.8066 3.74521 15.6567C3.67308 15.3386 3.60894 14.9043 3.55618 14.3792C3.45105 13.3329 3.39743 11.9922 3.39742 10.6418C3.39742 9.29142 3.45104 7.95067 3.55616 6.90436C3.59668 6.50114 3.6439 6.15145 3.6963 5.8668C3.85494 5.98001 4.03449 6.10799 4.23092 6.24776C5.00678 6.79983 6.04663 7.53627 7.10148 8.27303C8.15534 9.0091 9.2282 9.74828 10.0687 10.3046C10.4879 10.582 10.8562 10.8186 11.1381 10.9875C11.2779 11.0713 11.4065 11.1445 11.5144 11.1988C11.5676 11.2256 11.6272 11.2537 11.6874 11.2767L11.6892 11.2774C11.7271 11.2919 11.8516 11.3395 12.0021 11.3395C12.1525 11.3395 12.277 11.2919 12.3149 11.2774L12.3168 11.2767C12.3769 11.2537 12.4365 11.2256 12.4897 11.1988C12.5976 11.1445 12.7263 11.0713 12.866 10.9875C13.148 10.8186 13.5163 10.5821 13.9354 10.3046C14.7759 9.74829 15.8488 9.0091 16.9027 8.27303C17.9575 7.53628 18.9974 6.79983 19.7732 6.24776C19.9696 6.10799 20.1492 5.98001 20.3078 5.8668C20.3602 6.15144 20.4075 6.50113 20.448 6.90434C20.536 7.7802 20.5879 9.25271 20.6025 10.5013C20.607 10.8866 20.9191 11.1988 21.3044 11.1988C21.6897 11.1988 22.0023 10.8866 21.9979 10.5013C21.9832 9.21918 21.9298 7.69516 21.8363 6.76484C21.7809 6.21342 21.7099 5.71563 21.6197 5.31824C21.5748 5.12012 21.5217 4.93112 21.4567 4.76609C21.3979 4.6167 21.3031 4.41676 21.1414 4.25978ZM17.662 4.98388C18.1585 5.01657 18.6037 5.05403 18.9854 5.09579L18.9642 5.11086C18.1902 5.66157 17.154 6.39548 16.1036 7.12909C15.0523 7.86339 13.9909 8.59457 13.1653 9.14104C12.7514 9.41497 12.4037 9.6379 12.1488 9.79061C12.0938 9.82358 12.0449 9.85218 12.002 9.8766C11.9592 9.85218 11.9103 9.82358 11.8552 9.7906C11.6004 9.63789 11.2526 9.41496 10.8388 9.14104C10.0132 8.59457 8.95176 7.86339 7.90042 7.12909C6.85008 6.39548 5.8138 5.66156 5.03984 5.11085L5.01868 5.09579C5.40036 5.05403 5.84552 5.01657 6.34206 4.98388C7.91734 4.88018 9.95626 4.82785 12.002 4.82785C14.0478 4.82785 16.0867 4.88018 17.662 4.98388Z" fill="#F2F6F9"/>
<path d="M18.1482 12.2651C18.1482 11.8798 17.8359 11.5675 17.4506 11.5675C17.0652 11.5675 16.7529 11.8798 16.7529 12.2651V15.3929H13.6253C13.24 15.3929 12.9276 15.7052 12.9276 16.0905C12.9276 16.4759 13.24 16.7882 13.6253 16.7882H16.7529V19.8698C16.7529 20.2551 17.0652 20.5675 17.4506 20.5675C17.8359 20.5675 18.1482 20.2551 18.1482 19.8698V16.7882H21.2299C21.6153 16.7882 21.9276 16.4759 21.9276 16.0905C21.9276 15.7052 21.6153 15.3929 21.2299 15.3929H18.1482V12.2651Z" fill="#F2F6F9"/>
</svg>
