<svg width="24" height="24" viewBox="0 0 24 24" fill="none" xmlns="http://www.w3.org/2000/svg">
<path fill-rule="evenodd" clip-rule="evenodd" d="M13.4286 4.85714C13.4286 3.51027 13.4286 2.83684 13.847 2.41842C14.2654 2 14.9388 2 16.2857 2H19.1429C20.4897 2 21.1632 2 21.5816 2.41842C22 2.83684 22 3.51027 22 4.85714V7.71429C22 9.06116 22 9.73459 21.5816 10.153C21.1632 10.5714 20.4897 10.5714 19.1429 10.5714H16.2857C14.9388 10.5714 14.2654 10.5714 13.847 10.153C13.4286 9.73459 13.4286 9.06116 13.4286 7.71429V4.85714ZM16.2857 3.5H19.1429C19.8202 3.5 20.2022 3.50285 20.4666 3.53344C20.4971 3.79778 20.5 4.17979 20.5 4.85714V7.71429C20.5 8.39164 20.4971 8.77365 20.4666 9.03799C20.2022 9.06858 19.8202 9.07143 19.1429 9.07143H16.2857C15.6084 9.07143 15.2264 9.06858 14.962 9.03799C14.9314 8.77365 14.9286 8.39164 14.9286 7.71429V4.85714C14.9286 4.17979 14.9314 3.79778 14.962 3.53344C15.2264 3.50285 15.6084 3.5 16.2857 3.5Z" fill="#F2F6F9"/>
<path fill-rule="evenodd" clip-rule="evenodd" d="M2 16.2857C2 14.9388 2 14.2654 2.41842 13.847C2.83684 13.4286 3.51027 13.4286 4.85714 13.4286H7.71429C9.06116 13.4286 9.73459 13.4286 10.153 13.847C10.5714 14.2654 10.5714 14.9388 10.5714 16.2857V19.1429C10.5714 20.4897 10.5714 21.1632 10.153 21.5816C9.73459 22 9.06116 22 7.71429 22H4.85714C3.51027 22 2.83684 22 2.41842 21.5816C2 21.1632 2 20.4897 2 19.1429V16.2857ZM9.07143 16.2857V19.1429C9.07143 19.8202 9.06858 20.2022 9.03799 20.4666C8.77365 20.4971 8.39164 20.5 7.71429 20.5H4.85714C4.17979 20.5 3.79778 20.4971 3.53344 20.4666C3.50285 20.2022 3.5 19.8202 3.5 19.1429V16.2857C3.5 15.6084 3.50285 15.2264 3.53344 14.962C3.79778 14.9314 4.17979 14.9286 4.85714 14.9286H7.71429C8.39164 14.9286 8.77365 14.9314 9.03799 14.962C9.06858 15.2264 9.07143 15.6084 9.07143 16.2857Z" fill="#F2F6F9"/>
<path fill-rule="evenodd" clip-rule="evenodd" d="M17.7143 22C20.0812 22 22 20.0812 22 17.7143C22 15.3474 20.0812 13.4286 17.7143 13.4286C15.3474 13.4286 13.4286 15.3474 13.4286 17.7143C13.4286 20.0812 15.3474 22 17.7143 22ZM20.5 17.7143C20.5 19.2528 19.2528 20.5 17.7143 20.5C16.1758 20.5 14.9286 19.2528 14.9286 17.7143C14.9286 16.1758 16.1758 14.9286 17.7143 14.9286C19.2528 14.9286 20.5 16.1758 20.5 17.7143Z" fill="#F2F6F9"/>
<path fill-rule="evenodd" clip-rule="evenodd" d="M3.98499 4.76941C4.8729 2.93541 5.31685 2.01841 6.03726 2.00027C6.75767 1.98213 7.24436 2.87571 8.21774 4.66285L9.38781 6.81113C10.2822 8.45327 10.7294 9.27434 10.3824 9.88717C10.0353 10.5 9.12315 10.5 7.29882 10.5H5.08868C3.35055 10.5 2.48148 10.5 2.13022 9.91302C1.77895 9.32603 2.16761 8.52325 2.94492 6.91768L3.98499 4.76941ZM6.90045 5.38032L8.07052 7.52859C8.43076 8.19 8.67295 8.63936 8.82657 8.97541C8.47917 8.99775 7.99964 9 7.29882 9H5.08868C4.42359 9 3.97108 8.99778 3.64377 8.97704C3.77386 8.65286 3.98244 8.21696 4.29502 7.57132L5.33508 5.42304C5.65898 4.75403 5.89243 4.27611 6.08399 3.92977C6.29116 4.26555 6.54633 4.73015 6.90045 5.38032ZM9.00138 9.4471L9.00087 9.44336C9.00129 9.44591 9.00142 9.44713 9.00138 9.4471Z" fill="#F2F6F9"/>
</svg>
