<svg width="24" height="24" viewBox="0 0 24 24" fill="none" xmlns="http://www.w3.org/2000/svg">
<path d="M13.847 2.41842C13.4286 2.83684 13.4286 3.51027 13.4286 4.85714V7.71429C13.4286 9.06116 13.4286 9.73459 13.847 10.153C14.2654 10.5714 14.9388 10.5714 16.2857 10.5714H19.1429C20.4897 10.5714 21.1632 10.5714 21.5816 10.153C22 9.73459 22 9.06116 22 7.71429V4.85714C22 3.51027 22 2.83684 21.5816 2.41842C21.1632 2 20.4897 2 19.1429 2H16.2857C14.9388 2 14.2654 2 13.847 2.41842Z" fill="#F2F6F9"/>
<path d="M2.41842 13.847C2 14.2654 2 14.9388 2 16.2857V19.1429C2 20.4897 2 21.1632 2.41842 21.5816C2.83684 22 3.51027 22 4.85714 22H7.71429C9.06116 22 9.73459 22 10.153 21.5816C10.5714 21.1632 10.5714 20.4897 10.5714 19.1429V16.2857C10.5714 14.9388 10.5714 14.2654 10.153 13.847C9.73459 13.4286 9.06116 13.4286 7.71429 13.4286H4.85714C3.51027 13.4286 2.83684 13.4286 2.41842 13.847Z" fill="#F2F6F9"/>
<path d="M17.7143 22C20.0812 22 22 20.0812 22 17.7143C22 15.3474 20.0812 13.4286 17.7143 13.4286C15.3474 13.4286 13.4286 15.3474 13.4286 17.7143C13.4286 20.0812 15.3474 22 17.7143 22Z" fill="#F2F6F9"/>
<path d="M3.98499 4.76941C4.8729 2.93541 5.55923 2.00027 6.03726 2.00027C6.51529 2.00027 7.24436 2.87571 8.21774 4.66285L9.38781 6.81113C10.2822 8.45327 10.6117 9.65781 10.3824 9.88717C10.153 10.1165 9.12315 10.5 7.29882 10.5H5.08868C3.35055 10.5 2.41842 10.2012 2.13022 9.91302C1.84201 9.62481 2.16761 8.52325 2.94492 6.91768L3.98499 4.76941Z" fill="#F2F6F9"/>
</svg>
