<svg width="24" height="24" viewBox="0 0 24 24" fill="none" xmlns="http://www.w3.org/2000/svg">
<path fill-rule="evenodd" clip-rule="evenodd" d="M3.15769 7.38863C3.13204 7.47728 3.10211 7.61332 3.07108 7.80333C3.00315 8.21933 2.94377 8.80607 2.89533 9.51892C2.79882 10.9394 2.75 12.7947 2.75 14.641C2.75 16.4877 2.79885 18.3082 2.89516 19.6596C2.9345 20.2116 2.98079 20.6706 3.03208 21.0155C3.13046 20.9616 3.23863 20.9 3.35618 20.831C3.77587 20.5848 4.27048 20.2717 4.80128 19.9356C4.92943 19.8545 5.05969 19.7721 5.19151 19.6889C5.859 19.2677 6.56213 18.8311 7.18353 18.494C7.49435 18.3253 7.79772 18.1744 8.07524 18.0611C8.12218 18.0419 8.17022 18.023 8.2191 18.0049V3.13424C8.1398 3.18559 8.05651 3.24161 7.96941 3.30218C7.40473 3.69491 6.74409 4.23396 6.08137 4.80515C5.49169 5.31339 4.91401 5.83512 4.41444 6.2863C4.35453 6.3404 4.29575 6.39349 4.2382 6.44543C3.81467 6.82762 3.42139 7.18164 3.15769 7.38863ZM9.7191 3.29261C10.1187 3.62113 10.573 4.03833 11.0625 4.48778C11.1559 4.57358 11.2506 4.66056 11.3465 4.74832C11.9436 5.2949 12.5816 5.86851 13.1697 6.30601C13.4642 6.5251 13.7649 6.72439 14.0573 6.87155C14.1284 6.9073 14.2031 6.94216 14.2809 6.97429V20.8896C14.2442 20.8683 14.2065 20.846 14.1679 20.8229C13.6567 20.5169 13.0532 20.1044 12.4235 19.6737L12.41 19.6645C11.796 19.2444 11.1568 18.8072 10.6024 18.4754C10.323 18.3081 10.0478 18.1571 9.79553 18.0458C9.77079 18.0349 9.74529 18.024 9.7191 18.013V3.29261ZM8.9768 19.3397C8.91887 19.351 8.81088 19.3809 8.64232 19.4498C8.43533 19.5343 8.1851 19.6571 7.89885 19.8124C7.32613 20.1232 6.66127 20.5351 5.99195 20.9575C5.86619 21.0368 5.74005 21.1167 5.61446 21.1962C5.08195 21.5333 4.5591 21.8644 4.11529 22.1248C3.84086 22.2858 3.57947 22.4301 3.35232 22.5362C3.23874 22.5892 3.12157 22.6384 3.0074 22.6756C2.90319 22.7096 2.75308 22.75 2.58824 22.75C2.24672 22.75 2.03208 22.5479 1.94053 22.4379C1.84542 22.3236 1.78846 22.2005 1.75427 22.1153C1.68314 21.9379 1.63268 21.7224 1.59325 21.508C1.5121 21.0667 1.44854 20.462 1.39896 19.7663C1.29919 18.3664 1.25 16.5074 1.25 14.641C1.25 12.7741 1.29922 10.8826 1.39878 9.41724C1.44839 8.68717 1.51155 8.04622 1.59069 7.5616C1.62985 7.32177 1.67648 7.09747 1.73491 6.91165C1.76397 6.81924 1.80214 6.71615 1.85421 6.61781C1.89913 6.53299 1.99223 6.37752 2.16366 6.2598C2.30709 6.1613 2.67405 5.83647 3.23327 5.33182C3.29042 5.28025 3.34904 5.2273 3.40901 5.17314C3.90737 4.72304 4.49831 4.18932 5.10208 3.66893C5.77618 3.08794 6.48353 2.50847 7.11297 2.07072C7.42705 1.85229 7.73779 1.6578 8.02652 1.51512C8.29438 1.38276 8.63027 1.25 8.9691 1.25C9.31809 1.25 9.63971 1.41285 9.8603 1.54409C10.1086 1.69181 10.3729 1.88995 10.6363 2.10497C11.0806 2.46762 11.585 2.93091 12.0854 3.39055C12.177 3.47468 12.2684 3.55868 12.3594 3.64193C12.9612 4.1929 13.5466 4.71685 14.065 5.10253C14.3237 5.29502 14.547 5.43872 14.7316 5.53165C14.8229 5.57757 14.8955 5.60635 14.9505 5.62299C15.0052 5.63951 15.0301 5.64022 15.0309 5.64024L15.0309 5.64024C15.0265 5.64024 15.0271 5.64012 15.0329 5.63873C15.0534 5.63388 15.1386 5.61363 15.3082 5.52958C15.505 5.43206 15.7487 5.28285 16.0331 5.08677C16.6014 4.69507 17.2634 4.16467 17.9324 3.61546C18.091 3.48518 18.2505 3.35349 18.4088 3.22276C18.906 2.81226 19.3918 2.41107 19.8068 2.09164C20.0806 1.88088 20.3432 1.69037 20.5726 1.5495C20.6871 1.47922 20.8084 1.41188 20.9294 1.36C21.0361 1.31423 21.2106 1.25 21.4118 1.25C21.7622 1.25 21.9781 1.46259 22.0661 1.57131C22.1593 1.68651 22.2149 1.81033 22.2484 1.89617C22.3182 2.07526 22.3681 2.29407 22.4074 2.51375C22.4882 2.9655 22.5516 3.58591 22.6011 4.30147C22.7008 5.74079 22.75 7.65357 22.75 9.57622C22.75 11.4994 22.7008 13.449 22.6013 14.9627C22.5518 15.7171 22.4887 16.3789 22.41 16.8802C22.3711 17.1287 22.325 17.3588 22.2682 17.5489C22.2398 17.6436 22.2034 17.7469 22.1547 17.8449C22.1126 17.9297 22.0278 18.0808 21.8721 18.2019C21.7536 18.294 21.5488 18.4637 21.2728 18.6924C21.1172 18.8213 20.939 18.969 20.7409 19.132C20.2035 19.5744 19.5426 20.1107 18.8636 20.6295C18.1874 21.1461 17.4793 21.6561 16.8492 22.0402C16.5346 22.2319 16.2249 22.4013 15.9384 22.525C15.6692 22.6412 15.3473 22.75 15.0309 22.75C14.7334 22.75 14.4354 22.6413 14.2045 22.5395C13.9522 22.4283 13.677 22.2772 13.3976 22.11C12.8432 21.7782 12.2041 21.341 11.59 20.9209L11.5765 20.9117C10.9468 20.4809 10.3433 20.0684 9.83205 19.7624C9.57661 19.6096 9.36146 19.4938 9.1903 19.4183C9.07236 19.3663 9.00467 19.3469 8.9768 19.3397ZM15.7809 20.9278C15.8716 20.8771 15.9676 20.8209 16.0684 20.7594C16.6324 20.4156 17.2923 19.9423 17.9529 19.4376C18.6107 18.935 19.2555 18.4119 19.7876 17.9739C19.9641 17.8287 20.1309 17.6904 20.2825 17.5649C20.5052 17.3803 20.6949 17.2232 20.8333 17.1115C20.8617 17.0145 20.8945 16.8622 20.9282 16.6477C20.9966 16.212 21.0561 15.6019 21.1046 14.8643C21.2012 13.394 21.25 11.4793 21.25 9.57622C21.25 7.67265 21.2011 5.79732 21.1047 4.40509C21.0683 3.87835 21.0258 3.43308 20.9787 3.08688C20.8991 3.14526 20.8133 3.20981 20.7217 3.28031C20.329 3.5826 19.8723 3.95967 19.3809 4.36547C19.2187 4.49933 19.0528 4.63632 18.8842 4.77478C18.2163 5.32313 17.5104 5.89029 16.8845 6.32177C16.5719 6.53727 16.2619 6.73105 15.9742 6.87362C15.9132 6.90384 15.8485 6.93422 15.7809 6.96309V20.9278ZM21.5363 2.73257C21.5362 2.7327 21.5337 2.73368 21.5289 2.73513C21.534 2.73316 21.5363 2.73243 21.5363 2.73257ZM20.8498 2.43845C20.8484 2.43551 20.8478 2.43389 20.8478 2.43382C20.8478 2.43376 20.8485 2.43523 20.8498 2.43845ZM2.51928 21.2562C2.5193 21.2562 2.52049 21.2559 2.52278 21.2554C2.52039 21.256 2.51925 21.2563 2.51928 21.2562ZM3.14706 21.5583C3.14841 21.5611 3.14904 21.5627 3.14902 21.5628C3.14901 21.5629 3.14833 21.5615 3.14706 21.5583Z" fill="#F2F6F9"/>
</svg>
