<svg width="24" height="24" viewBox="0 0 24 24" fill="none" xmlns="http://www.w3.org/2000/svg">
<path fill-rule="evenodd" clip-rule="evenodd" d="M15.0233 3.55894C14.9944 3.53781 14.914 3.49294 14.7391 3.45549C14.5875 3.42302 14.2662 3.41181 14.0027 3.40837C13.7509 3.40509 13.5161 3.2753 13.3864 3.05942C13.1153 2.60837 13.415 2.03371 13.9413 2.02774C14.3496 2.02311 14.7721 2.03556 15.0313 2.09107C15.3494 2.15918 15.6904 2.28327 15.9611 2.52482C16.2571 2.78891 16.4187 3.1495 16.4187 3.56277V7.14397C16.4187 7.3956 16.4187 7.52142 16.5061 7.58095C16.5935 7.64049 16.7064 7.59604 16.932 7.50714C18.2776 6.97711 19.1657 6.17373 19.7527 5.56247C19.8813 5.4285 19.9865 5.31363 20.0856 5.20535C20.1422 5.14351 20.1969 5.08374 20.2529 5.02375C20.3237 4.94795 20.3976 4.87103 20.4694 4.80419C20.535 4.74318 20.6321 4.6587 20.7495 4.59446C20.8544 4.53706 21.1181 4.4181 21.4301 4.53471C21.7427 4.65153 21.8652 4.91535 21.9087 5.03435C21.9922 5.26305 22.0001 5.55957 22.0001 5.80981V17.3881C22.0001 17.9966 21.6045 18.492 21.2099 18.8477C20.7895 19.2267 20.2204 19.5819 19.5821 19.9044C18.2998 20.5523 16.6161 21.1286 14.9466 21.5111C13.2856 21.8917 11.5717 22.096 10.2406 21.9553C9.58002 21.8854 8.94184 21.7237 8.45043 21.3945C7.92248 21.0409 7.58142 20.5003 7.58142 19.798V18.2323C7.58142 17.8234 7.58142 17.619 7.45806 17.5008C7.3347 17.3827 7.12307 17.3919 6.69981 17.4103C6.458 17.4208 6.21764 17.4264 5.98223 17.4283L5.93091 17.4287C5.24863 17.4342 4.65671 17.439 4.16962 17.3654C3.63364 17.2843 3.16349 17.1013 2.75654 16.6976C2.33952 16.2839 2.15858 15.7875 2.07624 15.2286C1.99994 14.7108 1.99997 14.0695 2 13.3153L2.00001 7.67821C1.99999 6.78565 1.99997 6.05258 2.06918 5.47786C2.14068 4.88413 2.29736 4.33911 2.70588 3.91026C2.90989 3.69608 3.19168 3.49823 3.49963 3.3401C3.96165 3.10285 4.40465 3.5369 4.31386 4.04828C4.26369 4.33082 4.06367 4.52766 3.85955 4.72853C3.81136 4.77596 3.76294 4.82361 3.71621 4.87267C3.61136 4.98274 3.51137 5.17268 3.45453 5.64468C3.39656 6.12603 3.39536 6.77442 3.39536 7.72338V13.2651C3.39536 14.0833 3.39712 14.6209 3.45669 15.0252C3.51189 15.3999 3.60605 15.5749 3.73924 15.707C3.88249 15.8491 4.05053 15.9361 4.37828 15.9857C4.74275 16.0408 5.22262 16.039 5.97104 16.033C6.72451 16.027 7.49148 15.9802 8.15915 15.8637C8.41116 15.8197 8.70444 15.7652 9.02332 15.706C10.1287 15.5006 11.5615 15.2345 12.8085 15.1202C13.6058 15.0472 14.4025 15.0275 15.0233 15.1533V3.56277L15.0233 3.55894ZM16.4938 9.21594C16.5691 9.11127 16.7162 9.06193 17.0106 8.96326C18.7296 8.38703 19.8717 7.42505 20.6045 6.68726V17.3883C20.602 17.4006 20.5727 17.5436 20.2755 17.8115C19.9837 18.0745 19.5354 18.3648 18.9527 18.6592C17.7931 19.245 16.221 19.7877 14.6347 20.1512C13.0399 20.5166 11.4979 20.6853 10.3872 20.5678C9.82681 20.5086 9.44755 20.3833 9.22675 20.2354C9.06055 20.1241 8.99063 20.0102 8.97852 19.8516C8.98919 19.8411 9.00491 19.827 9.02746 19.8095C9.14559 19.7174 9.35617 19.6077 9.68009 19.4899C10.3241 19.2557 11.2024 19.0627 12.1485 18.8563L12.183 18.8488C13.0875 18.6515 14.0545 18.4405 14.7964 18.1708C15.1701 18.0349 15.541 17.8656 15.8298 17.6405C16.1207 17.4139 16.4184 17.0555 16.4184 16.5511V9.7573C16.4184 9.46618 16.4184 9.3206 16.4938 9.21594Z" fill="#F2F6F9"/>
<path d="M10.2968 7.00595C10.2968 7.62246 9.80562 8.12224 9.19968 8.12224C8.59375 8.12224 8.10254 7.62246 8.10254 7.00595C8.10254 6.38943 8.59375 5.88965 9.19968 5.88965C9.80562 5.88965 10.2968 6.38943 10.2968 7.00595Z" fill="#F2F6F9"/>
<path fill-rule="evenodd" clip-rule="evenodd" d="M9.2 3C7.06791 3 5.25 4.66487 5.25 6.82681V6.99533C5.25 7.89739 5.59288 8.58757 5.96542 9.23467C6.30776 9.82932 6.56379 10.1521 6.95666 10.6344C7.25101 10.9958 7.64746 11.4006 7.95098 11.6989C8.10654 11.8518 8.24515 11.9839 8.34506 12.078C8.3951 12.1251 8.43564 12.1629 8.46401 12.1892L8.49612 12.2189L8.49753 12.2201L8.51004 12.2316C8.8993 12.588 9.4938 12.5884 9.88456 12.2366L9.89647 12.2258L9.89797 12.2244L9.93058 12.1948C9.9594 12.1684 10.0005 12.1307 10.0513 12.0836C10.1526 11.9896 10.2931 11.8575 10.4506 11.7045C10.7575 11.4064 11.1597 10.9993 11.457 10.6326C11.8557 10.1409 12.0971 9.82093 12.4346 9.23467C12.8071 8.58757 13.15 7.8974 13.15 6.99533V6.82681C13.15 4.66487 11.3321 3 9.2 3ZM6.75 6.82681C6.75 5.55809 7.83002 4.5 9.2 4.5C10.57 4.5 11.65 5.55809 11.65 6.82681V6.99533C11.65 7.48564 11.479 7.8881 11.1346 8.48628C10.8506 8.97956 10.6617 9.23177 10.2919 9.68791C10.0533 9.98214 9.70437 10.3382 9.40546 10.6285C9.33319 10.6987 9.26467 10.7643 9.2024 10.8233C9.14102 10.7644 9.07352 10.699 9.00232 10.629C8.70618 10.338 8.35905 9.98097 8.11965 9.68707C7.74307 9.22477 7.54716 8.97572 7.26539 8.48628C6.92101 7.8881 6.75 7.48563 6.75 6.99533V6.82681Z" fill="#F2F6F9"/>
</svg>
