<svg width="24" height="24" viewBox="0 0 24 24" fill="none" xmlns="http://www.w3.org/2000/svg">
<path d="M12 3.39535C10.2346 3.39535 8.84523 4.77155 8.84523 6.4186V7.34884C8.84523 7.73415 8.53287 8.04651 8.14755 8.04651C7.76224 8.04651 7.44988 7.73415 7.44988 7.34884V6.4186C7.44988 3.95563 9.51007 2 12 2C14.4899 2 16.5501 3.95563 16.5501 6.4186V7.34884C16.5501 7.73415 16.2378 8.04651 15.8524 8.04651C15.4671 8.04651 15.1548 7.73415 15.1548 7.34884V6.4186C15.1548 4.77155 13.7654 3.39535 12 3.39535Z" fill="#F2F6F9"/>
<path fill-rule="evenodd" clip-rule="evenodd" d="M6.68221 9.44186H17.3178C18.2916 9.44183 19.0936 9.44181 19.7209 9.52683C20.3759 9.61559 20.9628 9.81074 21.4082 10.2981C21.8575 10.7897 21.9892 11.3883 21.9994 12.0394C22.009 12.6563 21.9089 13.4291 21.7886 14.3586L21.2943 18.178C21.1989 18.9152 21.1187 19.5354 20.9884 20.0262C20.8497 20.5483 20.6343 21.0087 20.2135 21.3675C19.7955 21.7239 19.304 21.8697 18.7608 21.9366C18.2449 22 17.6017 22 16.8293 22H7.17072C6.39829 22 5.75507 22 5.23918 21.9366C4.69596 21.8697 4.20455 21.7239 3.78654 21.3675C3.36571 21.0087 3.15029 20.5483 3.01165 20.0262C2.88133 19.5354 2.80108 18.9151 2.70569 18.1779L2.2114 14.3585C2.09107 13.429 1.99103 12.6563 2.00064 12.0394C2.01078 11.3883 2.14247 10.7897 2.59184 10.2981C3.03724 9.81074 3.6241 9.61559 4.27907 9.52683C4.90643 9.44181 5.70835 9.44183 6.68221 9.44186ZM8.84526 12.9302C8.84526 12.5449 8.5329 12.2326 8.14758 12.2326C7.76227 12.2326 7.44991 12.5449 7.44991 12.9302V13.8605C7.44991 16.3234 9.51011 18.2791 12 18.2791C14.49 18.2791 16.5502 16.3234 16.5502 13.8605V12.9302C16.5502 12.5449 16.2378 12.2326 15.8525 12.2326C15.4672 12.2326 15.1548 12.5449 15.1548 12.9302V13.8605C15.1548 15.5075 13.7654 16.8837 12 16.8837C10.2347 16.8837 8.84526 15.5075 8.84526 13.8605V12.9302Z" fill="#F2F6F9"/>
</svg>
