<svg width="24" height="24" viewBox="0 0 24 24" fill="none" xmlns="http://www.w3.org/2000/svg">
<path fill-rule="evenodd" clip-rule="evenodd" d="M12 3.39535C10.2346 3.39535 8.84523 4.77155 8.84523 6.4186V7.34884C8.84523 7.73415 8.53287 8.04651 8.14755 8.04651C7.76224 8.04651 7.44988 7.73415 7.44988 7.34884V6.4186C7.44988 3.95563 9.51007 2 12 2C14.4899 2 16.5501 3.95563 16.5501 6.4186V7.34884C16.5501 7.73415 16.2378 8.04651 15.8524 8.04651C15.4671 8.04651 15.1548 7.73415 15.1548 7.34884V6.4186C15.1548 4.77155 13.7654 3.39535 12 3.39535ZM6.68221 9.44186H17.3178C18.2916 9.44183 19.0936 9.44181 19.7209 9.52683C20.3759 9.61559 20.9628 9.81074 21.4082 10.2981C21.8575 10.7897 21.9892 11.3883 21.9994 12.0394C22.009 12.6563 21.9089 13.4291 21.7886 14.3586L21.2943 18.178C21.1989 18.9152 21.1187 19.5354 20.9884 20.0262C20.8497 20.5483 20.6343 21.0087 20.2135 21.3675C19.7955 21.7239 19.304 21.8697 18.7608 21.9366C18.2449 22 17.6017 22 16.8293 22H7.17072C6.39829 22 5.75507 22 5.23918 21.9366C4.69596 21.8697 4.20455 21.7239 3.78654 21.3675C3.36571 21.0087 3.15029 20.5483 3.01165 20.0262C2.88133 19.5354 2.80108 18.9151 2.70569 18.1779L2.2114 14.3585C2.09107 13.429 1.99103 12.6563 2.00064 12.0394C2.01078 11.3883 2.14247 10.7897 2.59184 10.2981C3.03724 9.81074 3.6241 9.61559 4.27907 9.52683C4.90643 9.44181 5.70835 9.44183 6.68221 9.44186ZM4.46645 10.9095C3.96066 10.9781 3.75149 11.0975 3.6218 11.2394C3.49609 11.377 3.40331 11.5803 3.39582 12.0612C3.38798 12.5647 3.47314 13.2362 3.60207 14.2324L4.08362 17.9534C4.18648 18.7481 4.25628 19.2765 4.36026 19.6681C4.4586 20.0384 4.56649 20.1988 4.69187 20.3057C4.82006 20.415 5.00659 20.5021 5.40958 20.5517C5.83021 20.6034 6.38698 20.6047 7.21442 20.6047H16.7856C17.613 20.6047 18.1698 20.6034 18.5904 20.5517C18.9934 20.5021 19.1799 20.415 19.3081 20.3057C19.4335 20.1988 19.5414 20.0384 19.6397 19.6681C19.7437 19.2765 19.8135 18.7481 19.9164 17.9534L20.3979 14.2324C20.5269 13.2362 20.612 12.5647 20.6042 12.0612C20.5967 11.5803 20.5039 11.377 20.3782 11.2394C20.2485 11.0975 20.0393 10.9781 19.5336 10.9095C19.011 10.8387 18.3044 10.8372 17.2671 10.8372H6.73286C5.69562 10.8372 4.989 10.8387 4.46645 10.9095ZM8.14755 12.2326C8.53287 12.2326 8.84523 12.5449 8.84523 12.9302V13.8605C8.84523 15.5075 10.2346 16.8837 12 16.8837C13.7654 16.8837 15.1548 15.5075 15.1548 13.8605V12.9302C15.1548 12.5449 15.4671 12.2326 15.8524 12.2326C16.2378 12.2326 16.5501 12.5449 16.5501 12.9302V13.8605C16.5501 16.3234 14.4899 18.2791 12 18.2791C9.51007 18.2791 7.44988 16.3234 7.44988 13.8605V12.9302C7.44988 12.5449 7.76224 12.2326 8.14755 12.2326Z" fill="#F2F6F9"/>
</svg>
