<svg width="24" height="24" viewBox="0 0 24 24" fill="none" xmlns="http://www.w3.org/2000/svg">
<path d="M2 5.67742C2 5.30329 2.31236 5 2.69767 5H21.3023C21.6876 5 22 5.30329 22 5.67742C22 6.05155 21.6876 6.35484 21.3023 6.35484H2.69767C2.31236 6.35484 2 6.05155 2 5.67742Z" fill="#F2F6F9"/>
<path d="M2 12C2 11.6259 2.31236 11.3226 2.69767 11.3226H7.82258C8.19671 11.3226 8.5 11.6259 8.5 12C8.5 12.3741 8.19671 12.6774 7.82258 12.6774H2.69767C2.31236 12.6774 2 12.3741 2 12Z" fill="#F2F6F9"/>
<path d="M21.3023 11.3226C21.6876 11.3226 22 11.6259 22 12C22 12.3741 21.6876 12.6774 21.3023 12.6774H16.1774C15.8033 12.6774 15.5 12.3741 15.5 12C15.5 11.6259 15.8033 11.3226 16.1774 11.3226H21.3023Z" fill="#F2F6F9"/>
<path d="M17.0489 18.8077L12.0968 13.9504L7.1446 18.8077C6.87368 19.0735 6.44489 19.0627 6.18687 18.7837C5.92885 18.5046 5.93931 18.063 6.21023 17.7973L11.6296 12.4817C11.8912 12.2251 12.3023 12.2251 12.564 12.4817L17.9833 17.7973C18.2542 18.063 18.2647 18.5046 18.0067 18.7837C17.8696 18.9319 17.6842 19.0045 17.5 19C17.3375 18.9961 17.1759 18.9323 17.0489 18.8077Z" fill="#F2F6F9"/>
</svg>
