<svg width="24" height="24" viewBox="0 0 24 24" fill="none" xmlns="http://www.w3.org/2000/svg">
<path fill-rule="evenodd" clip-rule="evenodd" d="M2 5.67742C2 5.30329 2.31236 5 2.69767 5H15.9867C16.372 5 16.6844 5.30329 16.6844 5.67742C16.6844 6.05155 16.372 6.35484 15.9867 6.35484H2.69767C2.31236 6.35484 2 6.05155 2 5.67742ZM21.7835 6.0901C22.0625 6.34812 22.0733 6.77691 21.8075 7.04783L16.9502 12L21.8075 16.9522C22.0733 17.2231 22.0625 17.6519 21.7835 17.9099C21.5045 18.1679 21.0628 18.1575 20.7971 17.8865L15.4815 12.4672C15.2249 12.2056 15.2249 11.7944 15.4815 11.5328L20.7971 6.11346C21.0628 5.84254 21.5045 5.83208 21.7835 6.0901ZM2 12C2 11.6259 2.31236 11.3226 2.69767 11.3226H12C12.3853 11.3226 12.6977 11.6259 12.6977 12C12.6977 12.3741 12.3853 12.6774 12 12.6774H2.69767C2.31236 12.6774 2 12.3741 2 12ZM2 18.3226C2 17.9485 2.31236 17.6452 2.69767 17.6452H15.9867C16.372 17.6452 16.6844 17.9485 16.6844 18.3226C16.6844 18.6967 16.372 19 15.9867 19H2.69767C2.31236 19 2 18.6967 2 18.3226Z" fill="#F2F6F9"/>
</svg>
