<svg width="24" height="24" viewBox="0 0 24 24" fill="none" xmlns="http://www.w3.org/2000/svg">
<path fill-rule="evenodd" clip-rule="evenodd" d="M2 5.67742C2 5.30329 2.31236 5 2.69767 5H21.3023C21.6876 5 22 5.30329 22 5.67742C22 6.05155 21.6876 6.35484 21.3023 6.35484H2.69767C2.31236 6.35484 2 6.05155 2 5.67742ZM2 12C2 11.6259 2.31236 11.3226 2.69767 11.3226H21.3023C21.6876 11.3226 22 11.6259 22 12C22 12.3741 21.6876 12.6774 21.3023 12.6774H2.69767C2.31236 12.6774 2 12.3741 2 12ZM2 18.3226C2 17.9485 2.31236 17.6452 2.69767 17.6452H21.3023C21.6876 17.6452 22 17.9485 22 18.3226C22 18.6967 21.6876 19 21.3023 19H2.69767C2.31236 19 2 18.6967 2 18.3226Z" fill="#F2F6F9"/>
</svg>
