<svg width="24" height="24" viewBox="0 0 24 24" fill="none" xmlns="http://www.w3.org/2000/svg">
<path fill-rule="evenodd" clip-rule="evenodd" d="M12 3.39535C7.24778 3.39535 3.39535 7.24779 3.39535 12C3.39535 13.6943 3.88434 15.2723 4.72863 16.603C4.84101 16.7801 4.86773 16.9984 4.8014 17.1974L3.80079 20.1992L6.8026 19.1986C7.00159 19.1323 7.21987 19.159 7.39699 19.2714C8.7277 20.1157 10.3057 20.6047 12 20.6047C16.7522 20.6047 20.6047 16.7522 20.6047 12C20.6047 7.24779 16.7522 3.39535 12 3.39535ZM2 12C2 6.47716 6.47715 2 12 2C17.5228 2 22 6.47716 22 12C22 17.5228 17.5228 22 12 22C10.2361 22 8.57737 21.5428 7.13754 20.7401C7.00881 20.6684 6.85604 20.6516 6.71622 20.6982L3.53039 21.7602C2.73278 22.026 1.97396 21.2672 2.23983 20.4696L3.30178 17.2838C3.34838 17.144 3.33161 16.9912 3.25985 16.8625C2.45724 15.4226 2 13.7639 2 12Z" fill="#F2F6F9"/>
</svg>
