<svg width="24" height="24" viewBox="0 0 24 24" fill="none" xmlns="http://www.w3.org/2000/svg">
<path d="M7.39701 19.2714C8.72772 20.1157 10.3057 20.6047 12 20.6047C16.7522 20.6047 20.6047 16.7522 20.6047 12C20.6047 7.24779 16.7522 3.39535 12 3.39535C8.73041 3.39535 5.88673 5.21897 4.43061 7.90458C4.25307 8.23204 3.86426 8.39579 3.51652 8.26227C3.14376 8.11914 2.9639 7.69244 3.15026 7.33931C4.82589 4.16418 8.16022 2 12 2C17.5229 2 22 6.47716 22 12C22 17.5228 17.5229 22 12 22C10.2362 22 8.57739 21.5428 7.13756 20.7401C7.00883 20.6684 6.85606 20.6516 6.71624 20.6982L3.5304 21.7602C2.7328 22.026 1.97398 21.2672 2.23985 20.4696L3.3018 17.2838C3.3484 17.144 3.33163 16.9912 3.25987 16.8625C3.2226 16.7956 3.18607 16.7282 3.15029 16.6604C2.96393 16.3072 3.144 15.8805 3.51691 15.7376C3.8645 15.6044 4.25293 15.768 4.43037 16.0953C4.52413 16.2682 4.62364 16.4375 4.72865 16.603C4.84102 16.7801 4.86775 16.9984 4.80141 17.1974L3.80081 20.1992L6.80262 19.1986C7.00161 19.1323 7.21989 19.159 7.39701 19.2714Z" fill="#F2F6F9"/>
<path fill-rule="evenodd" clip-rule="evenodd" d="M9.68736 8.16214C9.96103 7.92879 10.3826 7.94981 10.6289 8.20908L13.8289 11.5775C14.057 11.8177 14.057 12.1823 13.8289 12.4225L10.6289 15.7909C10.3826 16.0502 9.96103 16.0712 9.68736 15.8379C9.41368 15.6045 9.3915 15.2052 9.6378 14.9459L11.8364 12.6316H2.66667C2.29848 12.6316 2 12.3488 2 12C2 11.6512 2.29848 11.3684 2.66667 11.3684H11.8364L9.6378 9.05409C9.3915 8.79482 9.41368 8.39548 9.68736 8.16214Z" fill="#F2F6F9"/>
</svg>
