<svg width="24" height="24" viewBox="0 0 24 24" fill="none" xmlns="http://www.w3.org/2000/svg">
<path fill-rule="evenodd" clip-rule="evenodd" d="M13.3289 7.98C11.8681 7.98 10.6379 9.16314 10.6379 10.68C10.6379 12.1969 11.8681 13.38 13.3289 13.38C14.7898 13.38 16.0199 12.1969 16.0199 10.68C16.0199 9.16314 14.7898 7.98 13.3289 7.98ZM12.0332 10.68C12.0332 10.0098 12.588 9.42 13.3289 9.42C14.0699 9.42 14.6246 10.0098 14.6246 10.68C14.6246 11.3502 14.0699 11.94 13.3289 11.94C12.588 11.94 12.0332 11.3502 12.0332 10.68Z" fill="#F2F6F9"/>
<path fill-rule="evenodd" clip-rule="evenodd" d="M5.35548 5C4.97017 5 4.65781 5.32235 4.65781 5.72V15.64C4.65781 16.0376 4.97017 16.36 5.35548 16.36H21.3023C21.6876 16.36 22 16.0376 22 15.64V5.72C22 5.32235 21.6876 5 21.3023 5H5.35548ZM6.05316 14.92V6.44H20.6047V14.92H6.05316Z" fill="#F2F6F9"/>
<path d="M18.6445 19C19.0298 19 19.3422 18.6776 19.3422 18.28V17.56H4.39535C3.84306 17.56 3.39535 17.1123 3.39535 16.56V7.64H2.69767C2.31236 7.64 2 7.96235 2 8.36V17C2 18.1046 2.89543 19 4 19H18.6445Z" fill="#F2F6F9"/>
</svg>
