<svg width="24" height="24" viewBox="0 0 24 24" fill="none" xmlns="http://www.w3.org/2000/svg">
<path d="M20.4675 12.7491C20.3907 13.6306 20.1797 14.4717 19.8557 15.2532C19.4253 16.291 18.7945 17.2264 18.0104 18.0104C17.2264 18.7944 16.291 19.4253 15.2534 19.8556C14.2532 20.2704 13.1553 20.5 12 20.5C10.8447 20.5 9.74688 20.2704 8.74677 19.8557C7.70903 19.4253 6.77364 18.7945 5.98959 18.0104C5.20554 17.2264 4.57468 16.291 4.14436 15.2532C3.72964 14.2531 3.5 13.1553 3.5 12C3.5 10.8447 3.72967 9.74682 4.14442 8.74666C4.57474 7.70898 5.20558 6.77363 5.98959 5.98962C6.77365 5.20556 7.70907 4.57469 8.74683 4.14437C9.52828 3.82033 10.3694 3.60929 11.2509 3.53249C11.6636 3.49655 12 3.16424 12 2.75003C12 2.33582 11.6638 1.99708 11.2507 2.02768C10.1674 2.10793 9.13212 2.36076 8.17228 2.75877C6.95001 3.2656 5.85004 4.00785 4.92893 4.92896C4.00788 5.85001 3.26567 6.9499 2.75884 8.17207C2.26987 9.35117 2 10.6441 2 12C2 13.3559 2.26984 14.6488 2.75876 15.8278C3.26559 17.05 4.00783 18.15 4.92893 19.0711C5.85002 19.9922 6.94997 20.7344 8.1722 21.2413C9.35125 21.7302 10.6441 22 12 22C13.3559 22 14.6489 21.7302 15.8279 21.2412C17.0501 20.7344 18.15 19.9922 19.0711 19.0711C19.9922 18.15 20.7344 17.05 21.2413 15.8277C21.6393 14.8679 21.8921 13.8326 21.9723 12.7494C22.0029 12.3363 21.6642 12 21.25 12C20.8358 12 20.5035 12.3364 20.4675 12.7491Z" fill="#F2F6F9"/>
<path d="M12.5485 12.4486V7.1976C12.5485 6.75706 12.1914 6.39993 11.7509 6.39993C11.3103 6.39993 10.9532 6.75706 10.9532 7.1976V12.779C10.9532 12.9905 11.0372 13.1934 11.1868 13.343L14.4426 16.5988C14.7541 16.9103 15.2592 16.9103 15.5707 16.5988C15.8822 16.2873 15.8822 15.7822 15.5707 15.4707L12.5485 12.4486Z" fill="#F2F6F9"/>
<path d="M20.2283 2.48001C20.3986 2.19806 20.7041 2.02576 21.0335 2.02576C21.5531 2.02576 21.9743 2.44696 21.9743 2.96654V8.56988C21.9743 8.96192 21.6565 9.27973 21.2644 9.27973C20.8724 9.27973 20.5546 8.96192 20.5546 8.56988V4.57501L19.3085 6.55469C18.9029 7.19911 17.964 7.20065 17.5563 6.55758L16.3058 4.58537V8.5647C16.3058 8.9596 15.9857 9.27973 15.5908 9.27973C15.1959 9.27973 14.8757 8.9596 14.8757 8.5647V2.96742C14.8757 2.44735 15.2973 2.02576 15.8174 2.02576C16.1464 2.02576 16.4515 2.19745 16.6223 2.47865L18.4302 5.45585L20.2283 2.48001Z" fill="#F2F6F9"/>
</svg>
