<svg width="24" height="24" viewBox="0 0 24 24" fill="none" xmlns="http://www.w3.org/2000/svg">
<path fill-rule="evenodd" clip-rule="evenodd" d="M4.72673 2C4.37881 1.99996 4.05584 1.99991 3.7901 2.03684C3.4945 2.07792 3.18516 2.17403 2.92003 2.43172C2.65622 2.68811 2.54 3.00221 2.47722 3.30825C2.42106 3.58202 2.39557 3.91746 2.36824 4.27714L2.36524 4.3166C2.19083 6.60817 1.9245 10.8711 2.02017 14.5709C2.06781 16.4136 2.20593 18.1607 2.50543 19.4641C2.65403 20.1107 2.8544 20.7041 3.13956 21.1513C3.43002 21.6068 3.87306 22 4.49045 22H19.5096C20.1988 22 20.6911 21.567 21.0122 21.0391C21.3247 20.5255 21.5296 19.8459 21.6705 19.1156C21.9544 17.644 22.022 15.7221 21.9943 13.8496C21.9663 11.9661 21.8407 10.0874 21.7226 8.68266C21.6634 7.97949 21.606 7.39326 21.5633 6.98229L21.513 6.54043C21.4598 6.07286 21.0831 5.72094 20.6358 5.72094H18.613C18.635 5.39241 18.6567 5.08402 18.6776 4.79958L18.6808 4.75624C18.7136 4.30975 18.7432 3.90689 18.7256 3.5804C18.7066 3.22678 18.6284 2.84159 18.3475 2.52203C18.0676 2.20377 17.7117 2.09122 17.3792 2.04365C17.0735 1.99992 16.6933 1.99996 16.2732 2L4.72673 2ZM4.49045 20.6047H17.8774C17.8235 20.4762 17.7745 20.3432 17.7296 20.2076C17.4266 19.2928 17.2474 18.0585 17.1439 16.7072C17.0117 14.9794 16.998 12.9819 17.0409 11.0534C17.0782 9.37915 17.1585 7.74708 17.2429 6.37353C17.281 5.75438 17.32 5.18733 17.3563 4.69209C17.3933 4.18822 17.4144 3.88074 17.4025 3.65937C17.3961 3.54023 17.3815 3.48841 17.3741 3.47008C17.3721 3.46901 17.3693 3.46753 17.3652 3.46572C17.3436 3.45607 17.2959 3.4399 17.2007 3.42629C16.9952 3.39688 16.7068 3.39536 16.2319 3.39536H4.76428C4.36583 3.39536 4.13202 3.39677 3.9635 3.42019C3.887 3.43082 3.84866 3.44326 3.83138 3.45046C3.82358 3.45371 3.82014 3.45595 3.82014 3.45595L3.8188 3.4571C3.8188 3.4571 3.81629 3.45894 3.81096 3.47027C3.80304 3.48712 3.78849 3.52521 3.77256 3.60284C3.73735 3.77451 3.71765 4.01514 3.68622 4.42806C3.51263 6.70883 3.25124 10.9109 3.34489 14.533C3.39191 16.3512 3.5277 17.9793 3.79348 19.1359C3.92752 19.7192 4.08263 20.127 4.2398 20.3735C4.38796 20.6059 4.47356 20.6048 4.48939 20.6047L4.49045 20.6047ZM17.3696 3.4617C17.3696 3.4617 17.371 3.46305 17.3731 3.46763C17.3705 3.4643 17.3696 3.4617 17.3696 3.4617Z" fill="#F2F6F9"/>
<path fill-rule="evenodd" clip-rule="evenodd" d="M4.71133 5.48837C4.71133 5.10306 5.00799 4.7907 5.37394 4.7907H15.5339C15.8999 4.7907 16.1966 5.10306 16.1966 5.48837C16.1966 5.87369 15.8999 6.18605 15.5339 6.18605H5.37394C5.00799 6.18605 4.71133 5.87369 4.71133 5.48837ZM4.5 8.27907C4.5 7.89375 4.79666 7.58139 5.16261 7.58139H15.5339C15.8999 7.58139 16.1966 7.89375 16.1966 8.27907C16.1966 8.66438 15.8999 8.97674 15.5339 8.97674H5.16261C4.79666 8.97674 4.5 8.66438 4.5 8.27907ZM14.6876 10.3723C15.0535 10.3813 15.3431 10.7009 15.3345 11.0861C15.3139 12.0095 15.3067 12.9432 15.3193 13.8503C15.3246 14.2355 15.0323 14.5524 14.6664 14.5581C14.3005 14.5637 13.9996 14.2559 13.9942 13.8707C13.9813 12.9424 13.9888 11.9906 14.0097 11.0534C14.0182 10.6682 14.3218 10.3632 14.6876 10.3723ZM4.5 11.0698C4.5 10.6844 4.79666 10.3721 5.16261 10.3721H10.2331C10.599 10.3721 10.8957 10.6844 10.8957 11.0698C10.8957 11.4551 10.599 11.7674 10.2331 11.7674H5.16261C4.79666 11.7674 4.5 11.4551 4.5 11.0698ZM4.55026 13.8605C4.55026 13.4751 4.84692 13.1628 5.21287 13.1628H10.2331C10.599 13.1628 10.8957 13.4751 10.8957 13.8605C10.8957 14.2458 10.599 14.5581 10.2331 14.5581H5.21287C4.84692 14.5581 4.55026 14.2458 4.55026 13.8605ZM14.7187 15.9375C15.0835 15.9067 15.4029 16.193 15.4322 16.5771L15.4336 16.5953C15.4629 16.9794 15.1909 17.3158 14.8262 17.3466C14.4614 17.3774 14.1419 17.0911 14.1126 16.707L14.1113 16.6888C14.082 16.3047 14.3539 15.9683 14.7187 15.9375ZM4.81268 16.6512C4.81268 16.2658 5.10934 15.9535 5.47529 15.9535H10.2331C10.599 15.9535 10.8957 16.2658 10.8957 16.6512C10.8957 17.0365 10.599 17.3488 10.2331 17.3488H5.47529C5.10934 17.3488 4.81268 17.0365 4.81268 16.6512Z" fill="#F2F6F9"/>
</svg>
