<svg width="24" height="24" viewBox="0 0 24 24" fill="none" xmlns="http://www.w3.org/2000/svg">
<path fill-rule="evenodd" clip-rule="evenodd" d="M2 12C2 6.47715 6.47715 2 12 2C14.4915 2 16.7701 2.91114 18.5209 4.41839C18.9003 4.74501 19.255 5.09956 19.5816 5.47896L8.64655 16.4141L5.47911 19.5815C5.0997 19.2549 4.74502 18.9004 4.4184 18.5209C2.91114 16.7701 2 14.4915 2 12ZM7.19581 15.7435L8.16857 14.7708C7.49899 14.4221 6.88705 13.981 6.35773 13.4582L5.73934 12.8475C5.24879 12.363 5.24879 11.637 5.73934 11.1525L6.35773 10.5418C7.79568 9.12158 9.84335 8.30435 12 8.30435C12.7942 8.30435 13.5736 8.41517 14.3132 8.62612L15.3534 7.58591C14.2974 7.20253 13.1602 7 12 7C9.48373 7 7.07527 7.95268 5.36988 9.63701L4.75148 10.2478C3.74951 11.2374 3.74951 12.7626 4.75148 13.7522L5.36988 14.363C5.91351 14.8999 6.52858 15.3625 7.19581 15.7435ZM13.2563 9.68306C12.8744 9.51115 12.4467 9.41546 12 9.41546C10.4704 9.41546 9.1621 10.5377 9.1621 12C9.1621 12.5032 9.317 12.9661 9.58252 13.3568L10.59 12.3493C10.5531 12.237 10.5335 12.1195 10.5335 12C10.5335 11.3278 11.1524 10.7198 12 10.7198C12.0707 10.7198 12.1398 10.724 12.2072 10.7322L13.2563 9.68306Z" fill="#F2F6F9"/>
<path d="M6.70021 20.4817C8.23674 21.4438 10.0534 22 12 22C17.5228 22 22 17.5228 22 12C22 10.0534 21.4438 8.23673 20.4817 6.70021L18.0598 9.12214C18.2574 9.28522 18.4478 9.45694 18.6301 9.63701L19.2485 10.2478C20.2505 11.2374 20.2505 12.7626 19.2485 13.7522L18.6301 14.363C16.9247 16.0473 14.5163 17 12 17C11.4337 17 10.8728 16.9517 10.3242 16.8577L6.70021 20.4817Z" fill="#F2F6F9"/>
<path d="M12 15.6957C11.8329 15.6957 11.6664 15.6907 11.5009 15.681L12.6707 14.5112C13.7682 14.2674 14.6418 13.4389 14.809 12.3729L17.1134 10.0685C17.2975 10.2178 17.4741 10.3756 17.6423 10.5418L18.2607 11.1525C18.7512 11.637 18.7512 12.363 18.2607 12.8475L17.6423 13.4582C16.2043 14.8784 14.1567 15.6957 12 15.6957Z" fill="#F2F6F9"/>
</svg>
