<svg width="24" height="24" viewBox="0 0 24 24" fill="none" xmlns="http://www.w3.org/2000/svg">
<path fill-rule="evenodd" clip-rule="evenodd" d="M17.2567 7.1817C17.552 7.43114 17.5615 7.84399 17.2781 8.10383L7.79126 16.7995C7.50778 17.0593 7.03861 17.0677 6.74332 16.8183C6.44804 16.5689 6.43846 16.156 6.72194 15.8962L7.03401 15.6101C6.45051 15.2497 5.91159 14.8241 5.43087 14.3394L4.67009 13.5724C3.77664 12.6715 3.77664 11.3285 4.67009 10.4276L5.43087 9.66057C7.10744 7.97014 9.49167 7 12 7C13.272 7 14.5129 7.2496 15.6458 7.71653L16.2087 7.20052C16.4922 6.94069 16.9614 6.93226 17.2567 7.1817ZM14.5487 8.72215C13.7403 8.4484 12.8784 8.30435 12 8.30435C9.93095 8.30435 7.95018 9.10413 6.54768 10.5182L5.7869 11.2853C5.38078 11.6948 5.38078 12.3052 5.7869 12.7147L6.54768 13.4818C7.00184 13.9397 7.51662 14.3331 8.07517 14.6558L9.54336 13.31C9.29318 12.9246 9.15066 12.4762 9.15066 12C9.15066 10.5979 10.3981 9.41546 12 9.41546C12.5182 9.41546 13.0024 9.5411 13.4185 9.75808L14.5487 8.72215ZM12.3287 10.757C12.223 10.7326 12.1129 10.7198 12 10.7198C11.2732 10.7198 10.633 11.2676 10.633 12C10.633 12.0969 10.6444 12.1909 10.6659 12.2811L12.3287 10.757ZM17.5234 9.59803C17.8318 9.3612 18.3 9.38919 18.5691 9.66057L19.3299 10.4276C20.2234 11.3285 20.2234 12.6715 19.3299 13.5724L18.5691 14.3394C16.8926 16.0299 14.5083 17 12 17C11.4953 17 10.9952 16.9607 10.5048 16.884C10.1017 16.821 9.83307 16.4825 9.90466 16.1278C9.97625 15.7732 10.361 15.5368 10.764 15.5998C11.1695 15.6632 11.5828 15.6957 12 15.6957C14.069 15.6957 16.0498 14.8959 17.4523 13.4818L18.2131 12.7147C18.6192 12.3052 18.6192 11.6948 18.2131 11.2853L17.4523 10.5182C17.1832 10.2468 17.215 9.83486 17.5234 9.59803Z" fill="#F2F6F9"/>
</svg>
