<svg width="24" height="24" viewBox="0 0 24 24" fill="none" xmlns="http://www.w3.org/2000/svg">
<path d="M10.6586 20.0261C9.8337 19.9717 9.42126 19.9446 9.28958 20.2669C9.15789 20.5892 9.40608 20.8016 9.90246 21.2263C10.4662 21.7086 11.1988 22 11.9995 22C12.8003 22 13.5329 21.7085 14.0967 21.2261C14.5929 20.8015 14.8411 20.5891 14.7094 20.2668C14.5777 19.9445 14.1653 19.9717 13.3406 20.026C12.9524 20.0516 12.5035 20.0689 11.9992 20.0689C11.4952 20.0689 11.0465 20.0516 10.6586 20.0261Z" fill="#F2F6F9"/>
<path fill-rule="evenodd" clip-rule="evenodd" d="M12 2C10.0555 2 8.2578 2.66032 6.94093 3.90884C5.6183 5.16282 4.82648 6.96736 4.82648 9.16089V9.77007C4.82648 11.084 4.57094 11.9552 4.2538 12.5323C4.17856 12.6693 4.09505 12.8171 4.00946 12.9687C3.87168 13.2127 3.72836 13.4664 3.60564 13.6992C3.40076 14.0877 3.20237 14.5086 3.09226 14.9241C2.98238 15.3388 2.9384 15.83 3.14561 16.3032C3.35979 16.7924 3.78028 17.1238 4.31192 17.3351C6.1981 18.0848 8.96168 18.5401 12 18.5401C15.0383 18.5401 17.8019 18.0848 19.6881 17.3351C20.2197 17.1238 20.6402 16.7924 20.8544 16.3032C21.0616 15.83 21.0176 15.3388 20.9077 14.9241C20.7976 14.5086 20.5992 14.0877 20.3944 13.6992C20.2716 13.4664 20.1284 13.2128 19.9906 12.9688C19.905 12.8173 19.8214 12.6693 19.7462 12.5323C19.4291 11.9552 19.1735 11.084 19.1735 9.77007V9.16089C19.1735 6.96736 18.3817 5.16282 17.0591 3.90884C15.7422 2.66032 13.9445 2 12 2ZM6.27766 9.16086C6.27766 7.33141 6.92929 5.91758 7.94042 4.95893C8.95731 3.99481 10.3837 3.44824 12.0004 3.44824C13.6171 3.44824 15.0434 3.99481 16.0603 4.95893C17.0714 5.91758 17.7231 7.33141 17.7231 9.16086V9.77005C17.7231 11.2704 18.0154 12.3932 18.4745 13.2288C18.5691 13.4009 18.6595 13.5607 18.7468 13.715C18.8735 13.939 18.9938 14.1518 19.1109 14.3738C19.3028 14.7377 19.4385 15.0416 19.5055 15.2945C19.5728 15.5483 19.549 15.6692 19.5254 15.7232C19.5087 15.7612 19.4473 15.8721 19.1518 15.9896C17.4895 16.6503 14.9223 17.0919 12.0004 17.0919C9.07839 17.0919 6.51127 16.6503 4.84896 15.9896C4.55345 15.8721 4.49202 15.7612 4.47535 15.7232C4.45171 15.6692 4.42794 15.5483 4.4952 15.2945C4.56221 15.0416 4.69787 14.7377 4.8898 14.3738C5.00684 14.1518 5.12706 13.9393 5.25372 13.7154C5.34105 13.561 5.43162 13.4009 5.52618 13.2288C5.98535 12.3932 6.27766 11.2704 6.27766 9.77005V9.16086Z" fill="#F2F6F9"/>
</svg>
