<svg width="24" height="24" viewBox="0 0 24 24" fill="none" xmlns="http://www.w3.org/2000/svg">
<path d="M10.6586 20.0261C9.8337 19.9718 9.42126 19.9446 9.28958 20.2669C9.1579 20.5892 9.40608 20.8016 9.90246 21.2263C10.4662 21.7086 11.1988 22 11.9995 22C12.8003 22 13.5329 21.7085 14.0967 21.2261C14.5929 20.8015 14.8411 20.5891 14.7094 20.2668C14.5777 19.9445 14.1653 19.9717 13.3406 20.026C12.9524 20.0516 12.5035 20.0689 11.9992 20.0689C11.4952 20.0689 11.0465 20.0516 10.6586 20.0261Z" fill="#F2F6F9"/>
<path d="M6.94093 3.90884C8.2578 2.66032 10.0555 2 12 2C13.9445 2 15.7422 2.66032 17.0591 3.90884C18.3817 5.16282 19.1735 6.96736 19.1735 9.16089V9.77007C19.1735 11.084 19.4291 11.9552 19.7462 12.5323C19.8214 12.6693 19.905 12.8173 19.9906 12.9688C20.1284 13.2128 20.2716 13.4664 20.3944 13.6992C20.5992 14.0877 20.7976 14.5086 20.9077 14.9241C21.0176 15.3388 21.0616 15.83 20.8544 16.3032C20.6402 16.7924 20.2197 17.1238 19.6881 17.3351C17.8019 18.0848 15.0383 18.5401 12 18.5401C8.96168 18.5401 6.1981 18.0848 4.31192 17.3351C3.78028 17.1238 3.35979 16.7924 3.14561 16.3032C2.9384 15.83 2.98238 15.3388 3.09226 14.9241C3.20237 14.5086 3.40076 14.0877 3.60564 13.6992C3.72838 13.4664 3.87159 13.2128 4.00938 12.9688C4.095 12.8172 4.17854 12.6693 4.2538 12.5323C4.57094 11.9552 4.82648 11.084 4.82648 9.77007V9.16089C4.82648 6.96736 5.6183 5.16282 6.94093 3.90884Z" fill="#F2F6F9"/>
</svg>
