<svg width="24" height="24" viewBox="0 0 24 24" fill="none" xmlns="http://www.w3.org/2000/svg">
<g clip-path="url(#clip0_1_340)">
<path fill-rule="evenodd" clip-rule="evenodd" d="M7 17.5L17 17.5C20.0376 17.5 22.5 15.0376 22.5 12C22.5 8.96244 20.0376 6.5 17 6.5L7 6.5C3.96244 6.5 1.5 8.96243 1.5 12C1.5 15.0376 3.96243 17.5 7 17.5ZM17 19C20.866 19 24 15.866 24 12C24 8.13401 20.866 5 17 5L7 5C3.13401 5 3.37976e-07 8.13401 0 12C-3.37976e-07 15.866 3.13401 19 7 19L17 19Z" fill="#F2F6F9"/>
<path d="M2.5 12C2.5 9.51472 4.51472 7.5 7 7.5C9.48528 7.5 11.5 9.51472 11.5 12C11.5 14.4853 9.48528 16.5 7 16.5C4.51472 16.5 2.5 14.4853 2.5 12Z" fill="#F2F6F9"/>
</g>
<defs>
<clipPath id="clip0_1_340">
<rect width="24" height="24" fill="white"/>
</clipPath>
</defs>
</svg>
