<svg width="24" height="24" viewBox="0 0 24 24" fill="none" xmlns="http://www.w3.org/2000/svg">
<path fill-rule="evenodd" clip-rule="evenodd" d="M17 6.5H7C3.96243 6.5 1.5 8.96243 1.5 12C1.5 15.0376 3.96243 17.5 7 17.5H17C20.0376 17.5 22.5 15.0376 22.5 12C22.5 8.96243 20.0376 6.5 17 6.5ZM7 5C3.13401 5 0 8.13401 0 12C0 15.866 3.13401 19 7 19H17C20.866 19 24 15.866 24 12C24 8.13401 20.866 5 17 5H7Z" fill="#F2F6F9"/>
<path d="M21.5 12C21.5 14.4853 19.4853 16.5 17 16.5C14.5147 16.5 12.5 14.4853 12.5 12C12.5 9.51472 14.5147 7.5 17 7.5C19.4853 7.5 21.5 9.51472 21.5 12Z" fill="#F2F6F9"/>
</svg>
