<svg width="24" height="24" viewBox="0 0 24 24" fill="none" xmlns="http://www.w3.org/2000/svg">
<path fill-rule="evenodd" clip-rule="evenodd" d="M8.22802 2L13.9612 2C14.3466 2 14.6589 2.31236 14.6589 2.69768C14.6589 3.08299 14.3466 3.39535 13.9612 3.39535L8.27907 3.39535C6.9438 3.39535 6.01253 3.39683 5.30988 3.4913C4.6273 3.58307 4.26584 3.75093 4.00838 4.00838C3.75093 4.26584 3.58307 4.6273 3.4913 5.30988C3.39683 6.01253 3.39535 6.9438 3.39535 8.27907L3.39535 15.7209C3.39535 17.0562 3.39683 17.9875 3.4913 18.6901C3.58307 19.3727 3.75093 19.7342 4.00838 19.9916C4.26584 20.2491 4.6273 20.4169 5.30988 20.5087C6.01253 20.6032 6.9438 20.6047 8.27907 20.6047H13.9612C14.3466 20.6047 14.6589 20.917 14.6589 21.3023C14.6589 21.6876 14.3466 22 13.9612 22H8.22802C6.95585 22 5.93043 22 5.12395 21.8916C4.28664 21.779 3.58164 21.5382 3.02172 20.9783C2.4618 20.4184 2.22097 19.7134 2.10839 18.876C1.99997 18.0696 1.99998 17.0442 2 15.772L2 8.22802C1.99998 6.95585 1.99997 5.93043 2.1084 5.12395C2.22097 4.28664 2.4618 3.58164 3.02172 3.02172C3.58164 2.4618 4.28664 2.22097 5.12395 2.10839C5.93044 1.99997 6.95585 1.99998 8.22802 2ZM12.4933 8.4059C12.7658 8.67835 12.7658 9.1201 12.4933 9.39256L10.5836 11.3023L21.3023 11.3023C21.6876 11.3023 22 11.6147 22 12C22 12.3853 21.6876 12.6977 21.3023 12.6977L10.5836 12.6977L12.4933 14.6074C12.7658 14.8799 12.7658 15.3216 12.4933 15.5941C12.2209 15.8666 11.7791 15.8666 11.5067 15.5941L8.4059 12.4933C8.13344 12.2209 8.13344 11.7791 8.4059 11.5067L11.5067 8.4059C11.7791 8.13344 12.2209 8.13344 12.4933 8.4059Z" fill="#F2F6F9"/>
</svg>
