<svg width="24" height="24" viewBox="0 0 24 24" fill="none" xmlns="http://www.w3.org/2000/svg">
<path fill-rule="evenodd" clip-rule="evenodd" d="M15.772 22L10.0388 22C9.65344 22 9.34108 21.6876 9.34108 21.3023C9.34108 20.917 9.65344 20.6046 10.0388 20.6046L15.7209 20.6046C17.0562 20.6046 17.9875 20.6032 18.6901 20.5087C19.3727 20.4169 19.7342 20.2491 19.9916 19.9916C20.2491 19.7342 20.4169 19.3727 20.5087 18.6901C20.6032 17.9875 20.6046 17.0562 20.6047 15.7209L20.6047 8.27907C20.6047 6.9438 20.6032 6.01253 20.5087 5.30988C20.4169 4.6273 20.2491 4.26583 19.9916 4.00838C19.7342 3.75093 19.3727 3.58307 18.6901 3.4913C17.9875 3.39683 17.0562 3.39535 15.7209 3.39535L10.0388 3.39535C9.65345 3.39535 9.34109 3.08299 9.34109 2.69767C9.34109 2.31236 9.65345 2 10.0388 2L15.772 2C17.0442 1.99998 18.0696 1.99997 18.8761 2.10839C19.7134 2.22097 20.4184 2.4618 20.9783 3.02172C21.5382 3.58164 21.779 4.28664 21.8916 5.12395C22 5.93043 22 6.95585 22 8.22802L22 15.772C22 17.0442 22 18.0696 21.8916 18.876C21.779 19.7134 21.5382 20.4184 20.9783 20.9783C20.4184 21.5382 19.7134 21.779 18.876 21.8916C18.0696 22 17.0442 22 15.772 22ZM11.5067 15.5941C11.2342 15.3216 11.2342 14.8799 11.5067 14.6074L13.4164 12.6977L2.69767 12.6977C2.31236 12.6977 2 12.3853 2 12C2 11.6147 2.31236 11.3023 2.69767 11.3023L13.4164 11.3023L11.5067 9.39255C11.2342 9.12009 11.2342 8.67835 11.5067 8.40589C11.7791 8.13344 12.2209 8.13343 12.4933 8.40589L15.5941 11.5067C15.8666 11.7791 15.8666 12.2209 15.5941 12.4933L12.4933 15.5941C12.2209 15.8666 11.7791 15.8666 11.5067 15.5941Z" fill="#F2F6F9"/>
</svg>
