<svg width="24" height="24" viewBox="0 0 24 24" fill="none" xmlns="http://www.w3.org/2000/svg">
<path fill-rule="evenodd" clip-rule="evenodd" d="M12 4.3845C10.0882 4.3845 8.53846 5.93429 8.53846 7.84606C8.53846 9.75782 10.0882 11.3076 12 11.3076C13.9118 11.3076 15.4615 9.75782 15.4615 7.84606C15.4615 5.93429 13.9118 4.3845 12 4.3845ZM7.15385 7.84606C7.15385 5.16959 9.32354 2.99988 12 2.99988C14.6765 2.99988 16.8462 5.16959 16.8462 7.84606C16.8462 10.5225 14.6765 12.6922 12 12.6922C9.32354 12.6922 7.15385 10.5225 7.15385 7.84606ZM4.91034 17.0845C4.58276 17.5476 4.38462 18.1401 4.38462 18.923C4.38462 19.0717 4.4388 19.2191 4.71471 19.3932C5.02029 19.5861 5.52231 19.7537 6.24425 19.8793C7.67873 20.1289 9.69514 20.1692 12 20.1692C14.3049 20.1692 16.3213 20.1289 17.7558 19.8793C18.4777 19.7537 18.9797 19.5861 19.2853 19.3932C19.5612 19.2191 19.6154 19.0717 19.6154 18.923C19.6154 18.1401 19.4172 17.5476 19.0897 17.0845C18.758 16.6158 18.2604 16.2331 17.5902 15.9313C16.2272 15.3176 14.2744 15.0922 12 15.0922C9.72558 15.0922 7.77277 15.3176 6.40982 15.9313C5.73959 16.2331 5.24197 16.6158 4.91034 17.0845ZM5.84132 14.6688C7.48517 13.9286 9.6862 13.7076 12 13.7076C14.3138 13.7076 16.5148 13.9286 18.1587 14.6688C18.9918 15.044 19.7109 15.5652 20.22 16.2848C20.7332 17.0103 21 17.8907 21 18.923C21 19.6666 20.5893 20.2075 20.0244 20.5641C19.4892 20.902 18.7746 21.1075 17.9931 21.2434C16.4208 21.517 14.2833 21.5538 12 21.5538C9.71665 21.5538 7.57921 21.517 6.0069 21.2434C5.22544 21.1075 4.51082 20.902 3.97562 20.5641C3.41075 20.2075 3 19.6666 3 18.923C3 17.8907 3.26679 17.0103 3.78 16.2848C4.28915 15.5652 5.00816 15.044 5.84132 14.6688Z" fill="#F2F6F9"/>
</svg>
