<svg width="24" height="24" viewBox="0 0 24 24" fill="none" xmlns="http://www.w3.org/2000/svg">
<path d="M12 2C9.14439 2 6.78036 4.22936 6.78036 7.03876C6.78036 9.84816 9.14439 12.0775 12 12.0775C14.8556 12.0775 17.2196 9.84816 17.2196 7.03876C17.2196 4.22936 14.8556 2 12 2Z" fill="#F2F6F9"/>
<path d="M12 14.4031C9.1343 14.4031 6.6932 14.6326 4.94868 15.3317C4.06568 15.6856 3.32021 16.1754 2.79604 16.8548C2.26469 17.5435 2 18.3765 2 19.3385C2 20.0232 2.33062 20.6765 2.76741 21.1457C3.20285 21.6134 3.84053 22 4.55815 22H19.4419C20.138 22 20.7754 21.6598 21.2258 21.1918C21.6791 20.7207 22 20.0625 22 19.3385C22 18.3765 21.7353 17.5435 21.2039 16.8548C20.6798 16.1754 19.9343 15.6856 19.0513 15.3317C17.3068 14.6326 14.8657 14.4031 12 14.4031Z" fill="#F2F6F9"/>
</svg>
