<svg width="24" height="24" viewBox="0 0 24 24" fill="none" xmlns="http://www.w3.org/2000/svg">
<path fill-rule="evenodd" clip-rule="evenodd" d="M20.4059 3.46998C21.9686 5.03117 22.3288 7.4952 21.72 9.92812C21.1072 12.3767 19.5753 15.0111 17.2994 17.2848C15.0235 19.5585 12.3867 21.089 9.9357 21.7011C7.50046 22.3094 5.11699 22.0323 3.5543 20.4711L3.4714 20.3883C3.05118 19.9686 2.68386 19.6016 2.43526 19.2703C2.16836 18.9146 1.95667 18.4957 2.00761 17.9817C2.05856 17.4677 2.34838 17.0983 2.67992 16.8018C2.98874 16.5256 3.46182 16.2106 3.95629 15.8813L5.07027 15.1394C5.35211 14.9516 5.60587 14.7826 5.83122 14.6637C6.07596 14.5345 6.34555 14.4315 6.66183 14.4257C6.80432 14.4231 6.94663 14.4372 7.08585 14.4676C7.39485 14.5353 7.63898 14.6891 7.85362 14.8637C8.05124 15.0245 8.26689 15.24 8.5064 15.4793L8.52865 15.5015C8.79129 15.7639 9.38775 15.9087 10.3912 15.5746C11.3503 15.2552 12.4802 14.5499 13.5211 13.5101C14.562 12.4702 15.2679 11.3414 15.5876 10.3832C15.9221 9.38069 15.7771 8.7848 15.5145 8.52241L15.4922 8.50018C15.2527 8.2609 15.037 8.04546 14.876 7.84802C14.7012 7.63359 14.5473 7.3897 14.4796 7.08099C14.4491 6.94191 14.435 6.79973 14.4376 6.65738C14.4434 6.34139 14.5465 6.07207 14.6758 5.82755C14.7948 5.60241 14.964 5.34889 15.152 5.06731L15.9219 3.91358C16.2515 3.41959 16.5395 2.98779 16.816 2.67927C17.1128 2.34805 17.4825 2.0585 17.997 2.0076C18.5114 1.95671 18.9308 2.1682 19.2868 2.43484C19.6185 2.68321 19.9857 3.05016 20.4059 3.46998ZM18.136 3.39606L18.1346 3.39621L18.1331 3.39634C18.114 3.39806 18.0406 3.40469 17.8567 3.60997C17.6549 3.83511 17.4218 4.18148 17.0568 4.72845L16.3316 5.8152C16.1207 6.1312 15.9924 6.32499 15.9108 6.47939C15.8357 6.62136 15.8343 6.66896 15.8341 6.68283C15.8335 6.71629 15.8368 6.74971 15.844 6.78241C15.8469 6.79596 15.8576 6.84238 15.9591 6.96688C16.0694 7.10229 16.2333 7.26717 16.5021 7.53572C17.3404 8.37318 17.2996 9.66462 16.9126 10.8244C16.5109 12.0285 15.6697 13.3369 14.5087 14.4968C13.3478 15.6566 12.0381 16.497 10.8329 16.8984C9.67195 17.285 8.37928 17.3257 7.54102 16.4882C7.27221 16.2197 7.10717 16.056 6.97164 15.9457C6.84701 15.8443 6.80055 15.8337 6.78699 15.8307C6.75426 15.8236 6.72081 15.8203 6.68731 15.8209C6.67343 15.8211 6.62578 15.8224 6.48367 15.8975C6.32913 15.979 6.13515 16.1072 5.81886 16.3179L4.73106 17.0424C4.18357 17.407 3.83687 17.64 3.61152 17.8415C3.40603 18.0253 3.3994 18.0986 3.39768 18.1177L3.39754 18.1192L3.39739 18.1206C3.39534 18.1397 3.38743 18.2129 3.55285 18.4334C3.73427 18.6751 4.0285 18.9715 4.49378 19.4363L4.54193 19.4844C5.62141 20.5629 7.41488 20.8924 9.59695 20.3474C11.7633 19.8063 14.1841 18.4238 16.3118 16.2981C18.4395 14.1725 19.8234 11.7539 20.365 9.58968C20.9105 7.40971 20.5325 5.56984 19.453 4.4914C18.9877 4.02656 18.6911 3.73261 18.4491 3.55137C18.2284 3.38611 18.1551 3.394 18.136 3.39606Z" fill="#F2F6F9"/>
</svg>
