<svg width="24" height="24" viewBox="0 0 24 24" fill="none" xmlns="http://www.w3.org/2000/svg">
<path fill-rule="evenodd" clip-rule="evenodd" d="M12 2C12.3853 2 12.6977 2.31236 12.6977 2.69767V11.3023H21.3023C21.6876 11.3023 22 11.6147 22 12C22 12.3853 21.6876 12.6977 21.3023 12.6977H12.6977V21.3023C12.6977 21.6876 12.3853 22 12 22C11.6147 22 11.3023 21.6876 11.3023 21.3023V12.6977H2.69767C2.31236 12.6977 2 12.3853 2 12C2 11.6147 2.31236 11.3023 2.69767 11.3023H11.3023V2.69767C11.3023 2.31236 11.6147 2 12 2Z" fill="#F2F6F9"/>
</svg>
