<svg width="24" height="24" viewBox="0 0 24 24" fill="none" xmlns="http://www.w3.org/2000/svg">
<path fill-rule="evenodd" clip-rule="evenodd" d="M12 5C12.3741 5 12.6774 5.30329 12.6774 5.67742V11.3226L18.3226 11.3226C18.6967 11.3226 19 11.6259 19 12C19 12.3741 18.6967 12.6774 18.3226 12.6774H12.6774V18.3226C12.6774 18.6967 12.3741 19 12 19C11.6259 19 11.3226 18.6967 11.3226 18.3226V12.6774H5.67742C5.30329 12.6774 5 12.3741 5 12C5 11.6259 5.30329 11.3226 5.67742 11.3226L11.3226 11.3226V5.67742C11.3226 5.30329 11.6259 5 12 5Z" fill="#F2F6F9"/>
</svg>
