<svg width="24" height="24" viewBox="0 0 24 24" fill="none" xmlns="http://www.w3.org/2000/svg">
<path d="M9.85101 13.0903L9.85246 13.0913L9.85325 13.0921L9.85347 13.0932L9.85349 13.0949L9.85251 13.0964L9.85173 13.0972L9.85064 13.0974L9.84889 13.0974L9.84743 13.0964L9.84664 13.0956L9.84642 13.0945L9.84641 13.0928L9.84738 13.0913L9.84816 13.0905L9.84925 13.0903L9.85101 13.0903Z" fill="#F2F6F9"/>
<path d="M14.0057 10.5891L14.0074 10.5891L14.0089 10.5901L14.0099 10.5919L14.0099 10.5937L14.0089 10.5951L14.0081 10.5959L14.0071 10.5961L14.0053 10.5962L14.0038 10.5952L14.0031 10.5944L14.0028 10.5933L14.0028 10.5916L14.0038 10.5901L14.0046 10.5893L14.0057 10.5891Z" fill="#F2F6F9"/>
<path fill-rule="evenodd" clip-rule="evenodd" d="M13.4319 2.01301C12.8113 1.93454 12.2843 2.22207 11.8221 2.57868C11.3673 2.9296 10.84 3.45689 10.202 4.09496L4.09475 10.2022C3.4567 10.8402 2.92943 11.3675 2.57857 11.8222C2.22198 12.2844 1.93455 12.8113 2.01301 13.4319C2.09609 14.0889 2.53895 14.4866 3.02663 14.7652C3.48237 15.0256 4.11943 15.2622 4.86048 15.5375L5.89813 15.9231C6.89145 16.2922 7.17946 16.4152 7.38215 16.6178C7.58485 16.8205 7.70782 17.1086 8.07691 18.1019L8.46246 19.1395C8.73776 19.8806 8.97443 20.5176 9.23478 20.9734C9.51338 21.4611 9.91108 21.9039 10.5681 21.987C11.1887 22.0655 11.7156 21.778 12.1778 21.4214C12.6325 21.0706 13.1598 20.5433 13.7978 19.9053L19.905 13.798C20.5431 13.16 21.0704 12.6327 21.4213 12.1779C21.7779 11.7157 22.0655 11.1887 21.987 10.5681C21.9039 9.91108 21.4611 9.51338 20.9734 9.23478C20.5176 8.97443 19.8806 8.73777 19.1395 8.46247L18.1019 8.07691C17.1086 7.70782 16.8205 7.58485 16.6178 7.38215C16.4152 7.17945 16.2922 6.89144 15.9231 5.89813L15.5375 4.86049C15.2622 4.11943 15.0256 3.48237 14.7652 3.02663C14.4866 2.53894 14.0889 2.09608 13.4319 2.01301ZM8.51674 12.695C8.29649 13.4313 8.71483 14.2068 9.45114 14.427C10.1874 14.6473 10.9629 14.229 11.1831 13.4927C11.4034 12.7563 10.9851 11.9809 10.2488 11.7606C9.51245 11.5404 8.737 11.9587 8.51674 12.695ZM11.5097 9.59544C11.3268 9.25633 10.9036 9.12973 10.5645 9.31268C10.2254 9.49562 10.0988 9.91883 10.2817 10.2579L12.4561 14.2884C12.639 14.6275 13.0622 14.7541 13.4014 14.5711C13.7405 14.3882 13.8671 13.965 13.6841 13.6259L11.5097 9.59544ZM12.6732 10.1938C12.4529 10.9301 12.8712 11.7056 13.6076 11.9258C14.3439 12.1461 15.1193 11.7277 15.3396 10.9914C15.5598 10.2551 15.1415 9.47967 14.4052 9.25942C13.6689 9.03917 12.8934 9.45751 12.6732 10.1938Z" fill="#F2F6F9"/>
</svg>
