<svg width="24" height="24" viewBox="0 0 24 24" fill="none" xmlns="http://www.w3.org/2000/svg">
<path fill-rule="evenodd" clip-rule="evenodd" d="M12.6745 3.68342C12.2995 3.97271 11.8356 4.43462 11.1533 5.11698L5.11676 11.1535C4.4344 11.8358 3.97254 12.2997 3.68332 12.6746C3.39336 13.0504 3.38981 13.1975 3.39732 13.2569L3.39768 13.2602C3.40041 13.2877 3.40924 13.3768 3.71877 13.5537C4.06264 13.7501 4.58921 13.9482 5.40335 14.2507L6.38413 14.6151C6.42728 14.6312 6.46988 14.647 6.51192 14.6625C7.31902 14.9617 7.92325 15.1857 8.3688 15.6312C8.81435 16.0767 9.03831 16.681 9.33746 17.4881C9.35305 17.5301 9.36883 17.5727 9.38487 17.6159L9.7493 18.5966C10.0518 19.4108 10.2499 19.9374 10.4463 20.2812C10.6232 20.5908 10.7123 20.5996 10.7398 20.6023L10.7431 20.6027C10.8025 20.6102 10.9496 20.6066 11.3254 20.3167C11.7003 20.0275 12.1642 19.5656 12.8465 18.8832L18.883 12.8467C19.5654 12.1644 20.0273 11.7005 20.3166 11.3255C20.6066 10.9496 20.6102 10.8025 20.6027 10.7431L20.6023 10.7398C20.5996 10.7123 20.5908 10.6232 20.2812 10.4463C19.9374 10.2499 19.4108 10.0518 18.5966 9.74929L17.6159 9.38486C17.5727 9.36883 17.5301 9.35304 17.4881 9.33746C16.681 9.0383 16.0767 8.81434 15.6312 8.3688C15.1857 7.92325 14.9617 7.31902 14.6625 6.51192C14.647 6.46988 14.6312 6.42728 14.6151 6.38413L14.2507 5.40335C13.9482 4.5892 13.7501 4.06264 13.5537 3.71876C13.3768 3.40924 13.2877 3.4004 13.2602 3.39768L13.2569 3.39732C13.1975 3.38982 13.0504 3.39337 12.6745 3.68342ZM11.8221 2.57868C12.2843 2.22207 12.8113 1.93454 13.4319 2.01301C14.0889 2.09608 14.4866 2.53894 14.7652 3.02663C15.0256 3.48237 15.2622 4.11943 15.5375 4.86049L15.9231 5.89813C16.2922 6.89144 16.4152 7.17945 16.6178 7.38215C16.8205 7.58485 17.1086 7.70782 18.1019 8.07691L19.1395 8.46247C19.8806 8.73777 20.5176 8.97443 20.9734 9.23478C21.4611 9.51338 21.9039 9.91108 21.987 10.5681C22.0655 11.1887 21.7779 11.7157 21.4213 12.1779C21.0704 12.6327 20.5431 13.16 19.905 13.798L13.7978 19.9052C13.1598 20.5433 12.6326 21.0706 12.1778 21.4214C11.7156 21.778 11.1887 22.0655 10.5681 21.987C9.91108 21.9039 9.51338 21.4611 9.23478 20.9734C8.97443 20.5176 8.73776 19.8806 8.46246 19.1395L8.07691 18.1019C7.70782 17.1086 7.58485 16.8205 7.38215 16.6178C7.17946 16.4152 6.89145 16.2922 5.89813 15.9231L4.86048 15.5375C4.11943 15.2622 3.48237 15.0256 3.02663 14.7652C2.53895 14.4866 2.09609 14.0889 2.01301 13.4319C1.93455 12.8113 2.22198 12.2844 2.57857 11.8222C2.92943 11.3674 3.45668 10.8402 4.09475 10.2022L10.202 4.09499C10.84 3.45691 11.3673 2.9296 11.8221 2.57868Z" fill="#F2F6F9"/>
<path fill-rule="evenodd" clip-rule="evenodd" d="M9.45075 14.427C8.71444 14.2068 8.29609 13.4313 8.51635 12.695C8.7366 11.9587 9.51205 11.5404 10.2484 11.7606C10.9847 11.9809 11.403 12.7563 11.1828 13.4926C10.9625 14.2289 10.1871 14.6473 9.45075 14.427ZM10.5641 9.31266C10.9032 9.12971 11.3264 9.25631 11.5093 9.59542L13.6837 13.6259C13.8667 13.965 13.7401 14.3882 13.401 14.5711C13.0618 14.7541 12.6386 14.6275 12.4557 14.2884L10.2813 10.2579C10.0984 9.91881 10.225 9.4956 10.5641 9.31266ZM13.6072 11.9258C12.8709 11.7056 12.4525 10.9301 12.6728 10.1938C12.893 9.45749 13.6685 9.03914 14.4048 9.2594C15.1411 9.47965 15.5594 10.2551 15.3392 10.9914C15.1189 11.7277 14.3435 12.1461 13.6072 11.9258Z" fill="#F2F6F9"/>
</svg>
