<svg width="24" height="24" viewBox="0 0 24 24" fill="none" xmlns="http://www.w3.org/2000/svg">
<path fill-rule="evenodd" clip-rule="evenodd" d="M7.35661 11.5067C7.62698 11.2342 8.06532 11.2342 8.33568 11.5067L10.6154 13.804L15.6643 8.71597C15.9347 8.44351 16.373 8.44351 16.6434 8.71597C16.9138 8.98843 16.9138 9.43017 16.6434 9.70263L11.1049 15.284C10.8346 15.5565 10.3962 15.5565 10.1258 15.284L7.35661 12.4933C7.08625 12.2209 7.08625 11.7791 7.35661 11.5067Z" fill="#F2F6F9"/>
<path fill-rule="evenodd" clip-rule="evenodd" d="M18.963 4.08873C14.3623 3.16422 9.63773 3.16422 5.03703 4.08873C4.66914 4.16266 4.36827 4.52466 4.38528 4.98174L4.75193 14.8337C4.77269 15.3915 4.78719 15.7623 4.8247 16.0502C4.86041 16.3243 4.91128 16.4686 4.97613 16.5784C5.04002 16.6865 5.13704 16.7944 5.34906 16.945C5.57436 17.1051 5.88023 17.2804 6.34678 17.5463L10.5754 19.9565C11.0188 20.2092 11.3093 20.3739 11.5465 20.4802C11.7702 20.5805 11.8963 20.6047 12 20.6047C12.1037 20.6047 12.2298 20.5805 12.4535 20.4802C12.6907 20.3739 12.9812 20.2092 13.4246 19.9565L17.6532 17.5463C18.1198 17.2804 18.4256 17.1051 18.6509 16.945C18.863 16.7944 18.96 16.6865 19.0239 16.5784C19.0887 16.4686 19.1396 16.3243 19.1753 16.0502C19.2128 15.7623 19.2273 15.3915 19.2481 14.8337L19.6147 4.98174C19.6317 4.52466 19.3309 4.16266 18.963 4.08873ZM4.76626 2.72032C9.54571 1.75989 14.4543 1.75989 19.2337 2.72032C20.3126 2.93711 21.0391 3.93862 20.9984 5.03404L20.6306 14.9172C20.6113 15.4356 20.5951 15.8718 20.5481 16.2319C20.4985 16.6129 20.4091 16.9613 20.2136 17.2922C20.0172 17.6247 19.7566 17.8667 19.4488 18.0854C19.1605 18.2903 18.7938 18.4993 18.363 18.7448L14.079 21.1866C13.6703 21.4195 13.3216 21.6183 13.0162 21.7552C12.6906 21.9011 12.3658 22 12 22C11.6342 22 11.3094 21.9011 10.9838 21.7552C10.6784 21.6183 10.3297 21.4195 9.92104 21.1866L5.63704 18.7448C5.20618 18.4993 4.83954 18.2903 4.55121 18.0854C4.24335 17.8667 3.98282 17.6247 3.7864 17.2922C3.59094 16.9613 3.50151 16.6129 3.45186 16.2319C3.40495 15.8718 3.38873 15.4356 3.36945 14.9172L3.00163 5.03404C2.96086 3.93862 3.68745 2.93711 4.76626 2.72032Z" fill="#F2F6F9"/>
</svg>
