<svg width="24" height="24" viewBox="0 0 24 24" fill="none" xmlns="http://www.w3.org/2000/svg">
<path fill-rule="evenodd" clip-rule="evenodd" d="M5.41463 6.14634C5.41463 5.74223 5.74223 5.41463 6.14634 5.41463H10.0488C10.4529 5.41463 10.7805 5.74223 10.7805 6.14634V10.0488C10.7805 10.4529 10.4529 10.7805 10.0488 10.7805H6.14634C5.74223 10.7805 5.41463 10.4529 5.41463 10.0488V6.14634ZM6.87805 6.87805V9.31707H9.31707V6.87805H6.87805Z" fill="#F2F6F9"/>
<path fill-rule="evenodd" clip-rule="evenodd" d="M5.41463 13.9512C5.41463 13.5471 5.74223 13.2195 6.14634 13.2195H10.0488C10.4529 13.2195 10.7805 13.5471 10.7805 13.9512V17.8537C10.7805 18.2578 10.4529 18.5854 10.0488 18.5854H6.14634C5.74223 18.5854 5.41463 18.2578 5.41463 17.8537V13.9512ZM6.87805 14.6829V17.122H9.31707V14.6829H6.87805Z" fill="#F2F6F9"/>
<path fill-rule="evenodd" clip-rule="evenodd" d="M18.5854 10.0488C18.5854 10.4529 18.2578 10.7805 17.8537 10.7805H13.9512C13.5471 10.7805 13.2195 10.4529 13.2195 10.0488V6.14634C13.2195 5.74223 13.5471 5.41463 13.9512 5.41463H17.8537C18.2578 5.41463 18.5854 5.74223 18.5854 6.14634V10.0488ZM17.122 9.31707V6.87805H14.6829V9.31707H17.122Z" fill="#F2F6F9"/>
<path fill-rule="evenodd" clip-rule="evenodd" d="M15.3506 15.3505C15.6554 15.0457 16.1496 15.0457 16.4544 15.3505C16.7592 15.6553 16.7592 16.1495 16.4544 16.4543C16.1496 16.7591 15.6554 16.7591 15.3506 16.4543C15.0458 16.1495 15.0458 15.6553 15.3506 15.3505Z" fill="#F2F6F9"/>
<path fill-rule="evenodd" clip-rule="evenodd" d="M13.3994 13.3993C13.7042 13.0945 14.1984 13.0945 14.5032 13.3993C14.808 13.7041 14.808 14.1983 14.5032 14.5031C14.1984 14.8079 13.7042 14.8079 13.3994 14.5031C13.0946 14.1983 13.0946 13.7041 13.3994 13.3993Z" fill="#F2F6F9"/>
<path fill-rule="evenodd" clip-rule="evenodd" d="M13.3994 17.3017C13.7042 16.9969 14.1984 16.9969 14.5032 17.3017C14.808 17.6065 14.808 18.1007 14.5032 18.4055C14.1984 18.7103 13.7042 18.7103 13.3994 18.4055C13.0946 18.1007 13.0946 17.6065 13.3994 17.3017Z" fill="#F2F6F9"/>
<path fill-rule="evenodd" clip-rule="evenodd" d="M17.3018 17.3017C17.6066 16.9969 18.1008 16.9969 18.4056 17.3017C18.7104 17.6065 18.7104 18.1007 18.4056 18.4055C18.1008 18.7103 17.6066 18.7103 17.3018 18.4055C16.997 18.1007 16.997 17.6065 17.3018 17.3017Z" fill="#F2F6F9"/>
<path fill-rule="evenodd" clip-rule="evenodd" d="M13.241 2.73171C13.241 2.3276 13.5686 2 13.9727 2H19.3171C20.7992 2 22 3.20077 22 4.68293V10.0273C22 10.4314 21.6724 10.759 21.2683 10.759C20.8642 10.759 20.5366 10.4314 20.5366 10.0273V4.68293C20.5366 4.00899 19.991 3.46341 19.3171 3.46341H13.9727C13.5686 3.46341 13.241 3.13582 13.241 2.73171Z" fill="#F2F6F9"/>
<path fill-rule="evenodd" clip-rule="evenodd" d="M2 4.68293C2 3.20077 3.20077 2 4.68293 2H10.0273C10.4314 2 10.759 2.3276 10.759 2.73171C10.759 3.13582 10.4314 3.46341 10.0273 3.46341H4.68293C4.00899 3.46341 3.46341 4.00899 3.46341 4.68293V10.0273C3.46341 10.4314 3.13582 10.759 2.73171 10.759C2.3276 10.759 2 10.4314 2 10.0273V4.68293ZM2.73171 13.241C3.13582 13.241 3.46341 13.5686 3.46341 13.9727V19.3171C3.46341 19.991 4.00899 20.5366 4.68293 20.5366H10.0273C10.4314 20.5366 10.759 20.8642 10.759 21.2683C10.759 21.6724 10.4314 22 10.0273 22H4.68293C3.20077 22 2 20.7992 2 19.3171V13.9727C2 13.5686 2.3276 13.241 2.73171 13.241ZM21.2683 13.241C21.6724 13.241 22 13.5686 22 13.9727V19.3171C22 20.7992 20.7992 22 19.3171 22H13.9727C13.5686 22 13.241 21.6724 13.241 21.2683C13.241 20.8642 13.5686 20.5366 13.9727 20.5366H19.3171C19.991 20.5366 20.5366 19.991 20.5366 19.3171V13.9727C20.5366 13.5686 20.8642 13.241 21.2683 13.241Z" fill="#F2F6F9"/>
<path fill-rule="evenodd" clip-rule="evenodd" d="M17.3018 13.3993C17.6066 13.0945 18.1008 13.0945 18.4056 13.3993C18.7104 13.7041 18.7104 14.1983 18.4056 14.5031C18.1008 14.8079 17.6066 14.8079 17.3018 14.5031C16.997 14.1983 16.997 13.7041 17.3018 13.3993Z" fill="#F2F6F9"/>
</svg>
