<svg width="24" height="24" viewBox="0 0 24 24" fill="none" xmlns="http://www.w3.org/2000/svg">
<path fill-rule="evenodd" clip-rule="evenodd" d="M12 20.5C16.6944 20.5 20.5 16.6944 20.5 12C20.5 7.30558 16.6944 3.5 12 3.5C7.30558 3.5 3.5 7.30558 3.5 12C3.5 16.6944 7.30558 20.5 12 20.5ZM12 22C17.5228 22 22 17.5228 22 12C22 6.47715 17.5228 2 12 2C6.47715 2 2 6.47715 2 12C2 17.5228 6.47715 22 12 22Z" fill="#F2F6F9"/>
<path d="M13 17C13 17.5523 12.5523 18 12 18C11.4477 18 11 17.5523 11 17C11 16.4477 11.4477 16 12 16C12.5523 16 13 16.4477 13 17Z" fill="#F2F6F9"/>
<path d="M12 6C13.7839 6 15.25 7.42694 15.25 9.21154V9.36086C15.25 10.256 14.8887 11.1121 14.2496 11.7414L13.7762 12.2075C13.3971 12.5808 13.1487 12.8821 12.9895 13.1866C12.8377 13.4771 12.75 13.8036 12.75 14.25C12.75 14.6642 12.4142 15 12 15C11.5858 15 11.25 14.6642 11.25 14.25C11.25 13.582 11.3872 13.014 11.6602 12.4917C11.9259 11.9834 12.3025 11.5534 12.7238 11.1387L13.1972 10.6726C13.5525 10.3227 13.75 9.8506 13.75 9.36086V9.21154C13.75 8.2772 12.9775 7.5 12 7.5C11.1097 7.5 10.0868 8.00259 9.80929 9.49246C9.7599 9.7576 9.54989 9.97256 9.28079 9.99061L9.2507 9.99263C8.97958 10.0108 8.72393 9.86489 8.60172 9.62219C8.51575 9.45145 8.477 9.25877 8.50709 9.06999C8.83492 7.01354 10.4535 6 12 6Z" fill="#F2F6F9"/>
</svg>
