<svg width="24" height="24" viewBox="0 0 24 24" fill="none" xmlns="http://www.w3.org/2000/svg">
<path fill-rule="evenodd" clip-rule="evenodd" d="M20.8138 6.21179C21.0747 6.48096 21.0596 6.90282 20.7801 7.15404L8.91194 17.8207C8.64595 18.0598 8.23318 18.0598 7.96719 17.8207L3.21994 13.554C2.94042 13.3028 2.92531 12.881 3.1862 12.6118C3.44708 12.3426 3.88516 12.3281 4.16468 12.5793L8.43956 16.4214L19.8353 6.1793C20.1148 5.92808 20.5529 5.94262 20.8138 6.21179ZM20.6068 10.4275C20.8677 10.6966 20.8526 11.1185 20.5731 11.3697L13.3955 17.8207C13.1159 18.0719 12.6778 18.0574 12.417 17.7882C12.1561 17.519 12.1712 17.0972 12.4507 16.846L19.6283 10.395C19.9078 10.1438 20.3459 10.1583 20.6068 10.4275Z" fill="#F2F6F9"/>
</svg>
