<svg width="24" height="24" viewBox="0 0 24 24" fill="none" xmlns="http://www.w3.org/2000/svg">
<path fill-rule="evenodd" clip-rule="evenodd" d="M11.9126 19.907C12.1019 19.7145 12.2451 18.7254 12.3423 17.3276L12.3426 17.3221C12.3569 17.1164 12.3702 16.9019 12.3825 16.6798C12.51 15.3741 12.8942 14.5456 13.2728 14.1335C13.4861 13.9012 13.6682 13.8292 13.7852 13.8159C13.8899 13.8041 14.0246 13.8287 14.1903 13.9725C14.3135 14.0794 14.4248 14.2735 14.5055 14.6456C14.5769 14.9743 14.6059 15.3418 14.6401 15.7759L14.6566 15.9829C14.6962 16.4698 14.7512 17.0478 14.9252 17.5641C15.1076 18.1053 15.4428 18.6443 16.0725 18.9618C16.6083 19.232 17.1934 19.3207 17.7682 19.1661C18.3381 19.0129 18.8188 18.6421 19.1942 18.1374C19.8898 17.2021 20.2876 15.7316 20.3284 13.8359C20.5023 13.7839 20.673 13.7102 20.837 13.614C21.9491 12.9609 22.3302 11.5146 21.6881 10.3835L19.3028 6.18163C19.0881 5.80343 18.6126 5.67386 18.2408 5.89221C17.8689 6.11055 17.7415 6.59414 17.9562 6.97234L19.2442 9.24117C18.9931 9.28924 18.7455 9.38054 18.5117 9.51784C17.3995 10.1709 17.0185 11.6172 17.6606 12.7483C17.9251 13.2142 18.3219 13.554 18.7749 13.7468C18.7444 15.5079 18.3766 16.6154 17.9541 17.1833C17.7414 17.4693 17.5361 17.5928 17.3708 17.6372C17.2105 17.6803 17.0114 17.6702 16.7631 17.545C16.6087 17.4671 16.4908 17.3322 16.3961 17.0513C16.2931 16.7456 16.247 16.3536 16.2063 15.8527L16.1913 15.6627C16.1584 15.2393 16.1204 14.749 16.0239 14.3046C15.9109 13.7842 15.6941 13.1988 15.1998 12.7697C14.748 12.3774 14.1953 12.1783 13.6131 12.2442C13.201 12.2909 12.8232 12.4645 12.4935 12.7225C12.5202 8.74021 12.3266 4.51352 11.9126 4.09277C11.1345 3.30207 3.36021 3.30275 2.583 4.09277C1.8058 4.8828 1.80553 19.1163 2.583 19.907C3.36048 20.6977 11.1351 20.6977 11.9126 19.907ZM10.2273 7.90545C10.6968 7.50017 10.6968 6.16485 10.2273 5.76057C9.75793 5.35628 4.73767 5.35551 4.26825 5.76057C3.79883 6.16562 3.79883 7.50018 4.26825 7.90545C4.73767 8.31072 9.75793 8.31074 10.2273 7.90545ZM19.2892 10.8874C19.6576 10.671 20.1287 10.7994 20.3415 11.1742C20.5542 11.5489 20.428 12.028 20.0595 12.2444C19.6911 12.4607 19.2199 12.3324 19.0072 11.9576C18.7945 11.5829 18.9207 11.1037 19.2892 10.8874Z" fill="white"/>
</svg>
