<svg width="24" height="24" viewBox="0 0 24 24" fill="none" xmlns="http://www.w3.org/2000/svg">
<path fill-rule="evenodd" clip-rule="evenodd" d="M12.2924 3.88395C11.7865 4.26996 11.193 4.86135 10.3369 5.71744L6.15095 9.90339C4.65026 11.4041 4.04607 12.0257 3.7269 12.7963C3.40773 13.5668 3.39538 14.4336 3.39538 16.5559V18.7759C3.39538 19.3911 3.39686 19.7823 3.43541 20.069C3.47125 20.3356 3.52727 20.4052 3.56103 20.439C3.59479 20.4727 3.66439 20.5287 3.93101 20.5646C4.21771 20.6031 4.60894 20.6046 5.22415 20.6046H7.44408C9.56638 20.6046 10.4332 20.5923 11.2037 20.2731C11.9743 19.9539 12.5959 19.3497 14.0966 17.8491L18.2826 13.6631C19.1386 12.807 19.73 12.2135 20.1161 11.7076C20.4898 11.2178 20.6047 10.8929 20.6047 10.5835C20.6047 10.2741 20.4898 9.94924 20.1161 9.45942C19.73 8.95349 19.1386 8.36 18.2826 7.50391L16.4961 5.71744C15.64 4.86135 15.0465 4.26996 14.5406 3.88395C14.0508 3.51022 13.7259 3.39535 13.4165 3.39535C13.1071 3.39535 12.7822 3.51022 12.2924 3.88395ZM11.446 2.77462C12.06 2.30619 12.6794 2 13.4165 2C14.1536 2 14.773 2.30619 15.387 2.77462C15.9762 3.22419 16.6353 3.88327 17.4471 4.69509L19.3049 6.55294C20.1167 7.36473 20.7758 8.02379 21.2254 8.61303C21.6938 9.22697 22 9.84639 22 10.5835C22 11.3206 21.6938 11.94 21.2254 12.554C20.7758 13.1432 20.1167 13.8023 19.3049 14.6141L15.0833 18.8357C15.0459 18.873 15.009 18.91 14.9725 18.9465C13.6188 20.3006 12.7957 21.124 11.7377 21.5622C10.6797 22.0005 9.51545 22.0003 7.60077 22C7.54909 22 7.49687 22 7.44408 22L5.17918 22C4.62223 22 4.13589 22 3.74509 21.9475C3.32373 21.8908 2.9106 21.7619 2.57437 21.4256C2.23814 21.0894 2.10915 20.6763 2.0525 20.2549C1.99996 19.8641 1.99999 19.3778 2.00003 18.8208L2.00003 16.5559C2.00003 16.5031 2.00002 16.4509 2.00002 16.3992C1.9997 14.4846 1.99951 13.3203 2.43777 12.2623C2.87602 11.2043 3.69938 10.3812 5.05348 9.02751C5.09003 8.99098 5.12696 8.95406 5.16429 8.91673L9.38592 4.6951C10.1977 3.88328 10.8568 3.22419 11.446 2.77462ZM14.8031 9.19695C15.0755 9.4694 15.0755 9.91115 14.8031 10.1836L8.55043 16.4362C8.27797 16.7087 7.83623 16.7087 7.56377 16.4362C7.29131 16.1638 7.29131 15.722 7.56377 15.4496L13.8164 9.19695C14.0889 8.92449 14.5306 8.92449 14.8031 9.19695Z" fill="#F2F6F9"/>
</svg>
