<svg width="24" height="24" viewBox="0 0 24 24" fill="none" xmlns="http://www.w3.org/2000/svg">
<path fill-rule="evenodd" clip-rule="evenodd" d="M11.446 2.77462C12.06 2.30619 12.6794 2 13.4165 2C14.1536 2 14.773 2.30619 15.387 2.77462C15.9762 3.22419 16.6353 3.88329 17.4471 4.69512L19.3049 6.55297C20.1167 7.36474 20.7758 8.0238 21.2254 8.61303C21.6938 9.22697 22 9.84639 22 10.5835C22 11.3206 21.6938 11.94 21.2254 12.554C20.7758 13.1432 20.1167 13.8023 19.3049 14.6141L14.9725 18.9465C13.6188 20.3006 12.7957 21.124 11.7377 21.5622C10.6797 22.0005 9.51546 22.0003 7.60079 22L5.1791 22C4.62218 22 4.13587 22 3.74509 21.9475C3.32373 21.8908 2.9106 21.7619 2.57437 21.4256C2.23814 21.0894 2.10915 20.6763 2.0525 20.2549C1.99996 19.8641 1.99999 19.3778 2.00003 18.8208L2.00002 16.3992C1.9997 14.4846 1.99951 13.3203 2.43777 12.2623C2.87602 11.2043 3.69938 10.3812 5.05348 9.02752L9.38594 4.69508C10.1977 3.88327 10.8568 3.22418 11.446 2.77462ZM14.803 10.1836C15.0755 9.91117 15.0755 9.46943 14.803 9.19697C14.5306 8.92452 14.0888 8.92452 13.8164 9.19697L7.56373 15.4496C7.29127 15.7221 7.29127 16.1638 7.56373 16.4363C7.83619 16.7087 8.27793 16.7087 8.55039 16.4363L14.803 10.1836Z" fill="#F2F6F9"/>
</svg>
