<svg width="24" height="24" viewBox="0 0 24 24" fill="none" xmlns="http://www.w3.org/2000/svg">
<path fill-rule="evenodd" clip-rule="evenodd" d="M11.7825 1.60653C13.1632 1.60614 14.0558 1.60588 14.8694 1.94291C15.683 2.27993 16.314 2.91127 17.29 3.88783L19.6478 6.24555C20.6243 7.22154 21.2557 7.85254 21.5927 8.66618C21.9297 9.47982 21.9294 10.3724 21.9291 11.7531L21.929 13.5195C21.929 15.229 21.929 16.5831 21.7866 17.6428C21.6399 18.7334 21.331 19.6162 20.6348 20.3123C19.9387 21.0085 19.056 21.3174 17.9653 21.4641C16.9056 21.6065 15.5516 21.6065 13.8421 21.6065H10.0161C8.3066 21.6065 6.95247 21.6065 5.89277 21.4641C4.80215 21.3174 3.9194 21.0085 3.22326 20.3123C2.52711 19.6162 2.21816 18.7334 2.07153 17.6428C1.92905 16.5831 1.92906 15.229 1.92908 13.5195V9.69357C1.92906 7.98406 1.92905 6.62997 2.07153 5.57025C2.21816 4.47963 2.52711 3.59689 3.22326 2.90074C3.9194 2.20459 4.80215 1.89564 5.89277 1.74901C6.9525 1.60653 8.30657 1.60655 10.0161 1.60656L11.7825 1.60653ZM15.5956 15.7214C15.5956 17.7464 13.9541 19.388 11.929 19.388C9.90404 19.388 8.26245 17.7464 8.26245 15.7214C8.26245 13.6964 9.90404 12.0548 11.929 12.0548C13.9541 12.0548 15.5956 13.6964 15.5956 15.7214ZM5.57632 5.63491C5.45605 5.85744 5.45605 6.15205 5.45605 6.74127C5.45605 7.3305 5.45605 7.62511 5.57632 7.84763C5.66886 8.01886 5.80936 8.15935 5.98058 8.25189C6.20311 8.37216 6.49772 8.37216 7.08695 8.37216H12.5355C13.1247 8.37216 13.4193 8.37216 13.6419 8.25189C13.8131 8.15935 13.9536 8.01886 14.0461 7.84763C14.1664 7.62511 14.1664 7.3305 14.1664 6.74127C14.1664 6.15205 14.1664 5.85744 14.0461 5.63491C13.9536 5.46369 13.8131 5.32319 13.6419 5.23065C13.4193 5.11038 13.1247 5.11038 12.5355 5.11038H7.08695C6.49772 5.11038 6.20311 5.11038 5.98058 5.23065C5.80936 5.32319 5.66886 5.46369 5.57632 5.63491Z" fill="#F2F6F9"/>
</svg>
