<svg width="24" height="24" viewBox="0 0 24 24" fill="none" xmlns="http://www.w3.org/2000/svg">
<path fill-rule="evenodd" clip-rule="evenodd" d="M11.9664 2.00005C13.1585 1.99941 14.1156 1.9989 15.0021 2.36611C15.8886 2.73332 16.565 3.41042 17.4075 4.25382C17.4317 4.27799 17.4559 4.30228 17.4804 4.32672L19.6733 6.51965C19.6977 6.54402 19.7221 6.56839 19.7462 6.59248C20.5896 7.43497 21.2667 8.11136 21.6339 8.99787C22.0011 9.8844 22.0006 10.8415 21.9999 12.0336C21.9999 12.0677 21.9999 12.102 21.9999 12.1364L21.9999 13.8272C21.9999 15.3778 21.9999 16.6759 21.8611 17.7082C21.7144 18.7998 21.3906 19.7929 20.5917 20.5918C19.7927 21.3907 18.7997 21.7145 17.708 21.8613C16.6758 22 15.3777 22 13.8271 22H10.1728C8.62221 22 7.32408 22 6.29185 21.8613C5.20018 21.7145 4.20714 21.3907 3.40823 20.5918C2.60931 19.7929 2.28551 18.7998 2.13874 17.7082C1.99995 16.6759 1.99997 15.3778 2 13.8272V10.173C1.99997 8.62234 1.99995 7.32423 2.13874 6.29197C2.28551 5.2003 2.60931 4.20726 3.40823 3.40835C4.20714 2.60943 5.20018 2.28563 6.29185 2.13886C7.32412 2.00007 8.62221 2.0001 10.1729 2.00012L11.8634 2.0001C11.8978 2.00009 11.9323 2.00007 11.9664 2.00005ZM14.4682 3.65524C13.8663 3.40595 13.1922 3.39506 11.8638 3.39544L10.2205 3.39547C8.61166 3.39545 7.40655 3.39689 6.47778 3.52176C5.54039 3.64779 4.89113 3.89876 4.39488 4.395C3.89864 4.89125 3.64766 5.54052 3.52164 6.4779C3.39677 7.40666 3.39533 8.61177 3.39534 10.2206V13.7796C3.39533 15.3884 3.39677 16.5935 3.52164 17.5222C3.64766 18.4596 3.89864 19.1089 4.39488 19.6051C4.89113 20.1014 5.54039 20.3523 6.47778 20.4784C7.40652 20.6032 8.61167 20.6047 10.2204 20.6047H13.7795C15.3883 20.6047 16.5934 20.6032 17.5221 20.4784C18.4595 20.3523 19.1088 20.1014 19.605 19.6051C20.1012 19.1089 20.3522 18.4596 20.4782 17.5222C20.6031 16.5935 20.6045 15.3883 20.6045 13.7796L20.6046 12.1364C20.6049 10.808 20.594 10.1337 20.3448 9.53185C20.0955 8.93002 19.6265 8.44566 18.6869 7.50659L16.4936 5.31323C15.5545 4.37361 15.07 3.90452 14.4682 3.65524Z" fill="#F2F6F9"/>
<path d="M15.4107 15.8279C15.4107 17.7116 13.8837 19.2386 11.9999 19.2386C10.1162 19.2386 8.58916 17.7116 8.58916 15.8279C8.58916 13.9442 10.1162 12.4171 11.9999 12.4171C13.8837 12.4171 15.4107 13.9442 15.4107 15.8279Z" fill="#F2F6F9"/>
<path d="M6.09045 6.4451C5.97857 6.65209 5.97857 6.92615 5.97857 7.47427C5.97857 8.02238 5.97857 8.29644 6.09045 8.50343C6.17653 8.66271 6.30722 8.7934 6.4665 8.87949C6.6735 8.99137 6.94756 8.99137 7.49567 8.99137H12.5641C13.1122 8.99137 13.3862 8.99137 13.5932 8.87949C13.7525 8.7934 13.8832 8.66271 13.9693 8.50343C14.0812 8.29644 14.0812 8.02238 14.0812 7.47427C14.0812 6.92615 14.0812 6.65209 13.9693 6.4451C13.8832 6.28582 13.7525 6.15513 13.5932 6.06904C13.3862 5.95716 13.1122 5.95716 12.5641 5.95716H7.49567C6.94756 5.95716 6.6735 5.95716 6.4665 6.06904C6.30722 6.15513 6.17653 6.28582 6.09045 6.4451Z" fill="#F2F6F9"/>
</svg>
