<svg width="24" height="24" viewBox="0 0 24 24" fill="none" xmlns="http://www.w3.org/2000/svg">
<mask id="path-1-inside-1_1_122" fill="white">
<path d="M12.5016 8.86656C12.5016 8.55393 12.2423 8.3005 11.9224 8.3005C11.6025 8.3005 11.3432 8.55393 11.3432 8.86656V10.074L12.4817 10.8081C12.7487 10.9803 13.1079 10.9083 13.2841 10.6474C13.4602 10.3864 13.3866 10.0353 13.1196 9.86313L12.5016 9.46459V8.86656Z"/>
<path fill-rule="evenodd" clip-rule="evenodd" d="M8.64318 9.76336C8.64318 7.95222 10.1454 6.484 11.9985 6.484C13.8515 6.484 15.3538 7.95222 15.3538 9.76336C15.3538 11.5745 13.8515 13.0427 11.9985 13.0427C10.1454 13.0427 8.64318 11.5745 8.64318 9.76336ZM11.9985 7.61613C10.7851 7.61613 9.80152 8.57748 9.80152 9.76336C9.80152 10.9492 10.7851 11.9106 11.9985 11.9106C13.2118 11.9106 14.1954 10.9492 14.1954 9.76336C14.1954 8.57748 13.2118 7.61613 11.9985 7.61613Z"/>
<path d="M3.69085 16.3204C3.69085 16.0023 3.69085 15.8433 3.76893 15.7291C3.80274 15.6797 3.84618 15.6372 3.89677 15.6042C4.01363 15.5279 4.17632 15.5279 4.50169 15.5279C4.82706 15.5279 4.98974 15.5279 5.10661 15.6042C5.1572 15.6372 5.20064 15.6797 5.23444 15.7291C5.31253 15.8433 5.31253 16.0023 5.31253 16.3204V17.3045C5.31253 17.6225 5.31253 17.7815 5.23444 17.8958C5.20064 17.9452 5.1572 17.9877 5.10661 18.0207C4.98974 18.097 4.82706 18.097 4.50169 18.097C4.17632 18.097 4.01363 18.097 3.89677 18.0207C3.84618 17.9877 3.80274 17.9452 3.76893 17.8958C3.69085 17.7815 3.69085 17.6225 3.69085 17.3045V16.3204Z"/>
<path d="M15.9312 16.3204C15.9312 16.0023 15.9312 15.8433 16.0093 15.7291C16.0431 15.6797 16.0865 15.6372 16.1371 15.6042C16.254 15.5279 16.4167 15.5279 16.7421 15.5279C17.0674 15.5279 17.2301 15.5279 17.347 15.6042C17.3976 15.6372 17.441 15.6797 17.4748 15.7291C17.5529 15.8433 17.5529 16.0023 17.5529 16.3204V17.3045C17.5529 17.6225 17.5529 17.7815 17.4748 17.8958C17.441 17.9452 17.3976 17.9877 17.347 18.0207C17.2301 18.097 17.0674 18.097 16.7421 18.097C16.4167 18.097 16.254 18.097 16.1371 18.0207C16.0865 17.9877 16.0431 17.9452 16.0093 17.8958C15.9312 17.7815 15.9312 17.6225 15.9312 17.3045V16.3204Z"/>
<path d="M6.48485 16.3204C6.48485 16.0023 6.48485 15.8433 6.56294 15.7291C6.59674 15.6797 6.64018 15.6372 6.69077 15.6042C6.80764 15.5279 6.97032 15.5279 7.29569 15.5279C7.62106 15.5279 7.78375 15.5279 7.90061 15.6042C7.9512 15.6372 7.99464 15.6797 8.02845 15.7291C8.10653 15.8433 8.10653 16.0023 8.10653 16.3204V17.3045C8.10653 17.6225 8.10653 17.7815 8.02845 17.8958C7.99464 17.9452 7.9512 17.9877 7.90061 18.0207C7.78375 18.097 7.62106 18.097 7.29569 18.097C6.97032 18.097 6.80764 18.097 6.69077 18.0207C6.64018 17.9877 6.59674 17.9452 6.56294 17.8958C6.48485 17.7815 6.48485 17.6225 6.48485 17.3045V16.3204Z"/>
<path d="M18.7253 16.3204C18.7253 16.0023 18.7253 15.8433 18.8034 15.7291C18.8372 15.6797 18.8806 15.6372 18.9312 15.6042C19.0481 15.5279 19.2107 15.5279 19.5361 15.5279C19.8615 15.5279 20.0242 15.5279 20.141 15.6042C20.1916 15.6372 20.2351 15.6797 20.2689 15.7291C20.347 15.8433 20.347 16.0023 20.347 16.3204V17.3045C20.347 17.6225 20.347 17.7815 20.2689 17.8958C20.2351 17.9452 20.1916 17.9877 20.141 18.0207C20.0242 18.097 19.8615 18.097 19.5361 18.097C19.2107 18.097 19.0481 18.097 18.9312 18.0207C18.8806 17.9877 18.8372 17.9452 18.8034 17.8958C18.7253 17.7815 18.7253 17.6225 18.7253 17.3045V16.3204Z"/>
<path fill-rule="evenodd" clip-rule="evenodd" d="M11.6295 3.08931C11.6864 3.06451 11.8348 3 12.0002 3C12.1655 3 12.3136 3.06451 12.3705 3.08931C12.4565 3.12681 12.5511 3.17613 12.647 3.23001C12.8404 3.33873 13.0799 3.48902 13.3437 3.66337C13.8735 4.01351 14.5324 4.48133 15.1788 4.9602C15.8254 5.4392 16.4664 5.93449 16.9602 6.34062C17.2063 6.54301 17.4218 6.72815 17.5848 6.88068C17.6657 6.95645 17.7404 7.03036 17.8014 7.09836C17.8468 7.14891 17.9375 7.25226 17.9895 7.37799C18.0267 7.46789 18.0369 7.56111 18.0399 7.58833L18.0403 7.59175C18.0455 7.6385 18.0492 7.69111 18.052 7.74407C18.0575 7.85121 18.0608 7.98742 18.0625 8.13809C18.066 8.44089 18.0637 8.82435 18.0591 9.19831C18.0585 9.24364 18.058 9.32491 18.0573 9.43263C18.277 11.3182 21.0794 12.7197 21.8643 13.0168C21.9004 13.029 21.9355 13.0413 21.9693 13.0539L21.9738 13.0554L22.1053 13.097C22.0733 13.087 22.0299 13.0734 21.9796 13.0578C22.1363 13.1165 22.3669 13.2146 22.5218 13.3825C22.6283 13.4979 22.6846 13.6348 22.7156 13.7214C22.7515 13.8218 22.7799 13.9338 22.8034 14.0472C22.8505 14.2751 22.8871 14.5567 22.9154 14.8644C22.9723 15.4824 23 16.2542 23 17.0151C23 17.7758 22.9723 18.5402 22.9153 19.1433C22.8869 19.4429 22.8501 19.717 22.8019 19.936C22.7781 20.0445 22.7481 20.155 22.7084 20.2544C22.6773 20.3325 22.607 20.4932 22.4566 20.6124C22.3672 20.6834 22.2751 20.7146 22.2431 20.7251C22.1975 20.7402 22.1529 20.7508 22.1161 20.7584C22.0417 20.7737 21.9552 20.7859 21.8652 20.7963C21.6828 20.8172 21.4395 20.8357 21.1503 20.8522C20.5696 20.8854 19.7699 20.9128 18.8285 20.9346C16.944 20.9782 14.471 21 12.0002 21C9.52933 21 7.05604 20.9782 5.17148 20.9346C4.23009 20.9128 3.43043 20.8854 2.84967 20.8522C2.56054 20.8357 2.31724 20.8172 2.13481 20.7963C2.04481 20.7859 1.9583 20.7737 1.88391 20.7584C1.84714 20.7508 1.8025 20.7402 1.75686 20.7251C1.72491 20.7146 1.63285 20.6834 1.54336 20.6124C1.39297 20.4932 1.32273 20.3325 1.29156 20.2544C1.2519 20.155 1.22194 20.0445 1.19808 19.936C1.14991 19.717 1.11307 19.4429 1.08474 19.1433C1.02772 18.5402 1 17.7758 1 17.0151C1 16.2542 1.02774 15.4824 1.08461 14.8644C1.11291 14.5567 1.1495 14.2751 1.19661 14.0472C1.22007 13.9338 1.2485 13.8218 1.2844 13.7214C1.31537 13.6348 1.37167 13.4979 1.47817 13.3825C1.63182 13.2159 1.85996 13.1181 2.01656 13.0592L1.89546 13.097L2.02597 13.0557L2.02706 13.0553C2.06422 13.0414 2.10284 13.0278 2.14276 13.0144C2.93532 12.7126 5.71796 11.3164 5.9427 9.43912C5.94207 9.32817 5.94147 9.24454 5.9409 9.19831C5.93631 8.82435 5.93395 8.44089 5.93747 8.13809C5.93921 7.98742 5.94246 7.85121 5.94805 7.74407C5.95081 7.69111 5.95447 7.6385 5.95974 7.59175L5.96012 7.58833C5.96311 7.56111 5.97334 7.46789 6.01052 7.37799C6.06252 7.25226 6.15323 7.14891 6.1986 7.09836C6.25962 7.03036 6.33427 6.95645 6.41524 6.88068C6.5782 6.72815 6.79368 6.54301 7.03977 6.34062C7.53356 5.93449 8.17465 5.4392 8.82122 4.9602C9.46761 4.48133 10.1266 4.01351 10.6563 3.66337C10.9201 3.48902 11.1596 3.33873 11.353 3.23001C11.4489 3.17613 11.5435 3.12681 11.6295 3.08931ZM13.4743 19.8653C15.4272 19.8583 17.3032 19.8374 18.8011 19.8027C19.7381 19.781 20.522 19.754 21.0827 19.722C21.3307 19.7078 21.5285 19.693 21.6738 19.678C21.7062 19.5239 21.7364 19.3078 21.7618 19.0391C21.8145 18.4817 21.8417 17.7543 21.8417 17.0151C21.8417 16.2761 21.8145 15.54 21.7617 14.9658C21.7352 14.6772 21.7032 14.4416 21.668 14.2715C21.6571 14.2187 21.6468 14.1767 21.6376 14.1443C21.6181 14.1357 21.5925 14.1252 21.5598 14.1129C21.4336 14.0658 21.2584 14.0146 21.041 13.9613C20.6082 13.8554 20.0601 13.7543 19.5131 13.666C18.9687 13.5781 18.4364 13.5046 18.0394 13.4531C17.8411 13.4274 17.6772 13.4071 17.563 13.3934L17.4312 13.3777L17.397 13.3738L17.3864 13.3726L16.8604 13.313L16.8735 12.7962L16.8765 12.6726C16.8783 12.5935 16.8809 12.4803 16.8838 12.3439C16.8869 12.1931 16.8904 11.3587 16.8937 10.5791C16.8963 9.94684 16.8988 9.35067 16.9008 9.18472C16.9054 8.81331 16.9076 8.44033 16.9043 8.15091C16.9026 8.00869 16.8997 7.89189 16.8954 7.80736C16.8671 7.77815 16.8301 7.7419 16.7836 7.69836C16.6465 7.57002 16.4524 7.40256 16.2144 7.20686C15.7401 6.81678 15.1154 6.33386 14.4791 5.86244C13.8426 5.39088 13.2015 4.93608 12.6948 4.6012C12.4404 4.43304 12.2275 4.30022 12.0695 4.21146C12.0439 4.19707 12.0208 4.18441 12 4.17335C11.9792 4.18441 11.9561 4.19707 11.9305 4.21146C11.7725 4.30022 11.5596 4.43304 11.3052 4.6012C10.7985 4.93608 10.1574 5.39088 9.52093 5.86244C8.88459 6.33386 8.25987 6.81678 7.78558 7.20686C7.54763 7.40256 7.35351 7.57002 7.21639 7.69836C7.16987 7.7419 7.13291 7.77815 7.1046 7.80736C7.10033 7.89189 7.09738 8.00869 7.09574 8.15091C7.09238 8.44033 7.0946 8.81331 7.09916 9.18472C7.1012 9.35067 7.1037 9.94685 7.10634 10.5791C7.10961 11.3587 7.1131 12.1931 7.11625 12.3439C7.1191 12.4803 7.12166 12.5935 7.12351 12.6726L7.12649 12.7962L7.13957 13.313L6.61362 13.3726L6.60304 13.3738L6.56883 13.3777L6.43699 13.3934C6.32282 13.4071 6.15887 13.4274 5.96062 13.4531C5.56363 13.5046 5.03132 13.5781 4.48685 13.666C3.93988 13.7543 3.39177 13.8554 2.95901 13.9613C2.74157 14.0146 2.56643 14.0658 2.44022 14.1129C2.40749 14.1252 2.38192 14.1357 2.36238 14.1443C2.35324 14.1767 2.34292 14.2187 2.33201 14.2715C2.29684 14.4416 2.26485 14.6772 2.2383 14.9658C2.18546 15.54 2.15834 16.2761 2.15834 17.0151C2.15834 17.7543 2.18548 18.4817 2.23817 19.0391C2.26358 19.3078 2.29375 19.5239 2.32623 19.678C2.47152 19.693 2.66932 19.7078 2.9173 19.722C3.47797 19.754 4.2619 19.781 5.19892 19.8027C6.70628 19.8377 8.59685 19.8586 10.5632 19.8654C10.5491 19.7453 10.5491 19.5919 10.5491 19.3915V17.275C10.5491 16.848 10.5491 16.6345 10.6848 16.5019C10.8206 16.3693 11.039 16.3693 11.4758 16.3693H12.5616C12.9985 16.3693 13.2169 16.3693 13.3526 16.5019C13.4883 16.6345 13.4883 16.848 13.4883 17.275V19.3915C13.4883 19.5919 13.4883 19.7452 13.4743 19.8653ZM2.37627 19.8552C2.37627 19.8552 2.3749 19.8513 2.37166 19.8453C2.37457 19.8524 2.37627 19.8552 2.37627 19.8552ZM21.6237 19.8552C21.6237 19.8552 21.6251 19.8513 21.6283 19.8453C21.6254 19.8524 21.6237 19.8552 21.6237 19.8552Z"/>
</mask>
<path d="M12.5016 8.86656C12.5016 8.55393 12.2423 8.3005 11.9224 8.3005C11.6025 8.3005 11.3432 8.55393 11.3432 8.86656V10.074L12.4817 10.8081C12.7487 10.9803 13.1079 10.9083 13.2841 10.6474C13.4602 10.3864 13.3866 10.0353 13.1196 9.86313L12.5016 9.46459V8.86656Z" fill="#F2F6F9"/>
<path fill-rule="evenodd" clip-rule="evenodd" d="M8.64318 9.76336C8.64318 7.95222 10.1454 6.484 11.9985 6.484C13.8515 6.484 15.3538 7.95222 15.3538 9.76336C15.3538 11.5745 13.8515 13.0427 11.9985 13.0427C10.1454 13.0427 8.64318 11.5745 8.64318 9.76336ZM11.9985 7.61613C10.7851 7.61613 9.80152 8.57748 9.80152 9.76336C9.80152 10.9492 10.7851 11.9106 11.9985 11.9106C13.2118 11.9106 14.1954 10.9492 14.1954 9.76336C14.1954 8.57748 13.2118 7.61613 11.9985 7.61613Z" fill="#F2F6F9"/>
<path d="M3.69085 16.3204C3.69085 16.0023 3.69085 15.8433 3.76893 15.7291C3.80274 15.6797 3.84618 15.6372 3.89677 15.6042C4.01363 15.5279 4.17632 15.5279 4.50169 15.5279C4.82706 15.5279 4.98974 15.5279 5.10661 15.6042C5.1572 15.6372 5.20064 15.6797 5.23444 15.7291C5.31253 15.8433 5.31253 16.0023 5.31253 16.3204V17.3045C5.31253 17.6225 5.31253 17.7815 5.23444 17.8958C5.20064 17.9452 5.1572 17.9877 5.10661 18.0207C4.98974 18.097 4.82706 18.097 4.50169 18.097C4.17632 18.097 4.01363 18.097 3.89677 18.0207C3.84618 17.9877 3.80274 17.9452 3.76893 17.8958C3.69085 17.7815 3.69085 17.6225 3.69085 17.3045V16.3204Z" fill="#F2F6F9"/>
<path d="M15.9312 16.3204C15.9312 16.0023 15.9312 15.8433 16.0093 15.7291C16.0431 15.6797 16.0865 15.6372 16.1371 15.6042C16.254 15.5279 16.4167 15.5279 16.7421 15.5279C17.0674 15.5279 17.2301 15.5279 17.347 15.6042C17.3976 15.6372 17.441 15.6797 17.4748 15.7291C17.5529 15.8433 17.5529 16.0023 17.5529 16.3204V17.3045C17.5529 17.6225 17.5529 17.7815 17.4748 17.8958C17.441 17.9452 17.3976 17.9877 17.347 18.0207C17.2301 18.097 17.0674 18.097 16.7421 18.097C16.4167 18.097 16.254 18.097 16.1371 18.0207C16.0865 17.9877 16.0431 17.9452 16.0093 17.8958C15.9312 17.7815 15.9312 17.6225 15.9312 17.3045V16.3204Z" fill="#F2F6F9"/>
<path d="M6.48485 16.3204C6.48485 16.0023 6.48485 15.8433 6.56294 15.7291C6.59674 15.6797 6.64018 15.6372 6.69077 15.6042C6.80764 15.5279 6.97032 15.5279 7.29569 15.5279C7.62106 15.5279 7.78375 15.5279 7.90061 15.6042C7.9512 15.6372 7.99464 15.6797 8.02845 15.7291C8.10653 15.8433 8.10653 16.0023 8.10653 16.3204V17.3045C8.10653 17.6225 8.10653 17.7815 8.02845 17.8958C7.99464 17.9452 7.9512 17.9877 7.90061 18.0207C7.78375 18.097 7.62106 18.097 7.29569 18.097C6.97032 18.097 6.80764 18.097 6.69077 18.0207C6.64018 17.9877 6.59674 17.9452 6.56294 17.8958C6.48485 17.7815 6.48485 17.6225 6.48485 17.3045V16.3204Z" fill="#F2F6F9"/>
<path d="M18.7253 16.3204C18.7253 16.0023 18.7253 15.8433 18.8034 15.7291C18.8372 15.6797 18.8806 15.6372 18.9312 15.6042C19.0481 15.5279 19.2107 15.5279 19.5361 15.5279C19.8615 15.5279 20.0242 15.5279 20.141 15.6042C20.1916 15.6372 20.2351 15.6797 20.2689 15.7291C20.347 15.8433 20.347 16.0023 20.347 16.3204V17.3045C20.347 17.6225 20.347 17.7815 20.2689 17.8958C20.2351 17.9452 20.1916 17.9877 20.141 18.0207C20.0242 18.097 19.8615 18.097 19.5361 18.097C19.2107 18.097 19.0481 18.097 18.9312 18.0207C18.8806 17.9877 18.8372 17.9452 18.8034 17.8958C18.7253 17.7815 18.7253 17.6225 18.7253 17.3045V16.3204Z" fill="#F2F6F9"/>
<path fill-rule="evenodd" clip-rule="evenodd" d="M11.6295 3.08931C11.6864 3.06451 11.8348 3 12.0002 3C12.1655 3 12.3136 3.06451 12.3705 3.08931C12.4565 3.12681 12.5511 3.17613 12.647 3.23001C12.8404 3.33873 13.0799 3.48902 13.3437 3.66337C13.8735 4.01351 14.5324 4.48133 15.1788 4.9602C15.8254 5.4392 16.4664 5.93449 16.9602 6.34062C17.2063 6.54301 17.4218 6.72815 17.5848 6.88068C17.6657 6.95645 17.7404 7.03036 17.8014 7.09836C17.8468 7.14891 17.9375 7.25226 17.9895 7.37799C18.0267 7.46789 18.0369 7.56111 18.0399 7.58833L18.0403 7.59175C18.0455 7.6385 18.0492 7.69111 18.052 7.74407C18.0575 7.85121 18.0608 7.98742 18.0625 8.13809C18.066 8.44089 18.0637 8.82435 18.0591 9.19831C18.0585 9.24364 18.058 9.32491 18.0573 9.43263C18.277 11.3182 21.0794 12.7197 21.8643 13.0168C21.9004 13.029 21.9355 13.0413 21.9693 13.0539L21.9738 13.0554L22.1053 13.097C22.0733 13.087 22.0299 13.0734 21.9796 13.0578C22.1363 13.1165 22.3669 13.2146 22.5218 13.3825C22.6283 13.4979 22.6846 13.6348 22.7156 13.7214C22.7515 13.8218 22.7799 13.9338 22.8034 14.0472C22.8505 14.2751 22.8871 14.5567 22.9154 14.8644C22.9723 15.4824 23 16.2542 23 17.0151C23 17.7758 22.9723 18.5402 22.9153 19.1433C22.8869 19.4429 22.8501 19.717 22.8019 19.936C22.7781 20.0445 22.7481 20.155 22.7084 20.2544C22.6773 20.3325 22.607 20.4932 22.4566 20.6124C22.3672 20.6834 22.2751 20.7146 22.2431 20.7251C22.1975 20.7402 22.1529 20.7508 22.1161 20.7584C22.0417 20.7737 21.9552 20.7859 21.8652 20.7963C21.6828 20.8172 21.4395 20.8357 21.1503 20.8522C20.5696 20.8854 19.7699 20.9128 18.8285 20.9346C16.944 20.9782 14.471 21 12.0002 21C9.52933 21 7.05604 20.9782 5.17148 20.9346C4.23009 20.9128 3.43043 20.8854 2.84967 20.8522C2.56054 20.8357 2.31724 20.8172 2.13481 20.7963C2.04481 20.7859 1.9583 20.7737 1.88391 20.7584C1.84714 20.7508 1.8025 20.7402 1.75686 20.7251C1.72491 20.7146 1.63285 20.6834 1.54336 20.6124C1.39297 20.4932 1.32273 20.3325 1.29156 20.2544C1.2519 20.155 1.22194 20.0445 1.19808 19.936C1.14991 19.717 1.11307 19.4429 1.08474 19.1433C1.02772 18.5402 1 17.7758 1 17.0151C1 16.2542 1.02774 15.4824 1.08461 14.8644C1.11291 14.5567 1.1495 14.2751 1.19661 14.0472C1.22007 13.9338 1.2485 13.8218 1.2844 13.7214C1.31537 13.6348 1.37167 13.4979 1.47817 13.3825C1.63182 13.2159 1.85996 13.1181 2.01656 13.0592L1.89546 13.097L2.02597 13.0557L2.02706 13.0553C2.06422 13.0414 2.10284 13.0278 2.14276 13.0144C2.93532 12.7126 5.71796 11.3164 5.9427 9.43912C5.94207 9.32817 5.94147 9.24454 5.9409 9.19831C5.93631 8.82435 5.93395 8.44089 5.93747 8.13809C5.93921 7.98742 5.94246 7.85121 5.94805 7.74407C5.95081 7.69111 5.95447 7.6385 5.95974 7.59175L5.96012 7.58833C5.96311 7.56111 5.97334 7.46789 6.01052 7.37799C6.06252 7.25226 6.15323 7.14891 6.1986 7.09836C6.25962 7.03036 6.33427 6.95645 6.41524 6.88068C6.5782 6.72815 6.79368 6.54301 7.03977 6.34062C7.53356 5.93449 8.17465 5.4392 8.82122 4.9602C9.46761 4.48133 10.1266 4.01351 10.6563 3.66337C10.9201 3.48902 11.1596 3.33873 11.353 3.23001C11.4489 3.17613 11.5435 3.12681 11.6295 3.08931ZM13.4743 19.8653C15.4272 19.8583 17.3032 19.8374 18.8011 19.8027C19.7381 19.781 20.522 19.754 21.0827 19.722C21.3307 19.7078 21.5285 19.693 21.6738 19.678C21.7062 19.5239 21.7364 19.3078 21.7618 19.0391C21.8145 18.4817 21.8417 17.7543 21.8417 17.0151C21.8417 16.2761 21.8145 15.54 21.7617 14.9658C21.7352 14.6772 21.7032 14.4416 21.668 14.2715C21.6571 14.2187 21.6468 14.1767 21.6376 14.1443C21.6181 14.1357 21.5925 14.1252 21.5598 14.1129C21.4336 14.0658 21.2584 14.0146 21.041 13.9613C20.6082 13.8554 20.0601 13.7543 19.5131 13.666C18.9687 13.5781 18.4364 13.5046 18.0394 13.4531C17.8411 13.4274 17.6772 13.4071 17.563 13.3934L17.4312 13.3777L17.397 13.3738L17.3864 13.3726L16.8604 13.313L16.8735 12.7962L16.8765 12.6726C16.8783 12.5935 16.8809 12.4803 16.8838 12.3439C16.8869 12.1931 16.8904 11.3587 16.8937 10.5791C16.8963 9.94684 16.8988 9.35067 16.9008 9.18472C16.9054 8.81331 16.9076 8.44033 16.9043 8.15091C16.9026 8.00869 16.8997 7.89189 16.8954 7.80736C16.8671 7.77815 16.8301 7.7419 16.7836 7.69836C16.6465 7.57002 16.4524 7.40256 16.2144 7.20686C15.7401 6.81678 15.1154 6.33386 14.4791 5.86244C13.8426 5.39088 13.2015 4.93608 12.6948 4.6012C12.4404 4.43304 12.2275 4.30022 12.0695 4.21146C12.0439 4.19707 12.0208 4.18441 12 4.17335C11.9792 4.18441 11.9561 4.19707 11.9305 4.21146C11.7725 4.30022 11.5596 4.43304 11.3052 4.6012C10.7985 4.93608 10.1574 5.39088 9.52093 5.86244C8.88459 6.33386 8.25987 6.81678 7.78558 7.20686C7.54763 7.40256 7.35351 7.57002 7.21639 7.69836C7.16987 7.7419 7.13291 7.77815 7.1046 7.80736C7.10033 7.89189 7.09738 8.00869 7.09574 8.15091C7.09238 8.44033 7.0946 8.81331 7.09916 9.18472C7.1012 9.35067 7.1037 9.94685 7.10634 10.5791C7.10961 11.3587 7.1131 12.1931 7.11625 12.3439C7.1191 12.4803 7.12166 12.5935 7.12351 12.6726L7.12649 12.7962L7.13957 13.313L6.61362 13.3726L6.60304 13.3738L6.56883 13.3777L6.43699 13.3934C6.32282 13.4071 6.15887 13.4274 5.96062 13.4531C5.56363 13.5046 5.03132 13.5781 4.48685 13.666C3.93988 13.7543 3.39177 13.8554 2.95901 13.9613C2.74157 14.0146 2.56643 14.0658 2.44022 14.1129C2.40749 14.1252 2.38192 14.1357 2.36238 14.1443C2.35324 14.1767 2.34292 14.2187 2.33201 14.2715C2.29684 14.4416 2.26485 14.6772 2.2383 14.9658C2.18546 15.54 2.15834 16.2761 2.15834 17.0151C2.15834 17.7543 2.18548 18.4817 2.23817 19.0391C2.26358 19.3078 2.29375 19.5239 2.32623 19.678C2.47152 19.693 2.66932 19.7078 2.9173 19.722C3.47797 19.754 4.2619 19.781 5.19892 19.8027C6.70628 19.8377 8.59685 19.8586 10.5632 19.8654C10.5491 19.7453 10.5491 19.5919 10.5491 19.3915V17.275C10.5491 16.848 10.5491 16.6345 10.6848 16.5019C10.8206 16.3693 11.039 16.3693 11.4758 16.3693H12.5616C12.9985 16.3693 13.2169 16.3693 13.3526 16.5019C13.4883 16.6345 13.4883 16.848 13.4883 17.275V19.3915C13.4883 19.5919 13.4883 19.7452 13.4743 19.8653ZM2.37627 19.8552C2.37627 19.8552 2.3749 19.8513 2.37166 19.8453C2.37457 19.8524 2.37627 19.8552 2.37627 19.8552ZM21.6237 19.8552C21.6237 19.8552 21.6251 19.8513 21.6283 19.8453C21.6254 19.8524 21.6237 19.8552 21.6237 19.8552Z" fill="#F2F6F9"/>
<path d="M12.5016 8.86656C12.5016 8.55393 12.2423 8.3005 11.9224 8.3005C11.6025 8.3005 11.3432 8.55393 11.3432 8.86656V10.074L12.4817 10.8081C12.7487 10.9803 13.1079 10.9083 13.2841 10.6474C13.4602 10.3864 13.3866 10.0353 13.1196 9.86313L12.5016 9.46459V8.86656Z" stroke="#F2F6F9" stroke-width="2" mask="url(#path-1-inside-1_1_122)"/>
<path fill-rule="evenodd" clip-rule="evenodd" d="M8.64318 9.76336C8.64318 7.95222 10.1454 6.484 11.9985 6.484C13.8515 6.484 15.3538 7.95222 15.3538 9.76336C15.3538 11.5745 13.8515 13.0427 11.9985 13.0427C10.1454 13.0427 8.64318 11.5745 8.64318 9.76336ZM11.9985 7.61613C10.7851 7.61613 9.80152 8.57748 9.80152 9.76336C9.80152 10.9492 10.7851 11.9106 11.9985 11.9106C13.2118 11.9106 14.1954 10.9492 14.1954 9.76336C14.1954 8.57748 13.2118 7.61613 11.9985 7.61613Z" stroke="#F2F6F9" stroke-width="2" mask="url(#path-1-inside-1_1_122)"/>
<path d="M3.69085 16.3204C3.69085 16.0023 3.69085 15.8433 3.76893 15.7291C3.80274 15.6797 3.84618 15.6372 3.89677 15.6042C4.01363 15.5279 4.17632 15.5279 4.50169 15.5279C4.82706 15.5279 4.98974 15.5279 5.10661 15.6042C5.1572 15.6372 5.20064 15.6797 5.23444 15.7291C5.31253 15.8433 5.31253 16.0023 5.31253 16.3204V17.3045C5.31253 17.6225 5.31253 17.7815 5.23444 17.8958C5.20064 17.9452 5.1572 17.9877 5.10661 18.0207C4.98974 18.097 4.82706 18.097 4.50169 18.097C4.17632 18.097 4.01363 18.097 3.89677 18.0207C3.84618 17.9877 3.80274 17.9452 3.76893 17.8958C3.69085 17.7815 3.69085 17.6225 3.69085 17.3045V16.3204Z" stroke="#F2F6F9" stroke-width="2" mask="url(#path-1-inside-1_1_122)"/>
<path d="M15.9312 16.3204C15.9312 16.0023 15.9312 15.8433 16.0093 15.7291C16.0431 15.6797 16.0865 15.6372 16.1371 15.6042C16.254 15.5279 16.4167 15.5279 16.7421 15.5279C17.0674 15.5279 17.2301 15.5279 17.347 15.6042C17.3976 15.6372 17.441 15.6797 17.4748 15.7291C17.5529 15.8433 17.5529 16.0023 17.5529 16.3204V17.3045C17.5529 17.6225 17.5529 17.7815 17.4748 17.8958C17.441 17.9452 17.3976 17.9877 17.347 18.0207C17.2301 18.097 17.0674 18.097 16.7421 18.097C16.4167 18.097 16.254 18.097 16.1371 18.0207C16.0865 17.9877 16.0431 17.9452 16.0093 17.8958C15.9312 17.7815 15.9312 17.6225 15.9312 17.3045V16.3204Z" stroke="#F2F6F9" stroke-width="2" mask="url(#path-1-inside-1_1_122)"/>
<path d="M6.48485 16.3204C6.48485 16.0023 6.48485 15.8433 6.56294 15.7291C6.59674 15.6797 6.64018 15.6372 6.69077 15.6042C6.80764 15.5279 6.97032 15.5279 7.29569 15.5279C7.62106 15.5279 7.78375 15.5279 7.90061 15.6042C7.9512 15.6372 7.99464 15.6797 8.02845 15.7291C8.10653 15.8433 8.10653 16.0023 8.10653 16.3204V17.3045C8.10653 17.6225 8.10653 17.7815 8.02845 17.8958C7.99464 17.9452 7.9512 17.9877 7.90061 18.0207C7.78375 18.097 7.62106 18.097 7.29569 18.097C6.97032 18.097 6.80764 18.097 6.69077 18.0207C6.64018 17.9877 6.59674 17.9452 6.56294 17.8958C6.48485 17.7815 6.48485 17.6225 6.48485 17.3045V16.3204Z" stroke="#F2F6F9" stroke-width="2" mask="url(#path-1-inside-1_1_122)"/>
<path d="M18.7253 16.3204C18.7253 16.0023 18.7253 15.8433 18.8034 15.7291C18.8372 15.6797 18.8806 15.6372 18.9312 15.6042C19.0481 15.5279 19.2107 15.5279 19.5361 15.5279C19.8615 15.5279 20.0242 15.5279 20.141 15.6042C20.1916 15.6372 20.2351 15.6797 20.2689 15.7291C20.347 15.8433 20.347 16.0023 20.347 16.3204V17.3045C20.347 17.6225 20.347 17.7815 20.2689 17.8958C20.2351 17.9452 20.1916 17.9877 20.141 18.0207C20.0242 18.097 19.8615 18.097 19.5361 18.097C19.2107 18.097 19.0481 18.097 18.9312 18.0207C18.8806 17.9877 18.8372 17.9452 18.8034 17.8958C18.7253 17.7815 18.7253 17.6225 18.7253 17.3045V16.3204Z" stroke="#F2F6F9" stroke-width="2" mask="url(#path-1-inside-1_1_122)"/>
<path fill-rule="evenodd" clip-rule="evenodd" d="M11.6295 3.08931C11.6864 3.06451 11.8348 3 12.0002 3C12.1655 3 12.3136 3.06451 12.3705 3.08931C12.4565 3.12681 12.5511 3.17613 12.647 3.23001C12.8404 3.33873 13.0799 3.48902 13.3437 3.66337C13.8735 4.01351 14.5324 4.48133 15.1788 4.9602C15.8254 5.4392 16.4664 5.93449 16.9602 6.34062C17.2063 6.54301 17.4218 6.72815 17.5848 6.88068C17.6657 6.95645 17.7404 7.03036 17.8014 7.09836C17.8468 7.14891 17.9375 7.25226 17.9895 7.37799C18.0267 7.46789 18.0369 7.56111 18.0399 7.58833L18.0403 7.59175C18.0455 7.6385 18.0492 7.69111 18.052 7.74407C18.0575 7.85121 18.0608 7.98742 18.0625 8.13809C18.066 8.44089 18.0637 8.82435 18.0591 9.19831C18.0585 9.24364 18.058 9.32491 18.0573 9.43263C18.277 11.3182 21.0794 12.7197 21.8643 13.0168C21.9004 13.029 21.9355 13.0413 21.9693 13.0539L21.9738 13.0554L22.1053 13.097C22.0733 13.087 22.0299 13.0734 21.9796 13.0578C22.1363 13.1165 22.3669 13.2146 22.5218 13.3825C22.6283 13.4979 22.6846 13.6348 22.7156 13.7214C22.7515 13.8218 22.7799 13.9338 22.8034 14.0472C22.8505 14.2751 22.8871 14.5567 22.9154 14.8644C22.9723 15.4824 23 16.2542 23 17.0151C23 17.7758 22.9723 18.5402 22.9153 19.1433C22.8869 19.4429 22.8501 19.717 22.8019 19.936C22.7781 20.0445 22.7481 20.155 22.7084 20.2544C22.6773 20.3325 22.607 20.4932 22.4566 20.6124C22.3672 20.6834 22.2751 20.7146 22.2431 20.7251C22.1975 20.7402 22.1529 20.7508 22.1161 20.7584C22.0417 20.7737 21.9552 20.7859 21.8652 20.7963C21.6828 20.8172 21.4395 20.8357 21.1503 20.8522C20.5696 20.8854 19.7699 20.9128 18.8285 20.9346C16.944 20.9782 14.471 21 12.0002 21C9.52933 21 7.05604 20.9782 5.17148 20.9346C4.23009 20.9128 3.43043 20.8854 2.84967 20.8522C2.56054 20.8357 2.31724 20.8172 2.13481 20.7963C2.04481 20.7859 1.9583 20.7737 1.88391 20.7584C1.84714 20.7508 1.8025 20.7402 1.75686 20.7251C1.72491 20.7146 1.63285 20.6834 1.54336 20.6124C1.39297 20.4932 1.32273 20.3325 1.29156 20.2544C1.2519 20.155 1.22194 20.0445 1.19808 19.936C1.14991 19.717 1.11307 19.4429 1.08474 19.1433C1.02772 18.5402 1 17.7758 1 17.0151C1 16.2542 1.02774 15.4824 1.08461 14.8644C1.11291 14.5567 1.1495 14.2751 1.19661 14.0472C1.22007 13.9338 1.2485 13.8218 1.2844 13.7214C1.31537 13.6348 1.37167 13.4979 1.47817 13.3825C1.63182 13.2159 1.85996 13.1181 2.01656 13.0592L1.89546 13.097L2.02597 13.0557L2.02706 13.0553C2.06422 13.0414 2.10284 13.0278 2.14276 13.0144C2.93532 12.7126 5.71796 11.3164 5.9427 9.43912C5.94207 9.32817 5.94147 9.24454 5.9409 9.19831C5.93631 8.82435 5.93395 8.44089 5.93747 8.13809C5.93921 7.98742 5.94246 7.85121 5.94805 7.74407C5.95081 7.69111 5.95447 7.6385 5.95974 7.59175L5.96012 7.58833C5.96311 7.56111 5.97334 7.46789 6.01052 7.37799C6.06252 7.25226 6.15323 7.14891 6.1986 7.09836C6.25962 7.03036 6.33427 6.95645 6.41524 6.88068C6.5782 6.72815 6.79368 6.54301 7.03977 6.34062C7.53356 5.93449 8.17465 5.4392 8.82122 4.9602C9.46761 4.48133 10.1266 4.01351 10.6563 3.66337C10.9201 3.48902 11.1596 3.33873 11.353 3.23001C11.4489 3.17613 11.5435 3.12681 11.6295 3.08931ZM13.4743 19.8653C15.4272 19.8583 17.3032 19.8374 18.8011 19.8027C19.7381 19.781 20.522 19.754 21.0827 19.722C21.3307 19.7078 21.5285 19.693 21.6738 19.678C21.7062 19.5239 21.7364 19.3078 21.7618 19.0391C21.8145 18.4817 21.8417 17.7543 21.8417 17.0151C21.8417 16.2761 21.8145 15.54 21.7617 14.9658C21.7352 14.6772 21.7032 14.4416 21.668 14.2715C21.6571 14.2187 21.6468 14.1767 21.6376 14.1443C21.6181 14.1357 21.5925 14.1252 21.5598 14.1129C21.4336 14.0658 21.2584 14.0146 21.041 13.9613C20.6082 13.8554 20.0601 13.7543 19.5131 13.666C18.9687 13.5781 18.4364 13.5046 18.0394 13.4531C17.8411 13.4274 17.6772 13.4071 17.563 13.3934L17.4312 13.3777L17.397 13.3738L17.3864 13.3726L16.8604 13.313L16.8735 12.7962L16.8765 12.6726C16.8783 12.5935 16.8809 12.4803 16.8838 12.3439C16.8869 12.1931 16.8904 11.3587 16.8937 10.5791C16.8963 9.94684 16.8988 9.35067 16.9008 9.18472C16.9054 8.81331 16.9076 8.44033 16.9043 8.15091C16.9026 8.00869 16.8997 7.89189 16.8954 7.80736C16.8671 7.77815 16.8301 7.7419 16.7836 7.69836C16.6465 7.57002 16.4524 7.40256 16.2144 7.20686C15.7401 6.81678 15.1154 6.33386 14.4791 5.86244C13.8426 5.39088 13.2015 4.93608 12.6948 4.6012C12.4404 4.43304 12.2275 4.30022 12.0695 4.21146C12.0439 4.19707 12.0208 4.18441 12 4.17335C11.9792 4.18441 11.9561 4.19707 11.9305 4.21146C11.7725 4.30022 11.5596 4.43304 11.3052 4.6012C10.7985 4.93608 10.1574 5.39088 9.52093 5.86244C8.88459 6.33386 8.25987 6.81678 7.78558 7.20686C7.54763 7.40256 7.35351 7.57002 7.21639 7.69836C7.16987 7.7419 7.13291 7.77815 7.1046 7.80736C7.10033 7.89189 7.09738 8.00869 7.09574 8.15091C7.09238 8.44033 7.0946 8.81331 7.09916 9.18472C7.1012 9.35067 7.1037 9.94685 7.10634 10.5791C7.10961 11.3587 7.1131 12.1931 7.11625 12.3439C7.1191 12.4803 7.12166 12.5935 7.12351 12.6726L7.12649 12.7962L7.13957 13.313L6.61362 13.3726L6.60304 13.3738L6.56883 13.3777L6.43699 13.3934C6.32282 13.4071 6.15887 13.4274 5.96062 13.4531C5.56363 13.5046 5.03132 13.5781 4.48685 13.666C3.93988 13.7543 3.39177 13.8554 2.95901 13.9613C2.74157 14.0146 2.56643 14.0658 2.44022 14.1129C2.40749 14.1252 2.38192 14.1357 2.36238 14.1443C2.35324 14.1767 2.34292 14.2187 2.33201 14.2715C2.29684 14.4416 2.26485 14.6772 2.2383 14.9658C2.18546 15.54 2.15834 16.2761 2.15834 17.0151C2.15834 17.7543 2.18548 18.4817 2.23817 19.0391C2.26358 19.3078 2.29375 19.5239 2.32623 19.678C2.47152 19.693 2.66932 19.7078 2.9173 19.722C3.47797 19.754 4.2619 19.781 5.19892 19.8027C6.70628 19.8377 8.59685 19.8586 10.5632 19.8654C10.5491 19.7453 10.5491 19.5919 10.5491 19.3915V17.275C10.5491 16.848 10.5491 16.6345 10.6848 16.5019C10.8206 16.3693 11.039 16.3693 11.4758 16.3693H12.5616C12.9985 16.3693 13.2169 16.3693 13.3526 16.5019C13.4883 16.6345 13.4883 16.848 13.4883 17.275V19.3915C13.4883 19.5919 13.4883 19.7452 13.4743 19.8653ZM2.37627 19.8552C2.37627 19.8552 2.3749 19.8513 2.37166 19.8453C2.37457 19.8524 2.37627 19.8552 2.37627 19.8552ZM21.6237 19.8552C21.6237 19.8552 21.6251 19.8513 21.6283 19.8453C21.6254 19.8524 21.6237 19.8552 21.6237 19.8552Z" stroke="#F2F6F9" stroke-width="2" mask="url(#path-1-inside-1_1_122)"/>
</svg>
