<svg width="24" height="24" viewBox="0 0 24 24" fill="none" xmlns="http://www.w3.org/2000/svg">
<path fill-rule="evenodd" clip-rule="evenodd" d="M14.3054 8.52955C12.7105 6.93459 10.1245 6.93459 8.52955 8.52955C6.93459 10.1245 6.93459 12.7105 8.52955 14.3054C10.1245 15.9004 12.7105 15.9004 14.3054 14.3054C15.9004 12.7105 15.9004 10.1245 14.3054 8.52955ZM7.58675 7.58675C9.70241 5.47108 13.1326 5.47108 15.2482 7.58675C17.2043 9.5428 17.3519 12.6225 15.6909 14.7481L17.8047 16.8619C18.0651 17.1223 18.0651 17.5444 17.8047 17.8047C17.5444 18.0651 17.1223 18.0651 16.8619 17.8047L14.7481 15.6909C12.6225 17.3519 9.5428 17.2043 7.58675 15.2482C5.47108 13.1326 5.47108 9.70241 7.58675 7.58675Z" fill="#F2F6F9"/>
</svg>
