<svg width="24" height="24" viewBox="0 0 24 24" fill="none" xmlns="http://www.w3.org/2000/svg">
<path fill-rule="evenodd" clip-rule="evenodd" d="M16.35 5.61801C13.3864 2.65446 8.58156 2.65446 5.61801 5.61801C2.65446 8.58156 2.65446 13.3864 5.61801 16.35C8.58156 19.3135 13.3864 19.3135 16.35 16.35C19.3135 13.3864 19.3135 8.58156 16.35 5.61801ZM4.63135 4.63135C8.13982 1.12288 13.8282 1.12288 17.3366 4.63135C20.6791 7.97381 20.8372 13.2947 17.8111 16.8244L21.7957 20.809C22.0681 21.0815 22.0681 21.5232 21.7957 21.7957C21.5232 22.0681 21.0815 22.0681 20.809 21.7957L16.8244 17.8111C13.2947 20.8372 7.97381 20.6791 4.63135 17.3366C1.12288 13.8282 1.12288 8.13982 4.63135 4.63135Z" fill="#F2F6F9"/>
</svg>
