<svg width="24" height="24" viewBox="0 0 24 24" fill="none" xmlns="http://www.w3.org/2000/svg">
<path fill-rule="evenodd" clip-rule="evenodd" d="M5.61801 5.61801C8.58156 2.65446 13.3864 2.65446 16.35 5.61801C19.3135 8.58156 19.3135 13.3864 16.35 16.35C13.3864 19.3135 8.58156 19.3135 5.61801 16.35C2.65446 13.3864 2.65446 8.58156 5.61801 5.61801ZM17.3366 4.63135C13.8282 1.12288 8.13982 1.12288 4.63135 4.63135C1.12288 8.13982 1.12288 13.8282 4.63135 17.3366C7.97381 20.6791 13.2947 20.8372 16.8244 17.8111L20.809 21.7957C21.0815 22.0681 21.5232 22.0681 21.7957 21.7957C22.0681 21.5232 22.0681 21.0815 21.7957 20.809L17.8111 16.8244C20.8372 13.2947 20.6791 7.97381 17.3366 4.63135ZM11 17C14.3137 17 17 14.3137 17 11C17 7.68629 14.3137 5 11 5C7.68629 5 5 7.68629 5 11C5 14.3137 7.68629 17 11 17Z" fill="#F2F6F9"/>
</svg>
