<svg width="24" height="24" viewBox="0 0 24 24" fill="none" xmlns="http://www.w3.org/2000/svg">
<path fill-rule="evenodd" clip-rule="evenodd" d="M16.7279 4.67796C16.7279 3.19896 17.9081 2 19.3639 2C20.8198 2 22 3.19896 22 4.67796C22 6.15695 20.8198 7.35591 19.3639 7.35591C17.9081 7.35591 16.7279 6.15695 16.7279 4.67796ZM19.3639 3.39535C18.6667 3.39535 18.1014 3.96959 18.1014 4.67796C18.1014 5.38632 18.6667 5.96056 19.3639 5.96056C20.0612 5.96056 20.6265 5.38632 20.6265 4.67796C20.6265 3.96959 20.0612 3.39535 19.3639 3.39535Z" fill="#F2F6F9"/>
<path fill-rule="evenodd" clip-rule="evenodd" d="M11.4861 19.322C11.4861 17.8431 12.6663 16.6441 14.1222 16.6441C15.578 16.6441 16.7582 17.8431 16.7582 19.322C16.7582 20.801 15.578 22 14.1222 22C12.6663 22 11.4861 20.801 11.4861 19.322ZM14.1222 18.0394C13.4249 18.0394 12.8596 18.6137 12.8596 19.322C12.8596 20.0304 13.4249 20.6047 14.1222 20.6047C14.8194 20.6047 15.3847 20.0304 15.3847 19.322C15.3847 18.6137 14.8194 18.0394 14.1222 18.0394Z" fill="#F2F6F9"/>
<path fill-rule="evenodd" clip-rule="evenodd" d="M6.89967 11.9999C6.89967 10.5209 8.07987 9.32195 9.53572 9.32195C10.9916 9.32195 12.1718 10.5209 12.1718 11.9999C12.1718 13.4789 10.9916 14.6779 9.53572 14.6779C8.07987 14.6779 6.89967 13.4789 6.89967 11.9999ZM9.53572 10.7173C8.83844 10.7173 8.27319 11.2915 8.27319 11.9999C8.27319 12.7083 8.83844 13.2825 9.53572 13.2825C10.233 13.2825 10.7983 12.7083 10.7983 11.9999C10.7983 11.2915 10.233 10.7173 9.53572 10.7173Z" fill="#F2F6F9"/>
<path d="M2.63884 4.02898C2.28602 4.02898 2 4.31955 2 4.67798C2 5.03641 2.28602 5.32698 2.63884 5.32698H14.5172C14.87 5.32698 15.1561 5.03641 15.1561 4.67798C15.1561 4.31955 14.87 4.02898 14.5172 4.02898H2.63884Z" fill="#F2F6F9"/>
<path d="M2.63884 11.351C2.28602 11.351 2 11.6416 2 12C2 12.3585 2.28602 12.649 2.63884 12.649H4.68884C5.04167 12.649 5.32769 12.3585 5.32769 12C5.32769 11.6416 5.04167 11.351 4.68884 11.351H2.63884Z" fill="#F2F6F9"/>
<path d="M14.3829 11.351C14.0301 11.351 13.744 11.6416 13.744 12C13.744 12.3585 14.0301 12.649 14.3829 12.649H20.6747C21.0275 12.649 21.3135 12.3585 21.3135 12C21.3135 11.6416 21.0275 11.351 20.6747 11.351H14.3829Z" fill="#F2F6F9"/>
<path d="M2.63884 18.6731C2.28602 18.6731 2 18.9636 2 19.3221C2 19.6805 2.28602 19.9711 2.63884 19.9711H9.27541C9.62824 19.9711 9.91426 19.6805 9.91426 19.3221C9.91426 18.9636 9.62824 18.6731 9.27541 18.6731H2.63884Z" fill="#F2F6F9"/>
<path d="M18.9695 18.6731C18.6166 18.6731 18.3306 18.9636 18.3306 19.3221C18.3306 19.6805 18.6166 19.9711 18.9695 19.9711H20.6747C21.0275 19.9711 21.3135 19.6805 21.3135 19.3221C21.3135 18.9636 21.0275 18.6731 20.6747 18.6731H18.9695Z" fill="#F2F6F9"/>
</svg>
