<svg width="24" height="24" viewBox="0 0 24 24" fill="none" xmlns="http://www.w3.org/2000/svg">
<path fill-rule="evenodd" clip-rule="evenodd" d="M10.4036 2.00005L10.3804 2.00003C10.2989 1.9999 10.1987 1.99974 10.1039 2.01248C9.54399 2.08774 9.08469 2.49324 8.94061 3.03954C8.91621 3.13203 8.90395 3.23143 8.89397 3.31235L8.89113 3.33532C8.82382 3.87406 8.79898 4.05145 8.76313 4.16955C8.51406 4.98996 7.67137 5.47654 6.83635 5.28214C6.71615 5.25416 6.54995 5.18693 6.04934 4.97574L6.02798 4.96671C5.95279 4.93485 5.86041 4.89571 5.768 4.87058C5.22301 4.72242 4.64244 4.91739 4.29736 5.36448C4.23885 5.44028 4.18885 5.52719 4.14815 5.59793L4.13658 5.61802L2.54074 8.38213L2.52914 8.40217C2.48827 8.4727 2.43805 8.55937 2.40169 8.64783C2.18691 9.17035 2.3084 9.77082 2.7094 10.1688C2.77729 10.2361 2.85724 10.2965 2.92233 10.3456L2.94081 10.3595C3.37369 10.6872 3.5149 10.7974 3.59923 10.8875C4.18514 11.5135 4.18513 12.4866 3.59921 13.1125C3.51487 13.2026 3.37368 13.3128 2.94082 13.6405L2.92235 13.6544C2.85729 13.7035 2.77732 13.7639 2.70943 13.8312C2.3084 14.2292 2.18691 14.8297 2.40171 15.3522C2.43807 15.4406 2.48827 15.5273 2.52913 15.5978L2.54073 15.6179L4.13658 18.382L4.14815 18.4021C4.18885 18.4728 4.23886 18.5597 4.29737 18.6355C4.64244 19.0826 5.22299 19.2776 5.76798 19.1294C5.86039 19.1043 5.95276 19.0652 6.02793 19.0333L6.04928 19.0243C6.54991 18.8131 6.71617 18.7459 6.83636 18.7179C7.67138 18.5235 8.51407 19.0101 8.76313 19.8305C8.79899 19.9486 8.82382 20.126 8.89112 20.6647L8.89397 20.6877C8.90395 20.7686 8.91621 20.868 8.9406 20.9605C9.08469 21.5068 9.54399 21.9123 10.104 21.9875C10.1987 22.0003 10.2989 22.0001 10.3804 22L10.4036 22H13.5953L13.6185 22C13.7 22.0001 13.8001 22.0003 13.8948 21.9875C14.4548 21.9123 14.9142 21.5067 15.0583 20.9604C15.0827 20.8679 15.0949 20.7686 15.1049 20.6877L15.1077 20.6648C15.175 20.1264 15.1998 19.949 15.2356 19.831C15.4847 19.0104 16.3276 18.5237 17.1627 18.7183C17.2829 18.7463 17.4488 18.8134 17.9486 19.0243L17.97 19.0334C18.045 19.0651 18.1371 19.1042 18.2293 19.1293C18.7745 19.2777 19.3555 19.0826 19.7006 18.6352C19.759 18.5596 19.8089 18.4728 19.8495 18.4023L19.861 18.3822L21.457 15.6179L21.4686 15.5978C21.5095 15.5273 21.5597 15.4406 21.596 15.3522C21.8108 14.8296 21.6893 14.2292 21.2883 13.8312C21.2204 13.7639 21.1405 13.7035 21.0754 13.6544L21.0569 13.6405C20.624 13.3128 20.4828 13.2026 20.3985 13.1125C19.8126 12.4865 19.8126 11.5134 20.3985 10.8875C20.4829 10.7974 20.624 10.6872 21.0569 10.3595L21.0754 10.3456C21.1404 10.2965 21.2204 10.2361 21.2883 10.1688C21.6893 9.77084 21.8108 9.17034 21.596 8.6478C21.5597 8.55934 21.5095 8.4727 21.4686 8.40216L21.457 8.38212L19.861 5.61786L19.8495 5.59781C19.8089 5.52719 19.759 5.44045 19.7006 5.36478C19.3554 4.91739 18.7746 4.72231 18.2293 4.87071C18.1371 4.89581 18.045 4.93486 17.97 4.96664L17.9487 4.97566C17.4488 5.18656 17.2828 5.25369 17.1627 5.28168C16.3276 5.47625 15.4847 4.98957 15.2356 4.16897C15.1998 4.05095 15.175 3.87366 15.1077 3.33526L15.1049 3.31228C15.0949 3.23141 15.0827 3.13206 15.0583 3.03964C14.9142 2.49325 14.4548 2.08769 13.8948 2.01247C13.8001 1.99974 13.7 1.9999 13.6185 2.00003L13.5953 2.00005H10.4036ZM14.9063 12C14.9063 13.6055 13.6048 14.907 11.9994 14.907C10.3939 14.907 9.09242 13.6055 9.09242 12C9.09242 10.3945 10.3939 9.09304 11.9994 9.09304C13.6048 9.09304 14.9063 10.3945 14.9063 12Z" fill="#F2F6F9"/>
</svg>
