<svg width="24" height="24" viewBox="0 0 24 24" fill="none" xmlns="http://www.w3.org/2000/svg">
<path fill-rule="evenodd" clip-rule="evenodd" d="M10.2904 3.39607L10.2899 3.39975C10.2866 3.42178 10.2828 3.45198 10.2757 3.50829C10.2726 3.53305 10.2696 3.55741 10.2666 3.58139C10.2123 4.01743 10.1738 4.32639 10.0983 4.57489C9.63577 6.09849 8.07076 7.00218 6.51995 6.64114C6.26702 6.58225 5.98001 6.46108 5.57491 6.29004C5.55263 6.28063 5.52999 6.27107 5.50698 6.26137C5.45461 6.23927 5.42648 6.22746 5.40571 6.21927L5.40223 6.21791L5.40029 6.22108C5.38868 6.24012 5.37341 6.26649 5.345 6.31569L3.74916 9.07978C3.72079 9.12892 3.70561 9.15531 3.69493 9.17486L3.69315 9.17814L3.69607 9.18047C3.7135 9.19434 3.73775 9.21275 3.78299 9.247C3.80289 9.26206 3.82247 9.27687 3.84174 9.29145C4.19218 9.55657 4.44048 9.74441 4.61794 9.934C5.70606 11.0965 5.70604 12.9036 4.6179 14.0661C4.44043 14.2557 4.19214 14.4435 3.84172 14.7086C3.82245 14.7232 3.80287 14.738 3.78298 14.753C3.73775 14.7873 3.71351 14.8057 3.69608 14.8195L3.69316 14.8219L3.69494 14.8251C3.70561 14.8447 3.72078 14.8711 3.74915 14.9202L5.345 17.6843C5.37341 17.7335 5.38868 17.7599 5.40029 17.7789L5.40223 17.7821L5.40569 17.7807C5.42646 17.7726 5.45458 17.7608 5.50694 17.7387C5.52996 17.729 5.55261 17.7194 5.5749 17.71C5.97999 17.5389 6.26705 17.4178 6.51998 17.3589C8.07078 16.9978 9.63577 17.9015 10.0983 19.4251C10.1738 19.6736 10.2123 19.9826 10.2666 20.4186C10.2696 20.4426 10.2726 20.467 10.2757 20.4917C10.2828 20.548 10.2866 20.5782 10.2899 20.6003L10.2904 20.6039L10.2941 20.604C10.3164 20.6046 10.3468 20.6046 10.4036 20.6046H13.5953C13.6521 20.6046 13.6825 20.6046 13.7047 20.604L13.7084 20.6039L13.709 20.6003C13.7123 20.5782 13.7161 20.5481 13.7231 20.4918C13.7262 20.467 13.7293 20.4427 13.7322 20.4187C13.7866 19.9829 13.825 19.6742 13.9004 19.4258C14.3629 17.9019 15.9283 16.998 17.4794 17.3594C17.7321 17.4183 18.0187 17.5393 18.4232 17.7101C18.4455 17.7195 18.4681 17.729 18.4911 17.7387C18.5433 17.7608 18.5713 17.7726 18.592 17.7807L18.5955 17.7821L18.5974 17.7789C18.609 17.7599 18.6242 17.7336 18.6526 17.6845L20.2486 14.9202C20.2769 14.8711 20.2921 14.8447 20.3028 14.8251L20.3046 14.8218L20.3016 14.8195C20.2842 14.8057 20.26 14.7872 20.2147 14.753C20.1948 14.7379 20.1752 14.7231 20.1559 14.7085C19.8056 14.4434 19.5572 14.2556 19.3798 14.066C18.2917 12.9035 18.2917 11.0964 19.3798 9.93392C19.5573 9.74433 19.8056 9.5565 20.156 9.29141C20.1753 9.27683 20.1948 9.26203 20.2147 9.24697C20.26 9.21273 20.2842 9.19432 20.3016 9.18046L20.3046 9.17812L20.3028 9.17485C20.2921 9.1553 20.2769 9.12892 20.2486 9.07978L18.6526 6.31552C18.6243 6.26642 18.609 6.2401 18.5974 6.22109L18.5955 6.21793L18.592 6.21928C18.5713 6.22744 18.5433 6.23922 18.4911 6.26126C18.4681 6.27096 18.4455 6.2805 18.4232 6.2899C18.0187 6.4607 17.7321 6.58174 17.4793 6.64062C15.9283 7.00198 14.3629 6.09811 13.9004 4.57417C13.825 4.32583 13.7866 4.01705 13.7322 3.58126C13.7293 3.55731 13.7262 3.53297 13.7231 3.50824C13.7161 3.45196 13.7123 3.42177 13.709 3.39975L13.7084 3.39607L13.7047 3.39597C13.6825 3.39544 13.6521 3.39539 13.5953 3.39539H10.4036C10.3468 3.39539 10.3164 3.39544 10.2941 3.39597L10.2904 3.39607ZM10.3804 2.00003C10.3883 2.00004 10.3961 2.00005 10.4036 2.00005H13.5953C13.6029 2.00005 13.6106 2.00004 13.6185 2.00003C13.7 1.9999 13.8001 1.99974 13.8948 2.01247C14.4548 2.08769 14.9142 2.49326 15.0583 3.03964C15.0827 3.13208 15.0949 3.23144 15.1049 3.31231C15.1059 3.32014 15.1068 3.3278 15.1077 3.33526C15.175 3.87366 15.1998 4.05095 15.2356 4.16897C15.4847 4.98957 16.3276 5.47625 17.1627 5.28168C17.2828 5.25369 17.4488 5.18656 17.9487 4.97566C17.9556 4.97274 17.9627 4.96973 17.97 4.96665C18.045 4.93486 18.1371 4.89581 18.2293 4.87071C18.7746 4.72231 19.3554 4.91739 19.7006 5.36477C19.759 5.44046 19.8089 5.5272 19.8495 5.59782C19.8534 5.60466 19.8573 5.61135 19.861 5.61786L21.457 8.38212C21.4607 8.38864 21.4646 8.39532 21.4686 8.40215C21.5094 8.4727 21.5597 8.55934 21.596 8.6478C21.8108 9.17034 21.6893 9.77084 21.2883 10.1688C21.2204 10.2361 21.1404 10.2965 21.0754 10.3456C21.0691 10.3503 21.0629 10.355 21.0569 10.3595C20.624 10.6872 20.4828 10.7974 20.3985 10.8875C19.8126 11.5134 19.8126 12.4865 20.3985 13.1125C20.4828 13.2026 20.624 13.3128 21.0569 13.6405C21.0629 13.645 21.0691 13.6497 21.0754 13.6544C21.1405 13.7035 21.2204 13.7639 21.2883 13.8312C21.6893 14.2292 21.8108 14.8296 21.596 15.3522C21.5597 15.4406 21.5094 15.5273 21.4686 15.5979C21.4646 15.6047 21.4607 15.6114 21.457 15.6179L19.861 18.3822C19.8573 18.3887 19.8534 18.3954 19.8495 18.4022C19.8089 18.4728 19.759 18.5596 19.7006 18.6352C19.3555 19.0826 18.7745 19.2777 18.2293 19.1293C18.1371 19.1042 18.0449 19.0651 17.9699 19.0333C17.9627 19.0303 17.9556 19.0273 17.9486 19.0243C17.4488 18.8134 17.2829 18.7463 17.1627 18.7183C16.3276 18.5237 15.4847 19.0104 15.2356 19.831C15.1998 19.949 15.175 20.1264 15.1077 20.6648C15.1068 20.6722 15.1058 20.6799 15.1049 20.6877C15.0949 20.7686 15.0826 20.8679 15.0583 20.9604C14.9142 21.5067 14.4548 21.9123 13.8948 21.9875C13.8001 22.0003 13.7 22.0001 13.6185 22C13.6106 22 13.6029 21.9999 13.5953 21.9999H10.4036C10.3961 21.9999 10.3883 22 10.3804 22C10.2989 22.0001 10.1987 22.0003 10.104 21.9875C9.54399 21.9123 9.08469 21.5068 8.9406 20.9605C8.91621 20.868 8.90395 20.7686 8.89397 20.6877C8.893 20.6798 8.89206 20.6721 8.89112 20.6647C8.82382 20.126 8.79899 19.9486 8.76313 19.8305C8.51407 19.0101 7.67138 18.5235 6.83636 18.7179C6.71617 18.7459 6.54991 18.8131 6.04929 19.0243C6.04232 19.0272 6.03519 19.0303 6.0279 19.0333C5.95273 19.0652 5.86038 19.1043 5.76798 19.1294C5.223 19.2776 4.64245 19.0826 4.29737 18.6355C4.23885 18.5597 4.18885 18.4728 4.14814 18.4021C4.1442 18.3952 4.14035 18.3885 4.13658 18.382L2.54073 15.6179C2.53697 15.6113 2.5331 15.6047 2.52914 15.5978C2.48827 15.5273 2.43807 15.4407 2.40171 15.3522C2.18691 14.8297 2.3084 14.2292 2.70943 13.8312C2.77733 13.7639 2.85729 13.7035 2.92235 13.6544C2.92866 13.6497 2.93482 13.645 2.94082 13.6405C3.37368 13.3128 3.51487 13.2026 3.59921 13.1125C4.18513 12.4866 4.18514 11.5135 3.59923 10.8875C3.5149 10.7974 3.37369 10.6872 2.94081 10.3595C2.9348 10.355 2.92863 10.3503 2.92233 10.3456C2.85724 10.2965 2.77729 10.2361 2.7094 10.1688C2.3084 9.77082 2.18691 9.17035 2.40169 8.64783C2.43805 8.55937 2.48827 8.4727 2.52914 8.40217C2.5331 8.39533 2.53697 8.38865 2.54074 8.38213L4.13658 5.61802C4.14035 5.6115 4.14421 5.60479 4.14815 5.59794C4.18885 5.52719 4.23885 5.44028 4.29736 5.36448C4.64244 4.91739 5.22301 4.72242 5.768 4.87058C5.86041 4.89571 5.95279 4.93485 6.02798 4.96671C6.03527 4.96979 6.04239 4.97281 6.04934 4.97574C6.54995 5.18693 6.71615 5.25416 6.83635 5.28214C7.67137 5.47654 8.51406 4.98996 8.76313 4.16955C8.79898 4.05145 8.82382 3.87406 8.89113 3.33532C8.89206 3.32785 8.893 3.32019 8.89397 3.31235C8.90395 3.23143 8.91621 3.13203 8.94061 3.03954C9.08469 2.49324 9.54399 2.08774 10.1039 2.01248C10.1987 1.99974 10.2989 1.9999 10.3804 2.00003ZM8.39465 12C8.39465 10.0092 10.0085 8.39537 11.9993 8.39537C13.9901 8.39537 15.6039 10.0092 15.6039 12C15.6039 13.9908 13.9901 15.6046 11.9993 15.6046C10.0085 15.6046 8.39465 13.9908 8.39465 12ZM11.9993 9.79071C10.7791 9.79071 9.79001 10.7798 9.79001 12C9.79001 13.2202 10.7791 14.2093 11.9993 14.2093C13.2194 14.2093 14.2085 13.2202 14.2085 12C14.2085 10.7798 13.2194 9.79071 11.9993 9.79071Z" fill="#F2F6F9"/>
</svg>
