<svg width="24" height="24" viewBox="0 0 24 24" fill="none" xmlns="http://www.w3.org/2000/svg">
<path d="M2 13.2353C2 12.5756 2 12.2457 2.16077 12C2.26609 11.839 2.41758 11.7054 2.6 11.6124C2.87846 11.4706 3.25224 11.4706 3.9998 11.4706C4.66468 11.4706 5.3904 11.4706 6 11.4706C7.6 11.4706 8.8 9 12 9C15.2 9 16.4 11.4706 18 11.4706C18.6096 11.4706 19.3353 11.4706 20.0002 11.4706C20.7478 11.4706 21.1215 11.4706 21.4 11.6124C21.5824 11.7054 21.7339 11.839 21.8392 12C22 12.2457 22 12.5756 22 13.2353C22 13.895 22 14.2249 21.8392 14.4706C21.7339 14.6315 21.5824 14.7652 21.4 14.8581C21.1215 15 20.7477 15 20 15H4C3.25231 15 2.87846 15 2.6 14.8581C2.41758 14.7652 2.26609 14.6315 2.16077 14.4706C2 14.2249 2 13.895 2 13.2353Z" fill="white"/>
</svg>
