<svg width="24" height="24" viewBox="0 0 24 24" fill="none" xmlns="http://www.w3.org/2000/svg">
<path fill-rule="evenodd" clip-rule="evenodd" d="M10.8881 2.64471C11.3763 1.7851 12.6237 1.7851 13.1119 2.64471L15.7361 7.26497L20.9749 8.31395C21.9496 8.50911 22.3351 9.6864 21.6622 10.4128L18.0452 14.3173L18.6588 19.5859C18.7729 20.5661 17.7638 21.2937 16.8596 20.8831L12 18.6759L7.14039 20.8831C6.23625 21.2937 5.22708 20.5661 5.34124 19.5859L5.95482 14.3173L2.33784 10.4128C1.66489 9.68641 2.05035 8.50911 3.02505 8.31395L8.26388 7.26497L10.8881 2.64471ZM12 3.7826L9.54083 8.11232C9.35869 8.43301 9.04497 8.6592 8.68135 8.73201L3.77196 9.71502L7.16149 13.374C7.41255 13.645 7.53238 14.0109 7.48979 14.3766L6.91479 19.3139L11.4688 17.2455C11.8061 17.0923 12.1939 17.0923 12.5312 17.2455L17.0852 19.3139L16.5102 14.3766C16.4676 14.0109 16.5875 13.645 16.8385 13.374L20.228 9.71502L15.3187 8.73201C14.955 8.6592 14.6413 8.43301 14.4592 8.11232L12 3.7826Z" fill="#F2F6F9"/>
</svg>
