<svg width="24" height="24" viewBox="0 0 24 24" fill="none" xmlns="http://www.w3.org/2000/svg">
<path d="M22 3L16.6248 4.40639L18.0811 5.82843L15.1411 8.69925C14.8054 9.02709 14.6039 9.22169 14.441 9.34308C14.3663 9.3987 14.3229 9.42071 14.302 9.42924C14.2971 9.43121 14.2938 9.43234 14.2918 9.43296L14.2892 9.43368L14.2866 9.43296C14.2846 9.43234 14.2812 9.43121 14.2763 9.42924C14.2554 9.42071 14.212 9.3987 14.1374 9.34308C13.9744 9.22169 13.773 9.02709 13.4372 8.69925L12.2775 7.5668C11.9825 7.27873 11.7121 7.01461 11.4625 6.82866C11.1877 6.62389 10.855 6.44867 10.4337 6.44867C10.0125 6.44867 9.6798 6.62389 9.40495 6.82866C9.15536 7.01461 8.88493 7.27873 8.58998 7.56681L2.21173 13.795C1.92942 14.0706 1.92942 14.5176 2.21173 14.7933C2.49404 15.0689 2.95175 15.0689 3.23405 14.7933L9.5818 8.59486C9.91754 8.26703 10.119 8.07242 10.2819 7.95104C10.3566 7.89542 10.4 7.87341 10.4209 7.86488C10.4258 7.8629 10.4291 7.86177 10.4311 7.86116L10.4337 7.86044L10.4363 7.86116C10.4383 7.86177 10.4417 7.8629 10.4466 7.86488C10.4675 7.87341 10.5109 7.89542 10.5855 7.95104C10.7485 8.07242 10.9499 8.26703 11.2857 8.59486L12.4454 9.72731C12.7404 10.0154 13.0108 10.2795 13.2604 10.4655C13.5352 10.6702 13.8679 10.8454 14.2892 10.8454C14.7104 10.8454 15.0431 10.6702 15.318 10.4655C15.5675 10.2795 15.838 10.0154 16.1329 9.72732L19.1034 6.8267L20.5597 8.24873L22 3Z" fill="#F2F6F9"/>
<path d="M9.04235 20.307C9.04481 20.7016 9.36652 21.0119 9.76092 21C10.1553 20.9881 10.473 20.6587 10.4706 20.2641L10.4285 13.7098C10.426 13.3171 10.107 13 9.71424 13C9.31804 13 8.99755 13.3225 9.00001 13.7187L9.04235 20.307Z" fill="#F2F6F9"/>
<path d="M14.0424 20.307C14.0448 20.7016 14.3665 21.0119 14.7609 21C15.1553 20.9881 15.473 20.6587 15.4706 20.2641L15.4495 18.0903L15.4285 15.7098C15.426 15.3171 15.107 15 14.7142 15C14.318 15 13.9975 15.3225 14 15.7187L14.0424 20.307Z" fill="#F2F6F9"/>
<path d="M4.04235 20.307C4.04481 20.7016 4.36652 21.0119 4.76092 21C5.15531 20.9881 5.47304 20.6587 5.47058 20.2641L5.42846 18.7098C5.42601 18.3171 5.10696 18 4.71424 18C4.31804 18 3.99755 18.3225 4.00001 18.7187L4.04235 20.307Z" fill="#F2F6F9"/>
<path d="M19.0424 20.307C19.0448 20.7016 19.3665 21.0119 19.7609 21C20.1553 20.9881 20.473 20.6587 20.4706 20.2641L20.4285 11.7098C20.426 11.3171 20.107 11 19.7142 11C19.318 11 18.9975 11.3225 19 11.7187L19.0424 20.307Z" fill="#F2F6F9"/>
</svg>
