<svg width="24" height="24" viewBox="0 0 24 24" fill="none" xmlns="http://www.w3.org/2000/svg">
<path fill-rule="evenodd" clip-rule="evenodd" d="M11.9221 2.64093C11.9535 3.02496 11.6676 3.36171 11.2835 3.39306C8.89138 3.5884 6.59526 4.78438 5.06247 6.87956C2.25523 10.7168 3.07744 16.113 6.89601 18.9313C10.7127 21.7482 16.0806 20.925 18.8864 17.0896C21.4585 13.5738 20.9838 8.74932 17.9491 5.79799L17.5496 8.13431C17.4847 8.51411 17.1242 8.76936 16.7444 8.70443C16.3646 8.6395 16.1093 8.27897 16.1743 7.89917L16.7795 4.35899C16.8327 4.04796 17.088 3.81134 17.4022 3.78193L21.2373 3.42291C21.6209 3.38699 21.961 3.66888 21.9969 4.05251C22.0328 4.43615 21.7509 4.77626 21.3673 4.81218L19.144 5.02031C22.4715 8.46568 22.9359 13.9177 20.0126 17.9135C16.7514 22.3713 10.5074 23.3309 6.06742 20.054C1.62926 16.7784 0.676436 10.5116 3.93632 6.05569C5.71757 3.62089 8.38986 2.22936 11.17 2.00235C11.554 1.97099 11.8908 2.25689 11.9221 2.64093ZM12 5.72095C12.3853 5.72095 12.6977 6.03331 12.6977 6.41862V11.711L15.7491 14.7625C16.0216 15.0349 16.0216 15.4767 15.7491 15.7491C15.4767 16.0216 15.0349 16.0216 14.7625 15.7491L11.5067 12.4933C11.3758 12.3625 11.3023 12.185 11.3023 12V6.41862C11.3023 6.03331 11.6147 5.72095 12 5.72095Z" fill="#F2F6F9"/>
</svg>
