<svg width="24" height="24" viewBox="0 0 24 24" fill="none" xmlns="http://www.w3.org/2000/svg">
<path fill-rule="evenodd" clip-rule="evenodd" d="M12.5485 12.4485V7.19757C12.5485 6.75703 12.1914 6.3999 11.7509 6.3999C11.3103 6.3999 10.9532 6.75703 10.9532 7.19757V12.7789C10.9532 12.9905 11.0372 13.1934 11.1868 13.343L14.4426 16.5988C14.7541 16.9103 15.2592 16.9103 15.5707 16.5988C15.8822 16.2873 15.8822 15.7822 15.5707 15.4707L12.5485 12.4485Z" fill="#F2F6F9"/>
<path fill-rule="evenodd" clip-rule="evenodd" d="M22 12C22 13.3559 21.7302 14.6487 21.2413 15.8277C20.7344 17.05 19.9922 18.15 19.0711 19.0711C18.15 19.9921 17.0501 20.7343 15.8279 21.2412C14.6489 21.7301 13.3559 22 12 22C10.6441 22 9.35125 21.7302 8.1722 21.2412C6.94997 20.7344 5.85002 19.9922 4.92893 19.0711C4.00783 18.15 3.26559 17.05 2.75876 15.8278C2.26984 14.6487 2 13.3559 2 12C2 10.6441 2.26987 9.35114 2.75884 8.17204C3.26567 6.94987 4.00788 5.84998 4.92893 4.92893C5.85004 4.00782 6.95001 3.26557 8.17228 2.75874C9.35131 2.26984 10.6441 2 12 2C13.3559 2 14.6488 2.26986 15.8279 2.7588C17.0501 3.26563 18.15 4.00786 19.0711 4.92893C19.9921 5.85 20.7344 6.94991 21.2412 8.1721C21.7301 9.35118 22 10.6441 22 12ZM12 3.5C13.1553 3.5 14.2532 3.72965 15.2533 4.14439C16.291 4.57471 17.2264 5.20556 18.0104 5.98959C18.7944 6.77361 19.4253 7.70898 19.8556 8.74668C20.2703 9.74682 20.5 10.8447 20.5 12C20.5 13.1552 20.2704 14.2531 19.8557 15.2532C19.4253 16.2909 18.7945 17.2263 18.0104 18.0104C17.2264 18.7944 16.291 19.4253 15.2534 19.8556C14.2532 20.2703 13.1553 20.5 12 20.5C10.8447 20.5 9.74688 20.2704 8.74677 19.8556C7.70903 19.4253 6.77364 18.7945 5.98959 18.0104C5.20554 17.2264 4.57468 16.2909 4.14436 15.2532C3.72964 14.2531 3.5 13.1553 3.5 12C3.5 10.8447 3.72967 9.74679 4.14442 8.74663C4.57474 7.70895 5.20558 6.7736 5.98959 5.98959C6.77365 5.20553 7.70907 4.57466 8.74683 4.14434C9.74693 3.72963 10.8448 3.5 12 3.5Z" fill="#F2F6F9"/>
</svg>
