<svg width="24" height="24" viewBox="0 0 24 24" fill="none" xmlns="http://www.w3.org/2000/svg">
<path fill-rule="evenodd" clip-rule="evenodd" d="M3.63025 8.13026C3.63025 5.73548 5.57161 3.79413 7.96639 3.79413C8.35623 3.79413 8.67227 4.11016 8.67227 4.50001C8.67227 4.88986 8.35623 5.20589 7.96639 5.20589C6.3513 5.20589 5.04202 6.51518 5.04202 8.13026C5.04202 9.34824 5.78681 10.3939 6.84853 10.8336C7.20872 10.9827 7.37981 11.3956 7.23066 11.7558C7.08151 12.116 6.66861 12.2871 6.30842 12.1379C4.7375 11.4874 3.63025 9.93899 3.63025 8.13026ZM15.3277 4.50001C15.3277 4.11016 15.6438 3.79413 16.0336 3.79413C18.4284 3.79413 20.3697 5.73548 20.3697 8.13026C20.3697 9.93899 19.2625 11.4874 17.6916 12.1379C17.3314 12.2871 16.9185 12.116 16.7693 11.7558C16.6202 11.3956 16.7913 10.9827 17.1515 10.8336C18.2132 10.3939 18.958 9.34824 18.958 8.13026C18.958 6.51518 17.6487 5.20589 16.0336 5.20589C15.6438 5.20589 15.3277 4.88986 15.3277 4.50001ZM12 6.01262C10.3849 6.01262 9.07563 7.3219 9.07563 8.93698C9.07563 10.5521 10.3849 11.8614 12 11.8614C13.6151 11.8614 14.9244 10.5521 14.9244 8.93698C14.9244 7.3219 13.6151 6.01262 12 6.01262ZM7.66387 8.93698C7.66387 6.5422 9.60522 4.60085 12 4.60085C14.3948 4.60085 16.3361 6.5422 16.3361 8.93698C16.3361 11.3318 14.3948 13.2731 12 13.2731C9.60522 13.2731 7.66387 11.3318 7.66387 8.93698ZM5.43491 14.1596C5.50181 14.5437 5.2447 14.9093 4.86063 14.9762C3.72124 15.1746 2.85319 15.5098 2.28001 15.9909C1.73833 16.4456 1.41176 17.0691 1.41176 17.9992C1.41176 18.0839 1.43396 18.1604 1.56891 18.2659C1.73137 18.3929 2.02252 18.5262 2.48655 18.6393C2.8653 18.7317 3.09747 19.1136 3.00512 19.4924C2.91276 19.8711 2.53086 20.1033 2.15211 20.0109C1.60708 19.878 1.09152 19.6846 0.699516 19.3782C0.279998 19.0503 0 18.5868 0 17.9992C0 16.6735 0.494903 15.6461 1.37237 14.9096C2.21832 14.1995 3.36708 13.8033 4.61836 13.5853C5.00243 13.5184 5.36801 13.7755 5.43491 14.1596ZM18.5651 14.1596C18.632 13.7755 18.9976 13.5184 19.3816 13.5853C20.6329 13.8033 21.7817 14.1995 22.6276 14.9096C23.5051 15.6461 24 16.6735 24 17.9992C24 18.5868 23.72 19.0503 23.3005 19.3782C22.9085 19.6846 22.3929 19.878 21.8479 20.0109C21.4691 20.1033 21.0872 19.8711 20.9949 19.4924C20.9025 19.1136 21.1347 18.7317 21.5135 18.6393C21.9775 18.5262 22.2686 18.3929 22.4311 18.2659C22.566 18.1604 22.5882 18.0839 22.5882 17.9992C22.5882 17.0691 22.2617 16.4456 21.72 15.9909C21.1468 15.5098 20.2788 15.1746 19.1394 14.9762C18.7553 14.9093 18.4982 14.5437 18.5651 14.1596ZM5.88631 17.2574C5.61355 17.6429 5.44538 18.1398 5.44538 18.8059C5.44538 18.8925 5.46677 18.9926 5.68686 19.1316C5.93719 19.2896 6.36044 19.4333 6.98705 19.5423C8.23067 19.7587 9.9841 19.7941 12 19.7941C14.0159 19.7941 15.7693 19.7587 17.013 19.5423C17.6396 19.4333 18.0628 19.2896 18.3131 19.1316C18.5332 18.9926 18.5546 18.8925 18.5546 18.8059C18.5546 18.1398 18.3864 17.6429 18.1137 17.2574C17.8368 16.866 17.418 16.5417 16.8441 16.2832C15.6734 15.7561 13.9849 15.5588 12 15.5588C10.0151 15.5588 8.32656 15.7561 7.15587 16.2832C6.58198 16.5417 6.16322 16.866 5.88631 17.2574ZM6.57622 14.996C8.03332 14.3399 9.97499 14.1471 12 14.1471C14.025 14.1471 15.9667 14.3399 17.4238 14.996C18.1638 15.3292 18.8083 15.7948 19.2662 16.442C19.7282 17.0951 19.9664 17.8856 19.9664 18.8059C19.9664 19.499 19.5814 20.0005 19.0667 20.3254C18.5823 20.6312 17.9422 20.8136 17.255 20.9332C15.8708 21.174 13.994 21.2059 12 21.2059C10.006 21.2059 8.12921 21.174 6.74505 20.9332C6.05776 20.8136 5.41773 20.6312 4.93327 20.3254C4.41855 20.0005 4.03361 19.499 4.03361 18.8059C4.03361 17.8856 4.27177 17.0951 4.73381 16.442C5.19171 15.7948 5.83622 15.3292 6.57622 14.996Z" fill="#F2F6F9"/>
</svg>
