<svg width="24" height="24" viewBox="0 0 24 24" fill="none" xmlns="http://www.w3.org/2000/svg">
<path fill-rule="evenodd" clip-rule="evenodd" d="M12 22C17.5228 22 22 17.5228 22 12C22 6.47715 17.5228 2 12 2C6.47715 2 2 6.47715 2 12C2 17.5228 6.47715 22 12 22ZM6.35773 10.5418C7.79568 9.12158 9.84335 8.30435 12 8.30435C14.1567 8.30435 16.2043 9.12158 17.6423 10.5418L18.2607 11.1525C18.7512 11.637 18.7512 12.363 18.2607 12.8475L17.6423 13.4582C16.2043 14.8784 14.1567 15.6957 12 15.6957C9.84335 15.6957 7.79568 14.8784 6.35773 13.4582L5.73934 12.8475C5.24879 12.363 5.24879 11.637 5.73934 11.1525L6.35773 10.5418ZM12 7C9.48373 7 7.07527 7.95268 5.36988 9.63701L4.75148 10.2478C3.74951 11.2374 3.74951 12.7626 4.75148 13.7522L5.36988 14.363C7.07527 16.0473 9.48373 17 12 17C14.5163 17 16.9247 16.0473 18.6301 14.363L19.2485 13.7522C20.2505 12.7626 20.2505 11.2374 19.2485 10.2478L18.6301 9.63701C16.9247 7.95268 14.5163 7 12 7ZM10.5335 12C10.5335 11.3278 11.1524 10.7198 12 10.7198C12.8477 10.7198 13.4665 11.3278 13.4665 12C13.4665 12.6722 12.8477 13.2802 12 13.2802C11.1524 13.2802 10.5335 12.6722 10.5335 12ZM12 9.41546C10.4704 9.41546 9.1621 10.5377 9.1621 12C9.1621 13.4623 10.4704 14.5845 12 14.5845C13.5296 14.5845 14.8379 13.4623 14.8379 12C14.8379 10.5377 13.5296 9.41546 12 9.41546Z" fill="#F2F6F9"/>
</svg>
