<svg width="24" height="24" viewBox="0 0 24 24" fill="none" xmlns="http://www.w3.org/2000/svg">
<path fill-rule="evenodd" clip-rule="evenodd" d="M12 8.30435C9.84335 8.30435 7.79568 9.12158 6.35773 10.5418L5.73934 11.1525C5.24879 11.637 5.24879 12.363 5.73934 12.8475L6.35773 13.4582C7.79568 14.8784 9.84335 15.6957 12 15.6957C14.1567 15.6957 16.2043 14.8784 17.6423 13.4582L18.2607 12.8475C18.7512 12.363 18.7512 11.637 18.2607 11.1525L17.6423 10.5418C16.2043 9.12158 14.1567 8.30435 12 8.30435ZM5.36988 9.63701C7.07527 7.95268 9.48373 7 12 7C14.5163 7 16.9247 7.95268 18.6301 9.63701L19.2485 10.2478C20.2505 11.2374 20.2505 12.7626 19.2485 13.7522L18.6301 14.363C16.9247 16.0473 14.5163 17 12 17C9.48373 17 7.07527 16.0473 5.36988 14.363L4.75148 13.7522C3.74951 12.7626 3.74951 11.2374 4.75148 10.2478L5.36988 9.63701ZM12 10.7198C11.1524 10.7198 10.5335 11.3278 10.5335 12C10.5335 12.6722 11.1524 13.2802 12 13.2802C12.8477 13.2802 13.4665 12.6722 13.4665 12C13.4665 11.3278 12.8477 10.7198 12 10.7198ZM9.1621 12C9.1621 10.5377 10.4704 9.41546 12 9.41546C13.5296 9.41546 14.8379 10.5377 14.8379 12C14.8379 13.4623 13.5296 14.5845 12 14.5845C10.4704 14.5845 9.1621 13.4623 9.1621 12Z" fill="#F2F6F9"/>
</svg>
