<svg width="24" height="24" viewBox="0 0 24 24" fill="none" xmlns="http://www.w3.org/2000/svg">
<path fill-rule="evenodd" clip-rule="evenodd" d="M8.18012 3H14.666C15.9284 2.99999 16.946 2.99997 17.7462 3.10756C18.5771 3.21927 19.2767 3.45825 19.8323 4.01387C20.3879 4.56948 20.6269 5.26906 20.7386 6.09993C20.792 6.49742 20.8189 6.94852 20.8325 7.4566C20.7575 7.44627 20.6813 7.4376 20.6038 7.43023C20.1238 7.3846 19.5298 7.3846 18.8033 7.38461H16.8891C16.1626 7.3846 15.5685 7.3846 15.0885 7.43023C14.5908 7.47756 14.1447 7.5788 13.7402 7.8267C13.3365 8.07406 12.9971 8.41345 12.7498 8.81712C12.5019 9.22164 12.4006 9.66769 12.3533 10.1654C12.3077 10.6454 12.3077 11.2394 12.3077 11.9659V12.034C12.3077 12.7605 12.3077 13.3546 12.3533 13.8346C12.4006 14.3323 12.5019 14.7784 12.7498 15.1829C12.9971 15.5865 13.3365 15.9259 13.7402 16.1733C14.1447 16.4212 14.5908 16.5224 15.0885 16.5698C15.5685 16.6154 16.1626 16.6154 16.8891 16.6154H18.8032C19.5298 16.6154 20.1238 16.6154 20.6038 16.5698C20.6813 16.5624 20.7575 16.5537 20.8325 16.5434C20.8189 17.0515 20.792 17.5026 20.7386 17.9001C20.6269 18.7309 20.3879 19.4305 19.8323 19.9861C19.2767 20.5418 18.5771 20.7807 17.7462 20.8924C16.946 21 15.9284 21 14.666 21H8.18013C6.91773 21 5.90021 21 5.09993 20.8924C4.26906 20.7807 3.56948 20.5418 3.01387 19.9861C2.45825 19.4305 2.21927 18.7309 2.10756 17.9001C1.99997 17.0998 1.99999 16.0823 2 14.82V9.18007C1.99999 7.91774 1.99997 6.90018 2.10756 6.09993C2.21927 5.26906 2.45825 4.56948 3.01387 4.01387C3.56948 3.45825 4.26906 3.21927 5.09993 3.10756C5.90018 2.99997 6.91779 2.99999 8.18012 3ZM20.8438 8.86316C20.7416 8.84095 20.6201 8.82264 20.4727 8.80863C20.066 8.76996 19.538 8.76923 18.7692 8.76923H16.9231C16.1543 8.76923 15.6263 8.76996 15.2196 8.80863C14.8232 8.84632 14.6141 8.91511 14.4637 9.00727C14.2463 9.14047 14.0635 9.32322 13.9303 9.54058C13.8382 9.69098 13.7694 9.9001 13.7317 10.2965C13.693 10.7032 13.6923 11.2312 13.6923 12C13.6923 12.7688 13.693 13.2968 13.7317 13.7035C13.7694 14.0999 13.8382 14.309 13.9303 14.4594C14.0635 14.6768 14.2463 14.8595 14.4637 14.9927C14.6141 15.0849 14.8232 15.1537 15.2196 15.1914C15.6263 15.23 16.1543 15.2308 16.9231 15.2308H18.7692C19.538 15.2308 20.066 15.23 20.4727 15.1914C20.6201 15.1774 20.7416 15.159 20.8438 15.1368C21.0165 15.0993 21.1342 15.0506 21.2287 14.9927C21.446 14.8595 21.6288 14.6768 21.762 14.4594C21.8541 14.309 21.9229 14.0999 21.9606 13.7035C21.9993 13.2968 22 12.7688 22 12C22 11.2312 21.9993 10.7032 21.9606 10.2965C21.9229 9.9001 21.8541 9.69098 21.762 9.54058C21.6288 9.32322 21.446 9.14047 21.2287 9.00727C21.1342 8.94937 21.0165 8.90069 20.8438 8.86316ZM15.3077 12C15.3077 11.2353 15.9276 10.6154 16.6923 10.6154C17.457 10.6154 18.0769 11.2353 18.0769 12C18.0769 12.7647 17.457 13.3846 16.6923 13.3846C15.9276 13.3846 15.3077 12.7647 15.3077 12Z" fill="#F2F6F9"/>
</svg>
