<svg width="24" height="24" viewBox="0 0 24 24" fill="none" xmlns="http://www.w3.org/2000/svg">
<path d="M14.7766 12C14.7766 11.3627 15.3005 10.8462 15.9468 10.8462C16.5931 10.8462 17.117 11.3627 17.117 12C17.117 12.6373 16.5931 13.1538 15.9468 13.1538C15.3005 13.1538 14.7766 12.6373 14.7766 12Z" fill="#F2F6F9"/>
<path fill-rule="evenodd" clip-rule="evenodd" d="M14.3599 3H7.76778C6.4875 2.99998 5.45551 2.99997 4.64389 3.10756C3.80124 3.21927 3.09174 3.45825 2.52824 4.01386C1.96475 4.56948 1.72238 5.26905 1.60909 6.09992C1.49997 6.90019 1.49998 7.91771 1.5 9.18008V14.8199C1.49998 16.0823 1.49997 17.0998 1.60909 17.9001C1.72238 18.7309 1.96475 19.4305 2.52824 19.9861C3.09174 20.5418 3.80124 20.7807 4.64389 20.8924C5.45552 21 6.48748 21 7.76778 21H14.3599C15.6402 21 16.6721 21 17.4838 20.8924C18.3264 20.7807 19.0359 20.5418 19.5994 19.9861C20.0947 19.4977 20.343 18.8968 20.4725 18.1903C20.5732 17.6407 20.608 16.9914 20.6204 16.2349C21.0416 16.1345 21.4236 15.959 21.746 15.6411C22.1724 15.2207 22.3462 14.6975 22.4252 14.118C22.5 13.569 22.5 12.8774 22.5 12.048V11.952C22.5 11.1226 22.5 10.4311 22.4252 9.88202C22.3462 9.30252 22.1724 8.77932 21.746 8.35888C21.4236 8.04102 21.0416 7.86547 20.6204 7.76508C20.608 7.00857 20.5732 6.35931 20.4725 5.8097C20.343 5.10319 20.0947 4.50225 19.5994 4.01386C19.0359 3.45825 18.3264 3.21927 17.4838 3.10756C16.6721 2.99997 15.6402 2.99998 14.3599 3ZM18.0869 16.3846C18.4968 16.3846 18.8724 16.3846 19.2131 16.3765C19.1988 17.0295 19.1656 17.535 19.0906 17.944C18.9933 18.4749 18.836 18.7807 18.6065 19.0071C18.3474 19.2625 17.9836 19.4291 17.2967 19.5202C16.5895 19.6139 15.6523 19.6154 14.3085 19.6154H7.81915C6.47536 19.6154 5.53814 19.6139 4.83101 19.5202C4.14407 19.4291 3.7803 19.2625 3.5212 19.0071C3.26211 18.7516 3.09318 18.3929 3.00082 17.7156C2.90575 17.0183 2.90426 16.0942 2.90426 14.7692V9.23077C2.90426 7.90577 2.90575 6.98167 3.00082 6.28442C3.09318 5.60709 3.26211 5.24841 3.5212 4.99293C3.7803 4.73746 4.14407 4.57089 4.83101 4.47983C5.53814 4.38609 6.47536 4.38462 7.81915 4.38462H14.3085C15.6523 4.38462 16.5895 4.38609 17.2967 4.47983C17.9836 4.57089 18.3474 4.73746 18.6065 4.99293C18.836 5.2193 18.9933 5.52507 19.0906 6.05597C19.1656 6.46496 19.1988 6.97055 19.2131 7.62347C18.8724 7.61538 18.4968 7.61538 18.0869 7.61539L16.1322 7.61539C15.291 7.61536 14.5896 7.61533 14.0328 7.68915C13.4451 7.76706 12.9145 7.93845 12.4881 8.35888C12.0617 8.77932 11.8879 9.30252 11.8089 9.88202C11.734 10.431 11.734 11.1226 11.734 11.952V12.048C11.734 12.8774 11.734 13.569 11.8089 14.118C11.8879 14.6975 12.0617 15.2207 12.4881 15.6411C12.9145 16.0616 13.4451 16.2329 14.0328 16.3109C14.5896 16.3847 15.291 16.3846 16.1321 16.3846L18.0869 16.3846ZM13.481 9.33795C13.603 9.21766 13.7879 9.11869 14.2199 9.06142C14.6721 9.00147 15.2784 9 16.1809 9H18.0532C18.8471 9 19.4149 9.00077 19.8556 9.0434C20.4035 9.09641 20.6173 9.20414 20.753 9.33795C20.875 9.45825 20.9754 9.64055 21.0335 10.0665C21.0943 10.5124 21.0957 11.1101 21.0957 12C21.0957 12.8899 21.0943 13.4876 21.0335 13.9335C20.9754 14.3594 20.875 14.5418 20.753 14.662C20.6173 14.7959 20.4035 14.9036 19.8556 14.9566C19.4149 14.9992 18.8471 15 18.0532 15H16.1809C15.2784 15 14.6721 14.9985 14.2199 14.9386C13.7879 14.8813 13.603 14.7823 13.481 14.662C13.359 14.5418 13.2587 14.3594 13.2006 13.9335C13.1398 13.4876 13.1383 12.8899 13.1383 12C13.1383 11.1101 13.1398 10.5124 13.2006 10.0665C13.2587 9.64055 13.359 9.45825 13.481 9.33795Z" fill="#F2F6F9"/>
</svg>
