<svg width="24" height="24" viewBox="0 0 24 24" fill="none" xmlns="http://www.w3.org/2000/svg">
<path d="M2.36559 20.1329C2.02189 18.7589 1.85005 18.0719 2.1675 17.5377C2.48495 17.0034 3.16772 16.8305 4.53328 16.4847L17.929 13.0923C19.2945 12.7464 19.9773 12.5735 20.5083 12.8929C21.0393 13.2124 21.2111 13.8994 21.5548 15.2734L21.6344 15.5915C21.9781 16.9655 22.15 17.6525 21.8325 18.1867C21.5151 18.721 20.8323 18.8939 19.4667 19.2397L6.07102 22.6321C4.70547 22.978 4.02269 23.1509 3.4917 22.8315C2.9607 22.5121 2.78886 21.8251 2.44516 20.4511L2.36559 20.1329Z" fill="#F2F6F9"/>
<path fill-rule="evenodd" clip-rule="evenodd" d="M4.40046 1.04101C4.68096 0.999911 5.02578 0.999955 5.40186 1H18.4206C18.7967 0.999955 19.1415 0.999911 19.422 1.04101C19.7309 1.08628 20.0574 1.19278 20.3259 1.48544C20.5944 1.77811 20.6922 2.13396 20.7337 2.47063C20.7714 2.77634 20.7714 3.15221 20.7713 3.5621L20.7713 10.8119L15.8922 12.0324L17.8283 9.97124C18.0857 9.69713 18.0906 9.24742 17.8391 8.96678C17.5876 8.68614 17.175 8.68085 16.9175 8.95496L13.4539 12.6424L11.1326 13.223L17.8283 6.09482C18.0857 5.82071 18.0906 5.37099 17.8391 5.09036C17.5876 4.80972 17.175 4.80443 16.9175 5.07854L8.69428 13.833L3.0512 15.2446L3.0512 3.5621C3.05115 3.15218 3.05111 2.77635 3.08882 2.47063C3.13035 2.13396 3.22806 1.77811 3.49658 1.48544C3.7651 1.19278 4.09158 1.08628 4.40046 1.04101ZM7.82577 4.12125C8.07726 4.40189 8.07241 4.8516 7.81493 5.12571L6.90463 6.09482C6.64715 6.36893 6.23455 6.36364 5.98306 6.083C5.73157 5.80236 5.73642 5.35265 5.9939 5.07854L6.9042 4.10943C7.16168 3.83532 7.57428 3.84061 7.82577 4.12125ZM11.4561 5.12571C11.7136 4.8516 11.7185 4.40189 11.467 4.12125C11.2155 3.84061 10.8029 3.83532 10.5454 4.10943L5.9939 8.95496C5.73642 9.22907 5.73157 9.67879 5.98306 9.95942C6.23455 10.2401 6.64715 10.2453 6.90463 9.97124L11.4561 5.12571ZM15.1082 4.12125C15.3597 4.40189 15.3548 4.8516 15.0974 5.12571L6.90463 13.8477C6.64715 14.1218 6.23455 14.1165 5.98306 13.8358C5.73157 13.5552 5.73642 13.1055 5.9939 12.8314L14.1866 4.10943C14.4441 3.83532 14.8567 3.84061 15.1082 4.12125Z" fill="#F2F6F9"/>
</svg>
