<svg width="24" height="24" viewBox="0 0 24 24" fill="none" xmlns="http://www.w3.org/2000/svg">
<path fill-rule="evenodd" clip-rule="evenodd" d="M12 7.08771C10.1932 7.08771 8.61468 8.07425 7.76921 9.54436C7.35409 10.2662 7.11628 11.1041 7.11628 12C7.11628 12.8959 7.35409 13.7338 7.76921 14.4556C8.61468 15.9257 10.1932 16.9123 12 16.9123C13.8068 16.9123 15.3853 15.9257 16.2308 14.4556C16.6459 13.7338 16.8837 12.8959 16.8837 12C16.8837 11.1041 16.6459 10.2662 16.2308 9.54436C15.3853 8.07425 13.8068 7.08771 12 7.08771ZM6.7283 8.56769C7.84643 6.83357 9.7894 5.6842 12 5.6842C14.2106 5.6842 16.1536 6.83357 17.2717 8.56769L20.7039 9.28652C21.4589 9.44464 22 10.1139 22 10.8896V13.1104C22 13.8861 21.4589 14.5554 20.7039 14.7135L17.2717 15.4323C16.1536 17.1664 14.2106 18.3158 12 18.3158C9.7894 18.3158 7.84643 17.1664 6.7283 15.4323L3.29607 14.7135C2.54109 14.5554 2 13.8861 2 13.1104V10.8896C2 10.1139 2.54109 9.44464 3.29607 9.28652L6.7283 8.56769ZM5.9932 10.1553L3.5805 10.6606C3.47265 10.6831 3.39535 10.7788 3.39535 10.8896V13.1104C3.39535 13.2212 3.47265 13.3168 3.5805 13.3394L5.9932 13.8447C5.81614 13.2608 5.72093 12.6412 5.72093 12C5.72093 11.3587 5.81614 10.7392 5.9932 10.1553ZM18.0068 13.8447L20.4195 13.3394C20.5274 13.3168 20.6047 13.2212 20.6047 13.1104V10.8896C20.6047 10.7788 20.5274 10.6831 20.4195 10.6606L18.0068 10.1553C18.1839 10.7392 18.2791 11.3587 18.2791 12C18.2791 12.6412 18.1839 13.2608 18.0068 13.8447ZM12 8.02339C12.3853 8.02339 12.6977 8.33757 12.6977 8.72514V11.7093L13.8887 12.9073C14.1611 13.1813 14.1611 13.6257 13.8887 13.8997C13.6162 14.1738 13.1745 14.1738 12.902 13.8997L11.3023 12.2907V8.72514C11.3023 8.33757 11.6147 8.02339 12 8.02339Z" fill="#F2F6F9"/>
</svg>
