<svg width="24" height="24" viewBox="0 0 24 24" fill="none" xmlns="http://www.w3.org/2000/svg">
<path fill-rule="evenodd" clip-rule="evenodd" d="M12.4035 3.43199C12.1378 3.3826 11.8651 3.38314 11.5996 3.4336L10.5261 3.63761L10.4838 11.294C10.4816 11.6962 10.41 12.095 10.2723 12.4731L9.58254 14.3672L11.3655 14.9112C11.7789 15.0373 12.2211 15.0373 12.6345 14.9112L14.4175 14.3672L13.7304 12.4806C13.5905 12.0964 13.5189 11.6909 13.5189 11.2821V3.63936L12.4035 3.43199ZM14.9142 5.36555C15.3789 5.72408 15.9335 5.96795 16.5334 6.06266L16.996 6.1357C17.725 6.2508 18.341 6.7266 18.6322 7.39301L20.1523 10.8712C20.2221 11.031 20.3092 11.1827 20.4119 11.3237C20.7376 11.7709 20.6413 12.3953 20.1902 12.7256L19.3645 13.3301C19.0837 13.5358 18.7542 13.6678 18.4071 13.7132L15.7889 14.0555L15.0415 12.0031C14.9572 11.7718 14.9142 11.5278 14.9142 11.2821V5.36555ZM15.4728 15.5041L18.588 15.0967C19.1672 15.021 19.7181 14.8007 20.1889 14.456L21.0146 13.8514C22.0836 13.0686 22.3204 11.5739 21.5397 10.5022C21.4966 10.4429 21.4601 10.3793 21.4309 10.3125L19.9108 6.83423C19.4273 5.72785 18.4089 4.94615 17.2136 4.75743L16.751 4.68439C15.9966 4.56528 15.3653 4.06049 15.0874 3.36149L14.8648 2.80169C14.7763 2.57899 14.5797 2.41732 14.344 2.37352L12.6585 2.06015C12.2224 1.97907 11.7749 1.97997 11.3391 2.06278L9.70141 2.37403C9.47181 2.41766 9.27931 2.57336 9.18864 2.78875L8.93351 3.39486C8.64744 4.07444 8.02516 4.56184 7.28593 4.67856L6.78641 4.75743C5.5911 4.94615 4.57271 5.72785 4.08919 6.83423L2.56913 10.3125C2.53991 10.3793 2.50343 10.4429 2.46026 10.5022C1.67963 11.5739 1.91642 13.0686 2.98543 13.8514L3.81113 14.456C4.28195 14.8007 4.8328 15.021 5.41204 15.0967L8.52717 15.5041L10.9583 16.2458C11.6371 16.4529 12.3629 16.4529 13.0417 16.2458L15.4728 15.5041ZM8.21107 14.0555L8.96125 11.9956C9.04416 11.768 9.08717 11.5281 9.08851 11.2862L9.12126 5.36086C8.65654 5.71896 8.1024 5.96228 7.50354 6.05683L7.00401 6.1357C6.27503 6.2508 5.659 6.7266 5.36776 7.39301L3.8477 10.8712C3.77786 11.031 3.69081 11.1827 3.58813 11.3237C3.26239 11.7709 3.35868 12.3953 3.80977 12.7256L4.63546 13.3301C4.91634 13.5358 5.24576 13.6678 5.59294 13.7132L8.21107 14.0555ZM5.66327 16.4483C6.0322 16.3371 6.42139 16.5461 6.53255 16.915C6.9159 18.1873 7.6135 19.0937 8.52375 19.6897C9.44216 20.2911 10.6213 20.6047 12 20.6047C13.3782 20.6047 14.5322 20.2913 15.4261 19.6935C16.3126 19.1005 16.9928 18.195 17.3785 16.915C17.4896 16.5461 17.8788 16.3371 18.2477 16.4483C18.6167 16.5594 18.8256 16.9486 18.7145 17.3176C18.2452 18.8751 17.3839 20.0626 16.2018 20.8533C15.0271 21.6391 13.5854 22 12 22C10.4151 22 8.95408 21.6393 7.75938 20.8571C6.55652 20.0694 5.66815 18.8828 5.19654 17.3176C5.08538 16.9486 5.29434 16.5594 5.66327 16.4483Z" fill="#F2F6F9"/>
</svg>
