<svg width="24" height="24" viewBox="0 0 24 24" fill="none" xmlns="http://www.w3.org/2000/svg">
<path d="M14.4178 14.3672L14.9145 15.6744L13.0417 16.2458C12.3629 16.4529 11.6371 16.4529 10.9583 16.2458L9.08851 15.6753L9.58284 14.3672L10.2726 12.4731C10.4103 12.095 10.4819 11.6962 10.4841 11.294L10.5264 3.63761L10.5261 2.21729L11.3391 2.06278C11.7749 1.97997 12.2224 1.97907 12.6585 2.06015L13.5191 2.22015V11.2821C13.5191 11.6909 13.5908 12.0964 13.7307 12.4806L14.4178 14.3672Z" fill="#F2F6F9"/>
<path d="M6.53255 16.915C6.42139 16.5461 6.0322 16.3371 5.66327 16.4483C5.29434 16.5594 5.08538 16.9486 5.19654 17.3176C5.66815 18.8828 6.55652 20.0694 7.75938 20.8571C8.95408 21.6393 10.4151 22 12 22C13.5854 22 15.0271 21.6391 16.2018 20.8533C17.3839 20.0626 18.2452 18.8751 18.7145 17.3176C18.8256 16.9486 18.6167 16.5594 18.2477 16.4483C17.8788 16.3371 17.4896 16.5461 17.3785 16.915C16.9928 18.195 16.3126 19.1005 15.4261 19.6935C14.5322 20.2913 13.3782 20.6047 12 20.6047C10.6213 20.6047 9.44216 20.2911 8.52375 19.6897C7.6135 19.0937 6.9159 18.1873 6.53255 16.915Z" fill="#F2F6F9"/>
<path d="M18.588 15.0967C19.1672 15.021 19.7181 14.8007 20.1889 14.456L21.0146 13.8514C22.0836 13.0686 22.3204 11.5739 21.5397 10.5022C21.4966 10.4429 21.4601 10.3793 21.4309 10.3125L19.9108 6.83423C19.4273 5.72785 18.4089 4.94615 17.2136 4.75743L16.751 4.68439C15.9966 4.56528 15.3653 4.06049 15.0874 3.36149C15.0874 3.36149 14.9145 4.58001 14.9145 5.36555C14.9145 7.63115 14.9145 11.2821 14.9145 11.2821C14.9145 11.5278 14.9575 11.7718 15.0418 12.0031L15.7892 14.0555L16.4028 15.3825L18.588 15.0967Z" fill="#F2F6F9"/>
<path d="M8.93351 3.39486C8.64744 4.07444 8.02516 4.56184 7.28593 4.67856L6.78641 4.75743C5.5911 4.94615 4.57271 5.72785 4.08919 6.83423L2.56913 10.3125C2.53991 10.3793 2.50343 10.4429 2.46026 10.5022C1.67963 11.5739 1.91642 13.0686 2.98543 13.8514L3.81113 14.456C4.28195 14.8007 4.8328 15.021 5.41204 15.0967L7.69404 15.3951L8.21136 14.0555L8.96155 11.9956C9.04446 11.768 9.08747 11.5281 9.0888 11.2862C9.0888 11.2862 9.12156 7.70836 9.12156 5.36086C9.12156 4.58958 8.93351 3.39486 8.93351 3.39486Z" fill="#F2F6F9"/>
</svg>
